<svg width="400" height="320" viewBox="0 0 400 320" fill="none" xmlns="http://www.w3.org/2000/svg">
<g clip-path="url(#clip0_5377_11556)">
<path d="M319.331 58.2891C317.253 80.8714 311.333 104.683 302.049 127.658C290.569 156.07 274.883 181.095 256.688 200.028L255.678 199.159C273.785 180.318 289.399 155.403 300.832 127.109C311.165 101.54 317.31 74.9314 318.613 50.1719L319.903 50.3849C319.766 52.9999 319.576 55.6346 319.331 58.2891Z" fill="#C2C2C2"/>
<path d="M327.605 189.443C302.049 229.547 271.043 258.201 240.3 270.127L239.678 269.003C270.208 257.159 301.032 228.651 326.472 188.73L327.605 189.443Z" fill="#C2C2C2"/>
<path d="M318.71 86.4044C316.632 108.987 310.712 132.798 301.428 155.774C289.947 184.185 274.262 209.21 256.066 228.143L255.057 227.275C273.164 208.433 288.778 183.518 300.211 155.224C310.544 129.655 316.689 103.047 317.992 78.2871L319.282 78.5002C319.145 81.1151 318.955 83.7498 318.71 86.4044Z" fill="#C2C2C2"/>
<path d="M31.8054 144.38H15.0372C14.679 144.381 14.3252 144.301 14.0025 144.148C13.6797 143.995 13.3963 143.771 13.1736 143.494C12.9536 143.225 12.7984 142.909 12.7196 142.572C12.6408 142.235 12.6405 141.884 12.7187 141.546C14.3157 134.596 14.2154 127.371 12.426 120.466C12.3128 120.011 12.3402 119.533 12.5046 119.094C12.669 118.655 12.9629 118.275 13.3484 118.002C21.9706 111.885 28.7609 112.062 33.5307 118.53C33.7458 118.825 33.8886 119.165 33.948 119.523C35.2225 127.08 35.293 134.788 34.1571 142.366C34.0781 142.926 33.7964 143.438 33.364 143.808C32.9316 144.178 32.3779 144.381 31.8054 144.38Z" fill="#E8E6E6"/>
<path d="M26.6077 127.817H20.8394C20.5204 127.817 20.2145 127.692 19.989 127.469C19.7634 127.247 19.6367 126.945 19.6367 126.631C19.6367 126.316 19.7634 126.014 19.989 125.792C20.2145 125.569 20.5204 125.444 20.8394 125.444H26.6077C26.9262 125.445 27.2315 125.57 27.4565 125.793C27.6815 126.015 27.8078 126.316 27.8078 126.631C27.8078 126.945 27.6815 127.246 27.4565 127.469C27.2315 127.691 26.9262 127.816 26.6077 127.817Z" fill="white"/>
<path d="M26.6077 131.978H20.8394C20.5204 131.978 20.2145 131.853 19.989 131.631C19.7634 131.408 19.6367 131.106 19.6367 130.792C19.6367 130.477 19.7634 130.175 19.989 129.953C20.2145 129.73 20.5204 129.605 20.8394 129.605H26.6077C26.9262 129.606 27.2315 129.731 27.4565 129.954C27.6815 130.176 27.8078 130.478 27.8078 130.792C27.8078 131.106 27.6815 131.407 27.4565 131.63C27.2315 131.852 26.9262 131.977 26.6077 131.978Z" fill="white"/>
<path d="M26.6077 136.138H20.8394C20.5204 136.138 20.2145 136.013 19.989 135.791C19.7634 135.568 19.6367 135.267 19.6367 134.952C19.6367 134.637 19.7634 134.336 19.989 134.113C20.2145 133.891 20.5204 133.766 20.8394 133.766H26.6077C26.9262 133.766 27.2315 133.892 27.4565 134.114C27.6815 134.336 27.8078 134.638 27.8078 134.952C27.8078 135.266 27.6815 135.567 27.4565 135.79C27.2315 136.012 26.9262 136.138 26.6077 136.138Z" fill="white"/>
<path d="M336.55 218.227H319.781C319.423 218.228 319.069 218.149 318.747 217.996C318.424 217.842 318.14 217.619 317.918 217.342C317.698 217.072 317.542 216.757 317.464 216.42C317.385 216.082 317.385 215.732 317.463 215.394C319.06 208.444 318.96 201.218 317.17 194.313C317.057 193.859 317.084 193.381 317.249 192.942C317.413 192.503 317.707 192.122 318.093 191.849C326.715 185.733 333.505 185.91 338.275 192.378C338.49 192.672 338.633 193.012 338.692 193.371C339.967 200.928 340.037 208.635 338.901 216.214C338.822 216.773 338.541 217.286 338.108 217.656C337.676 218.026 337.122 218.229 336.55 218.227Z" fill="#E8E6E6"/>
<path d="M331.351 201.665H325.583C325.264 201.664 324.959 201.539 324.734 201.316C324.509 201.094 324.383 200.792 324.383 200.478C324.383 200.164 324.509 199.863 324.734 199.64C324.959 199.418 325.264 199.293 325.583 199.292H331.351C331.67 199.292 331.976 199.417 332.202 199.639C332.427 199.862 332.554 200.164 332.554 200.478C332.554 200.793 332.427 201.095 332.202 201.317C331.976 201.54 331.67 201.665 331.351 201.665Z" fill="white"/>
<path d="M331.351 205.825H325.583C325.264 205.824 324.959 205.699 324.734 205.476C324.509 205.254 324.383 204.953 324.383 204.638C324.383 204.324 324.509 204.023 324.734 203.8C324.959 203.578 325.264 203.453 325.583 203.452H331.351C331.67 203.452 331.976 203.577 332.202 203.8C332.427 204.022 332.554 204.324 332.554 204.638C332.554 204.953 332.427 205.255 332.202 205.477C331.976 205.7 331.67 205.825 331.351 205.825Z" fill="white"/>
<path d="M331.351 209.985H325.583C325.264 209.984 324.959 209.859 324.734 209.637C324.509 209.414 324.383 209.113 324.383 208.799C324.383 208.484 324.509 208.183 324.734 207.961C324.959 207.738 325.264 207.613 325.583 207.612H331.351C331.67 207.612 331.976 207.737 332.202 207.96C332.427 208.182 332.554 208.484 332.554 208.799C332.554 209.113 332.427 209.415 332.202 209.637C331.976 209.86 331.67 209.985 331.351 209.985Z" fill="white"/>
<path d="M400 319.382C400 319.463 399.984 319.543 399.953 319.619C399.921 319.694 399.875 319.762 399.817 319.82C399.758 319.877 399.689 319.923 399.613 319.954C399.537 319.985 399.455 320.001 399.373 320H0.627415C0.461015 320 0.301435 319.935 0.183772 319.819C0.0661095 319.703 0 319.546 0 319.382C0 319.217 0.0661095 319.06 0.183772 318.944C0.301435 318.828 0.461015 318.763 0.627415 318.763H399.373C399.455 318.762 399.537 318.778 399.613 318.809C399.689 318.84 399.758 318.886 399.817 318.943C399.875 319.001 399.921 319.069 399.953 319.144C399.984 319.22 400 319.3 400 319.382Z" fill="#C2C2C2"/>
<path d="M105.185 281.49L104.14 267.143C97.2889 263.765 89.7058 262.088 82.0488 262.257C92.8212 270.47 91.9583 286.885 99.4188 298.119C101.773 301.605 104.892 304.524 108.545 306.66C112.199 308.795 116.292 310.093 120.523 310.456L129.488 315.543C130.514 308.857 130.058 302.031 128.151 295.536C126.245 289.041 122.934 283.031 118.445 277.919C115.899 275.077 112.999 272.561 109.816 270.433C107.856 275.983 105.185 281.49 105.185 281.49Z" fill="#C2C2C2"/>
<path d="M294.815 283.57L295.861 269.223C302.711 265.845 310.295 264.168 317.952 264.337C307.179 272.55 308.042 288.965 300.582 300.199C298.228 303.685 295.108 306.604 291.455 308.74C287.802 310.875 283.708 312.173 279.477 312.536L270.512 317.623C269.487 310.937 269.943 304.112 271.849 297.616C273.755 291.121 277.067 285.111 281.555 279.999C284.101 277.157 287.001 274.641 290.185 272.513C292.144 278.063 294.815 283.57 294.815 283.57Z" fill="#C2C2C2"/>
<path d="M195.256 121.661C200.788 121.661 205.273 117.237 205.273 111.78C205.273 106.323 200.788 101.899 195.256 101.899C189.723 101.899 185.238 106.323 185.238 111.78C185.238 117.237 189.723 121.661 195.256 121.661Z" fill="#E82E2D"/>
<path d="M200.398 107.662C200.247 107.521 200.047 107.441 199.839 107.441C199.63 107.441 199.43 107.521 199.279 107.662C197.154 109.334 195.245 111.258 193.595 113.39C193.19 112.617 192.785 111.844 192.38 111.07C191.912 110.178 190.547 110.966 191.014 111.858C191.606 112.989 192.199 114.119 192.791 115.25C192.863 115.365 192.963 115.461 193.083 115.527C193.202 115.593 193.337 115.628 193.474 115.628C193.611 115.628 193.746 115.593 193.866 115.527C193.985 115.461 194.085 115.365 194.157 115.25C195.915 112.808 198.016 110.624 200.398 108.766C200.545 108.619 200.627 108.42 200.627 108.214C200.627 108.007 200.545 107.809 200.398 107.662Z" fill="white"/>
<path d="M150.432 139.8L135.326 116.4L152.819 107.159L157.41 125.012L189.759 142.254C191.036 141.801 192.419 141.724 193.74 142.033C195.061 142.341 196.262 143.022 197.197 143.993C198.132 144.963 198.761 146.181 199.006 147.498C199.252 148.815 199.104 150.173 198.58 151.408C198.056 152.644 197.179 153.702 196.056 154.454C194.933 155.206 193.613 155.619 192.256 155.644C190.899 155.669 189.564 155.303 188.414 154.592C187.263 153.881 186.348 152.856 185.778 151.64L150.432 139.8Z" fill="#A0616A"/>
<path d="M124.289 88.3336C119.543 95.2074 136.41 120.193 136.41 120.193C137.232 118.446 145.087 138.065 146.403 136.906C150.142 133.612 155.995 124.437 159.249 124.028C161.11 123.795 154.934 110.778 154.934 110.778C154.934 110.778 152.111 103.092 148.281 93.2742C147.25 90.4787 145.519 87.9858 143.249 86.0276C140.979 84.0694 138.243 82.7096 135.297 82.0747C135.297 82.0747 129.036 81.4598 124.289 88.3336Z" fill="#2F2F2F"/>
<path d="M124.521 312.285L131.695 312.284L135.108 284.989L124.52 284.99L124.521 312.285Z" fill="#A0616A"/>
<path d="M122.689 309.974L124.709 309.974L132.593 306.812L136.818 309.973H136.819C139.207 309.974 141.497 310.909 143.185 312.575C144.874 314.24 145.822 316.499 145.823 318.854V319.143L122.69 319.144L122.689 309.974Z" fill="black"/>
<path d="M157.851 312.285L165.025 312.284L168.438 284.989L157.85 284.99L157.851 312.285Z" fill="#A0616A"/>
<path d="M156.02 309.974L158.039 309.974L165.923 306.812L170.148 309.973H170.149C172.537 309.974 174.827 310.909 176.515 312.575C178.204 314.24 179.153 316.499 179.153 318.854V319.143L156.02 319.144L156.02 309.974Z" fill="black"/>
<path d="M160.955 163.062L114.291 164.213C105.428 168.961 105.293 179.238 108.197 191.439C108.197 191.439 107.217 198.691 109.178 200.625C111.138 202.559 112.118 202.559 111.138 205.943C110.158 209.327 115.337 214.855 114.708 215.475C114.079 216.096 112.609 219.48 112.609 219.48L117.51 247.038C117.51 247.038 120.941 294.901 121.921 295.868C122.902 296.835 123.882 295.868 122.902 298.285C121.921 300.702 120.941 299.736 121.921 300.702C122.79 301.626 123.608 302.594 124.372 303.603H136.223C136.223 303.603 137.116 298.769 137.116 298.285C137.116 297.802 138.096 294.901 138.096 294.417C138.096 293.934 137.23 293.079 137.23 293.079C136.931 292.097 136.728 291.087 136.626 290.066C136.626 289.099 133.685 251.872 133.685 251.872L139.567 203.526L153.781 250.905C153.781 250.905 153.781 292.484 154.762 293.45C155.742 294.417 155.742 293.934 155.252 295.868C154.761 297.802 152.801 297.318 154.271 298.769C155.742 300.219 156.232 297.802 155.742 300.219L155.252 302.636L169.956 302.844C169.956 302.844 171.917 298.769 170.936 297.318C169.956 295.868 170.015 296.264 171.211 293.89C172.407 291.517 172.897 291.033 172.407 290.55C171.917 290.066 171.917 287.495 171.917 287.495L169.466 241.236C169.466 241.236 168.976 192.406 168.976 190.956C168.939 190.209 169.078 189.465 169.383 188.781V186.812L167.505 179.836L160.955 163.062Z" fill="black"/>
<path d="M132.925 67.3544C140.932 67.3544 147.424 60.9515 147.424 53.0532C147.424 45.1548 140.932 38.752 132.925 38.752C124.917 38.752 118.426 45.1548 118.426 53.0532C118.426 60.9515 124.917 67.3544 132.925 67.3544Z" fill="#A0616A"/>
<path d="M140.173 76.8063C143.297 78.6379 145.166 82.0034 146.238 85.428C148.224 91.7683 149.419 98.3236 149.798 104.949L150.931 124.784L164.962 167.02C152.801 177.169 107.092 169.326 107.092 169.326C107.092 169.326 105.689 168.865 107.092 167.481C108.496 166.097 109.862 167.323 108.458 165.939C107.055 164.555 108.023 166.097 108.49 164.713C108.958 163.329 108.49 164.252 108.023 163.79C107.555 163.329 111.643 159.177 111.643 159.177L107.902 134.934L103.225 86.0328C108.837 79.1129 120.125 75.0336 120.125 75.0336L123.041 69.8555L137.624 71.0062L140.173 76.8063Z" fill="#2F2F2F"/>
<path d="M144.876 45.455C146.003 46.284 146.838 47.4408 147.263 48.7624C147.426 46.6026 147.437 44.4341 147.294 42.2729C147.123 40.7541 146.039 40.4125 144.784 40.0167C143.65 39.6591 142.368 39.2551 142.023 37.7807C137.466 33.4075 129.532 33.628 124.102 35.1535C121.114 35.9929 119.395 37.0714 119.242 37.7032L119.21 37.8333L119.088 37.8931C116.785 39.0289 116.337 42.6156 116.367 45.4244C116.423 50.7163 118.275 56.7266 119.319 57.2149C119.374 57.2407 119.388 57.2306 119.412 57.2109C120.983 55.9723 122.9 57.3051 123.743 58.0296C124.24 54.7406 125.84 51.7106 128.287 49.4238C130.735 47.1369 133.889 45.7249 137.245 45.4134C138.341 45.3089 139.429 45.1291 140.499 44.8752C141.043 44.7366 141.601 44.6643 142.162 44.66C143.128 44.6455 144.075 44.923 144.876 45.455Z" fill="black"/>
<path d="M234.883 174.458L262.774 146.522L270.122 124.179L258.297 119.461C252.439 125.289 246.409 143.131 246.409 143.131L227.373 168.332C227.221 168.387 227.07 168.446 226.92 168.516C226.044 168.924 225.289 169.548 224.729 170.328C224.168 171.108 223.821 172.018 223.721 172.969C223.622 173.92 223.772 174.88 224.158 175.757C224.545 176.633 225.154 177.397 225.927 177.974C226.7 178.551 227.61 178.921 228.571 179.049C229.531 179.177 230.509 179.059 231.409 178.705C232.31 178.352 233.103 177.775 233.711 177.031C234.32 176.287 234.724 175.401 234.883 174.458Z" fill="#FFB8B8"/>
<path d="M255.072 122.017L270.026 126.284L270.082 126.273C275.579 125.22 279.927 116.21 282.607 108.836C283.488 106.404 283.401 103.733 282.362 101.362C281.323 98.9915 279.41 97.0983 277.01 96.0653C275.235 95.3151 273.282 95.0697 271.372 95.3569C269.463 95.6442 267.672 96.4525 266.204 97.6906L258.748 104.023L255.072 122.017Z" fill="#E82E2D"/>
<path d="M242.276 311.455L234.234 311.454L230.408 280.857L242.277 280.858L242.276 311.455Z" fill="#FFB8B8"/>
<path d="M244.329 308.865L242.065 308.864L233.227 305.319L228.49 308.864H228.49C225.813 308.864 223.246 309.913 221.353 311.78C219.46 313.647 218.397 316.179 218.396 318.819V319.143L244.328 319.144L244.329 308.865Z" fill="black"/>
<path d="M277.962 311.455L269.919 311.454L266.094 280.857L277.963 280.858L277.962 311.455Z" fill="#FFB8B8"/>
<path d="M280.014 308.865L277.751 308.864L268.913 305.319L264.176 308.864H264.175C261.499 308.864 258.931 309.913 257.039 311.78C255.146 313.647 254.082 316.179 254.082 318.819V319.143L280.014 319.144L280.014 308.865Z" fill="black"/>
<path d="M290.226 179.661C290.226 179.661 291.165 190.776 288.817 201.428C286.469 212.081 286.469 242.081 286.469 242.081L281.304 300.54L265.81 299.151L261.584 201.428L246.558 234.311L247.967 238.943L246.091 240.101C246.091 240.101 247.497 249.132 246.558 249.132C245.619 249.132 243.272 250.521 243.272 250.521L245.15 298.225L229.185 297.761L223.551 230.606L229.655 192.166L230.124 184.755L232.237 184.841L233.313 181.745L235.289 176.419L290.226 179.661Z" fill="black"/>
<path d="M291.037 181.996L291.12 181.88C295.59 175.708 288.868 160.878 287.854 158.728L292.124 157.361L291.163 149.299L290.707 145.704L293.971 142.485L293.98 142.405L295.858 126.195L298.589 115.429C299.618 111.359 299.53 107.092 298.335 103.066C297.139 99.0404 294.88 95.401 291.787 92.5215L285.475 86.6511L277.804 75.4551H265.433L261.191 83.3578C257.079 84.2953 253.43 86.6262 250.881 89.9442C248.331 93.2623 247.043 97.3574 247.24 101.516L248.201 122.243L244.438 148.049L244.436 152.719L240.2 157.362L241.125 161.923L237.902 163.286L236.479 169.837C235.89 170.603 232.002 175.716 232.002 177.114C232.002 177.324 232.159 177.527 232.496 177.752C235.145 179.521 249.789 183.129 256.27 180.571C263.174 177.848 290.618 181.933 290.894 181.974L291.037 181.996Z" fill="#E82E2D"/>
<path d="M270.02 71.841C279.069 71.841 286.404 64.6058 286.404 55.6808C286.404 46.7557 279.069 39.5205 270.02 39.5205C260.972 39.5205 253.637 46.7557 253.637 55.6808C253.637 64.6058 260.972 71.841 270.02 71.841Z" fill="#FFB8B8"/>
<path d="M268.451 72.1019C270.988 72.0763 273.519 71.837 276.015 71.3866C278.486 70.8251 283.938 66.6668 285.424 64.2102C286.528 62.385 287.19 59.5618 287.552 57.515C288.04 54.8062 287.946 52.0264 287.276 49.3558C286.605 46.6851 285.374 44.183 283.661 42.0116C283.001 41.1019 282.103 40.3852 281.064 39.9372C280.972 39.9044 280.878 39.8757 280.782 39.8515C279.276 39.5013 277.91 38.7149 276.859 37.5932C276.656 37.3662 276.435 37.1539 276.201 36.958C275.022 36.0276 273.638 35.3854 272.16 35.084C269.772 34.5184 266.357 35.2271 262.009 37.1923C259.824 38.1796 257.4 37.9042 255.531 37.5539C255.426 37.5367 255.319 37.5468 255.219 37.5833C255.12 37.6199 255.032 37.6814 254.964 37.762C254.192 38.5142 253.161 38.9506 252.076 38.9833C251.413 39.029 250.74 39.9539 249.928 41.1584C249.744 41.4318 249.529 41.7509 249.373 41.9456L249.342 41.5799L248.977 41.998C248.403 42.6552 248.008 43.4449 247.827 44.2936C247.645 45.1423 247.685 46.0224 247.942 46.8519C248.198 47.6814 248.664 48.4334 249.294 49.0379C249.925 49.6423 250.7 50.0795 251.548 50.3087C252.221 50.4671 252.908 50.5573 253.6 50.5779C254.019 50.6043 254.452 50.6317 254.869 50.6921C256.206 50.9269 257.459 51.4998 258.505 52.3547C259.55 53.2097 260.354 54.3176 260.836 55.5702C260.95 55.8597 261.13 56.1194 261.361 56.3295C261.593 56.5396 261.871 56.6943 262.173 56.7817C262.475 56.8691 262.793 56.8869 263.103 56.8337C263.414 56.7805 263.707 56.6576 263.962 56.4747C264.385 56.1321 264.886 55.8955 265.421 55.7851C265.957 55.6747 266.512 55.6937 267.039 55.8406C267.497 56.0768 267.859 56.4612 268.064 56.9293C268.312 57.4503 268.711 57.8867 269.211 58.1828C270.917 58.996 271.132 62.7855 270.611 65.9623C270.108 69.0245 269.013 71.2583 267.95 71.3945C267.131 71.4992 267.038 71.5591 266.982 71.7039L266.933 71.8334L267.028 71.951C267.486 72.1016 267.971 72.1531 268.451 72.1019Z" fill="black"/>
<path d="M254.858 123.745L246.983 113.848C238.961 116.026 224.727 128.54 224.727 128.54L195.496 141.053C194.521 140.891 193.519 140.985 192.592 141.327C191.666 141.668 190.846 142.245 190.217 142.998C189.588 143.751 189.171 144.654 189.008 145.617C188.846 146.579 188.943 147.567 189.29 148.481C189.637 149.394 190.223 150.202 190.987 150.821C191.751 151.441 192.667 151.851 193.643 152.011C194.619 152.17 195.621 152.073 196.547 151.729C197.473 151.386 198.29 150.807 198.918 150.053L237.209 139.516L254.858 123.745Z" fill="#FFB8B8"/>
<path d="M252.971 126.008L265.397 112.345L266.087 102.664C266.215 100.763 265.802 98.864 264.894 97.1824C263.986 95.5008 262.619 94.1033 260.948 93.1477C258.674 91.8674 255.991 91.4867 253.443 92.0824C250.896 92.6782 248.672 94.206 247.223 96.357C242.832 102.884 238.109 111.709 240.539 116.684L240.564 116.735L252.971 126.008Z" fill="#E82E2D"/>
<path d="M138.441 177.363L106.146 161.048C103.849 159.887 103.088 156.809 104.45 154.186L125.507 113.631C126.869 111.008 129.846 109.818 132.143 110.979L164.439 127.293C166.736 128.454 167.497 131.532 166.135 134.155L145.077 174.71C143.716 177.333 140.739 178.523 138.441 177.363Z" fill="#E8E6E6"/>
<path d="M132.924 169.863L110.982 158.779C108.83 157.692 108.117 154.809 109.393 152.353L126.887 118.66C128.163 116.204 130.951 115.089 133.102 116.176L159.604 129.564C161.755 130.651 162.468 133.533 161.192 135.99L151.688 154.293C146.007 165.236 142.507 174.704 132.924 169.863Z" fill="white"/>
<path d="M143.773 151.463L124.338 141.645C124.101 141.478 123.932 141.232 123.863 140.953C123.794 140.673 123.829 140.378 123.962 140.122C124.095 139.866 124.317 139.666 124.587 139.557C124.858 139.449 125.158 139.441 125.435 139.533L144.869 149.351C145.107 149.518 145.276 149.764 145.345 150.044C145.414 150.323 145.379 150.618 145.246 150.874C145.113 151.13 144.891 151.331 144.621 151.439C144.35 151.547 144.049 151.555 143.773 151.463Z" fill="#E82E2D"/>
<path d="M126.607 148.058L122.172 145.817C121.935 145.65 121.766 145.404 121.697 145.125C121.628 144.845 121.663 144.55 121.796 144.294C121.929 144.038 122.151 143.837 122.421 143.729C122.692 143.621 122.992 143.613 123.269 143.705L127.704 145.946C127.942 146.113 128.11 146.359 128.179 146.638C128.249 146.918 128.213 147.213 128.08 147.469C127.947 147.725 127.725 147.925 127.455 148.034C127.185 148.142 126.884 148.15 126.607 148.058Z" fill="#E82E2D"/>
<path d="M132.297 156.199L120.006 149.99C119.769 149.823 119.6 149.577 119.531 149.298C119.462 149.018 119.497 148.723 119.63 148.467C119.763 148.211 119.985 148.01 120.255 147.902C120.526 147.794 120.826 147.786 121.103 147.878L133.393 154.087C133.631 154.254 133.8 154.5 133.869 154.779C133.938 155.059 133.903 155.354 133.77 155.61C133.637 155.866 133.415 156.067 133.144 156.175C132.874 156.283 132.573 156.291 132.297 156.199Z" fill="#E82E2D"/>
<path d="M151.463 136.651L132.028 126.834C131.79 126.667 131.621 126.421 131.552 126.141C131.483 125.862 131.518 125.567 131.651 125.311C131.784 125.054 132.006 124.854 132.277 124.746C132.547 124.638 132.848 124.629 133.124 124.722L152.559 134.54C152.797 134.707 152.965 134.952 153.034 135.232C153.104 135.512 153.068 135.806 152.935 136.063C152.802 136.319 152.58 136.519 152.31 136.627C152.04 136.735 151.739 136.744 151.463 136.651Z" fill="#E82E2D"/>
<path d="M134.297 133.246L129.862 131.006C129.624 130.839 129.455 130.593 129.386 130.313C129.317 130.034 129.352 129.739 129.485 129.483C129.618 129.226 129.84 129.026 130.111 128.918C130.381 128.81 130.682 128.801 130.958 128.894L135.393 131.134C135.631 131.301 135.8 131.547 135.869 131.827C135.938 132.106 135.903 132.401 135.77 132.657C135.637 132.913 135.415 133.114 135.144 133.222C134.874 133.33 134.573 133.339 134.297 133.246Z" fill="#E82E2D"/>
<path d="M139.986 141.386L127.696 135.177C127.458 135.01 127.289 134.765 127.22 134.485C127.151 134.205 127.186 133.911 127.319 133.654C127.452 133.398 127.674 133.198 127.945 133.09C128.215 132.982 128.516 132.973 128.792 133.066L141.083 139.274C141.32 139.441 141.489 139.687 141.558 139.967C141.627 140.246 141.592 140.541 141.459 140.797C141.326 141.054 141.104 141.254 140.834 141.362C140.563 141.47 140.262 141.479 139.986 141.386Z" fill="#E82E2D"/>
<path d="M111.681 142.055L104.385 115.264L123.882 111.623L122.833 130.013L148.451 156.03C149.807 155.976 151.15 156.311 152.316 156.997C153.482 157.682 154.421 158.687 155.018 159.889C155.615 161.091 155.844 162.439 155.678 163.768C155.512 165.097 154.958 166.349 154.082 167.372C153.207 168.396 152.049 169.146 150.749 169.531C149.449 169.916 148.064 169.92 146.762 169.542C145.459 169.164 144.297 168.421 143.416 167.402C142.535 166.384 141.973 165.135 141.799 163.807L111.681 142.055Z" fill="#A0616A"/>
<path d="M102.388 85.2247C95.7702 90.3781 104.264 119.203 104.264 119.203C105.579 117.78 107.108 138.82 108.715 138.103C113.284 136.067 121.657 129.046 124.886 129.618C126.732 129.946 124.798 115.701 124.798 115.701C124.798 115.701 124.442 107.534 123.773 97.035C123.64 94.0633 122.747 91.1731 121.176 88.6335C119.606 86.0939 117.41 83.9875 114.792 82.5103C114.792 82.5103 109.006 80.0714 102.388 85.2247Z" fill="#2F2F2F"/>
<path d="M212.505 201.521L194.881 193.313C194.504 193.138 194.172 192.882 193.91 192.563C193.648 192.244 193.463 191.87 193.368 191.47C193.273 191.079 193.268 190.671 193.355 190.278C193.442 189.885 193.618 189.516 193.87 189.2C198.975 182.765 202.48 175.239 204.105 167.226C204.228 166.613 204.563 166.06 205.052 165.663C205.542 165.265 206.156 165.048 206.79 165.047C215.778 165.077 222.496 168.314 226.756 174.667C226.98 174.998 227.129 175.373 227.192 175.766C227.254 176.159 227.229 176.56 227.119 176.943C224.652 185.328 220.899 193.292 215.99 200.557C215.625 201.106 215.071 201.506 214.431 201.684C213.79 201.861 213.106 201.803 212.505 201.521Z" fill="#E8E6E6"/>
<path d="M217.69 190.008L204.215 183.732C203.88 183.576 203.621 183.295 203.496 182.951C203.371 182.606 203.39 182.227 203.548 181.897C203.706 181.566 203.991 181.311 204.34 181.187C204.689 181.064 205.074 181.082 205.409 181.238L218.884 187.515C219.05 187.592 219.199 187.701 219.322 187.835C219.446 187.969 219.541 188.126 219.603 188.296C219.665 188.467 219.692 188.648 219.683 188.828C219.674 189.009 219.63 189.187 219.551 189.35C219.473 189.514 219.363 189.661 219.227 189.783C219.091 189.904 218.932 189.998 218.759 190.06C218.586 190.121 218.403 190.148 218.219 190.139C218.036 190.13 217.856 190.086 217.69 190.008Z" fill="white"/>
<path d="M219.784 185.635L206.309 179.359C205.974 179.203 205.715 178.922 205.59 178.578C205.465 178.233 205.483 177.854 205.642 177.523C205.8 177.193 206.085 176.938 206.434 176.814C206.783 176.691 207.167 176.709 207.503 176.865L220.978 183.142C221.313 183.298 221.572 183.579 221.697 183.923C221.822 184.268 221.803 184.647 221.645 184.977C221.487 185.308 221.202 185.563 220.853 185.687C220.504 185.81 220.119 185.792 219.784 185.635Z" fill="white"/>
<path d="M201.777 48.3724L200.523 48.508C194.93 26.83 184.09 11.8118 169.172 5.07657C150.209 -3.48511 126.759 2.26421 103.144 21.2657C79.4086 40.3642 58.3965 70.5315 43.9788 106.212L42.7617 105.663C57.2427 69.8263 78.3627 39.5132 102.231 20.3085C126.219 1.0068 150.147 -4.78469 169.607 4.00116C184.952 10.9294 196.076 26.2728 201.777 48.3724Z" fill="#C2C2C2"/>
<path d="M63.3901 76.6047C60.1098 83.4208 56.9897 90.4823 54.1164 97.5929C37.582 138.512 29.203 180.3 29.8877 218.444L28.5955 218.308C27.91 180.022 36.3131 138.09 52.8993 97.0435C55.7809 89.9129 58.9099 82.8314 62.1996 75.9961L63.3901 76.6047Z" fill="#C2C2C2"/>
<path d="M62.771 104.721C59.4907 111.537 56.3706 118.599 53.4973 125.709C36.9628 166.628 28.5839 208.417 29.2686 246.56L27.9763 246.424C27.2909 208.139 35.694 166.206 52.2802 125.16C55.1618 118.029 58.2907 110.948 61.5805 104.112L62.771 104.721Z" fill="#C2C2C2"/>
<path d="M28.0387 114.946C29.4672 112.828 28.6217 109.796 26.1502 108.174C23.6786 106.552 20.517 106.955 19.0885 109.072C17.66 111.19 18.5055 114.222 20.977 115.844C23.4486 117.466 26.6102 117.064 28.0387 114.946Z" fill="#C2C2C2"/>
<path d="M332.224 191.429C333.653 189.311 332.807 186.28 330.336 184.658C327.864 183.036 324.703 183.438 323.274 185.556C321.846 187.674 322.691 190.705 325.163 192.327C327.634 193.949 330.796 193.547 332.224 191.429Z" fill="#C2C2C2"/>
</g>
<defs>
<clipPath id="clip0_5377_11556">
<rect width="400" height="320" fill="white"/>
</clipPath>
</defs>
</svg>
