<svg width="400" height="268" viewBox="0 0 400 268" fill="none" xmlns="http://www.w3.org/2000/svg">
<g clip-path="url(#clip0_5377_11554)">
<path d="M0 267.485C0.016713 267.636 0.0942582 267.775 0.215861 267.872C0.337463 267.968 0.493347 268.014 0.649789 268H399.348C399.427 268.016 399.508 268.014 399.586 267.995C399.664 267.976 399.737 267.941 399.799 267.891C399.861 267.842 399.911 267.78 399.945 267.71C399.98 267.639 399.998 267.563 399.998 267.485C399.998 267.407 399.98 267.33 399.945 267.26C399.911 267.189 399.861 267.127 399.799 267.078C399.737 267.029 399.664 266.993 399.586 266.975C399.508 266.956 399.427 266.954 399.348 266.969H0.649789C0.493507 266.956 0.338036 267.002 0.216611 267.099C0.0951865 267.195 0.017443 267.334 0 267.485Z" fill="#E8E6E6"/>
<path d="M278.303 141.605L277.814 142.196L274.643 146.01L241.379 185.987L184.935 266.935L176.867 266.972L233.34 185.988L271.824 139.729L274.64 140.544L277.811 141.461L278.303 141.605Z" fill="#C2C2C2"/>
<path d="M377.333 266.972L370.693 266.935L314.244 185.987L281.857 147.059L277.814 142.196L277.32 141.605L277.814 141.462L281.857 140.291L283.8 139.729L321.707 185.987L377.333 266.972Z" fill="#C2C2C2"/>
<path d="M392.097 39.1885H164.508V160.704H392.097V39.1885Z" fill="black"/>
<path d="M387.627 43.0049H168.76V156.897H387.627V43.0049Z" fill="white"/>
<path d="M298.526 64.041H258.357C256.399 64.041 254.812 65.5795 254.812 67.4774V69.7683C254.812 71.6662 256.399 73.2047 258.357 73.2047H298.526C300.483 73.2047 302.07 71.6662 302.07 69.7683V67.4774C302.07 65.5795 300.483 64.041 298.526 64.041Z" fill="#E82E2D"/>
<path d="M278.442 73.2041H277.852V91.5314H278.442V73.2041Z" fill="white"/>
<path d="M278.146 73.4902V91.2448V73.4902Z" stroke="#ADADAD" stroke-linecap="round"/>
<path d="M221.484 82.3682H334.902" stroke="#ADADAD"/>
<path d="M234.729 91.5322H208.738C206.78 91.5322 205.193 93.0707 205.193 94.9686C205.193 96.8665 206.78 98.405 208.738 98.405H234.729C236.687 98.405 238.274 96.8665 238.274 94.9686C238.274 93.0707 236.687 91.5322 234.729 91.5322Z" fill="#E8E6E6"/>
<path d="M348.147 91.5322H322.156C320.198 91.5322 318.611 93.0707 318.611 94.9686C318.611 96.8665 320.198 98.405 322.156 98.405H348.147C350.105 98.405 351.691 96.8665 351.691 94.9686C351.691 93.0707 350.105 91.5322 348.147 91.5322Z" fill="#E82E2D"/>
<path d="M291.438 91.5322H265.447C263.489 91.5322 261.902 93.0707 261.902 94.9686C261.902 96.8665 263.489 98.405 265.447 98.405H291.438C293.396 98.405 294.983 96.8665 294.983 94.9686C294.983 93.0707 293.396 91.5322 291.438 91.5322Z" fill="#E8E6E6"/>
<path d="M334.855 82.082L334.903 91.8184" stroke="#ADADAD"/>
<path d="M221.686 82.082L221.733 91.8184" stroke="#ADADAD"/>
<path d="M217.008 98.4043L217.056 108.141" stroke="#ADADAD"/>
<path d="M198.057 108.141H235.863" stroke="#ADADAD"/>
<path d="M235.615 107.854V117.591" stroke="#ADADAD"/>
<path d="M198.057 107.854V117.591" stroke="#ADADAD"/>
<path d="M204.011 117.305H192.197C190.239 117.305 188.652 118.843 188.652 120.741C188.652 122.639 190.239 124.177 192.197 124.177H204.011C205.968 124.177 207.555 122.639 207.555 120.741C207.555 118.843 205.968 117.305 204.011 117.305Z" fill="#E8E6E6"/>
<path d="M241.818 117.305H230.003C228.046 117.305 226.459 118.843 226.459 120.741C226.459 122.639 228.046 124.177 230.003 124.177H241.818C243.775 124.177 245.362 122.639 245.362 120.741C245.362 118.843 243.775 117.305 241.818 117.305Z" fill="#E82E2D"/>
<path d="M277.852 98.4043L277.899 108.141" stroke="#ADADAD"/>
<path d="M258.9 108.141L310.943 107.854" stroke="#ADADAD"/>
<path d="M284.645 107.854V117.591" stroke="#ADADAD"/>
<path d="M258.9 107.854V117.591" stroke="#ADADAD"/>
<path d="M264.855 117.305H253.04C251.083 117.305 249.496 118.843 249.496 120.741C249.496 122.639 251.083 124.177 253.04 124.177H264.855C266.812 124.177 268.399 122.639 268.399 120.741C268.399 118.843 266.812 117.305 264.855 117.305Z" fill="#E82E2D"/>
<path d="M290.847 117.305H279.033C277.075 117.305 275.488 118.843 275.488 120.741C275.488 122.639 277.075 124.177 279.033 124.177H290.847C292.804 124.177 294.391 122.639 294.391 120.741C294.391 118.843 292.804 117.305 290.847 117.305Z" fill="#E8E6E6"/>
<path d="M339.877 98.4043L339.925 108.141" stroke="#ADADAD"/>
<path d="M339.58 108.141H358.139" stroke="#ADADAD"/>
<path d="M357.893 107.854V117.591" stroke="#ADADAD"/>
<path d="M364.095 117.305H352.281C350.323 117.305 348.736 118.843 348.736 120.741C348.736 122.639 350.323 124.177 352.281 124.177H364.095C366.052 124.177 367.639 122.639 367.639 120.741C367.639 118.843 366.052 117.305 364.095 117.305Z" fill="#E8E6E6"/>
<path d="M310.635 107.854V117.591" stroke="#ADADAD"/>
<path d="M316.839 117.305H305.025C303.067 117.305 301.48 118.843 301.48 120.741C301.48 122.639 303.067 124.177 305.025 124.177H316.839C318.797 124.177 320.383 122.639 320.383 120.741C320.383 118.843 318.797 117.305 316.839 117.305Z" fill="#E82E2D"/>
<path d="M90.8211 146.624C91.6481 150.651 94.6017 153.264 97.42 152.457C100.238 151.649 101.85 147.726 101.023 143.699C100.727 142.105 99.996 140.618 98.9068 139.39L95.1694 122.387L86.4297 125.179L91.0402 141.648C90.5468 143.264 90.4744 144.975 90.8293 146.625L90.8211 146.624Z" fill="#F8A8AB"/>
<path d="M71.1231 258.425H81.3809V244.314H71.1231V258.425Z" fill="#F8A8AB"/>
<path d="M80.2469 266.509C78.4931 266.66 69.7145 267.335 69.2738 265.383C69.043 264.074 69.1369 262.731 69.5479 261.465C70.3902 253.324 70.7039 253.233 70.8953 253.181C71.1942 253.096 72.0661 253.5 73.482 254.384L73.5701 254.441L73.5896 254.541C73.6138 254.669 74.2393 257.656 77.2148 257.196C79.2528 256.883 79.9138 256.446 80.1247 256.232C79.9058 256.139 79.7189 255.987 79.5859 255.795C79.4735 255.603 79.4053 255.39 79.3858 255.17C79.3663 254.951 79.3961 254.729 79.4731 254.522C79.885 253.33 80.4132 252.18 81.0503 251.086L81.1826 250.856L92.8416 258.484L100.043 260.479C100.31 260.553 100.556 260.684 100.764 260.862C100.972 261.041 101.136 261.262 101.243 261.51C101.392 261.854 101.426 262.235 101.341 262.599C101.256 262.963 101.057 263.293 100.771 263.542C99.463 264.682 96.8668 266.635 94.1377 266.877C93.4128 266.943 92.4523 266.967 91.3749 266.967C86.873 266.967 80.2989 266.516 80.2499 266.509L80.2469 266.509Z" fill="black"/>
<path d="M42.707 258.425H52.9648V244.314H42.707V258.425Z" fill="#F8A8AB"/>
<path d="M51.827 266.509C50.0732 266.66 41.2945 267.335 40.8539 265.383C40.623 264.074 40.717 262.731 41.1279 261.465C41.9703 253.324 42.284 253.233 42.4754 253.181C42.7743 253.096 43.6462 253.5 45.0621 254.384L45.1501 254.441L45.1696 254.541C45.1939 254.669 45.8194 257.656 48.7949 257.196C50.8328 256.883 51.4939 256.446 51.7047 256.232C51.4859 256.139 51.2989 255.987 51.166 255.795C51.0536 255.603 50.9853 255.39 50.9659 255.17C50.9464 254.951 50.9762 254.729 51.0532 254.522C51.4651 253.33 51.9933 252.18 52.6304 251.086L52.7627 250.856L64.4217 258.484L71.6231 260.479C71.89 260.553 72.1364 260.684 72.3441 260.862C72.5518 261.041 72.7157 261.262 72.8235 261.51C72.9717 261.854 73.0059 262.235 72.9212 262.599C72.8365 262.963 72.6373 263.293 72.3509 263.542C71.0431 264.682 68.4468 266.635 65.7177 266.877C64.9929 266.943 64.0324 266.967 62.9549 266.967C58.4531 266.967 51.879 266.516 51.83 266.509L51.827 266.509Z" fill="black"/>
<path d="M51.0195 47.633L66.9258 52.7011V30.501H52.494L51.0195 47.633Z" fill="#F8A8AB"/>
<path d="M64.9552 36.6473C73.7077 36.6473 80.8029 29.7681 80.8029 21.2822C80.8029 12.7962 73.7077 5.91699 64.9552 5.91699C56.2027 5.91699 49.1074 12.7962 49.1074 21.2822C49.1074 29.7681 56.2027 36.6473 64.9552 36.6473Z" fill="#F8A8AB"/>
<path d="M60.9196 22.4842L63.1052 25.0534L67.0583 18.3468C67.0583 18.3468 72.1042 18.5988 72.1042 14.9677C72.1042 11.3366 76.7337 11.2346 76.7337 11.2346C76.7337 11.2346 83.2806 0.146593 69.7124 3.06751C69.7124 3.06751 60.3017 -3.18268 55.6185 2.16031C55.6185 2.16031 41.2641 9.16593 45.3749 21.3679L52.1988 33.9451L53.7471 31.1003C53.7471 31.1003 52.8114 19.1503 60.9237 22.4796L60.9196 22.4842Z" fill="black"/>
<path d="M81.9527 120.734H28.4219L41.521 251.676L56.7072 250.726L57.4568 156.427L67.014 197.811L69.8111 250.014L83.6504 250.726L85.2571 191.342L81.9527 120.734Z" fill="black"/>
<path d="M50.1526 39.5156L68.2782 43.7905L83.7727 108.713L81.9527 120.734L36.5655 128.18L28.4219 120.734L50.1526 39.5156Z" fill="#E8E6E6"/>
<path d="M47.6477 36.2676L42.0779 43.0075L30.7798 45.933L25.6719 145.104H48.6336L60.4066 51.1769L47.6477 36.2676Z" fill="black"/>
<path d="M69.8887 39.6348L65.8086 50.1501L80.6433 150.984H87.7201L84.4575 52.9524L74.846 44.881L69.8887 39.6348Z" fill="black"/>
<path d="M77.9422 51.7126L84.1589 52.952C84.1589 52.952 86.8827 53.921 87.8722 61.4255C88.8616 68.93 89.0329 94.1312 89.0329 94.1312L99.6068 134.788L87.5999 138.625L81.9467 116.747L77.9375 51.708L77.9422 51.7126Z" fill="black"/>
<path d="M67.6403 44.2802L64.9094 49.6284L70.3712 112.362L63.9973 118.684L58.0766 112.85L62.4047 49.8706L56.0977 44.2802L58.304 42.5752L60.5812 45.4915L65.1362 44.5225L66.9556 41.6016L67.6403 44.2802Z" fill="black"/>
<path d="M38.028 130.861C40.551 134.162 44.3717 135.297 46.5615 133.402C48.7513 131.507 48.4819 127.294 45.959 123.988C44.9896 122.668 43.6714 121.626 42.143 120.972L31.2679 107.146L24.5957 113.291L36.0243 126.267C36.2918 127.933 36.9801 129.51 38.028 130.855V130.861Z" fill="#F8A8AB"/>
<path d="M36.3228 47.4475L31.3555 45.9326C31.3555 45.9326 24.6248 47.5523 22.3955 55.7028L11.5156 95.409L29.969 126.813L39.8287 115.205L30.5426 86.3753L36.3281 47.4475H36.3228Z" fill="black"/>
</g>
<defs>
<clipPath id="clip0_5377_11554">
<rect width="400" height="268" fill="white"/>
</clipPath>
</defs>
</svg>
