<svg width="400" height="268" viewBox="0 0 400 268" fill="none" xmlns="http://www.w3.org/2000/svg">
<g clip-path="url(#clip0_5377_11553)">
<path d="M361.327 130.176H26.5508V137.063H361.327V130.176Z" fill="#E8E6E6"/>
<path d="M36.7629 127.062C37.5829 126.364 38.0948 125.411 38.0948 124.352V107.901C38.0948 106.832 37.5753 105.864 36.7441 105.162C36.3112 104.8 35.786 104.509 35.2088 104.311C34.672 104.132 34.089 104.03 33.4772 104.03C30.926 104.03 28.8596 105.762 28.8596 107.901V124.352C28.8596 125.322 29.2868 126.205 29.9884 126.884C27.9479 127.769 26.5508 129.551 26.5508 131.61H39.8264C39.8264 129.68 38.597 127.996 36.7629 127.062Z" fill="#2F2F2F"/>
<path d="M358.015 126.452C358.981 125.743 359.595 124.703 359.595 123.541V107.09C359.595 104.951 357.528 103.219 354.977 103.219C354.365 103.219 353.782 103.32 353.246 103.499C352.668 103.698 352.143 103.988 351.71 104.351C350.879 105.053 350.36 106.02 350.36 107.09V123.541C350.36 124.623 350.896 125.593 351.748 126.295C349.568 127.138 348.051 128.982 348.051 131.127H361.326C361.326 129.11 359.988 127.355 358.015 126.452Z" fill="#2F2F2F"/>
<path d="M34.7643 136.633H26.5508V141.771H34.7643V136.633Z" fill="#E8E6E6"/>
<path d="M39.3533 141.771H30.6548L30.2739 140.803L28.7963 137.063L28.7559 136.962L29.8756 136.633L36.5077 134.683L37.46 137.063L38.9608 140.803L39.3533 141.771Z" fill="#E8E6E6"/>
<path d="M359.123 136.962L359.082 137.063L357.605 140.803L357.224 141.771H348.525L348.918 140.803L350.419 137.063L351.371 134.683L358.003 136.633L359.123 136.962Z" fill="#E8E6E6"/>
<path d="M361.327 136.633H353.113V141.771H361.327V136.633Z" fill="#E8E6E6"/>
<path d="M196.248 0H42.7129V49.8378H196.248V0Z" fill="#2F2F2F"/>
<path d="M196.248 0H42.7129V49.8378H196.248V0Z" fill="#2F2F2F"/>
<path d="M45.0215 0V47.9023H161.266C179.311 47.9023 193.939 35.6396 193.939 20.5127V0H45.0215Z" fill="white"/>
<path d="M386.903 0H13.0967C5.8759 0 0 4.92571 0 10.9788V130.793C0 136.846 5.8759 141.771 13.0967 141.771H386.903C394.124 141.771 400 136.846 400 130.793V10.9788C400 4.92571 394.124 0 386.903 0ZM398.846 130.793C398.846 136.323 393.501 140.804 386.903 140.804H13.0967C6.49928 140.804 1.1544 136.323 1.1544 130.793V10.9788C1.1544 5.44829 6.49928 0.967723 13.0967 0.967723H308.987C358.615 0.967723 398.846 34.6929 398.846 76.2953V130.793Z" fill="#2F2F2F"/>
<path d="M208.582 101.238H187.151C186.522 101.238 186.014 101.669 186.014 102.201V130.58H209.731V102.201C209.731 101.669 209.217 101.238 208.582 101.238ZM200.473 115.246C200.473 115.725 200.282 116.161 199.959 116.519C199.497 117.032 198.764 117.365 197.939 117.365C197.119 117.365 196.386 117.032 195.924 116.519C195.601 116.161 195.41 115.725 195.41 115.246V111.951C195.422 110.795 196.553 109.851 197.939 109.851C199.324 109.851 200.461 110.795 200.473 111.951V115.246Z" fill="black"/>
<path d="M185.939 129.675V132.409C185.939 132.704 186.222 132.946 186.574 132.946H209.166C209.512 132.946 209.801 132.704 209.801 132.409V129.675H185.939Z" fill="#2F2F2F"/>
<path d="M244.074 56.9502H152.461C150.827 56.9502 149.494 58.0679 149.494 59.4372V111.259C149.494 112.633 150.827 113.751 152.461 113.751H244.074C245.708 113.751 247.041 112.633 247.041 111.259V59.4372C247.041 58.0679 245.708 56.9502 244.074 56.9502Z" fill="#2F2F2F"/>
<path d="M243.302 58.7461H153.23C152.353 58.7461 151.643 59.3418 151.643 60.0767V95.7525C151.643 104.662 160.338 111.952 170.966 111.952H243.308C244.181 111.952 244.895 111.353 244.895 110.621V60.0816C244.895 59.347 244.178 58.7461 243.302 58.7461Z" fill="white"/>
<path d="M226.724 132.902L226.037 130.178L225.893 129.593C225.801 129.21 225.397 128.935 224.929 128.935H172.998C172.537 128.935 172.133 129.21 172.035 129.593L171.89 130.178L171.203 132.902C171.146 133.149 171.215 133.401 171.405 133.594C171.59 133.788 171.873 133.899 172.167 133.899H225.76C226.061 133.899 226.338 133.788 226.528 133.594C226.713 133.401 226.788 133.149 226.724 132.902Z" fill="#2F2F2F"/>
<path d="M174.818 129.531H173.594C173.476 129.531 173.381 129.611 173.381 129.71V130.183C173.381 130.281 173.476 130.361 173.594 130.361H174.818C174.936 130.361 175.031 130.281 175.031 130.183V129.71C175.031 129.611 174.936 129.531 174.818 129.531Z" fill="#E8E6E6"/>
<path d="M224.299 130.915H223.074C222.957 130.915 222.861 130.995 222.861 131.094V131.567C222.861 131.665 222.957 131.745 223.074 131.745H224.299C224.417 131.745 224.512 131.665 224.512 131.567V131.094C224.512 130.995 224.417 130.915 224.299 130.915Z" fill="#E8E6E6"/>
<path d="M202.179 132.575H189.401C189.283 132.575 189.188 132.655 189.188 132.754V133.227C189.188 133.325 189.283 133.405 189.401 133.405H202.179C202.297 133.405 202.392 133.325 202.392 133.227V132.754C202.392 132.655 202.297 132.575 202.179 132.575Z" fill="#E8E6E6"/>
<path d="M54.0589 94.302C47.1317 75.0457 46.6978 55.7623 54.8657 36.4428C54.903 34.0045 57.2877 32.0517 60.1964 32.0774L112.322 32.5882C115.231 32.6194 117.56 34.6185 117.53 37.0568L116.723 94.916C116.686 97.3543 114.301 99.3072 111.392 99.2814L59.2665 98.7707C56.3579 98.7394 54.0282 96.7404 54.0589 94.302Z" fill="#C2C2C2"/>
<path opacity="0.2" d="M64.8742 96.594C61.9656 96.5627 59.636 94.5637 59.6667 92.1253C52.7394 72.869 52.3056 53.5856 60.4734 34.2661C60.4897 33.4973 60.7481 32.7457 61.2222 32.0875L60.1964 32.0774C57.2878 32.0517 54.9031 34.0045 54.8657 36.4428C46.6978 55.7622 47.1317 75.0456 54.059 94.302C54.0282 96.7403 56.3578 98.7393 59.2665 98.7706L111.392 99.2814C113.277 99.2945 115.026 98.4601 115.974 97.0947L64.8742 96.594Z" fill="black"/>
<path d="M103.27 64.9157L68.3385 64.6546C67.181 64.6448 66.2521 63.8503 66.2638 62.8799C66.2754 61.9112 67.2203 61.1332 68.3758 61.1407L103.307 61.4018C104.465 61.4135 105.392 62.2096 105.378 63.1799C105.364 64.1459 104.422 64.9213 103.27 64.9157Z" fill="white"/>
<path d="M76.1263 55.0764L68.4413 55.019C67.2838 55.0134 66.3508 54.2222 66.3575 53.2518C66.3641 52.2815 67.3079 51.4993 68.4655 51.5049L68.4787 51.505L76.1637 51.5625C77.3211 51.5742 78.2481 52.3703 78.2342 53.3406C78.2203 54.3066 77.2786 55.082 76.1263 55.0764Z" fill="white"/>
<path d="M103.106 80.3639L68.1742 80.1028C67.0167 80.0911 66.0897 79.295 66.1037 78.3247C66.1176 77.3587 67.0592 76.5833 68.2116 76.5889L103.143 76.85C104.301 76.8556 105.234 77.6468 105.227 78.6171C105.22 79.5875 104.277 80.3696 103.119 80.364L103.106 80.3639Z" fill="white"/>
<path d="M103.187 72.6394L68.2556 72.3783C67.098 72.3708 66.1669 71.5781 66.1758 70.6078C66.1848 69.6374 67.1304 68.8568 68.2879 68.8643L68.2929 68.8644L103.225 69.1255C104.382 69.1372 105.309 69.9333 105.295 70.9036C105.281 71.8696 104.34 72.645 103.187 72.6394Z" fill="white"/>
<path d="M67.2635 41.0698C69.7551 41.0698 71.775 39.3765 71.775 37.2878C71.775 35.1991 69.7551 33.5059 67.2635 33.5059C64.7718 33.5059 62.752 35.1991 62.752 37.2878C62.752 39.3765 64.7718 41.0698 67.2635 41.0698Z" fill="#2F2F2F"/>
<path d="M105.252 42.0375C107.743 42.0375 109.763 40.3443 109.763 38.2556C109.763 36.1669 107.743 34.4736 105.252 34.4736C102.76 34.4736 100.74 36.1669 100.74 38.2556C100.74 40.3443 102.76 42.0375 105.252 42.0375Z" fill="#2F2F2F"/>
<path d="M157.819 65.5303C158.878 65.5303 159.736 64.7949 159.736 63.8877C159.736 62.9805 158.878 62.2451 157.819 62.2451C156.76 62.2451 155.902 62.9805 155.902 63.8877C155.902 64.7949 156.76 65.5303 157.819 65.5303Z" fill="#C2C2C2"/>
<path d="M164.44 65.5303C165.499 65.5303 166.357 64.7949 166.357 63.8877C166.357 62.9805 165.499 62.2451 164.44 62.2451C163.382 62.2451 162.523 62.9805 162.523 63.8877C162.523 64.7949 163.382 65.5303 164.44 65.5303Z" fill="#C2C2C2"/>
<path d="M171.061 65.5303C172.12 65.5303 172.978 64.7949 172.978 63.8877C172.978 62.9805 172.12 62.2451 171.061 62.2451C170.003 62.2451 169.145 62.9805 169.145 63.8877C169.145 64.7949 170.003 65.5303 171.061 65.5303Z" fill="#C2C2C2"/>
<path d="M178.612 65.1863C178.553 65.1863 178.494 65.1672 178.45 65.1291L177.156 64.0208C177.07 63.947 177.07 63.829 177.156 63.7551L178.45 62.6469C178.538 62.5719 178.681 62.5707 178.77 62.6439C178.86 62.7173 178.861 62.8376 178.774 62.9126L177.636 63.888L178.774 64.8634C178.861 64.9384 178.86 65.0587 178.77 65.1321C178.726 65.1683 178.669 65.1863 178.612 65.1863Z" fill="#C2C2C2"/>
<path d="M180.785 65.1864C180.728 65.1864 180.671 65.1684 180.627 65.1322C180.537 65.0588 180.536 64.9386 180.623 64.8635L181.761 63.8881L180.623 62.9128C180.536 62.8378 180.537 62.7175 180.627 62.6441C180.716 62.5706 180.86 62.572 180.947 62.647L182.24 63.7553C182.327 63.8291 182.327 63.9471 182.24 64.021L180.947 65.1293C180.903 65.1673 180.844 65.1864 180.785 65.1864Z" fill="#C2C2C2"/>
<path d="M233.485 62.4355H231.08C230.806 62.4355 230.584 62.6217 230.584 62.8517V64.8695C230.584 65.0994 230.806 65.2856 231.08 65.2856H233.485C233.759 65.2856 233.984 65.0994 233.984 64.8695V62.8517C233.984 62.6217 233.759 62.4355 233.485 62.4355Z" fill="#C2C2C2"/>
<path d="M227.593 62.4355H225.188C224.914 62.4355 224.691 62.6217 224.691 62.8517V64.8695C224.691 65.0994 224.914 65.2856 225.188 65.2856H227.593C227.867 65.2856 228.091 65.0994 228.091 64.8695V62.8517C228.091 62.6217 227.867 62.4355 227.593 62.4355Z" fill="#C2C2C2"/>
<path d="M239.04 62.5303H236.635C236.361 62.5303 236.139 62.7165 236.139 62.9464V64.9642C236.139 65.1942 236.361 65.3804 236.635 65.3804H239.04C239.314 65.3804 239.539 65.1942 239.539 64.9642V62.9464C239.539 62.7165 239.314 62.5303 239.04 62.5303Z" fill="#C2C2C2"/>
<path d="M207.324 63.2979H198.074C197.738 63.2979 197.469 63.5259 197.469 63.8052C197.469 64.0845 197.738 64.3125 198.074 64.3125H207.324C207.657 64.3125 207.929 64.0845 207.929 63.8052C207.929 63.5259 207.657 63.2979 207.324 63.2979Z" fill="#C2C2C2"/>
<path d="M174.944 15.5753C173.857 12.5556 173.789 9.5316 175.07 6.50199C175.076 6.11963 175.45 5.81339 175.906 5.81742L184.08 5.89752C184.536 5.90242 184.902 6.21591 184.897 6.59828L184.77 15.6716C184.765 16.0539 184.391 16.3602 183.935 16.3561L175.76 16.276C175.304 16.2711 174.939 15.9576 174.944 15.5753Z" fill="#C2C2C2"/>
<path opacity="0.2" d="M176.64 15.9347C176.184 15.9298 175.818 15.6163 175.823 15.2339C174.737 12.2142 174.669 9.19026 175.95 6.16065C175.952 6.04009 175.993 5.92223 176.067 5.819L175.906 5.81742C175.45 5.81339 175.076 6.11962 175.07 6.50198C173.789 9.5316 173.857 12.5556 174.944 15.5753C174.939 15.9576 175.304 16.2711 175.76 16.276L183.935 16.3561C184.23 16.3582 184.504 16.2273 184.653 16.0132L176.64 15.9347Z" fill="black"/>
<path d="M157.627 15.5753C156.541 12.5556 156.473 9.5316 157.754 6.50199C157.76 6.11963 158.134 5.81339 158.59 5.81742L166.764 5.89752C167.22 5.90242 167.585 6.21591 167.581 6.59828L167.454 15.6716C167.448 16.0539 167.074 16.3602 166.618 16.3561L158.444 16.276C157.988 16.2711 157.622 15.9576 157.627 15.5753Z" fill="#C2C2C2"/>
<path opacity="0.2" d="M159.323 15.9347C158.867 15.9298 158.502 15.6163 158.507 15.2339C157.42 12.2142 157.352 9.19026 158.633 6.16065C158.636 6.04009 158.676 5.92223 158.751 5.819L158.59 5.81742C158.134 5.81339 157.76 6.11962 157.754 6.50198C156.473 9.5316 156.541 12.5556 157.627 15.5753C157.622 15.9576 157.988 16.2711 158.444 16.276L166.618 16.3561C166.914 16.3582 167.188 16.2273 167.337 16.0132L159.323 15.9347Z" fill="black"/>
<path d="M143.776 15.5753C142.689 12.5556 142.621 9.5316 143.902 6.50199C143.908 6.11963 144.282 5.81339 144.738 5.81742L152.912 5.89752C153.369 5.90242 153.734 6.21591 153.729 6.59828L153.602 15.6716C153.597 16.0539 153.223 16.3602 152.767 16.3561L144.592 16.276C144.136 16.2711 143.771 15.9576 143.776 15.5753Z" fill="#C2C2C2"/>
<path opacity="0.2" d="M145.472 15.9347C145.016 15.9298 144.65 15.6163 144.655 15.2339C143.569 12.2142 143.501 9.19026 144.782 6.16065C144.784 6.04009 144.825 5.92223 144.899 5.819L144.738 5.81742C144.282 5.81339 143.908 6.11962 143.902 6.50198C142.621 9.5316 142.689 12.5556 143.776 15.5753C143.771 15.9576 144.136 16.2711 144.592 16.276L152.767 16.3561C153.062 16.3582 153.336 16.2273 153.485 16.0132L145.472 15.9347Z" fill="black"/>
<path d="M149.408 9.22919C150.285 9.22919 150.996 8.63333 150.996 7.89829C150.996 7.16325 150.285 6.56738 149.408 6.56738C148.531 6.56738 147.82 7.16325 147.82 7.89829C147.82 8.63333 148.531 9.22919 149.408 9.22919Z" fill="#2F2F2F"/>
<path d="M162.683 9.22919C163.56 9.22919 164.271 8.63333 164.271 7.89829C164.271 7.16325 163.56 6.56738 162.683 6.56738C161.807 6.56738 161.096 7.16325 161.096 7.89829C161.096 8.63333 161.807 9.22919 162.683 9.22919Z" fill="#2F2F2F"/>
<path d="M179.424 9.22919C180.3 9.22919 181.011 8.63333 181.011 7.89829C181.011 7.16325 180.3 6.56738 179.424 6.56738C178.547 6.56738 177.836 7.16325 177.836 7.89829C177.836 8.63333 178.547 9.22919 179.424 9.22919Z" fill="#2F2F2F"/>
<path d="M36.9407 107.901V124.353C36.9407 125.422 36.4242 126.388 35.5897 127.088C35.0258 127.561 34.0547 127.205 34.0547 126.536V105.712C34.0547 105.049 35.0158 104.685 35.577 105.152L35.59 105.163C36.4212 105.864 36.9407 106.832 36.9407 107.901Z" fill="#E82E2D"/>
<path d="M351.516 107.09V123.541C351.516 124.61 352.032 125.576 352.867 126.277C353.43 126.75 354.402 126.394 354.402 125.725V104.9C354.402 104.237 353.44 103.874 352.879 104.34L352.866 104.351C352.035 105.053 351.516 106.02 351.516 107.09Z" fill="#E82E2D"/>
<path d="M290.333 14.5156H250.506V54.1923H290.333V14.5156Z" fill="#2F2F2F"/>
<path d="M252.814 52.2569H288.024V16.4512H252.814V52.2569Z" fill="white"/>
<path d="M270.326 19.3545C267.735 19.3545 265.305 19.9448 263.221 20.9706C260.254 22.4318 257.98 24.7786 256.924 27.5801C256.502 28.7027 256.277 29.893 256.277 31.1317V49.3539H284.56V19.3545H270.326Z" fill="#2F2F2F"/>
<path d="M277.739 49.3403H261.473C262.261 47.4695 263.94 45.9506 266.086 45.1502C267.161 44.7452 268.352 44.5186 269.606 44.5186C270.509 44.5186 271.383 44.6343 272.2 44.8561C274.782 45.5359 276.842 47.2091 277.739 49.3403Z" fill="#E82E2D"/>
<path d="M258.586 41.6123C257.79 41.6123 257.01 41.7042 256.277 41.8736V49.3541H267.221C267.238 49.1944 267.244 49.0347 267.244 48.8702C267.244 47.5106 266.794 46.2332 266.02 45.1493C264.502 43.03 261.743 41.6123 258.586 41.6123Z" fill="#E82E2D"/>
<path d="M284.56 27.5663V21.2981C283.122 20.3916 281.328 19.8516 279.383 19.8516C276.387 19.8516 273.747 21.1341 272.199 23.0821C271.383 22.8603 270.508 22.7446 269.605 22.7446C268.351 22.7446 267.161 22.9712 266.085 23.3762C266.068 23.3826 266.052 23.391 266.035 23.3975C266.03 23.3902 266.026 23.3824 266.021 23.3751C265.322 22.4025 264.364 21.5751 263.221 20.9703C260.254 22.4316 257.98 24.7783 256.924 27.5799H261.478C262.931 30.8708 264.43 32.9673 265.967 34.0824C262.785 35.329 261.566 38.639 263.232 41.24C266.512 46.3609 269.067 47.4242 271.256 46.4391C270.935 47.1958 270.756 48.0092 270.756 48.858C270.756 49.0219 270.761 49.181 270.779 49.3401H284.56V43.0718C283.122 42.1654 281.328 41.6253 279.383 41.6253C277.812 41.6253 276.342 41.9805 275.073 42.5966L275.1 42.556C276.878 39.8998 280.192 38.2248 283.825 38.2248H284.56V31.9566C283.122 31.0501 281.328 30.51 279.383 30.51C277.553 30.51 275.857 30.9906 274.46 31.8073L274.516 31.747C276.936 29.1372 280.617 27.5663 284.56 27.5663Z" fill="#E82E2D"/>
<path d="M269.552 21.7734H268.975V49.3536H269.552V21.7734Z" fill="#2F2F2F"/>
<path d="M292.742 259.669L288.364 259.639L286.426 245.151L292.888 245.197L292.742 259.669Z" fill="#FFB6B6"/>
<path d="M278.719 265.506C278.709 266.409 279.578 267.153 280.66 267.161L289.365 267.222L290.889 264.632L291.449 267.235L294.733 267.26L293.904 257.977L292.761 257.913L288.1 257.644L286.596 257.56L286.57 260.186L279.577 264.162C279.045 264.465 278.724 264.967 278.719 265.506Z" fill="black"/>
<path d="M340.633 259.669L336.255 259.639L334.316 245.151L340.778 245.197L340.633 259.669Z" fill="#FFB6B6"/>
<path d="M326.609 265.506C326.6 266.409 327.469 267.153 328.55 267.161L337.255 267.222L338.779 264.632L339.339 267.235L342.624 267.26L341.794 257.977L340.652 257.913L335.99 257.644L334.487 257.56L334.46 260.186L327.467 264.162C326.935 264.465 326.615 264.967 326.609 265.506Z" fill="black"/>
<path d="M268.438 50.9166C270.279 52.3547 270.107 54.9302 268.08 56.1799L273.073 72.9177L267.89 75.2137L262.133 55.2976C261.122 53.987 261.266 52.2217 262.606 51.0405C264.175 49.6561 266.787 49.6007 268.438 50.9166Z" fill="#FFB6B6"/>
<path d="M294.106 145.396H330.627C330.627 145.396 341.776 159.099 339.233 171.888L333.935 209.725L345.166 253.956L334.359 254.844L315.712 209.725L313.169 182.369L308.507 211.856L294.106 253.511L283.715 253.6L289.86 211.501L292.408 171.832C292.408 171.832 293.965 169.085 292.654 168C291.343 166.915 292.848 164.987 292.848 164.987C292.848 164.987 294.856 162.323 293.1 161.066C291.343 159.809 294.106 145.396 294.106 145.396Z" fill="black"/>
<path d="M343.434 156.612C343.434 156.612 310.378 149.151 311.649 157.678C312.212 161.452 293.773 159.067 288.081 158.506L293.637 138.316L284.424 158.09C282.746 157.87 281.703 157.699 281.703 157.699L293.849 132.809C293.849 132.809 295.121 108.651 292.514 102.728C289.908 96.8061 296.392 94.44 296.392 94.44C302.797 90.4564 305.855 86.5213 303.135 82.6699L317.158 83.6824L318.43 89.4662L330.356 94.3334L324.544 123.146C324.544 123.146 323.788 123.846 324.288 124.419C324.787 124.993 324.873 125.45 323.983 125.932C323.092 126.414 323.507 128.29 323.507 128.29C323.507 128.29 323.549 129.45 324.38 129.531C325.211 129.612 324.928 130.309 324.928 130.309C324.928 130.309 324.873 131.718 325.678 131.375C326.218 131.145 338.214 150.479 339.129 150.171C340.044 149.862 339.728 152.142 340.522 152.246C341.315 152.349 341.321 153.439 341.663 153.952C342.755 155.588 343.434 156.612 343.434 156.612Z" fill="#E82E2D"/>
<path d="M305.976 104.238L307.418 92.9632L288.614 89.1558L269.73 59.9795L263.797 62.1111V67.0849C263.797 67.0849 258.711 71.3481 275.863 91.6297L280.749 97.2828L307.418 107.782L305.976 104.238Z" fill="#E82E2D"/>
<path d="M289.821 37.1566C289.194 39.1994 290.994 41.2915 293.505 41.429L300.055 57.785L305.897 57.3785L297.948 37.9999C297.958 36.4391 296.702 35.017 294.814 34.6268C292.602 34.1695 290.366 35.3021 289.821 37.1566Z" fill="#FFB6B6"/>
<path d="M329.974 98.3882C334.765 95.7574 335.355 90.0606 331.175 86.7777L311.009 70.9387C311.009 70.9387 311.77 46.127 303.933 46.0665L302.239 41.6289L293.123 45.2756L294.231 48.9433C294.231 48.9433 294.827 64.1208 300.182 68.6471C300.279 75.0406 303.476 76.7352 303.476 76.7352L329.974 98.3882Z" fill="#E82E2D"/>
<path d="M311.859 82.2256C318.495 82.2256 323.874 77.7161 323.874 72.1533C323.874 66.5906 318.495 62.0811 311.859 62.0811C305.223 62.0811 299.844 66.5906 299.844 72.1533C299.844 77.7161 305.223 82.2256 311.859 82.2256Z" fill="#FFB6B6"/>
<path d="M341.055 99.4085C340.968 100.855 340.143 102.244 338.613 102.907C338.128 103.11 337.62 103.265 337.095 103.376C337.078 103.231 337.049 103.091 337.02 102.951C336.541 100.57 335.352 98.3007 333.615 96.3844C332.789 95.4748 335.075 100.633 335.652 103.536C335.127 102.655 332.454 97.0039 332.281 96.791C332.281 96.8007 332.293 96.8298 332.316 96.8926C333.182 99.0844 333.574 101.407 333.511 103.72C330.163 107.721 327.248 108.8 324.564 108.351C325.372 106.521 325.286 104.402 324.195 102.67C323.894 104.373 322.838 105.955 321.326 107.117C320.056 106.376 318.821 105.394 317.591 104.354C319.525 102.404 320.864 100.047 321.418 97.5555C322.209 94.0669 321.453 90.3461 319.335 87.2735C320.356 93.5103 317.511 100.067 312.091 104.402C310.809 104.238 309.655 103.812 309.141 102.854C308.662 101.954 308.985 100.889 309.592 100.047C310.186 99.2054 308.102 95.1362 308.801 94.3523C311.721 91.091 314.498 89.5234 311.369 86.4024C309.932 84.9654 307.929 83.8621 307.069 82.1298C305.984 79.9477 307.029 77.4559 308.287 75.3463C309.551 73.2318 313.759 74.2189 310.942 74.0252C306.099 73.6963 308.212 70.4012 307.15 69.0271C306.555 68.2576 305.089 68.3835 303.993 68.3738C303.606 67.2851 303.063 66.2302 302.382 65.2431C302.555 66.3124 302.619 67.3964 302.573 68.4754C301.695 68.6011 300.27 69.8351 299.514 70.2318L299.236 70.343C298.169 69.8301 298.327 68.8712 298.321 67.8359C298.31 66.8004 295.932 65.8085 296.59 64.9327C298.339 62.615 297.776 61.3094 301.02 60.9562C304.264 60.603 307.283 59.5724 309.678 61.44C311.987 57.5691 320.974 60.9852 323.144 61.7157C325.314 62.4512 327.063 64.0094 327.802 65.8673C329.522 70.1736 328.651 72.1575 331.612 75.9559C334.146 79.2073 337.73 77.6735 339.41 81.2928C340.466 83.5767 339.208 86.1023 338.088 88.3622C336.968 90.6265 334.654 95.7796 337.54 95.412C339.998 95.0925 341.193 97.1442 341.055 99.4085Z" fill="black"/>
<path d="M352.395 259.614C353.587 259.676 354.246 258.434 353.344 257.711L353.254 257.411C353.266 257.387 353.278 257.364 353.29 257.34C354.496 254.929 358.583 254.946 359.778 257.36C360.84 259.502 362.191 261.649 362.524 263.914C362.673 264.914 362.606 265.933 362.341 266.914C364.827 262.361 366.136 257.389 366.136 252.388C366.136 251.132 366.054 249.876 365.886 248.623C365.748 247.598 365.558 246.579 365.312 245.569C363.981 240.113 361.099 234.915 356.943 230.575C354.944 229.659 353.278 228.228 352.271 226.512C351.91 225.893 351.626 225.227 351.492 224.549C351.72 224.574 352.35 221.671 352.178 221.493C352.495 221.09 353.062 220.889 353.408 220.496C355.13 218.539 357.501 218.881 358.74 221.54C361.384 222.659 361.41 224.514 359.787 226.299C358.755 227.435 358.613 228.971 357.707 230.187C357.8 230.287 357.897 230.384 357.99 230.484C359.699 232.322 361.178 234.297 362.424 236.372C362.072 234.066 362.592 231.287 363.478 229.496C364.487 227.456 366.378 225.737 368.044 223.973C370.044 221.854 374.147 222.779 374.499 225.465C374.503 225.491 374.506 225.517 374.509 225.543C374.262 225.66 374.019 225.784 373.783 225.916C372.432 226.664 372.899 228.419 374.499 228.626L374.535 228.631C374.446 229.378 374.293 230.118 374.069 230.846C376.206 237.773 371.593 240.296 365.006 240.41C364.861 240.472 364.719 240.535 364.574 240.594C365.241 242.169 365.774 243.785 366.17 245.422C366.524 246.869 366.77 248.332 366.908 249.801C367.079 251.654 367.064 253.517 366.878 255.367L366.889 255.301C367.363 253.264 368.682 251.36 370.599 250.041C373.453 248.076 377.486 247.352 380.566 245.772C382.048 245.011 383.948 245.994 383.689 247.435L383.677 247.504C383.218 247.66 382.771 247.841 382.338 248.044C382.091 248.161 381.848 248.286 381.612 248.417C380.261 249.166 380.728 250.92 382.328 251.127L382.364 251.132C382.39 251.135 382.413 251.138 382.439 251.142C381.652 252.707 380.556 254.16 379.184 255.414C377.848 261.461 372.11 262.034 365.972 260.273H365.968C365.297 262.723 364.317 265.117 363.057 267.399H352.655C352.618 267.302 352.585 267.202 352.551 267.105C353.513 267.155 354.482 267.108 355.429 266.961C354.657 266.167 353.886 265.367 353.114 264.574C353.095 264.558 353.08 264.542 353.065 264.527C352.674 264.12 352.279 263.717 351.887 263.311L351.887 263.311C351.863 262.063 352.041 260.82 352.395 259.614Z" fill="#C2C2C2"/>
<path d="M236.172 267.424C236.172 267.744 236.478 268 236.859 268H383.058C383.439 268 383.745 267.744 383.745 267.424C383.745 267.105 383.439 266.849 383.058 266.849H236.859C236.478 266.849 236.172 267.105 236.172 267.424Z" fill="#C2C2C2"/>
</g>
<defs>
<clipPath id="clip0_5377_11553">
<rect width="400" height="268" fill="white"/>
</clipPath>
</defs>
</svg>
