<svg width="400" height="268" viewBox="0 0 400 268" fill="none" xmlns="http://www.w3.org/2000/svg">
<g clip-path="url(#clip0_5377_11548)">
<path d="M112.244 174.238L87.4535 172.675L88.1049 155.564L105.594 157.039C104.587 161.142 104.955 168.758 112.244 174.238Z" fill="#FFB8B8"/>
<path d="M197.92 45.5606C204.607 45.5606 210.028 40.0011 210.028 33.1431C210.028 26.2851 204.607 20.7256 197.92 20.7256C191.233 20.7256 185.812 26.2851 185.812 33.1431C185.812 40.0011 191.233 45.5606 197.92 45.5606Z" fill="#FD6584"/>
<path d="M225.016 27.2633C224.675 26.115 224.014 25.0943 223.114 24.3266C222.214 23.559 221.115 23.078 219.951 22.9429C219.924 22.9406 219.897 22.9406 219.87 22.9429C219.837 22.9325 219.804 22.9247 219.77 22.9197C215.716 22.3802 211.209 23.6917 208.175 26.5471C207.049 27.5904 206.149 28.8641 205.532 30.2862C204.969 29.4984 204.228 28.8631 203.373 28.4352C202.517 28.0074 201.572 27.7999 200.621 27.8307C199.394 27.9139 198.222 28.3833 197.264 29.1747C196.306 29.9662 195.61 31.0413 195.27 32.2534C195.233 32.4015 195.243 32.558 195.299 32.6996C195.356 32.8413 195.455 32.9604 195.583 33.0393C195.948 33.3592 196.381 33.5856 196.848 33.6997C197.85 33.9183 198.861 34.1183 199.873 34.2996C201.85 34.6531 203.837 34.9399 205.836 35.16C207.155 35.3042 208.478 35.4189 209.803 35.5041C212.542 35.6809 215.295 35.7227 218.038 35.6344C219.398 35.5879 220.704 35.5413 221.947 34.9275C222.852 34.4708 223.626 33.7799 224.191 32.9231C224.724 32.0988 225.073 31.1649 225.216 30.1871C225.359 29.2092 225.29 28.2112 225.016 27.2633Z" fill="#C2C2C2"/>
<path d="M200.107 45.3542C200.084 44.8339 199.999 44.3185 199.853 43.8195C199.51 42.6713 198.847 41.6509 197.947 40.8834C197.046 40.1159 195.947 39.6348 194.783 39.4991C194.758 39.4968 194.732 39.4968 194.706 39.4991C194.672 39.4891 194.637 39.4814 194.602 39.4759C192.358 39.194 190.082 39.434 187.941 40.1781C184.649 41.3082 181.76 43.587 180.368 46.8424C179.805 46.0541 179.063 45.4185 178.207 44.9906C177.35 44.5627 176.405 44.3555 175.453 44.3869C174.226 44.4701 173.054 44.9395 172.096 45.7309C171.138 46.5224 170.442 47.5975 170.102 48.8096C170.067 48.9577 170.078 49.1134 170.134 49.2546C170.191 49.3958 170.289 49.5151 170.415 49.5955C170.78 49.9145 171.214 50.1408 171.68 50.2559C172.687 50.4745 173.693 50.6745 174.709 50.8558C176.686 51.2093 178.672 51.4961 180.668 51.7162C184.721 52.1625 188.8 52.321 192.874 52.1906C194.23 52.1441 195.541 52.0975 196.783 51.4837C197.687 51.0268 198.459 50.3359 199.023 49.4793C199.818 48.2644 200.199 46.8142 200.107 45.3542Z" fill="#C2C2C2"/>
<path d="M333.953 221.917H287.077C286.821 218.067 286.843 214.203 287.144 210.357C289.018 186.595 301.623 163.959 320.64 150.252C318.21 159.13 319.461 167.956 321.99 176.817C321.636 176.938 321.281 177.042 320.96 177.18C318.393 178.156 316.037 179.637 314.025 181.542C313.469 182.078 312.878 182.857 313.164 183.601C313.417 184.224 314.176 184.431 314.834 184.57C316.421 184.882 318.008 185.193 319.576 185.487C320.842 185.747 322.107 185.989 323.373 186.248C323.962 186.352 324.552 186.473 325.144 186.594C325.229 186.802 325.28 186.992 325.364 187.183C328.334 195.576 331.573 204.039 333.092 212.64C333.468 214.798 333.728 216.976 333.869 219.164C333.921 220.082 333.953 221 333.953 221.917Z" fill="#C2C2C2"/>
<path d="M120.201 190.42C112.236 195.386 107.174 203.069 103.04 211.673C99.4422 212.514 96.1209 214.303 93.4045 216.865C92.8309 217.401 92.2401 218.18 92.543 218.924C92.796 219.547 93.5556 219.754 94.2135 219.893C95.7829 220.205 97.3877 220.516 98.9552 220.81C98.8033 221.174 98.6514 221.554 98.5018 221.918H45.8535C48.2434 218.612 50.8901 215.509 53.7676 212.641C54.392 212.001 55.0332 211.395 55.6911 210.772C62.4024 204.551 70.1086 199.563 78.4715 196.027C91.6461 190.378 106.053 188.442 120.202 190.42H120.201Z" fill="#C2C2C2"/>
<path d="M229.143 201.733L271.028 205.546L271.477 205.588V22.2903L271.028 21.9694C262.298 15.7073 252.856 10.5628 242.909 6.65039L240.769 36.9257L240.574 39.6974L238.456 69.7216L237.803 78.9576L229.22 200.663L229.143 201.733Z" fill="#C2C2C2"/>
<path d="M125.56 18.8764C125.261 19.0717 124.961 19.267 124.662 19.4717V205.588L125.56 205.504L166.992 201.733L166.915 200.663L158.331 78.9573L157.678 69.7212L155.56 39.697L155.365 36.9253L153.121 5.17578C143.441 8.61692 134.19 13.2155 125.56 18.8764Z" fill="#C2C2C2"/>
<path d="M124.662 19.4722C124.058 19.8722 123.455 20.2814 122.861 20.6953V208.128C122.861 212.811 125.568 216.736 129.187 217.736C129.778 217.9 130.388 217.983 131.001 217.982H265.585C266.196 217.983 266.804 217.9 267.394 217.736C268.739 217.353 269.958 216.604 270.922 215.569C272.76 213.554 273.764 210.887 273.724 208.128V23.9554C272.98 23.3927 272.232 22.8346 271.475 22.2905L271.026 21.9696V208.128C271.027 208.731 270.957 209.332 270.818 209.918C270.178 212.685 268.07 214.713 265.585 214.713H131.001C127.999 214.713 125.559 211.76 125.559 208.128V18.877C125.26 19.0723 124.961 19.2676 124.662 19.4722Z" fill="#C2C2C2"/>
<path d="M272.375 36.9277H124.209V39.699H272.375V36.9277Z" fill="#C2C2C2"/>
<path d="M226.997 1.57635C226.1 1.34847 225.202 1.13455 224.295 0.93457V76.1856H226.997V1.57635Z" fill="#C2C2C2"/>
<path d="M172.292 0C171.39 0.172072 170.488 0.348795 169.59 0.539469V76.1858H172.292V0Z" fill="#C2C2C2"/>
<path d="M95.1602 213.131C95.1595 214.722 95.4566 216.297 96.0353 217.773C96.2576 218.345 96.5229 218.898 96.8289 219.428C97.224 220.119 97.6826 220.77 98.1983 221.372C99.3374 222.704 100.741 223.77 102.314 224.501C103.887 225.231 105.595 225.609 107.322 225.609H284.761C287.987 225.609 291.08 224.295 293.361 221.956C295.641 219.616 296.923 216.444 296.923 213.136C296.923 209.828 295.641 206.655 293.361 204.316C291.08 201.977 287.987 200.663 284.761 200.663H107.322C104.098 200.666 101.007 201.981 98.7272 204.318C96.4473 206.656 95.1645 209.825 95.1602 213.131Z" fill="#C2C2C2"/>
<path d="M124.209 78.959L271.475 78.959V69.7215L124.209 69.7215V78.959Z" fill="#C2C2C2"/>
<path d="M204.148 72.0303H191.538C191.538 70.6828 192.06 69.3905 192.989 68.4376C193.918 67.4848 195.178 66.9495 196.492 66.9495H199.194C199.845 66.9495 200.489 67.0808 201.09 67.3361C201.691 67.5914 202.237 67.9657 202.697 68.4375C203.157 68.9093 203.522 69.4694 203.771 70.0859C204.02 70.7023 204.148 71.363 204.148 72.0303Z" fill="#C2C2C2"/>
<path d="M0 220.256C4.03406 225.05 8.3901 229.549 13.0362 233.719H386.965C391.611 229.549 395.967 225.05 400.001 220.256H0Z" fill="#C2C2C2"/>
<path d="M180.297 175.234V222.931H212.877V175.234C212.878 174.891 212.771 174.557 212.573 174.281C212.374 174.005 212.095 173.801 211.775 173.7C211.625 173.648 211.467 173.623 211.308 173.625H181.87C181.664 173.625 181.46 173.666 181.269 173.747C181.078 173.827 180.905 173.946 180.758 174.095C180.612 174.245 180.496 174.422 180.417 174.618C180.338 174.813 180.297 175.023 180.297 175.234ZM193.012 191.623C193.012 190.677 193.378 189.77 194.03 189.101C194.683 188.432 195.567 188.056 196.49 188.056C197.412 188.056 198.297 188.432 198.949 189.101C199.601 189.77 199.968 190.677 199.968 191.623V197.157C199.968 198.103 199.601 199.01 198.949 199.679C198.297 200.348 197.412 200.724 196.49 200.724C195.567 200.724 194.683 200.348 194.03 199.679C193.378 199.01 193.012 198.103 193.012 197.157V191.623Z" fill="#E8E6E6"/>
<path d="M180.197 221.405V226.005C180.198 226.243 180.29 226.471 180.454 226.64C180.618 226.809 180.84 226.905 181.072 226.907H212.102C212.335 226.906 212.557 226.81 212.721 226.641C212.885 226.472 212.977 226.243 212.977 226.005V221.405H180.197Z" fill="#2F2F2F"/>
<path d="M129.043 103.373V190.458C129.044 191.568 129.474 192.632 130.239 193.417C131.004 194.202 132.042 194.643 133.124 194.644H258.956C260.039 194.643 261.076 194.202 261.841 193.417C262.606 192.632 263.037 191.568 263.037 190.458V103.373C263.035 102.264 262.604 101.202 261.839 100.418C261.074 99.6347 260.038 99.1939 258.956 99.1924H133.124C132.043 99.1937 131.006 99.6345 130.241 100.418C129.476 101.202 129.045 102.264 129.043 103.373Z" fill="#2F2F2F"/>
<path d="M131.994 104.456V189.385C131.995 189.978 132.225 190.547 132.634 190.966C133.043 191.385 133.597 191.621 134.175 191.622H257.908C258.486 191.621 259.04 191.385 259.449 190.966C259.858 190.547 260.088 189.978 260.089 189.385V104.456C260.089 103.863 259.86 103.293 259.451 102.873C259.042 102.453 258.487 102.216 257.908 102.215H134.175C133.596 102.216 133.042 102.453 132.633 102.873C132.224 103.293 131.994 103.863 131.994 104.456Z" fill="#C2C2C2"/>
<path d="M157.224 227.988C157.35 228.15 157.51 228.281 157.693 228.37C157.875 228.459 158.074 228.505 158.276 228.504H231.89C232.091 228.504 232.29 228.458 232.471 228.369C232.653 228.28 232.813 228.151 232.94 227.99C233.067 227.83 233.157 227.643 233.204 227.442C233.252 227.241 233.255 227.032 233.214 226.83L232.071 221.263C232.024 221.036 231.922 220.825 231.774 220.649C231.627 220.473 231.439 220.337 231.228 220.254C231.074 220.193 230.911 220.161 230.747 220.161H159.415C159.25 220.161 159.087 220.192 158.934 220.254C158.722 220.337 158.535 220.472 158.387 220.649C158.24 220.825 158.138 221.036 158.091 221.263L156.948 226.83C156.907 227.032 156.911 227.241 156.959 227.441C157.007 227.641 157.097 227.828 157.224 227.988Z" fill="black"/>
<path d="M228.179 222.561H230.003C230.126 222.561 230.225 222.459 230.225 222.334V221.392C230.225 221.267 230.126 221.165 230.003 221.165H228.179C228.056 221.165 227.957 221.267 227.957 221.392V222.334C227.957 222.459 228.056 222.561 228.179 222.561Z" fill="#2F2F2F"/>
<path d="M223.643 222.561H225.468C225.59 222.561 225.689 222.459 225.689 222.334V221.392C225.689 221.267 225.59 221.165 225.468 221.165H223.643C223.521 221.165 223.422 221.267 223.422 221.392V222.334C223.422 222.459 223.521 222.561 223.643 222.561Z" fill="#2F2F2F"/>
<path d="M219.11 222.561H220.935C221.057 222.561 221.156 222.459 221.156 222.334V221.392C221.156 221.267 221.057 221.165 220.935 221.165H219.11C218.988 221.165 218.889 221.267 218.889 221.392V222.334C218.889 222.459 218.988 222.561 219.11 222.561Z" fill="#2F2F2F"/>
<path d="M214.575 222.561H216.4C216.522 222.561 216.621 222.459 216.621 222.334V221.392C216.621 221.267 216.522 221.165 216.4 221.165H214.575C214.453 221.165 214.354 221.267 214.354 221.392V222.334C214.354 222.459 214.453 222.561 214.575 222.561Z" fill="#2F2F2F"/>
<path d="M210.04 222.561H211.865C211.987 222.561 212.086 222.459 212.086 222.334V221.392C212.086 221.267 211.987 221.165 211.865 221.165H210.04C209.918 221.165 209.819 221.267 209.819 221.392V222.334C209.819 222.459 209.918 222.561 210.04 222.561Z" fill="#2F2F2F"/>
<path d="M205.505 222.561H207.329C207.452 222.561 207.551 222.459 207.551 222.334V221.392C207.551 221.267 207.452 221.165 207.329 221.165H205.505C205.383 221.165 205.284 221.267 205.284 221.392V222.334C205.284 222.459 205.383 222.561 205.505 222.561Z" fill="#2F2F2F"/>
<path d="M200.972 222.561H202.796C202.919 222.561 203.018 222.459 203.018 222.334V221.392C203.018 221.267 202.919 221.165 202.796 221.165H200.972C200.849 221.165 200.75 221.267 200.75 221.392V222.334C200.75 222.459 200.849 222.561 200.972 222.561Z" fill="#2F2F2F"/>
<path d="M196.436 222.561H198.261C198.383 222.561 198.482 222.459 198.482 222.334V221.392C198.482 221.267 198.383 221.165 198.261 221.165H196.436C196.314 221.165 196.215 221.267 196.215 221.392V222.334C196.215 222.459 196.314 222.561 196.436 222.561Z" fill="#2F2F2F"/>
<path d="M191.903 222.561H193.728C193.85 222.561 193.949 222.459 193.949 222.334V221.392C193.949 221.267 193.85 221.165 193.728 221.165H191.903C191.781 221.165 191.682 221.267 191.682 221.392V222.334C191.682 222.459 191.781 222.561 191.903 222.561Z" fill="#2F2F2F"/>
<path d="M187.368 222.561H189.193C189.315 222.561 189.414 222.459 189.414 222.334V221.392C189.414 221.267 189.315 221.165 189.193 221.165H187.368C187.246 221.165 187.147 221.267 187.147 221.392V222.334C187.147 222.459 187.246 222.561 187.368 222.561Z" fill="#2F2F2F"/>
<path d="M182.833 222.561H184.658C184.78 222.561 184.879 222.459 184.879 222.334V221.392C184.879 221.267 184.78 221.165 184.658 221.165H182.833C182.711 221.165 182.612 221.267 182.612 221.392V222.334C182.612 222.459 182.711 222.561 182.833 222.561Z" fill="#2F2F2F"/>
<path d="M178.3 222.561H180.124C180.247 222.561 180.346 222.459 180.346 222.334V221.392C180.346 221.267 180.247 221.165 180.124 221.165H178.3C178.178 221.165 178.078 221.267 178.078 221.392V222.334C178.078 222.459 178.178 222.561 178.3 222.561Z" fill="#2F2F2F"/>
<path d="M173.765 222.561H175.589C175.711 222.561 175.811 222.459 175.811 222.334V221.392C175.811 221.267 175.711 221.165 175.589 221.165H173.765C173.642 221.165 173.543 221.267 173.543 221.392V222.334C173.543 222.459 173.642 222.561 173.765 222.561Z" fill="#2F2F2F"/>
<path d="M169.229 222.561H171.054C171.176 222.561 171.275 222.459 171.275 222.334V221.392C171.275 221.267 171.176 221.165 171.054 221.165H169.229C169.107 221.165 169.008 221.267 169.008 221.392V222.334C169.008 222.459 169.107 222.561 169.229 222.561Z" fill="#2F2F2F"/>
<path d="M164.696 222.561H166.521C166.643 222.561 166.742 222.459 166.742 222.334V221.392C166.742 221.267 166.643 221.165 166.521 221.165H164.696C164.574 221.165 164.475 221.267 164.475 221.392V222.334C164.475 222.459 164.574 222.561 164.696 222.561Z" fill="#2F2F2F"/>
<path d="M160.161 222.561H161.986C162.108 222.561 162.207 222.459 162.207 222.334V221.392C162.207 221.267 162.108 221.165 161.986 221.165H160.161C160.039 221.165 159.94 221.267 159.94 221.392V222.334C159.94 222.459 160.039 222.561 160.161 222.561Z" fill="#2F2F2F"/>
<path d="M228.231 224.887H230.056C230.178 224.887 230.277 224.785 230.277 224.66V223.718C230.277 223.593 230.178 223.492 230.056 223.492H228.231C228.109 223.492 228.01 223.593 228.01 223.718V224.66C228.01 224.785 228.109 224.887 228.231 224.887Z" fill="#2F2F2F"/>
<path d="M223.698 224.887H225.523C225.645 224.887 225.744 224.785 225.744 224.66V223.718C225.744 223.593 225.645 223.492 225.523 223.492H223.698C223.576 223.492 223.477 223.593 223.477 223.718V224.66C223.477 224.785 223.576 224.887 223.698 224.887Z" fill="#2F2F2F"/>
<path d="M219.163 224.887H220.988C221.11 224.887 221.209 224.785 221.209 224.66V223.718C221.209 223.593 221.11 223.492 220.988 223.492H219.163C219.041 223.492 218.942 223.593 218.942 223.718V224.66C218.942 224.785 219.041 224.887 219.163 224.887Z" fill="#2F2F2F"/>
<path d="M214.628 224.887H216.453C216.575 224.887 216.674 224.785 216.674 224.66V223.718C216.674 223.593 216.575 223.492 216.453 223.492H214.628C214.506 223.492 214.407 223.593 214.407 223.718V224.66C214.407 224.785 214.506 224.887 214.628 224.887Z" fill="#2F2F2F"/>
<path d="M210.095 224.887H211.919C212.042 224.887 212.141 224.785 212.141 224.66V223.718C212.141 223.593 212.042 223.492 211.919 223.492H210.095C209.972 223.492 209.873 223.593 209.873 223.718V224.66C209.873 224.785 209.972 224.887 210.095 224.887Z" fill="#2F2F2F"/>
<path d="M205.56 224.887H207.384C207.506 224.887 207.605 224.785 207.605 224.66V223.718C207.605 223.593 207.506 223.492 207.384 223.492H205.56C205.437 223.492 205.338 223.593 205.338 223.718V224.66C205.338 224.785 205.437 224.887 205.56 224.887Z" fill="#2F2F2F"/>
<path d="M201.024 224.887H202.849C202.971 224.887 203.07 224.785 203.07 224.66V223.718C203.07 223.593 202.971 223.492 202.849 223.492H201.024C200.902 223.492 200.803 223.593 200.803 223.718V224.66C200.803 224.785 200.902 224.887 201.024 224.887Z" fill="#2F2F2F"/>
<path d="M196.491 224.887H198.316C198.438 224.887 198.537 224.785 198.537 224.66V223.718C198.537 223.593 198.438 223.492 198.316 223.492H196.491C196.369 223.492 196.27 223.593 196.27 223.718V224.66C196.27 224.785 196.369 224.887 196.491 224.887Z" fill="#2F2F2F"/>
<path d="M191.956 224.887H193.781C193.903 224.887 194.002 224.785 194.002 224.66V223.718C194.002 223.593 193.903 223.492 193.781 223.492H191.956C191.834 223.492 191.735 223.593 191.735 223.718V224.66C191.735 224.785 191.834 224.887 191.956 224.887Z" fill="#2F2F2F"/>
<path d="M187.421 224.887H189.246C189.368 224.887 189.467 224.785 189.467 224.66V223.718C189.467 223.593 189.368 223.492 189.246 223.492H187.421C187.299 223.492 187.2 223.593 187.2 223.718V224.66C187.2 224.785 187.299 224.887 187.421 224.887Z" fill="#2F2F2F"/>
<path d="M182.888 224.887H184.712C184.835 224.887 184.934 224.785 184.934 224.66V223.718C184.934 223.593 184.835 223.492 184.712 223.492H182.888C182.765 223.492 182.666 223.593 182.666 223.718V224.66C182.666 224.785 182.765 224.887 182.888 224.887Z" fill="#2F2F2F"/>
<path d="M178.352 224.887H180.177C180.299 224.887 180.398 224.785 180.398 224.66V223.718C180.398 223.593 180.299 223.492 180.177 223.492H178.352C178.23 223.492 178.131 223.593 178.131 223.718V224.66C178.131 224.785 178.23 224.887 178.352 224.887Z" fill="#2F2F2F"/>
<path d="M173.817 224.887H175.642C175.764 224.887 175.863 224.785 175.863 224.66V223.718C175.863 223.593 175.764 223.492 175.642 223.492H173.817C173.695 223.492 173.596 223.593 173.596 223.718V224.66C173.596 224.785 173.695 224.887 173.817 224.887Z" fill="#2F2F2F"/>
<path d="M169.284 224.887H171.109C171.231 224.887 171.33 224.785 171.33 224.66V223.718C171.33 223.593 171.231 223.492 171.109 223.492H169.284C169.162 223.492 169.063 223.593 169.063 223.718V224.66C169.063 224.785 169.162 224.887 169.284 224.887Z" fill="#2F2F2F"/>
<path d="M164.749 224.887H166.574C166.696 224.887 166.795 224.785 166.795 224.66V223.718C166.795 223.593 166.696 223.492 166.574 223.492H164.749C164.627 223.492 164.528 223.593 164.528 223.718V224.66C164.528 224.785 164.627 224.887 164.749 224.887Z" fill="#2F2F2F"/>
<path d="M160.214 224.887H162.038C162.161 224.887 162.26 224.785 162.26 224.66V223.718C162.26 223.593 162.161 223.492 162.038 223.492H160.214C160.092 223.492 159.993 223.593 159.993 223.718V224.66C159.993 224.785 160.092 224.887 160.214 224.887Z" fill="#2F2F2F"/>
<path d="M190.595 227.677H208.29C208.413 227.677 208.512 227.575 208.512 227.45V226.509C208.512 226.383 208.413 226.282 208.29 226.282H190.595C190.473 226.282 190.374 226.383 190.374 226.509V227.45C190.374 227.575 190.473 227.677 190.595 227.677Z" fill="#2F2F2F"/>
<path d="M140.394 113.914H256.17C256.292 113.914 256.41 113.865 256.496 113.776C256.582 113.687 256.631 113.567 256.631 113.442C256.631 113.317 256.582 113.197 256.496 113.108C256.41 113.019 256.292 112.97 256.17 112.97H140.394C140.272 112.97 140.155 113.019 140.068 113.108C139.982 113.197 139.934 113.317 139.934 113.442C139.934 113.567 139.982 113.687 140.068 113.776C140.155 113.865 140.272 113.914 140.394 113.914Z" fill="#2F2F2F"/>
<path d="M248.288 110.559C249.778 110.559 250.986 109.293 250.986 107.73C250.986 106.168 249.778 104.901 248.288 104.901C246.798 104.901 245.59 106.168 245.59 107.73C245.59 109.293 246.798 110.559 248.288 110.559Z" fill="#2F2F2F"/>
<path d="M238.968 110.559C240.458 110.559 241.666 109.293 241.666 107.73C241.666 106.168 240.458 104.901 238.968 104.901C237.477 104.901 236.27 106.168 236.27 107.73C236.27 109.293 237.477 110.559 238.968 110.559Z" fill="#2F2F2F"/>
<path d="M229.647 110.559C231.137 110.559 232.345 109.293 232.345 107.73C232.345 106.168 231.137 104.901 229.647 104.901C228.157 104.901 226.949 106.168 226.949 107.73C226.949 109.293 228.157 110.559 229.647 110.559Z" fill="#2F2F2F"/>
<path d="M145.512 106.117C145.512 106.252 145.564 106.381 145.656 106.477C145.749 106.573 145.874 106.627 146.006 106.628H152.626C152.759 106.628 152.887 106.574 152.981 106.478C153.075 106.381 153.127 106.251 153.127 106.114C153.127 105.978 153.075 105.847 152.981 105.751C152.887 105.655 152.759 105.601 152.626 105.601H146.006C145.94 105.601 145.876 105.615 145.815 105.641C145.755 105.668 145.701 105.706 145.655 105.754C145.609 105.802 145.572 105.858 145.548 105.921C145.523 105.983 145.511 106.05 145.512 106.117Z" fill="#2F2F2F"/>
<path d="M145.512 108.047C145.512 108.182 145.564 108.312 145.656 108.408C145.749 108.503 145.874 108.558 146.006 108.559H152.626C152.759 108.559 152.887 108.505 152.981 108.409C153.075 108.312 153.127 108.181 153.127 108.045C153.127 107.909 153.075 107.778 152.981 107.682C152.887 107.585 152.759 107.531 152.626 107.531H146.006C145.94 107.532 145.876 107.546 145.815 107.572C145.755 107.598 145.701 107.636 145.655 107.684C145.609 107.732 145.572 107.789 145.548 107.851C145.523 107.914 145.511 107.98 145.512 108.047Z" fill="#2F2F2F"/>
<path d="M145.512 109.973C145.511 110.04 145.523 110.106 145.548 110.169C145.572 110.231 145.609 110.288 145.655 110.336C145.701 110.384 145.755 110.422 145.815 110.448C145.876 110.474 145.94 110.488 146.006 110.489H152.626C152.759 110.489 152.887 110.435 152.981 110.338C153.075 110.242 153.127 110.111 153.127 109.975C153.127 109.839 153.075 109.708 152.981 109.611C152.887 109.515 152.759 109.461 152.626 109.461H146.006C145.874 109.462 145.749 109.517 145.656 109.612C145.564 109.708 145.512 109.838 145.512 109.973Z" fill="#2F2F2F"/>
<path d="M147.558 124.888H145.179C144.458 124.888 143.873 125.487 143.873 126.227C143.873 126.967 144.458 127.566 145.179 127.566H147.558C148.279 127.566 148.864 126.967 148.864 126.227C148.864 125.487 148.279 124.888 147.558 124.888Z" fill="#E82E2D"/>
<path d="M174.765 124.888H172.386C171.665 124.888 171.08 125.487 171.08 126.227C171.08 126.967 171.665 127.566 172.386 127.566H174.765C175.486 127.566 176.071 126.967 176.071 126.227C176.071 125.487 175.486 124.888 174.765 124.888Z" fill="#E82E2D"/>
<path d="M182.474 124.888H180.095C179.374 124.888 178.789 125.487 178.789 126.227C178.789 126.967 179.374 127.566 180.095 127.566H182.474C183.195 127.566 183.78 126.967 183.78 126.227C183.78 125.487 183.195 124.888 182.474 124.888Z" fill="#E82E2D"/>
<path d="M167.365 124.665H152.579C151.858 124.665 151.273 125.265 151.273 126.004C151.273 126.744 151.858 127.344 152.579 127.344H167.365C168.086 127.344 168.67 126.744 168.67 126.004C168.67 125.265 168.086 124.665 167.365 124.665Z" fill="#E82E2D"/>
<path d="M203.64 124.665H188.855C188.134 124.665 187.549 125.265 187.549 126.004C187.549 126.744 188.134 127.344 188.855 127.344H203.64C204.361 127.344 204.946 126.744 204.946 126.004C204.946 125.265 204.361 124.665 203.64 124.665Z" fill="#E82E2D"/>
<path d="M154.814 130.934H152.435C151.714 130.934 151.129 131.533 151.129 132.273C151.129 133.013 151.714 133.612 152.435 133.612H154.814C155.535 133.612 156.12 133.013 156.12 132.273C156.12 131.533 155.535 130.934 154.814 130.934Z" fill="#E82E2D"/>
<path d="M182.021 130.934H179.642C178.921 130.934 178.336 131.533 178.336 132.273C178.336 133.013 178.921 133.612 179.642 133.612H182.021C182.742 133.612 183.327 133.013 183.327 132.273C183.327 131.533 182.742 130.934 182.021 130.934Z" fill="#E82E2D"/>
<path d="M189.73 130.934H187.351C186.63 130.934 186.045 131.533 186.045 132.273C186.045 133.013 186.63 133.612 187.351 133.612H189.73C190.451 133.612 191.036 133.013 191.036 132.273C191.036 131.533 190.451 130.934 189.73 130.934Z" fill="#E82E2D"/>
<path d="M174.62 130.711H159.835C159.114 130.711 158.529 131.311 158.529 132.05C158.529 132.79 159.114 133.39 159.835 133.39H174.62C175.342 133.39 175.926 132.79 175.926 132.05C175.926 131.311 175.342 130.711 174.62 130.711Z" fill="#E82E2D"/>
<path d="M210.896 130.711H196.111C195.389 130.711 194.805 131.311 194.805 132.05C194.805 132.79 195.389 133.39 196.111 133.39H210.896C211.617 133.39 212.202 132.79 212.202 132.05C212.202 131.311 211.617 130.711 210.896 130.711Z" fill="#E82E2D"/>
<path d="M162.068 136.979H159.689C158.967 136.979 158.383 137.579 158.383 138.319C158.383 139.059 158.967 139.658 159.689 139.658H162.068C162.789 139.658 163.373 139.059 163.373 138.319C163.373 137.579 162.789 136.979 162.068 136.979Z" fill="#E82E2D"/>
<path d="M189.275 136.979H186.896C186.175 136.979 185.59 137.579 185.59 138.319C185.59 139.059 186.175 139.658 186.896 139.658H189.275C189.996 139.658 190.581 139.059 190.581 138.319C190.581 137.579 189.996 136.979 189.275 136.979Z" fill="#E82E2D"/>
<path d="M196.984 136.979H194.605C193.884 136.979 193.299 137.579 193.299 138.319C193.299 139.059 193.884 139.658 194.605 139.658H196.984C197.705 139.658 198.289 139.059 198.289 138.319C198.289 137.579 197.705 136.979 196.984 136.979Z" fill="#E82E2D"/>
<path d="M181.874 136.757H167.089C166.368 136.757 165.783 137.356 165.783 138.096C165.783 138.836 166.368 139.436 167.089 139.436H181.874C182.596 139.436 183.18 138.836 183.18 138.096C183.18 137.356 182.596 136.757 181.874 136.757Z" fill="#E82E2D"/>
<path d="M218.152 136.757H203.366C202.645 136.757 202.061 137.356 202.061 138.096C202.061 138.836 202.645 139.436 203.366 139.436H218.152C218.873 139.436 219.458 138.836 219.458 138.096C219.458 137.356 218.873 136.757 218.152 136.757Z" fill="#E82E2D"/>
<path d="M169.323 143.025H166.945C166.223 143.025 165.639 143.625 165.639 144.365C165.639 145.104 166.223 145.704 166.945 145.704H169.323C170.045 145.704 170.629 145.104 170.629 144.365C170.629 143.625 170.045 143.025 169.323 143.025Z" fill="#E82E2D"/>
<path d="M196.53 143.025H194.152C193.43 143.025 192.846 143.625 192.846 144.365C192.846 145.104 193.43 145.704 194.152 145.704H196.53C197.252 145.704 197.836 145.104 197.836 144.365C197.836 143.625 197.252 143.025 196.53 143.025Z" fill="#E82E2D"/>
<path d="M204.239 143.025H201.861C201.139 143.025 200.555 143.625 200.555 144.365C200.555 145.104 201.139 145.704 201.861 145.704H204.239C204.961 145.704 205.545 145.104 205.545 144.365C205.545 143.625 204.961 143.025 204.239 143.025Z" fill="#E82E2D"/>
<path d="M189.13 142.802H174.345C173.624 142.802 173.039 143.401 173.039 144.141C173.039 144.881 173.624 145.48 174.345 145.48H189.13C189.851 145.48 190.436 144.881 190.436 144.141C190.436 143.401 189.851 142.802 189.13 142.802Z" fill="#E82E2D"/>
<path d="M174.765 167.066H172.386C171.665 167.066 171.08 167.666 171.08 168.406C171.08 169.145 171.665 169.745 172.386 169.745H174.765C175.486 169.745 176.071 169.145 176.071 168.406C176.071 167.666 175.486 167.066 174.765 167.066Z" fill="#E82E2D"/>
<path d="M182.474 167.066H180.095C179.374 167.066 178.789 167.666 178.789 168.406C178.789 169.145 179.374 169.745 180.095 169.745H182.474C183.195 169.745 183.78 169.145 183.78 168.406C183.78 167.666 183.195 167.066 182.474 167.066Z" fill="#E82E2D"/>
<path d="M203.64 167.289H188.855C188.134 167.289 187.549 167.889 187.549 168.628C187.549 169.368 188.134 169.968 188.855 169.968H203.64C204.361 169.968 204.946 169.368 204.946 168.628C204.946 167.889 204.361 167.289 203.64 167.289Z" fill="#E82E2D"/>
<path d="M147.558 167.066H145.179C144.458 167.066 143.873 167.666 143.873 168.406C143.873 169.145 144.458 169.745 145.179 169.745H147.558C148.279 169.745 148.864 169.145 148.864 168.406C148.864 167.666 148.279 167.066 147.558 167.066Z" fill="#E82E2D"/>
<path d="M167.365 167.289H152.579C151.858 167.289 151.273 167.889 151.273 168.628C151.273 169.368 151.858 169.968 152.579 169.968H167.365C168.086 169.968 168.67 169.368 168.67 168.628C168.67 167.889 168.086 167.289 167.365 167.289Z" fill="#E82E2D"/>
<path d="M154.814 161.021H152.435C151.714 161.021 151.129 161.62 151.129 162.36C151.129 163.1 151.714 163.699 152.435 163.699H154.814C155.535 163.699 156.12 163.1 156.12 162.36C156.12 161.62 155.535 161.021 154.814 161.021Z" fill="#E82E2D"/>
<path d="M182.021 161.021H179.642C178.921 161.021 178.336 161.62 178.336 162.36C178.336 163.1 178.921 163.699 179.642 163.699H182.021C182.742 163.699 183.327 163.1 183.327 162.36C183.327 161.62 182.742 161.021 182.021 161.021Z" fill="#E82E2D"/>
<path d="M189.73 161.021H187.351C186.63 161.021 186.045 161.62 186.045 162.36C186.045 163.1 186.63 163.699 187.351 163.699H189.73C190.451 163.699 191.036 163.1 191.036 162.36C191.036 161.62 190.451 161.021 189.73 161.021Z" fill="#E82E2D"/>
<path d="M174.62 161.243H159.835C159.114 161.243 158.529 161.843 158.529 162.583C158.529 163.322 159.114 163.922 159.835 163.922H174.62C175.342 163.922 175.926 163.322 175.926 162.583C175.926 161.843 175.342 161.243 174.62 161.243Z" fill="#E82E2D"/>
<path d="M162.068 154.975H159.689C158.967 154.975 158.383 155.574 158.383 156.314C158.383 157.054 158.967 157.653 159.689 157.653H162.068C162.789 157.653 163.373 157.054 163.373 156.314C163.373 155.574 162.789 154.975 162.068 154.975Z" fill="#E82E2D"/>
<path d="M189.275 154.975H186.896C186.175 154.975 185.59 155.574 185.59 156.314C185.59 157.054 186.175 157.653 186.896 157.653H189.275C189.996 157.653 190.581 157.054 190.581 156.314C190.581 155.574 189.996 154.975 189.275 154.975Z" fill="#E82E2D"/>
<path d="M196.984 154.975H194.605C193.884 154.975 193.299 155.574 193.299 156.314C193.299 157.054 193.884 157.653 194.605 157.653H196.984C197.705 157.653 198.289 157.054 198.289 156.314C198.289 155.574 197.705 154.975 196.984 154.975Z" fill="#E82E2D"/>
<path d="M181.874 155.198H167.089C166.368 155.198 165.783 155.798 165.783 156.538C165.783 157.277 166.368 157.877 167.089 157.877H181.874C182.596 157.877 183.18 157.277 183.18 156.538C183.18 155.798 182.596 155.198 181.874 155.198Z" fill="#E82E2D"/>
<path d="M169.323 148.929H166.945C166.223 148.929 165.639 149.528 165.639 150.268C165.639 151.008 166.223 151.607 166.945 151.607H169.323C170.045 151.607 170.629 151.008 170.629 150.268C170.629 149.528 170.045 148.929 169.323 148.929Z" fill="#E82E2D"/>
<path d="M196.53 148.929H194.152C193.43 148.929 192.846 149.528 192.846 150.268C192.846 151.008 193.43 151.607 194.152 151.607H196.53C197.252 151.607 197.836 151.008 197.836 150.268C197.836 149.528 197.252 148.929 196.53 148.929Z" fill="#E82E2D"/>
<path d="M204.239 148.929H201.861C201.139 148.929 200.555 149.528 200.555 150.268C200.555 151.008 201.139 151.607 201.861 151.607H204.239C204.961 151.607 205.545 151.008 205.545 150.268C205.545 149.528 204.961 148.929 204.239 148.929Z" fill="#E82E2D"/>
<path d="M189.13 149.152H174.345C173.624 149.152 173.039 149.752 173.039 150.492C173.039 151.231 173.624 151.831 174.345 151.831H189.13C189.851 151.831 190.436 151.231 190.436 150.492C190.436 149.752 189.851 149.152 189.13 149.152Z" fill="#E82E2D"/>
<path d="M159.085 253.899C158.985 253.95 158.885 254.001 158.786 254.048C158.155 254.369 157.521 254.685 156.881 254.997C154.968 255.931 153.03 256.82 151.068 257.661C145.906 259.876 140.609 261.745 135.211 263.256C134.304 257.457 133.424 243.779 132.581 233.72C132.422 231.827 132.263 230.065 132.105 228.507C131.954 226.462 131.668 224.429 131.248 222.424C131.207 222.267 131.147 222.115 131.071 221.973C131.157 222.777 131.248 225.177 131.334 228.507C131.379 230.065 131.42 231.827 131.465 233.72C131.678 243.403 131.901 256.578 132.123 264.079C131.493 264.237 130.858 264.395 130.223 264.544C129.824 264.642 129.42 264.735 129.017 264.823C128.527 264.935 128.037 265.047 127.547 265.149C127.034 265.26 126.521 265.367 126.01 265.47C117.637 267.157 109.123 268.004 100.59 268C100.023 268 99.4608 267.995 98.894 267.99C98.7217 267.99 98.5493 267.986 98.3725 267.981C97.8737 267.972 97.3568 267.962 96.8308 267.948C86.7465 267.663 76.7282 266.182 66.9756 263.535L67.3701 233.72L67.4381 228.507L67.4654 226.53C67.2407 227.166 67.1064 227.832 67.0663 228.507C66.9076 229.777 66.7444 231.576 66.5811 233.72C65.9599 241.98 65.3205 255.304 64.6585 262.884C56.8184 260.596 51.0867 258.508 43.9222 254.834C43.6456 254.694 43.3645 254.55 43.0879 254.406C43.1378 254.048 43.1922 253.69 43.2421 253.322C44.0537 247.537 43.097 240.008 43.9948 233.72C44.6795 228.87 45.3869 224.21 46.0988 220.257C46.9603 215.499 47.8355 211.76 48.7016 209.942C49.6992 207.844 50.6968 205.78 51.6626 203.803L52.8915 201.296C53.1091 200.855 53.3268 200.417 53.5399 199.99C54.5103 198.041 55.4263 196.241 56.2651 194.646C56.8546 193.525 57.3988 192.511 57.8976 191.623C58.4825 190.577 58.9994 189.712 59.4257 189.056C62.574 184.162 67.2584 180.517 72.7027 178.727L72.8387 178.69L72.9702 178.746L73.1199 178.815L81.7626 175.574L85.6215 166.045L105.442 164.794L108.643 167.291L110.28 168.57L112.026 169.933L115.236 172.44L116.148 172.728L117.504 173.156L126.777 176.076L126.872 176.034L127.008 176.072C131.962 177.698 136.299 180.868 139.414 185.14C139.723 185.549 140.008 185.973 140.285 186.401C141.038 187.545 142.053 189.354 143.25 191.623C143.745 192.558 144.266 193.572 144.815 194.646C145.146 195.292 148.003 204.436 150.782 213.774C153.381 222.517 155.911 231.432 156.242 233.72C156.301 234.143 156.364 234.571 156.423 234.994C156.8 237.641 157.171 240.305 157.53 242.905C158.06 246.76 158.577 250.481 159.071 253.806C159.076 253.839 159.08 253.867 159.085 253.899Z" fill="#E82E2D"/>
<path opacity="0.2" d="M138.079 220.236L134.225 204.985L130.824 218.147L138.079 220.236Z" fill="black"/>
<path d="M7.59458 220.059C7.79434 220.656 8.1733 221.172 8.67703 221.534C9.18076 221.896 9.78335 222.085 10.3983 222.073L22.4111 221.756C23.0305 221.744 23.6294 221.526 24.1183 221.136C24.6071 220.745 24.9597 220.203 25.1231 219.59L26.8231 200.948C27.4263 201.228 28.0828 201.366 28.7448 201.353C29.9064 201.323 31.0088 200.821 31.8095 199.957C32.6102 199.094 33.0437 197.939 33.0145 196.748C32.9854 195.557 32.496 194.426 31.654 193.605C30.812 192.784 29.6865 192.339 28.5249 192.369C28.2604 192.368 27.9965 192.397 27.7377 192.453C27.4562 192.141 27.1141 191.893 26.7335 191.725C26.3528 191.557 25.9421 191.472 25.5276 191.477L7.04908 191.966C6.89583 191.972 6.74335 191.991 6.59336 192.024C6.18814 192.102 5.8038 192.267 5.46622 192.51C5.12864 192.752 4.84566 193.066 4.6363 193.431C4.42694 193.795 4.29607 194.201 4.2525 194.621C4.20893 195.042 4.25367 195.467 4.3837 195.868L7.59458 220.059ZM27.1714 199.682L28.3812 195.239C28.5188 194.726 28.5219 194.184 28.3903 193.669C28.4487 193.669 28.5009 193.641 28.5594 193.641C28.9708 193.631 29.38 193.704 29.7638 193.856C30.1476 194.009 30.4983 194.237 30.796 194.528C31.0937 194.82 31.3326 195.168 31.4989 195.554C31.6653 195.94 31.7559 196.356 31.7655 196.778C31.7752 197.2 31.7037 197.62 31.5552 198.013C31.4066 198.407 31.184 198.767 30.8999 199.072C30.6158 199.377 30.2759 199.622 29.8995 199.793C29.5231 199.964 29.1177 200.056 28.7063 200.066C28.17 200.084 27.6394 199.951 27.1714 199.682Z" fill="black"/>
<path d="M6.59375 192.022C6.98734 194.331 11.4135 195.954 16.7356 195.671C21.6297 195.439 25.6309 193.678 26.3642 191.589C26.0929 191.506 25.8108 191.468 25.528 191.474L7.04947 191.964C6.8962 191.97 6.74372 191.989 6.59375 192.022Z" fill="black"/>
<path d="M19.2179 209.064C19.2487 209.056 19.2779 209.043 19.3045 209.025L22.6061 206.808C22.6459 206.782 22.6786 206.745 22.7013 206.702C22.724 206.659 22.7358 206.611 22.7358 206.562C22.7358 206.513 22.724 206.465 22.7013 206.422C22.6786 206.379 22.6459 206.343 22.6061 206.316L19.1743 204.011C19.1107 203.968 19.0332 203.953 18.9587 203.969C18.8843 203.985 18.819 204.031 18.7773 204.096C18.7357 204.161 18.721 204.241 18.7365 204.317C18.752 204.393 18.7965 204.46 18.8601 204.503L21.925 206.562L18.9902 208.532C18.9338 208.57 18.8923 208.628 18.8731 208.694C18.8539 208.761 18.8582 208.832 18.8853 208.896C18.9124 208.96 18.9606 209.011 19.0213 209.042C19.082 209.073 19.1513 209.08 19.217 209.064H19.2179Z" fill="#C2C2C2"/>
<path d="M14.0037 209.31C14.0591 209.296 14.109 209.265 14.147 209.221C14.1851 209.177 14.2096 209.123 14.2173 209.065C14.2251 209.007 14.2159 208.948 14.1907 208.895C14.1656 208.843 14.1257 208.799 14.0763 208.77L11.0327 206.98L13.9742 204.739C14.0353 204.693 14.0758 204.623 14.0869 204.546C14.098 204.469 14.0788 204.39 14.0334 204.328C13.9881 204.265 13.9203 204.224 13.8451 204.212C13.7699 204.201 13.6934 204.22 13.6323 204.267L10.3389 206.776C10.3006 206.805 10.2699 206.843 10.2497 206.888C10.2295 206.932 10.2204 206.981 10.2231 207.03C10.2259 207.078 10.2406 207.126 10.2657 207.167C10.2908 207.209 10.3257 207.243 10.367 207.268L13.7906 209.28C13.8552 209.318 13.9316 209.329 14.0037 209.31Z" fill="#C2C2C2"/>
<path d="M18.8896 211.006C18.9173 210.999 18.9438 210.987 18.9681 210.972C19.0003 210.952 19.0283 210.926 19.0506 210.894C19.0729 210.863 19.0889 210.828 19.0979 210.79C19.1068 210.753 19.1084 210.714 19.1026 210.675C19.0969 210.637 19.0838 210.6 19.0642 210.567L14.3837 202.675C14.3641 202.642 14.3383 202.614 14.3079 202.591C14.2774 202.568 14.2429 202.552 14.2063 202.542C14.1696 202.533 14.1316 202.532 14.0944 202.538C14.0571 202.544 14.0214 202.557 13.9892 202.577C13.957 202.597 13.929 202.624 13.9068 202.655C13.8845 202.686 13.8685 202.722 13.8596 202.759C13.8508 202.797 13.8492 202.836 13.855 202.874C13.8608 202.912 13.8739 202.949 13.8935 202.982L18.574 210.874C18.6061 210.928 18.6542 210.97 18.7114 210.994C18.7686 211.018 18.8317 211.022 18.8914 211.006H18.8896Z" fill="#C2C2C2"/>
<path d="M356.442 254.404C356.166 254.548 355.885 254.692 355.608 254.832C348.444 258.506 342.712 260.594 334.872 262.882C334.21 255.302 333.57 241.978 332.949 233.718C332.786 231.574 332.623 229.775 332.464 228.505C332.424 227.83 332.29 227.164 332.065 226.528L332.092 228.505L332.16 233.718L332.555 263.533C322.802 266.18 312.784 267.661 302.699 267.947C302.173 267.961 301.657 267.97 301.158 267.979C300.981 267.984 300.809 267.988 300.636 267.988C300.069 267.993 299.507 267.998 298.94 267.998C288.313 268.006 277.725 266.689 267.407 264.077C267.63 256.576 267.852 243.401 268.065 233.718C268.11 231.825 268.151 230.063 268.196 228.505C268.283 225.175 268.373 222.775 268.459 221.971C268.383 222.113 268.324 222.265 268.283 222.422C267.863 224.427 267.576 226.46 267.426 228.505C267.267 230.063 267.108 231.825 266.949 233.718C266.106 243.777 265.226 257.455 264.319 263.254C258.921 261.743 253.625 259.874 248.462 257.659C245.742 256.497 243.069 255.243 240.445 253.897C240.944 250.549 241.466 246.796 242.001 242.903C242.418 239.885 242.849 236.783 243.288 233.718C243.969 228.984 267.076 177.86 272.522 176.07L272.658 176.032L272.754 176.074L282.027 173.154L283.382 172.726L284.294 172.438L287.504 169.931L289.25 168.568L290.887 167.289L294.088 164.792L313.909 166.043L317.768 175.572L326.41 178.813L326.56 178.744L326.691 178.688L326.828 178.725C332.272 180.515 336.956 184.16 340.105 189.054C340.531 189.71 341.048 190.575 341.633 191.621C342.131 192.509 342.676 193.523 343.265 194.644C344.104 196.239 345.02 198.039 345.99 199.988C346.203 200.415 346.421 200.853 346.639 201.294C347.042 202.113 347.452 202.948 347.868 203.801C348.833 205.778 349.831 207.842 350.829 209.94C351.695 211.758 352.57 215.497 353.431 220.255C354.143 224.208 354.851 228.868 355.535 233.718C356.433 240.006 355.477 247.535 356.288 253.32C356.338 253.69 356.392 254.048 356.442 254.404Z" fill="#E82E2D"/>
<path d="M298.313 161.372C311.044 161.372 321.365 150.788 321.365 137.731C321.365 124.674 311.044 114.089 298.313 114.089C285.582 114.089 275.262 124.674 275.262 137.731C275.262 150.788 285.582 161.372 298.313 161.372Z" fill="#FFB9B9"/>
<path opacity="0.2" d="M261.449 220.236L265.304 204.985L268.704 218.147L261.449 220.236Z" fill="black"/>
<path d="M363.978 210.299C362.6 229.776 364.028 238.351 356.419 254.41C349.496 257.885 342.285 260.721 334.871 262.883C334.101 263.106 333.328 263.323 332.554 263.534C322.802 266.181 312.784 267.662 302.699 267.948C302.173 267.962 301.656 267.971 301.157 267.98C300.981 267.985 300.808 267.99 300.636 267.99C300.069 267.994 299.507 267.999 298.94 267.999C288.313 268.007 277.725 266.69 267.407 264.078C266.373 263.818 265.344 263.544 264.319 263.255C258.921 261.744 253.624 259.875 248.462 257.661C245.741 256.498 243.069 255.244 240.445 253.898C239.851 253.591 239.257 253.284 238.672 252.968C235.666 247.546 233.956 240.951 233.92 233.026C236.001 219.372 359.38 198.524 363.978 210.299Z" fill="#E8E6E6"/>
<path opacity="0.2" d="M363.976 213.634C364.046 212.428 364.125 211.183 364.217 209.886C359.619 198.111 236.24 218.959 234.158 232.613C234.164 233.865 234.216 235.078 234.304 236.266C239.344 222.79 356.556 202.974 363.976 213.634Z" fill="black"/>
<path d="M235.423 224.446L245.55 219.253L237.111 195.883L234.889 184.098C234.6 182.566 233.924 181.14 232.929 179.96C231.935 178.781 230.655 177.89 229.219 177.377C227.783 176.863 226.241 176.745 224.747 177.035C223.253 177.324 221.859 178.01 220.704 179.025C218.993 180.529 217.919 182.656 217.708 184.957C217.497 187.258 218.166 189.553 219.574 191.358L227.83 201.942L235.423 224.446Z" fill="#FFB9B9"/>
<path d="M240.979 201.697L227.477 208.621L237.725 241.551C238.46 243.916 239.78 246.046 241.554 247.734C243.329 249.422 245.498 250.611 247.853 251.185C250.756 251.894 253.804 251.636 256.555 250.449C259.305 249.261 261.616 247.206 263.151 244.582L290.323 196.815C292.248 193.523 292.843 189.59 291.978 185.855C291.114 182.12 288.86 178.879 285.698 176.826C283.997 175.721 282.089 174.996 280.097 174.697C278.104 174.399 276.073 174.534 274.136 175.094C272.198 175.654 270.397 176.626 268.85 177.948C267.303 179.269 266.044 180.909 265.156 182.762L248.575 219.008L240.979 201.697Z" fill="#E82E2D"/>
<path d="M95.4184 159.741C109.426 159.741 120.782 148.094 120.782 133.728C120.782 119.361 109.426 107.715 95.4184 107.715C81.4104 107.715 70.0547 119.361 70.0547 133.728C70.0547 148.094 81.4104 159.741 95.4184 159.741Z" fill="#FFB9B9"/>
<path d="M70.3596 115.803C72.4219 112.952 75.3861 110.925 77.6533 108.243C78.8971 106.772 79.9301 105.104 81.329 103.787C83.9272 101.339 87.5612 100.336 91.0872 100.211C94.9515 100.109 98.7849 100.942 102.277 102.642C105.769 104.342 108.822 106.861 111.189 109.995L116.718 106.671L118.903 112.568C119.5 112.035 120.263 111.737 121.054 111.725C121.846 111.714 122.616 111.99 123.228 112.505C123.84 113.021 124.254 113.742 124.397 114.54C124.541 115.339 124.403 116.164 124.01 116.868C124.449 115.478 126.459 115.184 127.566 116.102C128.674 117.02 128.972 118.654 128.791 120.101C128.564 121.691 127.878 123.175 126.823 124.362C125.767 125.549 124.389 126.386 122.866 126.764C120.463 127.313 117.662 126.736 115.737 128.313C114.195 129.578 113.728 131.881 112.154 133.103C110.214 134.61 107.471 133.913 105.058 134.246C100.837 134.829 97.4954 139.256 98.0023 143.594C97.6205 142.226 97.2192 140.818 96.3522 139.706C95.4852 138.595 94.0256 137.843 92.6965 138.251C90.4991 138.927 90.1395 141.999 90.6723 144.287C92.0848 150.356 97.4373 160.166 97.4373 160.166C90.4868 162.978 82.2064 160.319 76.8439 154.983C71.4814 149.648 68.6882 142.092 67.4715 134.532C66.4381 128.122 66.5846 121.021 70.3596 115.803Z" fill="black"/>
<path d="M327.202 150.764C332.027 139.416 329.294 128.976 323.411 123.437V123.432C321.098 118.117 318.024 114.015 314.505 113.052C312.805 111.931 311.154 110.615 309.322 109.946C308.469 109.618 307.56 109.471 306.65 109.513C305.739 109.556 304.847 109.786 304.026 110.192L303.092 109.936C301.028 109.633 303.042 110.113 300.335 109.183C296.354 107.281 292.767 106.43 289.575 106.43C279.163 106.43 273.005 115.47 271.373 126.399L280.075 128.776L283.099 123.832L281.703 129.222L286.505 130.529C293.814 140.291 285.067 162.809 273.98 175.337C276.619 174.589 279.248 173.956 281.866 173.44L291.379 159.135L285.484 172.156C288.545 171.696 292.449 172.138 296.716 173.026C298.154 171.101 298.911 168.534 298.167 166.245C299.383 168.659 300.222 171.253 300.652 173.933C309.658 176.188 321.942 177.346 328.562 178.202C333.911 176.414 333.926 156.186 327.202 150.764Z" fill="black"/>
<path d="M330.341 112.168C333.876 120.284 326.744 123.776 320.211 123.677C314.307 123.588 309.29 119.334 308.989 113.287C308.844 110.383 309.83 107.539 311.73 105.381C313.63 103.222 316.288 101.926 319.119 101.778C325.015 101.469 327.935 106.639 330.341 112.168Z" fill="black"/>
<path d="M166.023 246.67L159.928 235.891L180.197 219.59L188.623 210.157C189.697 208.94 191.071 208.041 192.601 207.556C194.13 207.072 195.759 207.019 197.316 207.403C198.884 207.809 200.321 208.631 201.482 209.786C202.643 210.941 203.488 212.389 203.931 213.984C205.358 218.96 202.808 224.236 198.167 225.916L185.072 230.656L166.023 246.67Z" fill="#FFB9B9"/>
<path d="M170.58 243.97L161.516 251.718L159.072 253.806L158.786 254.048C158.156 254.369 157.521 254.685 156.881 254.997C154.968 255.932 153.03 256.82 151.068 257.662C145.906 259.876 140.609 261.745 135.211 263.256C134.186 263.545 133.157 263.819 132.123 264.079C131.493 264.237 130.858 264.396 130.223 264.544C129.824 264.642 129.421 264.735 129.017 264.823C128.527 264.935 128.038 265.047 127.548 265.149C127.034 265.261 126.522 265.368 126.011 265.47C124.632 264.124 123.534 262.505 122.784 260.711C122.034 258.917 121.648 256.986 121.648 255.034C121.648 254.908 121.648 254.778 121.653 254.648L123.109 216.36L123.752 199.39C123.852 195.552 125.41 191.906 128.095 189.232C130.781 186.557 134.379 185.065 138.122 185.075C138.558 185.075 138.988 185.099 139.415 185.14C139.723 185.55 140.009 185.973 140.285 186.401C141.038 187.545 142.054 189.354 143.251 191.623C143.745 192.558 144.267 193.572 144.815 194.646C145.146 195.293 148.003 204.436 150.783 213.774L149.558 223.526L147.345 241.105L156.424 234.995L162.817 230.688L163.574 231.986L165.547 235.362L169.356 241.873L170.58 243.97Z" fill="#E82E2D"/>
<path d="M165.609 233.028C165.605 233.818 165.587 234.595 165.546 235.362C165.451 237.479 165.212 239.586 164.829 241.669C164.204 245.165 163.087 248.55 161.515 251.719C161.306 252.142 161.084 252.56 160.857 252.97C160.272 253.286 159.678 253.593 159.084 253.9C158.984 253.951 158.885 254.002 158.785 254.048C156.259 255.337 153.687 256.541 151.067 257.662C145.905 259.876 140.608 261.745 135.21 263.257C134.185 263.545 133.156 263.819 132.122 264.08C130.104 264.591 128.067 265.055 126.01 265.47C117.636 267.157 109.123 268.005 100.589 268C100.022 268 99.46 267.996 98.8932 267.991C98.7209 267.991 98.5486 267.986 98.3717 267.982C97.8729 267.972 97.356 267.963 96.83 267.949C86.7457 267.663 76.7274 266.182 66.9749 263.536C66.1995 263.326 65.4271 263.109 64.6577 262.885C57.244 260.722 50.0328 257.886 43.1098 254.411C35.5009 238.353 36.9293 229.777 35.5508 210.3C38.3803 203.05 86.251 208.17 123.107 216.36C133.111 218.583 142.297 221.034 149.557 223.527C157.057 226.098 162.494 228.712 164.625 231.168C165.123 231.676 165.465 232.323 165.609 233.028Z" fill="#E8E6E6"/>
<path opacity="0.2" d="M35.5533 213.634C35.483 212.428 35.4041 211.183 35.3125 209.886C39.9105 198.111 163.29 218.959 165.371 232.613C165.365 233.865 165.313 235.078 165.225 236.266C160.185 222.79 42.9726 202.974 35.5533 213.634Z" fill="black"/>
</g>
<defs>
<clipPath id="clip0_5377_11548">
<rect width="400" height="268" fill="white"/>
</clipPath>
</defs>
</svg>
