<svg width="400" height="317" viewBox="0 0 400 317" fill="none" xmlns="http://www.w3.org/2000/svg">
<g clip-path="url(#clip0_6311_4428)">
<path d="M235.287 88.003C235.287 88.5993 235.279 89.1945 235.265 89.7886C235.259 90.177 235.247 90.5657 235.232 90.954C235.229 91.0656 235.226 91.1738 235.22 91.287C235.211 91.5007 235.202 91.7114 235.193 91.9192C235.126 93.3066 235.024 94.6848 234.885 96.0536C234.879 96.1197 234.873 96.1859 234.867 96.2492C234.852 96.3849 234.84 96.5201 234.822 96.6558C234.78 97.0625 234.734 97.4687 234.683 97.8695C234.65 98.1405 234.617 98.4106 234.581 98.6795C234.563 98.8089 234.544 98.9384 234.529 99.0649C234.508 99.2064 234.49 99.345 234.469 99.4836C234.46 99.544 234.451 99.6039 234.442 99.6672C234.412 99.872 234.382 100.08 234.349 100.284C234.309 100.552 234.265 100.818 234.224 101.085C234.182 101.353 234.136 101.615 234.088 101.88C234.039 102.145 233.994 102.41 233.946 102.675C233.898 102.94 233.847 103.208 233.795 103.473C233.536 104.786 233.247 106.088 232.927 107.378C232.8 107.881 232.671 108.383 232.538 108.884C232.318 109.697 232.086 110.506 231.842 111.311C231.773 111.534 231.703 111.757 231.634 111.977C231.555 112.23 231.474 112.483 231.392 112.733C231.311 112.983 231.229 113.235 231.145 113.486C231.061 113.736 230.977 113.985 230.889 114.235C230.802 114.485 230.717 114.732 230.627 114.979C230.537 115.225 230.449 115.476 230.359 115.722C230.268 115.969 230.175 116.216 230.081 116.46C229.894 116.954 229.702 117.443 229.505 117.927C229.409 118.171 229.309 118.415 229.207 118.656C228.806 119.625 228.386 120.584 227.947 121.531C227.85 121.742 227.754 121.953 227.655 122.16C227.589 122.299 227.526 122.434 227.459 122.573C227.348 122.802 227.239 123.027 227.126 123.253C227.013 123.479 226.9 123.714 226.782 123.946C226.55 124.404 226.314 124.861 226.074 125.316C225.836 125.771 225.592 126.226 225.342 126.674C225.092 127.123 224.838 127.572 224.582 128.014C224.452 128.237 224.323 128.46 224.193 128.68C223.672 129.563 223.133 130.435 222.577 131.297C222.022 132.159 221.452 133.007 220.869 133.841C220.577 134.26 220.278 134.678 219.977 135.09C219.856 135.256 219.735 135.418 219.615 135.581C219.467 135.785 219.314 135.987 219.16 136.189C212.627 144.869 204.394 152.13 194.962 157.531C185.53 162.932 175.097 166.359 164.297 167.603C153.497 168.848 142.556 167.884 132.141 164.77C121.726 161.657 112.054 156.459 103.714 149.492C102.834 148.758 101.97 148.005 101.122 147.234C95.6794 142.284 90.9418 136.612 87.0407 130.377C86.5553 129.597 86.079 128.808 85.6207 128.013C78.5866 115.851 74.8938 102.049 74.9161 88.0026C74.9161 43.7644 110.816 7.90333 155.102 7.90333C168.427 7.89556 181.544 11.208 193.265 17.5407C204.985 23.8734 214.94 33.0265 222.227 44.171C222.359 44.3729 222.492 44.5777 222.624 44.7824C229.87 56.046 234.154 68.9526 235.083 82.3087C235.22 84.1878 235.288 86.0859 235.287 88.003Z" fill="#F2F2F2"/>
<path d="M235.085 82.3096C232.015 83.7639 229.35 85.95 227.326 88.6752C225.086 91.6659 222.266 94.1751 219.034 96.0527C218.898 96.128 218.766 96.2001 218.63 96.2725C216.061 97.656 213.243 98.5188 210.338 98.8114C209.461 98.8992 208.58 98.9409 207.698 98.9363C207.33 98.9334 206.962 98.9242 206.597 98.9063C205.732 98.8647 204.876 98.7814 204.035 98.6595C199.206 97.9727 194.838 96.1181 191.603 94.3724C187.171 91.9308 182.361 90.2492 177.372 89.3978C176.48 89.2502 175.589 89.1347 174.701 89.0515C174.333 89.0153 173.968 88.9882 173.603 88.9641C172.708 88.9039 171.814 88.8761 170.921 88.8808C170.462 88.8837 170.007 88.8929 169.549 88.9108C161.85 89.2117 151.809 91.404 142.804 99.0616C142.684 99.1639 142.566 99.2663 142.446 99.3687C142.334 99.4653 142.223 99.5643 142.112 99.6638C140.687 100.929 139.344 102.284 138.091 103.72C136.655 105.364 135.325 107.099 134.112 108.914C132.671 111.039 130.987 112.989 129.096 114.726C126.298 117.305 124.057 120.429 122.511 123.904C120.965 127.38 120.147 131.135 120.106 134.938V135.088C120.103 135.251 120.104 135.417 120.104 135.579H219.617C219.738 135.416 219.859 135.254 219.976 135.088C220.277 134.676 220.576 134.256 220.869 133.84C221.456 133.002 222.026 132.154 222.577 131.295C223.135 130.435 223.673 129.563 224.193 128.678C224.322 128.459 224.452 128.236 224.581 128.013C224.838 127.57 225.091 127.121 225.341 126.673C225.591 126.224 225.836 125.77 226.074 125.315C226.311 124.86 226.551 124.403 226.782 123.944C226.899 123.713 227.014 123.481 227.126 123.252C227.237 123.023 227.346 122.8 227.459 122.571C227.525 122.433 227.589 122.297 227.655 122.159C227.754 121.951 227.851 121.74 227.946 121.529C228.386 120.581 228.806 119.622 229.206 118.654C229.309 118.413 229.409 118.169 229.505 117.925C229.701 117.44 229.893 116.951 230.081 116.459C230.174 116.215 230.264 115.968 230.358 115.721C230.452 115.473 230.539 115.227 230.626 114.977C230.714 114.727 230.804 114.48 230.889 114.233C230.973 113.986 231.06 113.734 231.145 113.484C231.229 113.234 231.311 112.985 231.392 112.731C231.472 112.478 231.555 112.228 231.633 111.975C231.702 111.755 231.772 111.532 231.841 111.309C232.086 110.505 232.318 109.696 232.538 108.882C232.67 108.383 232.8 107.881 232.926 107.377C233.246 106.088 233.535 104.786 233.795 103.471C233.846 103.206 233.897 102.942 233.946 102.674C233.994 102.405 234.042 102.144 234.087 101.879C234.133 101.613 234.181 101.349 234.223 101.084C234.266 100.818 234.311 100.55 234.348 100.283C234.381 100.078 234.411 99.8703 234.441 99.6655C234.451 99.6022 234.459 99.5406 234.468 99.4819C234.49 99.3404 234.508 99.2018 234.526 99.0632C234.544 98.9338 234.562 98.8043 234.58 98.6778C234.616 98.4068 234.649 98.1367 234.682 97.8678C234.733 97.4674 234.779 97.0608 234.821 96.6541H234.824C234.836 96.5185 234.851 96.3832 234.866 96.2475C234.872 96.1842 234.878 96.1181 234.884 96.0519C235.022 94.6847 235.125 93.3066 235.191 91.9176C235.2 91.7097 235.209 91.499 235.218 91.2853C235.224 91.1738 235.227 91.0656 235.23 90.9524C235.245 90.564 235.257 90.1753 235.264 89.7869C235.279 89.1937 235.286 88.5985 235.285 88.0014C235.286 86.0879 235.219 84.1906 235.085 82.3096Z" fill="#E82E2D"/>
<path d="M141.17 102.504H140.07V135.09H141.17V102.504Z" fill="#090814"/>
<path d="M174.7 87.4648H173.6V135.091H174.7V87.4648Z" fill="#090814"/>
<path d="M207.696 97.3525H206.596V135.581H207.696V97.3525Z" fill="#090814"/>
<path d="M174.218 91.5823C176.076 91.5823 177.583 90.0775 177.583 88.2213C177.583 86.3651 176.076 84.8604 174.218 84.8604C172.36 84.8604 170.854 86.3651 170.854 88.2213C170.854 90.0775 172.36 91.5823 174.218 91.5823Z" fill="#090814"/>
<path d="M207.212 100.921C209.07 100.921 210.577 99.4164 210.577 97.5602C210.577 95.704 209.07 94.1992 207.212 94.1992C205.354 94.1992 203.848 95.704 203.848 97.5602C203.848 99.4164 205.354 100.921 207.212 100.921Z" fill="#090814"/>
<path d="M140.62 103.155C142.479 103.155 143.985 101.65 143.985 99.7936C143.985 97.9374 142.479 96.4326 140.62 96.4326C138.762 96.4326 137.256 97.9374 137.256 99.7936C137.256 101.65 138.762 103.155 140.62 103.155Z" fill="#090814"/>
<path d="M219.977 135.09C219.857 135.257 219.736 135.419 219.616 135.581C219.468 135.786 219.315 135.988 219.161 136.189H119.994V135.09L219.977 135.09Z" fill="#090814"/>
<path d="M177.861 87.0186V87.6208H181.515V87.0186H177.861ZM185.168 87.0186V87.6208H188.819V87.0186H185.168ZM192.473 87.0186V87.6208H196.126V87.0186H192.473ZM199.777 87.0186V87.6208H203.43V87.0186H199.777ZM207.084 87.0186V87.6208H210.734V87.0186H207.084ZM214.388 87.0186V87.6208H218.042V87.0186H214.388ZM221.692 87.0186V87.6208H225.346V87.0186H221.692ZM228.999 87.0186V87.6208H232.65V87.0186H228.999Z" fill="#3F3D56"/>
<path d="M211.322 96.0527V96.655H214.976V96.0527H211.322ZM218.629 96.0527V96.655H222.28V96.0527H218.629ZM225.934 96.0527V96.655H229.587V96.0527H225.934ZM233.238 96.0527V96.655H234.826C234.839 96.5193 234.854 96.384 234.868 96.2484C234.874 96.1851 234.88 96.1189 234.886 96.0527H233.238Z" fill="#3F3D56"/>
<path d="M3.75 0H125.854C126.848 0 127.802 0.394664 128.505 1.09717C129.209 1.79968 129.604 2.75248 129.604 3.74597V68.1317C129.604 69.1252 129.209 70.078 128.505 70.7805C127.802 71.4831 126.848 71.8777 125.854 71.8777H3.75C2.75544 71.8777 1.80161 71.4831 1.09835 70.7805C0.395088 70.078 0 69.1252 0 68.1317L0 3.74597C0 2.75248 0.395088 1.79968 1.09835 1.09717C1.80161 0.394664 2.75544 0 3.75 0Z" fill="#E82E2D"/>
<path d="M27.1139 50.0508H29.0768C29.5189 50.0508 29.9428 50.2262 30.2554 50.5384C30.5679 50.8506 30.7435 51.2741 30.7435 51.7157V61.5155C30.7435 61.9571 30.5679 62.3806 30.2554 62.6928C29.9428 63.005 29.5189 63.1804 29.0768 63.1804H27.1139C26.6719 63.1804 26.248 63.005 25.9354 62.6928C25.6229 62.3806 25.4473 61.9571 25.4473 61.5155V51.7157C25.4473 51.2741 25.6229 50.8506 25.9354 50.5384C26.248 50.2262 26.6719 50.0508 27.1139 50.0508Z" fill="white"/>
<path d="M36.3835 33.7949H38.3464C38.7884 33.7949 39.2123 33.9703 39.5249 34.2826C39.8375 34.5948 40.013 35.0182 40.013 35.4598V61.5151C40.013 61.9567 39.8375 62.3801 39.5249 62.6924C39.2123 63.0046 38.7884 63.18 38.3464 63.18H36.3835C35.9414 63.18 35.5175 63.0046 35.205 62.6924C34.8924 62.3801 34.7168 61.9567 34.7168 61.5151V35.4598C34.7168 35.0182 34.8924 34.5948 35.205 34.2826C35.5175 33.9703 35.9414 33.7949 36.3835 33.7949Z" fill="white"/>
<path d="M54.9186 8.70117H56.8815C57.3236 8.70117 57.7475 8.87658 58.06 9.1888C58.3726 9.50103 58.5482 9.9245 58.5482 10.366V61.5148C58.5482 61.7334 58.5051 61.9499 58.4213 62.1519C58.3376 62.3539 58.2148 62.5375 58.06 62.6921C57.9053 62.8466 57.7216 62.9693 57.5193 63.053C57.3171 63.1366 57.1004 63.1797 56.8815 63.1797H54.9186C54.4766 63.1797 54.0527 63.0043 53.7401 62.6921C53.4275 62.3798 53.252 61.9564 53.252 61.5148V10.366C53.252 9.9245 53.4275 9.50103 53.7401 9.1888C54.0527 8.87658 54.4766 8.70117 54.9186 8.70117Z" fill="white"/>
<path d="M45.651 13.7393H47.614C48.056 13.7393 48.4799 13.9147 48.7925 14.2269C49.105 14.5391 49.2806 14.9626 49.2806 15.4041V61.5146C49.2806 61.9561 49.105 62.3796 48.7925 62.6918C48.4799 63.004 48.056 63.1794 47.614 63.1794H45.651C45.209 63.1794 44.7851 63.004 44.4725 62.6918C44.16 62.3796 43.9844 61.9561 43.9844 61.5146V15.4041C43.9844 14.9626 44.16 14.5391 44.4725 14.2269C44.7851 13.9147 45.209 13.7393 45.651 13.7393Z" fill="#090814"/>
<path d="M64.6276 33.2334H66.5905C67.0325 33.2334 67.4565 33.4088 67.769 33.721C68.0816 34.0333 68.2572 34.4567 68.2572 34.8983V61.5147C68.2572 61.9562 68.0816 62.3797 67.769 62.6919C67.4565 63.0041 67.0325 63.1795 66.5905 63.1795H64.6276C64.1856 63.1795 63.7617 63.0041 63.4491 62.6919C63.1365 62.3797 62.9609 61.9562 62.9609 61.5147V34.8983C62.9609 34.4567 63.1365 34.0333 63.4491 33.721C63.7617 33.4088 64.1856 33.2334 64.6276 33.2334Z" fill="#090814"/>
<path d="M73.8952 13.7393H75.8581C76.3001 13.7393 76.724 13.9147 77.0366 14.2269C77.3492 14.5391 77.5248 14.9626 77.5248 15.4041V61.515C77.5248 61.9565 77.3492 62.38 77.0366 62.6922C76.724 63.0044 76.3001 63.1799 75.8581 63.1799H73.8952C73.4532 63.1799 73.0292 63.0044 72.7167 62.6922C72.4041 62.38 72.2285 61.9565 72.2285 61.515V15.4041C72.2285 14.9626 72.4041 14.5391 72.7167 14.2269C73.0292 13.9147 73.4532 13.7393 73.8952 13.7393Z" fill="white"/>
<path d="M83.1647 41.1631H85.1276C85.5697 41.1631 85.9936 41.3385 86.3061 41.6507C86.6187 41.9629 86.7943 42.3864 86.7943 42.828V61.5162C86.7943 61.9578 86.6187 62.3812 86.3061 62.6934C85.9936 63.0057 85.5697 63.1811 85.1276 63.1811H83.1647C82.7227 63.1811 82.2988 63.0057 81.9862 62.6934C81.6736 62.3812 81.498 61.9578 81.498 61.5162V42.828C81.498 42.3864 81.6736 41.9629 81.9862 41.6507C82.2988 41.3385 82.7227 41.1631 83.1647 41.1631Z" fill="#D6D6E3"/>
<path d="M92.4323 30.9971H94.3952C94.8372 30.9971 95.2612 31.1725 95.5737 31.4847C95.8863 31.7969 96.0619 32.2204 96.0619 32.6619V61.5147C96.0619 61.9562 95.8863 62.3797 95.5737 62.6919C95.2612 63.0042 94.8372 63.1796 94.3952 63.1796H92.4323C91.9903 63.1796 91.5663 63.0042 91.2538 62.6919C90.9412 62.3797 90.7656 61.9562 90.7656 61.5147V32.6619C90.7656 32.2204 90.9412 31.7969 91.2538 31.4847C91.5663 31.1725 91.9903 30.9971 92.4323 30.9971Z" fill="#090814"/>
<path d="M101.7 19.1494H103.663C104.105 19.1494 104.529 19.3248 104.841 19.637C105.154 19.9493 105.329 20.3727 105.329 20.8143V61.5147C105.329 61.9563 105.154 62.3797 104.841 62.6919C104.529 63.0042 104.105 63.1796 103.663 63.1796H101.7C101.258 63.1796 100.834 63.0042 100.521 62.6919C100.209 62.3797 100.033 61.9563 100.033 61.5147V20.8143C100.033 20.3727 100.209 19.9493 100.521 19.637C100.834 19.3248 101.258 19.1494 101.7 19.1494Z" fill="white"/>
<path d="M231.007 14.1379C230.971 13.4649 230.671 12.8331 230.172 12.3799C229.672 11.9266 229.014 11.6885 228.34 11.7172H196.35C195.676 11.6889 195.018 11.9271 194.518 12.3802C194.019 12.8333 193.718 13.4648 193.681 14.1379V17.7731H231.007L231.007 14.1379ZM193.668 33.5146C193.704 34.1884 194.004 34.8209 194.504 35.2748C195.004 35.7287 195.663 35.9674 196.338 35.939H228.341C229.016 35.9678 229.674 35.7292 230.174 35.2751C230.673 34.821 230.973 34.1883 231.008 33.5146V21.4192H193.68L193.668 33.5146ZM205.515 29.8835H219.185C219.393 29.869 219.6 29.9084 219.787 29.9978C219.975 30.0871 220.136 30.2234 220.255 30.3933C220.365 30.5553 220.423 30.7464 220.423 30.9419C220.423 31.1375 220.365 31.3286 220.255 31.4905C220.136 31.6605 219.975 31.7967 219.787 31.8861C219.6 31.9754 219.393 32.0148 219.185 32.0004H205.515C205.373 32.0052 205.231 31.9815 205.098 31.9305C204.965 31.8795 204.844 31.8023 204.742 31.7035C204.639 31.6047 204.558 31.4863 204.502 31.3554C204.447 31.2246 204.418 31.0839 204.418 30.9417C204.418 30.7995 204.447 30.6588 204.502 30.5279C204.558 30.3971 204.639 30.2787 204.742 30.1799C204.844 30.0811 204.965 30.004 205.098 29.9529C205.231 29.9019 205.373 29.8786 205.515 29.8835ZM199.515 29.8835H200.515C200.722 29.869 200.93 29.9084 201.117 29.9978C201.304 30.0871 201.466 30.2234 201.585 30.3933C201.694 30.5553 201.753 30.7464 201.753 30.9419C201.753 31.1375 201.694 31.3286 201.585 31.4905C201.466 31.6605 201.305 31.7968 201.117 31.8861C200.93 31.9755 200.722 32.0148 200.515 32.0004H199.515C199.308 32.0148 199.1 31.9755 198.913 31.8861C198.726 31.7968 198.565 31.6605 198.445 31.4905C198.336 31.3286 198.277 31.1375 198.277 30.9419C198.277 30.7464 198.336 30.5553 198.445 30.3933C198.565 30.2234 198.726 30.0871 198.913 29.9978C199.1 29.9084 199.308 29.869 199.515 29.8835Z" fill="#E82E2D"/>
<path d="M399.144 278.144C399.144 278.144 396.355 294.964 382.206 297.445C368.058 299.925 320.853 299.413 320.853 299.413C320.853 299.413 293.866 295.476 284.103 272.74C274.34 250.005 268.072 240.91 276.436 240.507C284.8 240.103 329.917 255.733 332.509 255.93C335.1 256.127 401.636 221.334 399.144 278.144Z" fill="#E6E6E6"/>
<path d="M275.625 303.73C276.07 304.799 276.795 305.729 277.725 306.422C278.654 307.115 279.753 307.545 280.906 307.667C281.476 307.709 282.049 307.679 282.611 307.578C287.794 306.682 299.944 304.625 304.228 305.393C306.8 305.866 311.569 305.157 314.958 304.519C317.215 304.096 318.9 303.702 318.9 303.702C318.9 303.702 314.909 290.464 314.417 290.071C313.924 289.677 296.483 279.242 296.483 279.242L282.691 278.258C280.836 278.54 279.161 279.523 278.011 281.005C276.553 282.767 275.303 285.66 275.223 290.394C274.945 302.037 275.625 303.73 275.625 303.73Z" fill="#090814"/>
<path opacity="0.1" d="M335.501 282.638L348.31 272.589L368.528 252.687C368.528 252.687 366.35 252.579 363.049 252.441C362.231 252.963 359.936 254.606 359.847 256.595C359.749 259.026 354.389 256.761 351.6 258.16C348.811 259.558 335.166 276.998 332.772 276.86C330.378 276.722 328.486 275.649 327.491 277.342L327.422 277.45L335.501 282.638Z" fill="black"/>
<path d="M250.836 252.49C252.137 255.669 262.994 267.913 262.994 267.913C262.994 267.913 269.891 276.862 279.626 281.043C289.36 285.223 301.44 293.975 302.337 295.569C302.908 296.553 310.692 301.267 316.131 304.486L317.362 305.204L320.081 306.779L321.52 307.606L328.171 302.241C331.452 299.584 334.712 296.907 334.762 296.759C334.861 296.464 336.162 293.078 335.856 292.881C333.915 291.183 332.102 289.345 330.43 287.382C317.478 277.521 289.564 254.188 288.454 253.423L325.895 277.448L334.853 283.196L347.662 273.148L367.89 253.256C367.89 253.256 365.17 253.118 361.209 252.951C351.357 252.528 333.937 251.858 331.73 252.36C329.935 252.775 328.085 252.895 326.251 252.715C326.251 252.715 321.325 252.941 317.985 251.199C314.644 249.457 309.521 248.66 308.92 247.37C308.319 246.08 290.692 239.92 290.692 239.92C290.692 239.92 266.692 227.183 258.119 234.743C249.545 242.302 249.545 249.301 250.836 252.49Z" fill="#E6E6E6"/>
<path d="M328.25 179.46L331.333 189.706L335.275 212.786L349.917 213.771L354.153 206.753L358.38 199.746C358.38 199.746 361.021 190.416 362.913 181.4C364.588 173.408 365.681 165.652 363.898 164.825C362.282 164.076 361.218 161.39 360.528 158.499C360.44 158.144 360.362 157.78 360.292 157.417C359.798 154.968 359.468 152.488 359.307 149.995C359.307 149.995 328.625 148.411 332.911 161.048C333.677 163.203 334.067 165.474 334.064 167.76C334.062 168.333 334.029 168.904 333.965 169.473C333.755 171.442 333.138 173.346 332.155 175.065C331.171 176.784 329.842 178.28 328.25 179.46Z" fill="#ED9DA0"/>
<path d="M321.855 177.767L322.949 195.179L325.442 210.001L328.23 216.891L330.723 254.459C330.723 254.459 354.735 257.234 360.578 254.41C360.995 254.231 361.359 253.946 361.632 253.583C368.647 242.914 366.382 212.137 366.382 212.137L369.072 192.246L367.28 181.911L362.947 181.458L359.607 181.094C359.607 181.094 358.857 182.019 357.773 183.456C354.818 187.393 337.003 182.079 337.91 178.899C338.817 175.72 333.969 169.52 333.969 169.52L321.855 177.767Z" fill="#E82E2D"/>
<path d="M364.096 164.91C364.096 164.91 389.781 170.463 389.781 171.085C389.781 171.784 397.663 179.539 397.663 180.336C397.663 181.134 400.057 184.116 399.751 189.391C399.446 194.666 401.16 276.173 398.391 274.576C395.623 272.98 355.157 250.602 355.157 250.602L354.171 220.849C354.171 220.849 353.482 198.861 357.659 191.499C357.66 191.498 357.758 178.959 364.096 164.91Z" fill="#090814"/>
<path d="M333.964 169.481C333.964 169.481 323.944 167.414 321.256 168.811C318.568 170.209 297.252 198.958 297.656 199.756C298.06 200.554 318.398 218.043 318.398 218.043C318.398 218.043 319.384 224.706 320.29 226.399C321.196 228.091 319.304 251.368 317.334 252.973C315.364 254.577 330.724 254.459 330.724 254.459C330.724 254.459 331.424 239.184 332.016 238.386C332.608 237.589 331.621 221.271 331.621 221.271C331.621 221.271 331.523 207.344 332.814 203.665C334.104 199.985 333.966 187.75 333.966 187.75C333.966 187.75 335.109 180.407 336.499 178.695C337.888 176.982 333.964 169.481 333.964 169.481Z" fill="#090814"/>
<path d="M317.775 145.327C317.783 151.156 320.029 156.76 324.05 160.983C328.072 165.207 333.563 167.727 339.39 168.025C345.218 168.323 350.938 166.376 355.37 162.586C359.803 158.795 362.61 153.449 363.213 147.652C363.817 141.854 362.17 136.046 358.612 131.426C355.054 126.806 349.858 123.725 344.093 122.82C338.329 121.915 332.437 123.254 327.631 126.561C322.826 129.868 319.475 134.89 318.268 140.593C317.939 142.15 317.773 143.736 317.775 145.327Z" fill="#ED9DA0"/>
<path d="M303.133 198.062L297.705 199.755C297.969 200.872 283.182 220.394 283.182 220.394L284.275 238.111L293.734 239.9L299.645 239.3L304.424 237.51L308.602 235.03L310.503 230.109L318.868 217.373L303.133 198.062Z" fill="#090814"/>
<path d="M284.504 221.842C284.504 221.842 272.355 204.332 263.291 213.781C254.226 223.229 266.976 238.554 269.961 238.062C272.946 237.57 287.193 236.743 287.193 236.743L284.504 221.842Z" fill="#ED9DA0"/>
<path d="M308.646 212.019L263.873 189.192C260.594 187.52 256.579 188.82 254.905 192.096L238.516 224.17C236.842 227.446 238.144 231.457 241.423 233.129L286.196 255.957C289.475 257.629 293.491 256.328 295.164 253.053L311.553 220.978C313.227 217.702 311.925 213.691 308.646 212.019Z" fill="#090814"/>
<path d="M305.322 213.871L264.719 193.17C261.85 191.707 258.336 192.844 256.872 195.711L242.561 223.719C241.096 226.585 242.235 230.095 245.104 231.558L285.708 252.26C288.577 253.723 292.091 252.585 293.555 249.719L307.866 221.711C309.331 218.844 308.192 215.334 305.322 213.871Z" fill="#E82E2D"/>
<path d="M301.066 237.225C301.865 237.225 302.514 236.577 302.514 235.778C302.514 234.979 301.865 234.331 301.066 234.331C300.266 234.331 299.617 234.979 299.617 235.778C299.617 236.577 300.266 237.225 301.066 237.225Z" fill="#E6E8EC"/>
<path d="M276.641 225.522C276.542 238.662 303.726 241.437 303.726 241.437L310.623 242.54L313.737 243.032L315.037 230.237C315.037 230.237 313.608 230.028 311.825 229.616C309.194 228.996 305.783 227.943 305.075 226.457C303.924 223.948 276.74 212.394 276.641 225.522Z" fill="#ED9DA0"/>
<path d="M334.9 283.227L347.709 273.178L367.937 253.287C367.937 253.287 365.217 253.149 361.256 252.981C360.477 253.69 359.978 254.654 359.848 255.698C359.749 258.129 354.389 255.865 351.601 257.263C348.812 258.662 335.166 276.101 332.772 275.963C330.378 275.826 328.486 274.753 327.491 276.446L327.422 276.554C327.024 277.008 326.493 277.325 325.904 277.459L334.9 283.227Z" fill="#D6D6E3"/>
<path d="M309.008 282.54L315.442 303.12L316.427 306.358L319.502 305.512L326.28 303.651L356.47 295.374C360.253 295.183 363.951 294.176 367.308 292.421C373.005 289.236 379.521 287.814 386.028 288.337C389.969 288.711 394.452 286.988 398.137 280.197C398.137 280.197 406.502 255.522 385.387 248.456C364.272 241.389 363.258 252.215 363.258 252.215L362.972 252.393C362.154 252.914 359.859 254.557 359.77 256.546C359.672 258.977 354.312 256.713 351.523 258.111C348.735 259.51 335.089 276.949 332.694 276.812C330.3 276.674 328.409 275.601 327.413 277.294L327.344 277.402C326.605 278.387 324.388 278.651 322.92 278.701H321.541L321.354 278.76L319.817 279.213L309.008 282.54Z" fill="#E6E6E6"/>
<path d="M391.879 180.553C391.879 180.553 401.141 177.866 398.845 204.175C396.549 230.483 379.425 247.058 379.425 247.058C379.425 247.058 359.719 255.709 350.852 254.321C341.984 252.933 329.668 250.401 326.545 250.237C321.618 250.04 311.106 246.959 310.908 245.955C310.711 244.952 313.5 230.336 312.308 229.223C312.308 229.223 326.249 229.794 327.638 230.808C329.028 231.821 331.028 231.093 332.565 230.808C334.101 230.522 361.368 227.841 361.443 227.53C361.76 226.716 362.236 225.973 362.843 225.345C362.843 225.345 371.854 202.75 371.711 201.665C371.257 200.051 379.928 177.364 391.879 180.553Z" fill="#090814"/>
<path d="M331.116 311.79L333.008 312.883L352.23 313.375C354.388 314.685 356.668 315.783 359.039 316.653C359.361 316.75 359.69 316.82 360.024 316.861C361.807 317.006 363.597 317.039 365.384 316.959C366.852 316.959 367.995 316.861 367.995 316.861C367.995 316.861 367.078 292.649 366.399 290.098C366.065 288.877 364.428 289.113 362.871 289.753C361.676 290.238 360.523 290.821 359.423 291.495C359.423 291.495 351.256 292.283 349.965 292.991C348.673 293.7 344.979 292.588 342.693 292.991C340.408 293.395 336.318 290.295 336.318 290.295C325.165 286.614 331.392 293.484 332.23 293.779C332.23 293.779 321.391 291.289 320.781 303.1C320.17 314.911 331.116 311.79 331.116 311.79Z" fill="#090814"/>
<path d="M289.301 254.006C289.301 254.006 298.848 257.106 306.937 268.11L289.301 254.006Z" fill="#D6D6E3"/>
<path d="M357.356 160.542L359.661 164.91L369.827 145.609C375.949 126.882 354.569 116.126 354.569 116.126C347.591 107.918 333.571 117.518 333.571 117.518C313.348 113.031 323.113 130.057 323.113 130.057C323.113 130.057 330.009 130.209 330.009 135.781C330.009 141.353 337.524 140.968 337.524 140.968L343.412 151.26L346.662 147.313C358.751 142.198 357.357 160.544 357.357 160.544L357.356 160.542Z" fill="#090814"/>
</g>
<defs>
<clipPath id="clip0_6311_4428">
<rect width="400" height="317" fill="white"/>
</clipPath>
</defs>
</svg>
