<svg width="400" height="261" viewBox="0 0 400 261" fill="none" xmlns="http://www.w3.org/2000/svg">
<g clip-path="url(#clip0_5377_11558)">
<path d="M210.937 256.955L217.399 256.955L220.472 230.926L210.936 230.926L210.937 256.955Z" fill="#FFB6B6"/>
<path d="M233.075 256.802C233.276 257.156 233.382 258.298 233.382 258.71C233.382 259.974 232.4 261 231.189 261H211.178C210.352 261 209.682 260.3 209.682 259.437V258.567C209.682 258.567 208.692 255.952 210.73 252.729C210.73 252.729 213.263 255.253 217.048 251.3L218.164 249.188L226.244 255.359L230.722 255.935C231.702 256.061 232.571 255.916 233.075 256.802Z" fill="black"/>
<path d="M186.417 256.955L192.879 256.955L195.953 230.926L186.416 230.926L186.417 256.955Z" fill="#FFB6B6"/>
<path d="M208.555 256.802C208.757 257.156 208.863 258.298 208.863 258.71C208.863 259.974 207.881 261 206.67 261H186.658C185.832 261 185.162 260.3 185.162 259.437V258.567C185.162 258.567 184.172 255.952 186.21 252.729C186.21 252.729 188.743 255.253 192.529 251.3L193.645 249.188L201.724 255.359L206.203 255.935C207.183 256.061 208.051 255.916 208.555 256.802Z" fill="black"/>
<path d="M181.657 117.137L173.484 136.484L183.837 242.322L196.641 243.176L201.818 149.571L206.722 243.46L221.978 241.753L225.597 122.565L181.657 117.137Z" fill="black"/>
<path d="M213.86 40.0339L197.46 36.9043L194.148 40.3632L177.3 47.7158L180.024 102.911C180.024 102.911 174.576 106.702 177.3 111.919C180.024 117.137 179.479 123.396 179.479 123.396H225.598L223.614 92.0997L229.063 52.268L216.331 45.9731L213.86 40.0339Z" fill="#E82E2D"/>
<path d="M201.972 104.339C206.632 105.5 210.982 103.931 211.69 100.835C212.397 97.738 209.193 94.287 204.532 93.1257C202.677 92.6351 200.735 92.6158 198.871 93.0694L179.07 88.4082L177.174 98.1586L196.895 101.718C198.363 103.003 200.104 103.901 201.972 104.339Z" fill="#FFB6B6"/>
<path d="M180.568 50.5609L177.299 47.7158C177.299 47.7158 170.761 51.13 169.671 53.9751C168.581 56.8202 162.043 84.1334 162.043 84.1334C162.043 84.1334 160.76 99.1023 164.126 101.007C167.491 102.911 188.742 101.773 188.742 101.773L190.376 90.3927L181.658 86.9786L180.568 50.5609Z" fill="#E82E2D"/>
<path d="M206.69 35.2894C214.644 35.2894 221.093 28.5552 221.093 20.2482C221.093 11.9412 214.644 5.20703 206.69 5.20703C198.735 5.20703 192.287 11.9412 192.287 20.2482C192.287 28.5552 198.735 35.2894 206.69 35.2894Z" fill="#FFB6B6"/>
<path d="M196.358 33.6007C194.633 33.7617 191.816 29.1522 191.942 24.688C192.022 21.8161 189.635 21.2514 189.458 17.5477C189.354 15.3897 192.528 14.7168 192.746 12.9858C193.142 9.84959 195.079 7.73919 195.321 7.48264C197.409 5.26803 198.883 5.98797 201.338 3.4213C202.816 1.87604 202.438 1.45269 203.433 0.767282C206.307 -1.21084 211.47 0.933067 214.557 3.821C215.626 4.82034 219.608 3.72812 221.348 6.55015C223.398 9.87502 222.922 16.6557 222.043 17.5506C221.509 18.0942 220.289 16.766 216.984 15.9135C213.924 15.1243 216.811 19.0273 213.273 18.3723C209.09 17.5978 208.271 16.2687 206.704 17.0659C205.048 17.9086 203.754 20.5179 204.13 22.5691C204.316 23.587 204.857 24.1545 204.552 24.6721C203.996 25.6171 203.357 24.6903 202.644 25.6387C201.814 26.7417 203.876 29.5715 203.488 29.8448C203.41 29.8998 203.173 29.8927 200.946 27.6567C200.058 26.7639 199.797 26.2157 199.623 26.2998C199.341 26.4361 197.496 28.2314 198.201 29.6491C199.297 31.8554 197.894 31.9241 198.201 33.4094C198.517 34.9417 197.455 33.4984 196.358 33.6007Z" fill="black"/>
<path d="M211.669 106.68C207.422 108.994 205.124 113.159 206.535 115.981C207.946 118.803 212.531 119.214 216.779 116.898C218.488 115.997 219.965 114.682 221.088 113.062L238.962 103.017L234.269 94.3584L217.147 105.18C215.232 105.216 213.354 105.73 211.669 106.68Z" fill="#FFB6B6"/>
<path d="M225.793 52.837C225.793 52.837 230.696 49.4229 233.966 58.5273C236.545 65.7099 241.328 86.8817 243.233 95.4996C243.738 97.7874 243.007 100.177 241.326 101.737L239.142 103.765L228.517 112.016L221.273 101.007L230.071 95.4669L220.037 72.7351L225.793 52.837Z" fill="#E82E2D"/>
<path d="M364.426 42.1479C372.408 42.1479 378.878 35.3904 378.878 27.0544C378.878 18.7185 372.408 11.9609 364.426 11.9609C356.443 11.9609 349.973 18.7185 349.973 27.0544C349.973 35.3904 356.443 42.1479 364.426 42.1479Z" fill="#FF6884"/>
<path d="M343.104 121.328L326.803 120.243L325.924 43.6973C325.903 41.8394 326.612 40.0201 327.87 38.7061L345.333 20.4692C347.778 17.9166 351.625 17.7321 354.283 20.0412L373.234 36.5047C374.78 37.8477 375.654 39.8225 375.63 41.9226L374.979 99.4889L383.215 111.436L383.233 111.461L384.629 124.093L343.104 121.328Z" fill="#E8E6E6"/>
<path d="M345.844 38.2926V34.7431C345.844 33.8062 346.574 33.0439 347.471 33.0439H352.246C353.143 33.0439 353.873 33.8062 353.873 34.7431V38.2926C353.873 39.2295 353.143 39.9917 352.246 39.9917H347.471C346.574 39.9917 345.844 39.2295 345.844 38.2926Z" fill="#E82E2D"/>
<path d="M335.748 65.8445V52.7119C335.748 51.775 336.478 51.0127 337.375 51.0127H344.445C345.342 51.0127 346.072 51.775 346.072 52.7119V65.8445C346.072 66.7814 345.342 67.5437 344.445 67.5437H337.375C336.478 67.5437 335.748 66.7814 335.748 65.8445Z" fill="#2F2F2F"/>
<path d="M351.728 96.5847C350.873 96.5531 350.184 95.829 350.159 94.9365L349.802 82.2432C349.786 81.7013 350.011 81.1978 350.418 80.8612C350.825 80.5247 351.346 80.4124 351.847 80.5514L352.205 80.6511C352.916 80.8492 353.412 81.5242 353.412 82.2928V94.8866C353.412 95.3517 353.236 95.786 352.915 96.1091C352.609 96.4179 352.21 96.5857 351.787 96.5857C351.767 96.5857 351.748 96.5854 351.728 96.5847Z" fill="#2F2F2F"/>
<path d="M330.052 96.1091C329.731 95.786 329.555 95.3517 329.555 94.8866V82.2928C329.555 81.5242 330.051 80.8492 330.763 80.6511L331.12 80.5514C331.622 80.4124 332.143 80.5247 332.549 80.8612C332.956 81.1976 333.181 81.7013 333.166 82.2432L332.808 94.9365C332.783 95.829 332.094 96.5531 331.239 96.5847C331.219 96.5854 331.2 96.5857 331.18 96.5857C330.757 96.5857 330.358 96.4177 330.052 96.1091Z" fill="#2F2F2F"/>
<path d="M336.896 94.8331V81.6623C336.896 80.7326 337.594 79.9864 338.484 79.9635L344.909 79.8C345.8 79.7871 346.549 80.5171 346.575 81.4494L346.946 94.7837C346.958 95.2468 346.795 95.6847 346.486 96.017C346.177 96.3492 345.763 96.5322 345.319 96.5322H338.524C337.626 96.5322 336.896 95.7699 336.896 94.8331Z" fill="#2F2F2F"/>
<path d="M374.875 103.833L379.911 113.183L380.489 123.699L384.499 123.964L383.123 111.506L374.864 99.5273C374.151 100.867 374.155 102.497 374.875 103.833Z" fill="#C2C2C2"/>
<path d="M380.328 120.689L363.982 120.922L363.986 121.161L380.331 120.928L380.328 120.689Z" fill="#2F2F2F"/>
<path d="M379.336 118.575L363.838 118.701L363.84 118.941L379.337 118.814L379.336 118.575Z" fill="#2F2F2F"/>
<path d="M378.531 116.413L363.707 116.716L363.712 116.955L378.536 116.653L378.531 116.413Z" fill="#2F2F2F"/>
<path d="M378.072 114.265L363.836 114.759L363.844 114.998L378.08 114.505L378.072 114.265Z" fill="#2F2F2F"/>
<path d="M377.383 112.351L363.705 112.854L363.713 113.093L377.391 112.591L377.383 112.351Z" fill="#2F2F2F"/>
<path d="M376.469 110.668H363.146V110.908H376.469V110.668Z" fill="#2F2F2F"/>
<path d="M375.779 108.986L362.832 109.145L362.835 109.384L375.782 109.226L375.779 108.986Z" fill="#2F2F2F"/>
<path d="M375.088 107.311L362.543 107.746L362.551 107.986L375.096 107.551L375.088 107.311Z" fill="#2F2F2F"/>
<path d="M374.633 105.643L362.244 105.87L362.248 106.11L374.637 105.882L374.633 105.643Z" fill="#2F2F2F"/>
<path d="M373.712 103.983L361.85 104.37L361.857 104.61L373.719 104.223L373.712 103.983Z" fill="#2F2F2F"/>
<path d="M373.255 102.522L361.498 102.642L361.5 102.881L373.258 102.761L373.255 102.522Z" fill="#2F2F2F"/>
<path d="M360.641 97.589V81.3419C360.641 80.4048 361.371 79.6426 362.268 79.6426H369.796C370.693 79.6426 371.423 80.4048 371.423 81.3419V97.589C371.423 98.5258 370.693 99.2881 369.796 99.2881H362.268C361.371 99.2881 360.641 98.5258 360.641 97.589Z" fill="#E82E2D"/>
<path d="M343.104 121.328L329.777 120.442L329.67 120.435V109.664C329.67 108.302 330.731 107.193 332.035 107.193H345.198C346.503 107.193 347.564 108.302 347.564 109.664V121.329H347.449L343.104 121.328Z" fill="#C2C2C2"/>
<path d="M361.557 68.12V55.706C361.557 54.7691 362.287 54.0068 363.184 54.0068H365.665C366.562 54.0068 367.292 54.7691 367.292 55.706V68.12C367.292 69.0568 366.562 69.8191 365.665 69.8191H363.184C362.287 69.8191 361.557 69.0568 361.557 68.12Z" fill="#2F2F2F"/>
<path d="M364.082 122.527L363.394 111.986L361.329 101.923L360.755 99.1681C359.577 98.3312 357.99 99.2622 358.061 100.749L358.117 101.923L360.182 111.986L360.87 122.527" fill="#C2C2C2"/>
<path d="M317.752 100L322.788 109.35L323.366 119.866L327.376 120.131L325.999 107.673L317.741 95.6943C317.028 97.0342 317.032 98.6644 317.752 100Z" fill="#C2C2C2"/>
<path d="M191.234 111.419L191.264 110.94L400 125.018L399.168 138.801L191.234 111.419Z" fill="#C2C2C2"/>
<path d="M35.5759 32.3315C43.558 32.3315 50.0288 25.5739 50.0288 17.238C50.0288 8.90212 43.558 2.14453 35.5759 2.14453C27.5938 2.14453 21.123 8.90212 21.123 17.238C21.123 25.5739 27.5938 32.3315 35.5759 32.3315Z" fill="#FF6884"/>
<path d="M15.3711 114.276L16.7667 101.645L16.7842 101.619L25.0209 89.6725L24.3697 32.1062C24.346 30.0061 25.2192 28.0313 26.7652 26.6883L45.7163 10.2248C48.3742 7.91567 52.2217 8.10015 54.6663 10.6528L72.1292 28.8897C73.3873 30.2037 74.0966 32.023 74.0754 33.8809L73.1964 110.427L56.896 111.512L15.3711 114.276Z" fill="#E8E6E6"/>
<path d="M52.5293 30.1753H47.7539C46.8567 30.1753 46.127 29.4131 46.127 28.4762V24.9267C46.127 23.9898 46.8567 23.2275 47.7539 23.2275H52.5293C53.4264 23.2275 54.1563 23.9898 54.1563 24.9267V28.4762C54.1563 29.4131 53.4264 30.1753 52.5293 30.1753Z" fill="#E82E2D"/>
<path d="M62.6242 57.7273H55.5547C54.6575 57.7273 53.9277 56.965 53.9277 56.0281V42.8955C53.9277 41.9585 54.6575 41.1963 55.5547 41.1963H62.6242C63.5213 41.1963 64.2512 41.9585 64.2512 42.8955V56.0281C64.2512 56.965 63.5213 57.7273 62.6242 57.7273Z" fill="#2F2F2F"/>
<path d="M48.2113 86.7693C47.7879 86.7693 47.3892 86.6015 47.083 86.2927C46.7625 85.9696 46.5859 85.5353 46.5859 85.0702V72.4764C46.5859 71.7078 47.0826 71.0328 47.7937 70.8347L48.1512 70.735C48.6528 70.596 49.1738 70.7083 49.5806 71.0448C49.9874 71.3814 50.212 71.8849 50.1968 72.4268L49.8394 85.12C49.814 86.0126 49.125 86.7367 48.2706 86.7683C48.2507 86.769 48.231 86.7693 48.2113 86.7693Z" fill="#2F2F2F"/>
<path d="M68.8203 86.7693C68.8006 86.7693 68.7809 86.769 68.7611 86.7683C67.9065 86.7367 67.2175 86.0126 67.1923 85.1201L66.8347 72.4268C66.8196 71.8849 67.0442 71.3812 67.451 71.0448C67.8577 70.7083 68.3784 70.596 68.8803 70.735L69.2378 70.8347C69.949 71.0328 70.4457 71.7078 70.4457 72.4764V85.0702C70.4457 85.5353 70.2691 85.9696 69.9487 86.2927C69.6424 86.6013 69.2436 86.7693 68.8203 86.7693Z" fill="#2F2F2F"/>
<path d="M61.4774 86.7158H54.6818C54.2383 86.7158 53.8238 86.5328 53.5149 86.2006C53.2057 85.8683 53.0426 85.4304 53.0554 84.9673L53.4255 71.633C53.4516 70.7007 54.201 69.9707 55.0916 69.9836L61.517 70.1471C62.4071 70.17 63.1044 70.9162 63.1044 71.8459V85.0167C63.1044 85.9535 62.3745 86.7158 61.4774 86.7158Z" fill="#2F2F2F"/>
<path d="M25.1372 89.7109L16.8784 101.69L15.502 114.148L19.512 113.882L20.0902 103.367L25.1263 94.017C25.8459 92.6811 25.85 91.0508 25.1372 89.7109Z" fill="#C2C2C2"/>
<path d="M19.6731 110.873L19.6699 111.112L36.0151 111.346L36.0182 111.106L19.6731 110.873Z" fill="#2F2F2F"/>
<path d="M20.6639 108.758L20.6621 108.998L36.1599 109.124L36.1617 108.885L20.6639 108.758Z" fill="#2F2F2F"/>
<path d="M21.4693 106.597L21.4648 106.837L36.2893 107.139L36.2937 106.9L21.4693 106.597Z" fill="#2F2F2F"/>
<path d="M21.9295 104.449L21.9219 104.688L36.1581 105.182L36.1657 104.943L21.9295 104.449Z" fill="#2F2F2F"/>
<path d="M22.6174 102.535L22.6094 102.774L36.2873 103.277L36.2954 103.037L22.6174 102.535Z" fill="#2F2F2F"/>
<path d="M36.8534 100.852H23.5312V101.091H36.8534V100.852Z" fill="#2F2F2F"/>
<path d="M24.2214 99.1706L24.2188 99.4102L37.1658 99.5686L37.1685 99.329L24.2214 99.1706Z" fill="#2F2F2F"/>
<path d="M24.9119 97.4948L24.9043 97.7344L37.4498 98.1694L37.4574 97.9298L24.9119 97.4948Z" fill="#2F2F2F"/>
<path d="M25.3673 95.8258L25.3633 96.0654L37.7517 96.2928L37.7557 96.0533L25.3673 95.8258Z" fill="#2F2F2F"/>
<path d="M26.2884 94.1667L26.2812 94.4062L38.1432 94.7934L38.1503 94.5538L26.2884 94.1667Z" fill="#2F2F2F"/>
<path d="M26.7444 92.7057L26.7422 92.9453L38.4995 93.0652L38.5017 92.8256L26.7444 92.7057Z" fill="#2F2F2F"/>
<path d="M37.7334 89.4717H30.2051C29.3079 89.4717 28.5781 88.7094 28.5781 87.7726V71.5254C28.5781 70.5884 29.3079 69.8262 30.2051 69.8262H37.7334C38.6305 69.8262 39.3604 70.5884 39.3604 71.5254V87.7726C39.3604 88.7094 38.6305 89.4717 37.7334 89.4717Z" fill="#E82E2D"/>
<path d="M52.5522 111.512H52.4375V99.8474C52.4375 98.4852 53.4986 97.377 54.803 97.377H67.9661C69.2704 97.377 70.3315 98.4852 70.3315 99.8474V110.618L70.2241 110.625L56.8976 111.512L52.5522 111.512Z" fill="#C2C2C2"/>
<path d="M36.8153 60.0027H34.334C33.4368 60.0027 32.707 59.2404 32.707 58.3036V45.8896C32.707 44.9527 33.4368 44.1904 34.334 44.1904H36.8153C37.7124 44.1904 38.4423 44.9527 38.4423 45.8896V58.3036C38.4423 59.2404 37.7124 60.0027 36.8153 60.0027Z" fill="#2F2F2F"/>
<path d="M39.1317 112.711L39.8199 102.169L41.8846 92.1069L41.9408 90.9323C42.012 89.4458 40.4249 88.5148 39.2464 89.3517L38.6728 92.1069L36.6082 102.169L35.9199 112.711" fill="#C2C2C2"/>
<path d="M82.2602 85.8779L74.0015 97.8569L72.625 110.315L76.6351 110.049L77.2132 99.534L82.2493 90.184C82.9689 88.848 82.973 87.2178 82.2602 85.8779Z" fill="#C2C2C2"/>
<path d="M0.83194 128.984L0 115.202L208.736 101.124L208.766 101.602L0.83194 128.984Z" fill="#C2C2C2"/>
</g>
<defs>
<clipPath id="clip0_5377_11558">
<rect width="400" height="261" fill="white"/>
</clipPath>
</defs>
</svg>
