<svg width="400" height="268" viewBox="0 0 400 268" fill="none" xmlns="http://www.w3.org/2000/svg">
<g clip-path="url(#clip0_5377_11551)">
<path d="M396.998 175.529H242.575C241.779 175.528 241.016 175.193 240.453 174.598C239.89 174.002 239.573 173.195 239.572 172.353V3.17631C239.573 2.33419 239.89 1.52683 240.453 0.931359C241.016 0.335888 241.779 0.00094091 242.575 0H396.998C397.794 0.000939447 398.557 0.335888 399.12 0.931359C399.683 1.52683 400 2.33419 400.001 3.17631V172.353C400 173.195 399.683 174.002 399.12 174.598C398.557 175.193 397.794 175.528 396.998 175.529ZM242.575 1.10744C242.057 1.10807 241.559 1.32624 241.193 1.71409C240.826 2.10194 240.62 2.62781 240.619 3.17631V172.353C240.62 172.901 240.826 173.427 241.193 173.815C241.559 174.203 242.057 174.421 242.575 174.421H396.998C397.517 174.421 398.014 174.203 398.38 173.815C398.747 173.427 398.953 172.901 398.954 172.353V3.17631C398.953 2.62781 398.747 2.10194 398.38 1.71409C398.014 1.32624 397.517 1.10807 396.998 1.10744H242.575Z" fill="#2F2F2F"/>
<path d="M348.893 71.1008C352.343 77.8412 353.607 85.5931 352.489 93.1664C351.372 100.74 347.936 107.716 342.708 113.024C337.48 118.332 330.75 121.678 323.55 122.549C316.351 123.42 309.08 121.767 302.854 117.844C296.628 113.922 291.792 107.947 289.087 100.836C286.382 93.7247 285.959 85.8712 287.881 78.4809C289.804 71.0906 293.966 64.5721 299.73 59.926C305.493 55.28 312.539 52.7633 319.786 52.7623C320.048 52.7623 320.31 52.7664 320.571 52.7728L320.221 37.8193C320.076 37.8179 319.931 37.8135 319.786 37.8135C309.36 37.8167 299.228 41.4706 290.971 48.205C282.715 54.9394 276.798 64.3754 274.144 75.0407C271.491 85.7059 272.25 97.0003 276.303 107.161C280.356 117.322 287.474 125.778 296.548 131.21C305.622 136.642 316.141 138.743 326.463 137.186C336.785 135.63 346.329 130.503 353.606 122.605C360.884 114.708 365.485 104.484 366.692 93.5298C367.898 82.5756 365.643 71.5069 360.277 62.051L348.893 71.1008Z" fill="#E82E2D"/>
<path d="M348.893 71.1009L360.277 62.051C356.12 54.723 350.253 48.6467 343.24 44.4038C336.226 40.161 328.3 37.8938 320.221 37.8193L320.571 52.7728C326.4 52.9172 332.089 54.6884 337.062 57.907C342.036 61.1255 346.117 65.6771 348.893 71.1009Z" fill="#E8E6E6"/>
<path d="M343.824 130.641L343.24 131.253L359.823 148.959L360.408 148.347L343.824 130.641Z" fill="#2F2F2F"/>
<path d="M354.47 22.254L342.943 43.9922L343.661 44.4178L355.187 22.6796L354.47 22.254Z" fill="#2F2F2F"/>
<path d="M372.524 155.493H348.051C347.616 155.493 347.199 155.31 346.891 154.984C346.584 154.659 346.411 154.218 346.41 153.758V150.112C346.411 149.652 346.584 149.211 346.891 148.886C347.199 148.56 347.616 148.377 348.051 148.377H372.524C372.959 148.377 373.376 148.56 373.684 148.886C373.991 149.211 374.164 149.652 374.165 150.112V153.758C374.164 154.218 373.991 154.659 373.684 154.984C373.376 155.31 372.959 155.493 372.524 155.493Z" fill="#E82E2D"/>
<path d="M366.319 22.7776H341.846C341.411 22.777 340.994 22.594 340.686 22.2687C340.379 21.9434 340.206 21.5024 340.205 21.0423V17.3964C340.206 16.9363 340.379 16.4953 340.686 16.17C340.994 15.8447 341.411 15.6617 341.846 15.6611H366.319C366.754 15.6617 367.171 15.8447 367.478 16.17C367.786 16.4953 367.959 16.9363 367.959 17.3964V21.0423C367.959 21.5024 367.786 21.9434 367.478 22.2687C367.171 22.594 366.754 22.777 366.319 22.7776Z" fill="#E8E6E6"/>
<path d="M214.887 80.7724H40.3744C39.616 80.7715 38.8888 80.4524 38.3525 79.8851C37.8162 79.3178 37.5145 78.5487 37.5137 77.7464V3.5797C37.5145 2.77744 37.8162 2.00829 38.3525 1.44101C38.8888 0.873723 39.616 0.554621 40.3744 0.553711H214.887C215.646 0.554649 216.373 0.873759 216.909 1.44104C217.445 2.00832 217.747 2.77746 217.748 3.5797V77.7464C217.747 78.5487 217.445 79.3178 216.909 79.8851C216.373 80.4523 215.646 80.7715 214.887 80.7724ZM40.3744 1.66115C39.8935 1.6617 39.4325 1.86401 39.0925 2.22369C38.7524 2.58337 38.5612 3.07104 38.5606 3.5797V77.7464C38.5612 78.2551 38.7524 78.7427 39.0925 79.1024C39.4325 79.4621 39.8935 79.6644 40.3744 79.665H214.887C215.368 79.6644 215.829 79.4621 216.169 79.1024C216.509 78.7427 216.7 78.2551 216.701 77.7464V3.5797C216.7 3.07106 216.509 2.58341 216.169 2.22373C215.829 1.86406 215.368 1.66173 214.887 1.66115H40.3744Z" fill="#2F2F2F"/>
<path d="M108.401 62.3656H91.4931C91.0611 62.3647 90.6433 62.2017 90.3143 61.9055C89.9852 61.6093 89.7663 61.1992 89.6963 60.7482C88.5934 53.1711 88.5934 45.4601 89.6963 37.883C89.7663 37.432 89.9852 37.0219 90.3143 36.7257C90.6433 36.4295 91.0611 36.2665 91.4931 36.2656H108.401C108.675 36.2647 108.946 36.3299 109.192 36.4563C109.439 36.5827 109.655 36.7668 109.824 36.9948C109.997 37.2261 110.118 37.4959 110.177 37.7839C110.236 38.0719 110.233 38.3705 110.167 38.6568C108.585 45.6642 108.585 52.967 110.167 59.9744C110.233 60.2607 110.236 60.5593 110.177 60.8473C110.118 61.1353 109.997 61.4052 109.824 61.6364C109.655 61.8644 109.439 62.0486 109.192 62.1749C108.946 62.3013 108.675 62.3665 108.401 62.3656Z" fill="#E8E6E6"/>
<path d="M165.013 62.3656H148.104C147.672 62.3647 147.255 62.2016 146.926 61.9054C146.597 61.6093 146.378 61.1992 146.308 60.7482C145.205 53.1711 145.205 45.4601 146.308 37.883C146.378 37.432 146.597 37.022 146.926 36.7258C147.255 36.4296 147.672 36.2666 148.104 36.2656H165.013C165.287 36.2647 165.557 36.33 165.804 36.4564C166.051 36.5828 166.267 36.767 166.436 36.9951C166.608 37.2263 166.729 37.4961 166.788 37.7841C166.848 38.072 166.844 38.3705 166.778 38.6568C165.196 45.6642 165.196 52.967 166.778 59.9744C166.844 60.2607 166.848 60.5592 166.788 60.8471C166.729 61.1351 166.608 61.405 166.436 61.6361C166.267 61.8642 166.051 62.0485 165.804 62.1749C165.557 62.3013 165.287 62.3665 165.013 62.3656Z" fill="#E8E6E6"/>
<path d="M79.6416 45.0599H62.7334C62.3013 45.0591 61.8836 44.896 61.5545 44.5998C61.2255 44.3037 61.0065 43.8936 60.9366 43.4426C59.8336 35.8655 59.8336 28.1544 60.9366 20.5773C61.0065 20.1263 61.2255 19.7162 61.5545 19.42C61.8836 19.1239 62.3013 18.9608 62.7334 18.96H79.6416C79.9156 18.9591 80.1861 19.0243 80.4327 19.1506C80.6792 19.277 80.8953 19.4612 81.0644 19.6892C81.2372 19.9204 81.3579 20.1903 81.4173 20.4783C81.4766 20.7663 81.4731 21.0648 81.4069 21.3511C79.8251 28.3585 79.8251 35.6614 81.4068 42.6688C81.473 42.9551 81.4766 43.2536 81.4173 43.5416C81.3579 43.8296 81.2373 44.0995 81.0645 44.3307C80.8953 44.5587 80.6793 44.7429 80.4327 44.8693C80.1861 44.9956 79.9156 45.0608 79.6416 45.0599Z" fill="#E82E2D"/>
<path d="M136.824 45.0599H119.915C119.641 45.0609 119.371 44.9956 119.124 44.8692C118.878 44.7428 118.662 44.5585 118.492 44.3305C118.32 44.0993 118.199 43.8294 118.14 43.5415C118.08 43.2535 118.084 42.955 118.15 42.6688C119.732 35.6613 119.732 28.3585 118.15 21.3511C118.084 21.0649 118.08 20.7664 118.14 20.4784C118.199 20.1905 118.32 19.9206 118.492 19.6894C118.661 19.4614 118.878 19.2771 119.124 19.1507C119.371 19.0243 119.641 18.9591 119.915 18.96H136.824C137.256 18.9608 137.673 19.1239 138.002 19.4201C138.331 19.7162 138.55 20.1263 138.62 20.5773C139.723 28.1544 139.723 35.8655 138.62 43.4426C138.55 43.8935 138.331 44.3036 138.002 44.5998C137.673 44.896 137.256 45.0591 136.824 45.0599Z" fill="#E82E2D"/>
<path d="M192.527 45.0599H175.618C175.344 45.0609 175.074 44.9956 174.827 44.8692C174.581 44.7428 174.365 44.5585 174.196 44.3305C174.023 44.0993 173.902 43.8294 173.843 43.5415C173.784 43.2535 173.787 42.955 173.853 42.6688C175.435 35.6613 175.435 28.3585 173.853 21.3511C173.787 21.0649 173.783 20.7664 173.843 20.4784C173.902 20.1905 174.023 19.9206 174.196 19.6894C174.365 19.4614 174.581 19.2771 174.827 19.1507C175.074 19.0243 175.344 18.9591 175.618 18.96H192.527C192.959 18.9609 193.377 19.124 193.706 19.4201C194.035 19.7163 194.254 20.1264 194.324 20.5773C195.426 28.1544 195.426 35.8654 194.324 43.4426C194.254 43.8935 194.035 44.3036 193.706 44.5998C193.377 44.896 192.959 45.059 192.527 45.0599Z" fill="#FF6584"/>
<path d="M98.3819 176.895C97.5763 176.721 96.8165 176.363 96.156 175.845C95.4955 175.327 94.9503 174.663 94.5589 173.898C94.1676 173.133 93.9395 172.287 93.8907 171.419C93.8419 170.551 93.9737 169.682 94.2767 168.873L71.0684 116.164L82.8419 112.664L101.973 165.641C103.224 166.269 104.212 167.361 104.752 168.709C105.292 170.057 105.346 171.568 104.903 172.955C104.461 174.342 103.552 175.509 102.35 176.235C101.148 176.962 99.7364 177.196 98.3819 176.895Z" fill="#A0616A"/>
<path d="M53.4366 261.004H59.8545L62.9074 234.819H53.4355L53.4366 261.004Z" fill="#A0616A"/>
<path d="M72.2324 267.306L52.0623 267.307L52.0619 259.064L64.4391 259.063C66.5059 259.063 68.4881 259.931 69.9497 261.477C71.4112 263.023 72.2323 265.119 72.2324 267.306Z" fill="black"/>
<path d="M20.0781 253.685L25.9772 256.358L38.5314 233.561L29.8243 229.616L20.0781 253.685Z" fill="#A0616A"/>
<path d="M35.0078 267.307L16.4668 258.907L19.5351 251.329L30.9125 256.484C32.8124 257.345 34.3112 258.968 35.0793 260.998C35.8473 263.028 35.8216 265.297 35.0078 267.307Z" fill="black"/>
<path d="M69.3045 91.4361C76.4054 91.4361 82.1618 85.3473 82.1618 77.8362C82.1618 70.3252 76.4054 64.2363 69.3045 64.2363C62.2037 64.2363 56.4473 70.3252 56.4473 77.8362C56.4473 85.3473 62.2037 91.4361 69.3045 91.4361Z" fill="#A0616A"/>
<path d="M60.0159 254.602L52.9509 253.178C52.3702 253.064 51.8514 252.723 51.4986 252.222C51.1458 251.721 50.985 251.098 51.0483 250.476L55.7332 202.16C55.7779 201.699 55.665 201.236 55.4149 200.856C55.1648 200.475 54.7941 200.202 54.37 200.086C53.9459 199.97 53.4965 200.018 53.1032 200.222C52.71 200.426 52.3989 200.773 52.2264 201.199L31.7733 251.68C31.6503 251.983 31.4717 252.257 31.2476 252.487C31.0236 252.717 30.7586 252.897 30.4682 253.017C30.1778 253.138 29.8676 253.196 29.5557 253.189C29.2438 253.182 28.9364 253.109 28.6513 252.975L22.9051 250.273C22.3687 250.023 21.94 249.57 21.7035 249.003C21.467 248.436 21.4397 247.796 21.627 247.208L35.6155 202.818C35.6549 202.693 35.6822 202.565 35.6968 202.434L40.2376 161.876C40.2871 161.433 40.448 161.012 40.7035 160.658C40.959 160.303 41.2998 160.027 41.6903 159.86L56.0276 153.699C56.4518 153.517 56.917 153.469 57.3663 153.562C57.8157 153.655 58.2297 153.884 58.5578 154.222L76.6547 172.861C76.9367 173.15 77.1456 173.509 77.2621 173.906C77.3787 174.303 77.3993 174.724 77.322 175.131L62.7672 252.639C62.6594 253.204 62.3704 253.713 61.9491 254.078C61.5277 254.444 61 254.644 60.455 254.646C60.3077 254.646 60.1606 254.631 60.0159 254.602Z" fill="black"/>
<path d="M51.9613 164.112C49.4566 161.044 47.6286 159.652 46.3784 159.871C45.138 160.083 44.4224 161.916 43.6647 163.857C42.6305 166.506 41.4583 169.509 38.5689 169.743C38.1191 169.825 37.6565 169.771 37.2342 169.588C36.8119 169.405 36.4468 169.1 36.1806 168.708C33.9079 165.133 39.3592 153.301 39.8573 152.238L39.6016 96.2789C39.5981 95.8274 39.7109 95.3834 39.9279 94.9946C40.145 94.6058 40.458 94.2869 40.8334 94.0721C55.8137 85.5273 76.0413 100.388 79.9439 103.454C80.2561 103.699 80.5062 104.022 80.6716 104.394C80.837 104.766 80.9126 105.175 80.8917 105.586C80.4207 114.958 78.0717 162.242 78.0717 172.79C78.0717 175.71 77.1195 177.565 75.2416 178.304C74.6076 178.542 73.9384 178.658 73.2658 178.647C67.5359 178.647 58.1513 171.693 51.9613 164.112Z" fill="#C2C2C2"/>
<path d="M72.8664 136.94C72.5531 136.724 72.2934 136.433 72.1091 136.089C71.9248 135.745 71.8214 135.36 71.8075 134.965L70.7928 109.9C70.7302 108.357 71.1889 106.841 72.0866 105.623C72.9844 104.405 74.2626 103.564 75.6926 103.252C77.1227 102.939 78.6111 103.175 79.8917 103.917C81.1723 104.66 82.1614 105.86 82.682 107.303L90.2764 128.353C90.4984 128.971 90.4798 129.656 90.2246 130.259C89.9695 130.862 89.4986 131.333 88.9154 131.57L75.0008 137.186C74.6524 137.329 74.2766 137.381 73.9052 137.338C73.5337 137.295 73.1774 137.159 72.8664 136.94Z" fill="#C2C2C2"/>
<path d="M37.5073 176.103C36.8252 175.618 36.2519 174.98 35.8279 174.235C35.4039 173.49 35.1396 172.655 35.0534 171.791C34.9673 170.926 35.0614 170.051 35.3293 169.229C35.5971 168.407 36.0321 167.657 36.6037 167.032L34.1484 108.944L46.2942 110.457L44.8842 167.147C45.8134 168.233 46.3339 169.641 46.3472 171.105C46.3605 172.569 45.8656 173.987 44.9563 175.091C44.047 176.195 42.7865 176.908 41.4136 177.094C40.0407 177.281 38.6508 176.928 37.5073 176.103Z" fill="#A0616A"/>
<path d="M29.0725 124.412C28.8524 124.093 28.708 123.722 28.6517 123.331C28.5953 122.941 28.6286 122.541 28.7487 122.167L36.2489 98.367C36.7107 96.9016 37.6503 95.6579 38.8996 94.8583C40.149 94.0587 41.6266 93.7555 43.068 94.003C44.5094 94.2504 45.8205 95.0323 46.7667 96.2087C47.7129 97.3851 48.2325 98.8794 48.2324 100.424V122.955C48.2317 123.616 47.9833 124.249 47.5417 124.716C47.1 125.183 46.5013 125.446 45.8767 125.447H30.9836C30.6099 125.449 30.2413 125.356 29.9087 125.176C29.5761 124.996 29.2893 124.734 29.0725 124.412Z" fill="#C2C2C2"/>
<path d="M61.0014 86.9835C60.5201 87.3824 59.9189 87.5843 59.3082 87.5521C58.6975 87.5199 58.1182 87.2558 57.6768 86.8082C54.9212 84.0837 52.5956 80.8259 51.4187 77.0528C50.0701 72.7294 50.4146 67.6657 52.9972 64.0237C55.1805 60.945 58.6362 59.2057 62.04 57.846C63.3688 57.2516 64.7726 56.866 66.2069 56.7013C67.6558 56.5423 69.1074 56.9735 70.2662 57.907C70.831 58.384 71.2467 59.0299 71.4592 59.7605C71.6717 60.4912 71.671 61.2726 71.4574 62.0028C73.203 60.3258 75.3326 59.1605 77.6352 58.6223C79.0927 58.2137 80.633 58.2812 82.0535 58.816C84.0275 59.6747 85.3097 61.7721 85.9006 63.9415C86.3892 65.5964 86.4288 67.3632 86.0148 69.0408C85.8023 69.8748 85.4266 70.6523 84.9121 71.3231C84.3976 71.9938 83.7557 72.5429 83.0279 72.9347C81.2219 73.8347 79.0786 73.495 77.1902 72.8098C75.3019 72.1247 73.5115 71.1137 71.5583 70.6766C69.6051 70.2395 67.35 70.4945 65.968 72.0184C64.9947 73.0916 64.6115 74.6012 64.2634 76.042L62.4528 83.536C62.253 84.6276 61.8706 85.6727 61.3238 86.6222C61.2322 86.7574 61.1238 86.879 61.0014 86.9835Z" fill="black"/>
<path d="M113.144 195.119H96.2353C95.8032 195.118 95.3855 194.955 95.0565 194.658C94.7274 194.362 94.5085 193.952 94.4385 193.501C93.3356 185.924 93.3356 178.213 94.4385 170.636C94.5085 170.185 94.7274 169.775 95.0565 169.479C95.3855 169.183 95.8032 169.019 96.2353 169.019H113.144C113.418 169.018 113.688 169.083 113.935 169.209C114.181 169.336 114.397 169.52 114.567 169.748C114.739 169.979 114.86 170.249 114.919 170.537C114.979 170.825 114.975 171.123 114.909 171.41C113.327 178.417 113.327 185.72 114.909 192.727C114.975 193.014 114.979 193.312 114.919 193.6C114.86 193.888 114.739 194.158 114.567 194.389C114.397 194.617 114.181 194.801 113.935 194.928C113.688 195.054 113.418 195.119 113.144 195.119Z" fill="#E82E2D"/>
<path d="M84.8041 268H0.523482C0.384646 268 0.251496 267.942 0.153324 267.838C0.055152 267.734 0 267.593 0 267.446C0 267.299 0.055152 267.159 0.153324 267.055C0.251496 266.951 0.384646 266.893 0.523482 266.893H84.8041C84.9429 266.893 85.0761 266.951 85.1742 267.055C85.2724 267.159 85.3276 267.299 85.3276 267.446C85.3276 267.593 85.2724 267.734 85.1742 267.838C85.0761 267.942 84.9429 268 84.8041 268Z" fill="#2F2F2F"/>
</g>
<defs>
<clipPath id="clip0_5377_11551">
<rect width="400" height="268" fill="white"/>
</clipPath>
</defs>
</svg>
