<svg width="200" height="200" viewBox="0 0 200 200" fill="none" xmlns="http://www.w3.org/2000/svg">
<path fill-rule="evenodd" clip-rule="evenodd" d="M163.869 22.4432C137.836 22.8532 30.5781 23.0762 3.7501 22.7352C2.1571 22.7152 2.0361 20.0002 3.6851 20.0002C31.3401 20.0342 126.941 19.5072 163.817 20.3002C165.592 20.3362 165.11 22.4232 163.869 22.4432Z" fill="black"/>
<path fill-rule="evenodd" clip-rule="evenodd" d="M131.924 100.416C130.128 101.192 128.22 101.675 126.271 101.849C126.458 104.139 126.433 106.442 126.197 108.727C126.171 108.85 126.103 108.961 126.004 109.038C125.904 109.116 125.781 109.156 125.655 109.152C125.529 109.147 125.409 109.098 125.316 109.014C125.222 108.929 125.162 108.814 125.145 108.689C124.958 107.126 125.395 105.433 125.08 101.926C122.741 101.989 121.645 101.264 119.59 100.985C114.48 100.287 109.568 98.5444 105.161 95.8651C105.03 95.7648 104.944 95.6169 104.921 95.4535C104.899 95.2901 104.941 95.1243 105.04 94.9921C109.562 89.4702 113.039 83.1702 115.301 76.4011C115.568 75.6361 116.453 74.6081 116.457 75.9251C116.468 79.3011 116.074 82.6751 116.074 86.0561C116.074 92.1921 116.237 98.7561 122.215 100.298C125.881 101.241 129.293 100.045 131.562 99.4391C132.101 99.2901 132.501 100.137 131.924 100.416Z" fill="black"/>
<path fill-rule="evenodd" clip-rule="evenodd" d="M123.27 87.2858C122.746 88.3008 124.532 88.1808 125.603 88.2318C125.738 88.2431 125.865 88.3019 125.961 88.3978C126.057 88.4937 126.116 88.6205 126.127 88.7557C126.138 88.8909 126.102 89.0257 126.023 89.1363C125.944 89.2469 125.829 89.3261 125.698 89.3598C124.99 89.4551 124.27 89.4144 123.577 89.2398C122.339 88.9828 121.394 88.5268 122.068 87.1398C122.504 86.2036 122.999 85.2961 123.55 84.4228C123.617 84.3171 123.721 84.2395 123.842 84.2047C123.962 84.1698 124.092 84.18 124.205 84.2334C124.319 84.2868 124.409 84.3797 124.459 84.4948C124.509 84.6098 124.516 84.7393 124.478 84.8588C124.137 85.6972 123.733 86.5086 123.27 87.2858Z" fill="black"/>
<path fill-rule="evenodd" clip-rule="evenodd" d="M130.056 83.3778C130.068 84.0198 130.116 84.9928 129.17 85.0178C128.408 85.0388 128.194 84.3648 128.198 83.4638C128.202 81.8408 130.017 81.3888 130.056 83.3778Z" fill="black"/>
<path fill-rule="evenodd" clip-rule="evenodd" d="M121.134 83.3368C121.118 83.9508 120.857 84.5298 120.148 84.5008C119.556 84.4768 119.343 83.6769 119.36 83.1499C119.385 82.3719 119.63 81.9748 120.122 81.8668C120.877 81.7008 121.155 82.5668 121.134 83.3368Z" fill="black"/>
<path fill-rule="evenodd" clip-rule="evenodd" d="M120.45 78.7566C120.053 78.7108 119.652 78.7766 119.291 78.9466C118.931 79.1166 118.625 79.3839 118.408 79.7186C117.86 80.5286 117.274 79.8636 117.482 79.3836C117.749 78.8 118.196 78.3174 118.757 78.0068C119.319 77.6961 119.965 77.5737 120.602 77.6576C120.744 77.6818 120.871 77.7603 120.956 77.8767C121.041 77.993 121.078 78.1379 121.058 78.2807C121.038 78.4236 120.964 78.5531 120.85 78.6419C120.737 78.7308 120.593 78.7719 120.45 78.7566Z" fill="black"/>
<path fill-rule="evenodd" clip-rule="evenodd" d="M128.597 78.6186C128.472 78.6178 128.351 78.5726 128.257 78.4911C128.162 78.4096 128.099 78.2971 128.08 78.1737C128.061 78.0503 128.086 77.924 128.151 77.8176C128.217 77.7111 128.318 77.6314 128.437 77.5926C129.2 77.429 129.996 77.547 130.679 77.9249C131.362 78.3028 131.886 78.915 132.153 79.6486C132.318 80.2216 131.553 80.6916 131.263 80.0486C131.033 79.554 130.648 79.1473 130.168 78.8895C129.687 78.6316 129.136 78.5366 128.597 78.6186Z" fill="black"/>
<path fill-rule="evenodd" clip-rule="evenodd" d="M123.832 92.6664C124.262 93.6347 125.025 94.4167 125.982 94.8701C126.94 95.3236 128.028 95.4184 129.05 95.1374C130.103 94.7974 130.989 94.0703 131.527 93.1029C132.065 92.1355 132.216 90.9999 131.95 89.9254C131.828 89.4254 131.38 89.2514 130.842 89.6754C128.591 91.4494 126.925 91.7264 124.265 91.7704C123.833 91.7774 123.58 92.1644 123.832 92.6664Z" fill="black"/>
<path fill-rule="evenodd" clip-rule="evenodd" d="M51.0885 111.924C51.3265 112.375 50.6605 112.859 50.2885 112.524C48.1355 110.575 44.1935 107.824 43.0815 105.224C41.5815 101.724 42.4005 97.3414 39.4325 94.5094C39.3255 94.4178 39.2579 94.2886 39.2436 94.1486C39.2293 94.0085 39.2694 93.8683 39.3557 93.757C39.442 93.6458 39.5678 93.572 39.7071 93.551C39.8463 93.5301 39.9883 93.5635 40.1035 93.6443C43.3835 95.9513 42.7615 100.468 44.2805 103.744C45.8205 107.061 49.4005 108.733 51.0885 111.924Z" fill="black"/>
<path fill-rule="evenodd" clip-rule="evenodd" d="M29.1515 106.816C26.0918 106.209 23.23 104.854 20.8215 102.872C20.0485 102.191 20.9745 101.642 21.5385 102.023C23.9338 103.715 26.6752 104.854 29.5645 105.358C32.3846 105.775 35.2556 105.701 38.0505 105.14C38.7395 105.048 38.7245 106.056 38.2505 106.34C36.0945 107.635 31.5715 107.349 29.1515 106.816Z" fill="black"/>
<path fill-rule="evenodd" clip-rule="evenodd" d="M16.4374 105.258C16.0094 104.789 16.7294 104.166 17.1994 104.506C20.4087 106.968 24.0935 108.739 28.0214 109.706C31.0894 110.406 30.2384 111.842 27.4844 111.274C23.2647 110.47 19.4021 108.366 16.4374 105.258Z" fill="black"/>
<path fill-rule="evenodd" clip-rule="evenodd" d="M28.3575 116.215C24.7125 116.004 19.6645 114.324 16.9285 111.926C16.8323 111.838 16.7706 111.719 16.7545 111.59C16.7385 111.461 16.7691 111.33 16.8409 111.221C16.9127 111.113 17.0209 111.033 17.1461 110.998C17.2713 110.962 17.4051 110.972 17.5235 111.026C21.6825 113.064 23.9005 114.099 28.5485 114.676C31.2465 115.012 31.1675 116.378 28.3575 116.215Z" fill="black"/>
<path fill-rule="evenodd" clip-rule="evenodd" d="M44.4665 120.882C45.1995 121.382 44.3665 122.613 43.6195 122.171C39.6775 119.85 35.1885 121.271 30.9065 121.264C26.7313 121.334 22.6411 120.08 19.2235 117.681C18.7305 117.312 19.2735 116.574 19.7945 116.813C23.7075 118.789 28.0539 119.751 32.4355 119.613C36.4825 119.368 40.8685 118.432 44.4665 120.882Z" fill="black"/>
<path fill-rule="evenodd" clip-rule="evenodd" d="M196.175 180.009C156.15 180.496 42.1891 179.493 17.8471 179.209C16.2791 179.191 15.0351 177.421 17.8021 177.409C49.1021 177.248 149.563 177.286 196.117 177.715C197.95 177.727 197.955 179.987 196.175 180.009Z" fill="#E82E2D"/>
<path fill-rule="evenodd" clip-rule="evenodd" d="M119.05 107.657C110.25 109.057 93.3941 118.466 84.2151 130.605C92.9151 129.288 118.575 129.063 125.949 129.928C123.175 126.55 120.102 123.427 116.769 120.598C118.049 119.131 119.253 117.99 120.306 116.986C118.199 115.686 114.735 113.612 113.206 112.898C114.938 110.924 116.9 109.165 119.05 107.657Z" fill="#E82E2D"/>
<path fill-rule="evenodd" clip-rule="evenodd" d="M138.292 117.438C139.42 118.563 140.382 119.842 141.15 121.238C138.065 123.006 132.082 126.317 128.471 130.154C131.919 130.606 134.171 132.279 135.371 137.354C135.887 139.531 136.599 143.024 137.305 146.945C143.838 145.517 150.479 144.639 157.159 144.32C155.987 141.319 154.42 138.487 152.5 135.9C152.088 135.355 152.852 134.663 153.307 135.192C155.626 137.854 157.42 140.931 158.596 144.26C161.588 144.083 164.589 144.126 167.575 144.387C168.255 144.464 168.263 145.481 167.559 145.464C157.475 145.136 147.39 146.086 137.545 148.292C138.55 154.024 139.496 160.429 139.793 164.914C155.293 164.763 180.439 172.422 184.336 163.183C193.064 142.492 166.556 109.835 147.695 106.976C149.287 109.18 150.401 111.691 150.968 114.35C148.902 115.067 141.002 116.948 138.292 117.438Z" fill="#E82E2D"/>
<path fill-rule="evenodd" clip-rule="evenodd" d="M126.688 123.308C123.518 115.397 123.604 111.186 122.7 107.308C122.679 107.174 122.608 107.053 122.501 106.971C122.394 106.888 122.259 106.85 122.124 106.864C121.989 106.878 121.865 106.943 121.777 107.046C121.689 107.149 121.644 107.281 121.651 107.417C121.619 112.098 124.004 119.895 125.941 124.378C126.003 124.486 126.089 124.579 126.192 124.648C126.296 124.717 126.415 124.761 126.539 124.775C126.663 124.79 126.788 124.775 126.905 124.732C127.022 124.689 127.127 124.619 127.212 124.528C133.485 115.817 136.619 112.67 143.812 107.083C143.924 107.004 144.001 106.884 144.027 106.749C144.052 106.615 144.025 106.475 143.95 106.36C143.875 106.246 143.758 106.164 143.625 106.134C143.491 106.103 143.351 106.125 143.233 106.196C136.558 110.651 130.916 116.486 126.688 123.308Z" fill="#E82E2D"/>
<path fill-rule="evenodd" clip-rule="evenodd" d="M75.6865 131.51C69.5165 127.748 59.0575 118.493 54.7695 112.638C50.4603 117.033 46.6268 121.871 43.3325 127.071C51.1385 138.583 63.5005 151.002 71.2475 154.61C70.3475 150.772 70.1185 140.163 70.3475 136.777C70.5765 133.391 73.1285 132.037 75.6865 131.51Z" fill="#E82E2D"/>
<path fill-rule="evenodd" clip-rule="evenodd" d="M40.332 131.333C42.246 131.253 41.262 129.911 40.446 129.895C29.546 129.681 17.864 129.415 9.646 129.543C10.281 82.0561 9.901 52.0931 10.161 25.3361C10.168 24.6271 9.105 24.7361 9.073 25.4111C8.035 47.1641 8.673 105.744 7.873 129.381C7.845 130.191 7.901 130.708 9.653 130.786C14.56 131.006 19.342 131.015 24.277 131.1C28.812 131.179 35.937 131.517 40.332 131.333Z" fill="#E82E2D"/>
<path fill-rule="evenodd" clip-rule="evenodd" d="M159.751 84.201C160.232 74.451 160.082 64.572 160.126 54.801C160.152 49.025 160.414 33.517 160.349 25.906C160.338 24.588 158.979 25.339 158.965 26.006C158.702 38.929 158.021 71.197 158.515 84.215C158.557 85.311 159.702 85.295 159.751 84.201Z" fill="#E82E2D"/>
<path fill-rule="evenodd" clip-rule="evenodd" d="M25.4474 54.4007C25.4474 51.2307 25.4744 48.0627 25.4474 44.8927C39.7254 44.8107 54.0124 44.7297 68.2884 44.4717C68.3004 47.2457 68.2884 50.0197 68.2884 52.7937C54.6514 53.1427 40.7064 53.6567 27.0284 53.9017C26.1474 53.9177 26.2904 55.2337 27.1424 55.2447C40.9534 55.4117 55.1884 54.5307 69.0424 54.1717C69.2257 54.1527 69.3945 54.0635 69.5134 53.9227C69.6324 53.782 69.6922 53.6006 69.6804 53.4167C69.6804 50.1777 69.6694 46.9377 69.6914 43.6987C69.6719 43.514 69.5816 43.344 69.4396 43.2243C69.2976 43.1046 69.1147 43.0446 68.9294 43.0567C54.1784 43.0657 39.4174 43.2667 24.6664 43.4637C24.4777 43.4832 24.304 43.5751 24.1817 43.72C24.0594 43.8648 23.998 44.0515 24.0104 44.2407C24.0924 47.6607 24.2664 51.0727 24.3844 54.4907C24.4014 55.1857 25.4464 55.0877 25.4474 54.4007Z" fill="#E82E2D"/>
<path fill-rule="evenodd" clip-rule="evenodd" d="M24.6162 77.2572C39.5282 76.6752 54.8812 76.6072 69.7022 75.5862C69.8107 75.5887 69.9184 75.567 70.0174 75.5227C70.1165 75.4784 70.2045 75.4126 70.275 75.3301C70.3454 75.2475 70.3967 75.1503 70.4249 75.0455C70.4531 74.9407 70.4576 74.831 70.4382 74.7242C70.1762 72.6102 69.9132 70.4962 69.6382 68.3842C69.5232 67.5072 68.2072 67.8072 68.3032 68.6682C68.5032 70.5032 68.7252 72.3372 68.9432 74.1682C54.4652 74.7792 39.8592 75.1922 25.4432 75.6542C25.4432 72.7872 25.4282 69.9162 25.5092 67.0542C40.0842 66.9032 54.4092 66.6672 69.1442 66.7872C69.2863 66.7896 69.4238 66.7366 69.5276 66.6395C69.6314 66.5424 69.6935 66.4088 69.7006 66.2668C69.7077 66.1248 69.6594 65.9856 69.5659 65.8786C69.4723 65.7716 69.3408 65.7051 69.1992 65.6932C54.4072 65.0122 39.5532 65.3122 24.6992 65.3422C24.584 65.336 24.4688 65.3527 24.3602 65.3912C24.2515 65.4297 24.1515 65.4894 24.066 65.5667C23.9805 65.644 23.9111 65.7375 23.8619 65.8418C23.8127 65.9461 23.7845 66.059 23.7792 66.1742C23.9022 69.5872 23.8562 73.0122 23.8682 76.4292C23.8604 76.6375 23.9343 76.8405 24.074 76.9951C24.2137 77.1498 24.4082 77.2438 24.6162 77.2572Z" fill="#E82E2D"/>
<path fill-rule="evenodd" clip-rule="evenodd" d="M68.4748 97.2839C61.3148 97.3789 52.2058 97.2369 44.8608 97.5839C44.2458 97.6129 44.2738 98.8669 44.8768 98.8769C51.4898 98.9899 61.4978 98.6629 69.1428 98.8239C69.9878 98.8419 70.0268 98.0239 69.9278 97.4159C69.4342 94.4316 69.4075 91.3885 69.8488 88.3959C69.8692 88.288 69.8651 88.1769 69.8369 88.0708C69.8087 87.9647 69.757 87.8662 69.6857 87.7826C69.6145 87.6991 69.5254 87.6326 69.425 87.588C69.3247 87.5434 69.2156 87.5219 69.1058 87.525C54.5578 87.869 40.0058 88.4069 25.4588 88.6399C25.2632 88.6533 25.0805 88.7419 24.9488 88.8872C24.8172 89.0324 24.7469 89.223 24.7528 89.4189C24.7268 92.5669 24.7328 95.7189 24.7108 98.8629C24.7245 99.07 24.818 99.2637 24.9718 99.4031C25.1255 99.5424 25.3274 99.6166 25.5348 99.61C29.7348 99.4559 33.0418 99.479 37.2428 99.22C37.9428 99.177 37.8838 97.914 37.1898 97.912C33.2518 97.901 30.2148 97.944 26.2778 98.026C26.2628 95.385 26.2598 92.7439 26.2418 90.1029C40.2638 89.6029 54.2968 89.3829 68.3218 88.9909C67.9937 91.7493 68.0452 94.5396 68.4748 97.2839Z" fill="#E82E2D"/>
<path fill-rule="evenodd" clip-rule="evenodd" d="M102.469 106.608C103.131 106.765 103.311 105.702 102.669 105.514C95.666 103.283 89.7923 98.4386 86.2688 91.9886C78.1378 77.4666 83.1688 58.4356 96.3788 48.7816C108.079 40.2306 133.213 40.4046 141.317 54.3816C141.807 55.2266 143.08 54.7646 142.672 53.8656C136.336 39.9006 110.62 37.9006 98.0088 45.6006C83.1598 54.6706 76.2728 74.2866 83.6288 90.3636C87.3288 98.4516 94.2008 104.65 102.469 106.608Z" fill="#E82E2D"/>
<path fill-rule="evenodd" clip-rule="evenodd" d="M159.634 109.536C159.888 107.38 159.662 101.636 159.671 98.2747C159.671 97.0687 158.539 97.5117 158.498 98.0167C158.257 101.853 158.247 105.7 158.468 109.538C158.513 110.111 159.568 110.102 159.634 109.536Z" fill="#E82E2D"/>
<path fill-rule="evenodd" clip-rule="evenodd" d="M163.219 168.679C157.25 167.979 144.872 167.212 136.834 167.079C136.834 162.464 132.42 136.079 129.611 133.872C126.921 131.758 75.8894 131.364 73.7824 135.372C71.0124 140.648 75.5904 173.334 78.1184 174.197C82.2314 175.597 160.407 175.364 163.818 175.097C165.601 174.962 165.855 168.986 163.219 168.679ZM89.5354 137.02C86.5714 137.33 83.7354 137.74 80.7794 138.173C78.2204 138.548 78.0394 139.084 77.7614 141.54C77.409 144.456 77.24 147.392 77.2554 150.329C77.2554 150.954 76.3464 151.118 76.2634 150.46C75.8807 147.089 75.9062 143.685 76.3394 140.32C76.6254 138.112 77.4394 137.12 79.6394 136.671C82.8923 136.014 86.2128 135.753 89.5284 135.895C89.663 135.915 89.7861 135.982 89.8755 136.084C89.9648 136.187 90.0143 136.318 90.0152 136.454C90.016 136.59 89.9681 136.722 89.8801 136.826C89.792 136.93 89.6697 136.999 89.5354 137.02ZM102.601 159.349C100.486 159.749 98.1954 158.605 97.3704 155.379C96.6534 152.579 97.9704 150.466 100.296 149.871C105.866 148.447 107.901 158.336 102.601 159.349Z" fill="black"/>
<path fill-rule="evenodd" clip-rule="evenodd" d="M160.421 92.5853C150.911 83.1623 156.58 69.9513 150.498 63.5583C149.348 62.3185 147.795 61.5273 146.116 61.3258C144.437 61.1244 142.74 61.5257 141.329 62.4584C136.644 54.8394 127.088 52.9954 118.952 55.5304C110.085 58.2934 106.908 69.1183 114.026 72.6023C117.756 74.4283 130.851 74.5833 134.945 73.7903C135.273 77.1803 136.541 80.4113 138.606 83.1193C138.818 83.3743 139.114 83.7273 139.466 83.4193C139.847 83.0763 140.295 82.8161 140.781 82.6552C141.268 82.4942 141.782 82.4361 142.292 82.4844C142.802 82.5327 143.297 82.6865 143.745 82.9359C144.192 83.1853 144.583 83.525 144.892 83.9333C145.177 84.3539 145.376 84.8264 145.477 85.3239C145.578 85.8214 145.581 86.3341 145.483 86.8324C145.386 87.3307 145.191 87.8049 144.91 88.2277C144.629 88.6506 144.267 89.0137 143.845 89.2963C142.622 90.1053 141.75 89.9873 140.38 89.9183C139.951 89.8973 139.871 90.2563 139.842 90.5843C139.419 95.3483 138.95 100.784 139.677 105.522C139.696 105.654 139.765 105.773 139.871 105.854C139.976 105.935 140.108 105.972 140.24 105.957C140.372 105.942 140.493 105.876 140.577 105.773C140.661 105.67 140.702 105.539 140.69 105.406C140.7 104.122 140.652 102.838 140.61 101.553C147.305 102.302 155.782 98.3863 160.441 93.9094C161.179 93.2084 160.651 92.8133 160.421 92.5853ZM124.401 59.9894C122.769 59.96 121.154 60.3268 119.694 61.0584C118.073 61.8363 115.321 63.7704 115.506 65.7984C115.561 66.4064 114.687 66.7784 114.46 66.1514C113.365 63.1294 116.413 60.7684 118.445 59.6594C120.256 58.6716 122.283 58.1509 124.345 58.1444C126.983 58.1474 125.894 60.0524 124.401 59.9894Z" fill="black"/>
</svg>
