<svg width="200" height="200" viewBox="0 0 200 200" fill="none" xmlns="http://www.w3.org/2000/svg">
<path d="M115.738 8.47941C115.282 8.55635 114.857 8.75977 114.511 9.06651C114.165 9.37325 113.912 9.77098 113.781 10.2144C113.221 12.3824 116.029 14.2144 117.981 12.7914C120.263 11.1184 118.401 8.03041 115.738 8.47941ZM117.603 11.9324C116.443 13.0094 114.403 11.9644 114.634 10.5614C114.696 10.274 114.84 10.0105 115.047 9.80256C115.255 9.59466 115.519 9.4512 115.806 9.38941C117.319 8.99941 118.929 10.6994 117.601 11.9324H117.603Z" fill="#1D1D1B"/>
<path d="M116.278 10.2556C116.171 10.2556 116.067 10.2873 115.978 10.3466C115.889 10.406 115.82 10.4903 115.779 10.589C115.738 10.6876 115.727 10.7962 115.748 10.901C115.769 11.0057 115.82 11.1019 115.896 11.1775C115.971 11.253 116.068 11.3044 116.172 11.3252C116.277 11.3461 116.386 11.3354 116.484 11.2945C116.583 11.2536 116.667 11.1844 116.727 11.0956C116.786 11.0068 116.818 10.9024 116.818 10.7956C116.818 10.7247 116.804 10.6544 116.777 10.5888C116.75 10.5232 116.71 10.4637 116.66 10.4135C116.61 10.3633 116.55 10.3235 116.485 10.2965C116.419 10.2694 116.349 10.2555 116.278 10.2556Z" fill="#1D1D1B"/>
<path d="M108.048 53.3566C107.461 53.279 106.865 53.3827 106.338 53.6539C105.812 53.925 105.382 54.3507 105.105 54.8737C104.828 55.3967 104.717 55.9919 104.788 56.5795C104.859 57.1671 105.108 57.7189 105.502 58.1608C105.896 58.6027 106.415 58.9135 106.991 59.0516C107.566 59.1896 108.17 59.1482 108.722 58.933C109.273 58.7178 109.745 58.339 110.075 57.8475C110.405 57.356 110.577 56.7754 110.567 56.1836C110.599 55.4768 110.354 54.7853 109.883 54.257C109.413 53.7287 108.754 53.4055 108.048 53.3566Z" fill="#86F2AA"/>
<path d="M162.008 56.4012C162.157 57.0652 161.821 57.0912 161.024 57.5502C159.206 58.5942 159.174 58.6842 158.96 58.5402C158.746 58.3962 158.527 58.2502 158.311 58.1072V59.1772C158.311 59.2676 158.275 59.3544 158.211 59.4183C158.148 59.4823 158.061 59.5182 157.97 59.5182C157.88 59.5182 157.793 59.4823 157.729 59.4183C157.665 59.3544 157.629 59.2676 157.629 59.1772V57.4772C157.63 57.4175 157.646 57.3589 157.676 57.3072C157.705 57.2554 157.748 57.2123 157.8 57.1821C157.851 57.1519 157.91 57.1355 157.969 57.1347C158.029 57.1338 158.088 57.1485 158.14 57.1772C158.476 57.3992 158.805 57.6212 159.14 57.8432C159.867 57.4222 160.59 57.0072 161.318 56.5862C161.253 56.2668 161.094 55.9739 160.862 55.7442C160.714 55.59 160.555 55.4473 160.385 55.3172C160.309 55.267 160.256 55.1888 160.238 55.0997C160.219 55.0106 160.236 54.9177 160.285 54.8412C159.84 55.3233 159.297 55.7055 158.693 55.9625C158.089 56.2195 157.437 56.3455 156.781 56.3322C156.124 56.3188 155.478 56.1665 154.885 55.8852C154.292 55.6039 153.765 55.2 153.339 54.7002C153.297 54.7323 153.256 54.7656 153.216 54.8002C153.226 54.8627 153.216 54.9266 153.19 54.984C153.164 55.0415 153.122 55.0902 153.068 55.1242C152.611 55.4142 152.279 55.8647 152.136 56.3872L154.315 57.6442L155.315 56.9782C155.368 56.948 155.427 56.9322 155.487 56.9324C155.548 56.9325 155.607 56.9487 155.659 56.9791C155.711 57.0096 155.754 57.0533 155.784 57.1059C155.814 57.1584 155.829 57.2178 155.828 57.2782V58.9782C155.824 59.0656 155.786 59.1478 155.722 59.208C155.659 59.2682 155.574 59.3017 155.487 59.3017C155.399 59.3017 155.315 59.2682 155.252 59.208C155.188 59.1478 155.15 59.0656 155.145 58.9782V57.9082C154.524 58.3172 154.406 58.4842 154.145 58.3412C151.651 56.9162 151.551 56.9202 151.46 56.7022C151.162 57.138 150.893 57.5922 150.652 58.0622C151.426 58.9363 152.377 59.6363 153.441 60.116C154.505 60.5958 155.659 60.8444 156.827 60.8454C157.994 60.8464 159.149 60.5999 160.214 60.122C161.279 59.6442 162.231 58.9459 163.006 58.0732C162.758 57.4698 162.421 56.9064 162.008 56.4012Z" fill="#FEE253"/>
<path d="M116.225 106.723L146.997 107.118C147.298 107.121 147.595 107.057 147.867 106.931C148.14 106.805 148.381 106.62 148.573 106.39L157.508 95.6169C157.744 95.3299 157.895 94.9837 157.946 94.6162C157.997 94.2488 157.945 93.8745 157.797 93.5345C157.648 93.1945 157.409 92.902 157.105 92.6893C156.801 92.4766 156.445 92.3519 156.074 92.3289L124.158 90.3289L116.225 106.723ZM81.2565 88.6799C84.6018 92.441 87.5364 96.5483 90.0105 100.932C90.515 101.692 90.9111 102.519 91.1875 103.389C91.255 103.357 91.331 103.347 91.4045 103.361C96.6945 99.0609 104.091 92.2139 111.061 92.1049C111.018 92.04 110.995 91.9633 110.996 91.8849C110.997 91.8066 111.022 91.7305 111.067 91.6669C111.555 90.9161 112.136 90.23 112.796 89.6249L83.0605 87.7619C82.7058 87.7439 82.3526 87.8192 82.036 87.9803C81.7195 88.1413 81.4507 88.3826 81.2565 88.6799Z" fill="#FDE992"/>
<path d="M120.014 56.4938C120.049 55.7862 119.805 55.0932 119.333 54.5644C118.862 54.0355 118.201 53.7132 117.494 53.6668C116.908 53.5893 116.311 53.6932 115.785 53.9646C115.259 54.2359 114.829 54.6617 114.552 55.1847C114.275 55.7077 114.165 56.303 114.236 56.8905C114.307 57.478 114.556 58.0298 114.95 58.4715C115.344 58.9133 115.863 59.2241 116.439 59.362C117.014 59.4999 117.618 59.4585 118.17 59.2432C118.721 59.0279 119.193 58.6491 119.523 58.1576C119.853 57.6661 120.024 57.0856 120.014 56.4938ZM60.9143 74.5638C56.9643 70.2998 46.3903 67.5998 36.2573 71.2138C36.603 72.2646 36.9768 73.306 37.3783 74.3368C43.1363 70.6608 54.3713 72.2788 60.9143 74.5638Z" fill="#FEE253"/>
<path d="M114.1 93.4889C107.154 90.9089 97.9255 99.1739 92.6005 103.563C93.1525 103.752 93.6577 104.057 94.0825 104.457C94.5072 104.857 94.8417 105.343 95.0635 105.883C95.1184 105.987 95.131 106.108 95.0986 106.22C95.0663 106.333 94.9915 106.429 94.8899 106.488C94.7883 106.547 94.6679 106.564 94.5539 106.536C94.4399 106.508 94.3412 106.437 94.2785 106.338C94.1125 106.119 94.0545 106.078 94.0675 105.872C94.0244 105.78 93.9732 105.693 93.9145 105.611C93.6826 105.272 93.3856 104.983 93.0409 104.759C92.6962 104.536 92.3106 104.384 91.9065 104.311C93.0065 105.351 93.2975 107.09 93.3795 108.595C93.4135 109.18 92.5035 109.174 92.4695 108.595C92.5345 107.187 92.0398 105.81 91.0935 104.766C91.0184 104.821 90.9283 104.851 90.8354 104.853C90.7424 104.855 90.6511 104.829 90.5737 104.777C90.4962 104.726 90.4364 104.652 90.4022 104.566C90.368 104.479 90.3611 104.384 90.3825 104.294C90.3825 104.294 90.3995 104.142 90.3995 104.033C90.3625 103.98 90.339 103.918 90.331 103.854C90.323 103.79 90.3307 103.725 90.3535 103.664C90.1785 103.085 89.9197 102.535 89.5855 102.031C82.9575 90.1139 73.0855 79.5909 59.7755 75.1559C53.9485 73.2649 44.5195 71.8239 38.8275 74.5639C36.7699 75.5352 35.1033 77.1765 34.1005 79.2189C41.7219 80.5055 48.9199 83.6136 55.0825 88.2789C68.3065 98.1309 69.3595 115.262 72.3285 130.062C74.0285 138.542 75.4065 154.735 82.2135 161.323C84.0143 160.928 85.6224 159.921 86.7635 158.473C86.4395 158.399 86.2005 158.001 86.5255 157.734C87.9355 156.536 88.963 154.95 89.4806 153.174C89.9983 151.397 89.9832 149.508 89.4375 147.74C89.2555 147.183 90.1375 146.94 90.3135 147.495C90.6053 148.419 90.7587 149.382 90.7685 150.351C91.1121 148.732 91.168 147.064 90.9335 145.426C88.5095 140.04 92.1825 135.863 97.5255 133.412C97.0596 131.372 95.9748 129.527 94.4195 128.128C89.2085 129.771 83.5873 129.542 78.5275 127.48C77.5555 127.123 76.6158 126.683 75.7185 126.166C75.6167 126.104 75.5434 126.004 75.5143 125.888C75.4853 125.773 75.5028 125.65 75.5631 125.548C75.6233 125.445 75.7216 125.37 75.8367 125.338C75.9518 125.307 76.0745 125.322 76.1785 125.381C76.6143 125.633 77.0626 125.862 77.5215 126.069C82.5624 128.469 88.3063 128.947 93.6745 127.412C102.091 124.746 116.722 115.188 119.105 106.253C120.742 99.6319 117.974 94.9269 114.1 93.4889Z" fill="#FEE253"/>
<path d="M161.49 49.5858C161.488 49.5161 161.471 49.4477 161.439 49.3858C161.01 48.5587 160.365 47.8632 159.572 47.3733C158.78 46.8834 157.869 46.6173 156.938 46.6034C156.006 46.5894 155.088 46.8281 154.281 47.2941C153.475 47.76 152.809 48.4359 152.356 49.2498C151.406 49.7398 151.114 52.6318 151.98 52.7818C152.675 52.9138 153.362 50.9978 153.069 49.7988C153.604 48.8776 154.434 48.1625 155.424 47.7678C156.4 47.433 157.464 47.4583 158.424 47.8389C159.383 48.2196 160.175 48.9306 160.657 49.8438C160.672 49.8677 160.689 49.8904 160.708 49.9118C160.559 50.4304 160.541 50.9776 160.655 51.505C160.768 52.0323 161.01 52.5234 161.36 52.9348C162.425 53.7288 162.564 50.4768 161.49 49.5858Z" fill="#AC47F5"/>
<path d="M143.137 25.16C143.091 25.1852 143.041 25.1999 142.989 25.203C142.937 25.206 142.885 25.1974 142.837 25.1777C142.789 25.158 142.746 25.1278 142.712 25.0892C142.677 25.0507 142.651 25.0048 142.637 24.955C142.447 23.8336 141.869 22.8148 141.003 22.0775C140.137 21.3402 139.039 20.9316 137.902 20.9235C136.764 20.9153 135.661 21.3082 134.784 22.0331C133.908 22.7579 133.315 23.7684 133.11 24.887C133.084 24.9739 133.026 25.0474 132.948 25.0921C132.869 25.1367 132.776 25.1489 132.689 25.126C132.579 25.0924 132.464 25.0837 132.351 25.1007C132.238 25.1176 132.131 25.1597 132.036 25.2238C131.942 25.2879 131.863 25.3725 131.805 25.4712C131.748 25.5699 131.714 25.6802 131.705 25.794C131.697 25.9147 131.718 26.0355 131.768 26.1459C131.817 26.2563 131.893 26.3529 131.988 26.4274C132.084 26.5019 132.196 26.552 132.315 26.5734C132.434 26.5948 132.556 26.5867 132.672 26.55C132.759 26.5274 132.852 26.5397 132.93 26.5843C133.009 26.6289 133.067 26.7023 133.093 26.789C134.217 31.946 141.561 31.645 142.632 26.727C142.643 26.6837 142.664 26.6431 142.691 26.6076C142.719 26.5721 142.753 26.5424 142.792 26.5202C142.832 26.498 142.875 26.4838 142.919 26.4782C142.964 26.4727 143.009 26.476 143.053 26.488C143.147 26.5382 143.25 26.5694 143.356 26.5797C143.463 26.5899 143.57 26.5792 143.672 26.548C143.774 26.5168 143.869 26.4657 143.952 26.3978C144.034 26.3299 144.102 26.2463 144.153 26.152C144.212 26.0108 144.228 25.855 144.197 25.7048C144.167 25.5546 144.092 25.4171 143.982 25.31C143.873 25.203 143.733 25.1315 143.583 25.1047C143.432 25.0779 143.276 25.0972 143.137 25.16Z" fill="#9B6868"/>
<path d="M128.839 56.4938C128.874 55.7862 128.629 55.0932 128.158 54.5644C127.686 54.0355 127.026 53.7132 126.319 53.6668C125.732 53.5893 125.136 53.6932 124.61 53.9646C124.084 54.2359 123.653 54.6617 123.376 55.1847C123.1 55.7077 122.989 56.303 123.06 56.8905C123.131 57.478 123.381 58.0298 123.775 58.4715C124.168 58.9133 124.688 59.2241 125.263 59.362C125.839 59.4999 126.443 59.4585 126.994 59.2432C127.546 59.0279 128.018 58.6491 128.347 58.1576C128.677 57.6661 128.849 57.0856 128.839 56.4938Z" fill="#F76559"/>
<path d="M38.1324 64.9589C37.9624 65.5639 37.9324 64.6379 38.2114 69.6589C39.0763 69.4263 39.9512 69.2328 40.8334 69.0789C39.4514 68.0899 38.4882 66.6207 38.1324 64.9589ZM64.0914 34.5119C63.544 33.8534 62.9611 33.2251 62.3454 32.6299C60.5934 35.6239 57.2624 36.5509 56.9644 39.6769C56.9964 39.7769 57.6384 41.8499 57.7554 42.3959C63.7114 44.5899 64.8654 53.4519 60.0474 57.1329C58.7174 58.1283 57.1084 58.6813 55.4474 58.7139C56.4264 59.4389 56.4084 60.6499 56.0674 61.8249C55.8406 62.7463 55.424 63.6103 54.8442 64.3616C54.2644 65.1128 53.5343 65.7349 52.7004 66.1879C51.8534 66.6159 50.8872 66.7471 49.9568 66.5603C49.0264 66.3735 48.1856 65.8796 47.5694 65.1579C47.7282 65.7738 47.7169 66.4213 47.5367 67.0313C47.3566 67.6413 47.0143 68.191 46.5464 68.6219C51.1716 68.6096 55.7084 69.8882 59.6464 72.3139C59.4924 70.7949 59.3464 69.2819 59.1914 67.7629C59.2824 68.6909 66.9724 64.1629 67.5914 63.5369C69.7056 61.315 71.0871 58.4979 71.5494 55.4659C72.8054 47.8989 68.8214 40.1859 64.0914 34.5119ZM120.3 104.911C122.458 103.284 123.976 100.951 124.589 98.3189C124.612 98.2428 124.653 98.1739 124.71 98.1186C124.767 98.0634 124.837 98.0238 124.913 98.0036C124.99 97.9835 125.07 97.9835 125.147 98.0037C125.224 98.0239 125.294 98.0636 125.35 98.1189C125.775 98.5884 126.347 98.8992 126.971 98.9999C127.202 98.9876 127.424 98.9041 127.605 98.7608C127.786 98.6176 127.919 98.4216 127.984 98.1999C128.433 97.0399 127.535 95.9129 126.858 95.0599C125.985 94.4926 124.941 94.2492 123.906 94.3719C123.792 94.3991 123.671 94.381 123.57 94.3212C123.469 94.2614 123.394 94.1647 123.363 94.0513C123.331 93.938 123.345 93.8168 123.401 93.7132C123.456 93.6096 123.55 93.5317 123.662 93.4959C124.976 93.2918 126.319 93.5969 127.415 94.3489C128.177 94.6489 129.276 94.9859 129.65 94.0019C129.741 93.564 129.713 93.1099 129.571 92.6862C129.428 92.2625 129.175 91.8845 128.837 91.5909C128.48 91.1708 128.09 90.779 127.671 90.4189C126.976 90.1189 126.226 89.9633 125.469 89.9614C124.711 89.9595 123.961 90.1114 123.263 90.4079C123.159 90.4644 123.037 90.4794 122.922 90.4497C122.808 90.42 122.708 90.3479 122.644 90.2479C122.583 90.144 122.565 90.0199 122.594 89.9028C122.624 89.7857 122.699 89.685 122.802 89.6229C123.744 89.2095 124.769 89.0225 125.795 89.0769C123.526 87.6939 120.81 87.239 118.214 87.8066C115.617 88.3743 113.339 89.9209 111.853 92.1249C117.322 92.4659 121.422 97.5919 120.3 104.911Z" fill="#FFCEB6"/>
<path d="M119.838 167.785C117.808 167.785 117.165 170.35 116.818 171.914C116.528 173.247 116.289 174.59 116.101 175.941C118.802 174.458 121.366 172.737 123.763 170.8C122.893 169.471 121.429 167.785 119.838 167.785ZM77.9896 175.58C77.6652 175.056 77.2158 174.62 76.6816 174.312C76.3889 174.175 76.0691 174.106 75.746 174.11C75.4228 174.114 75.1048 174.191 74.8156 174.335C73.6544 174.984 72.7196 175.972 72.1366 177.167C70.7003 180.066 69.8775 183.23 69.7196 186.461C73.6141 186.752 77.5247 186.755 81.4196 186.47C81.2301 185.199 80.9754 183.938 80.6566 182.693C80.0396 180.258 79.4556 177.669 77.9896 175.58Z" fill="#FF8684"/>
<path d="M130.526 156.431C129.218 154.444 126.846 154.265 124.491 154.668C114.77 156.324 106.199 162.591 96.2678 164.309C91.9618 165.054 87.1618 165.14 83.6348 162.558C75.5528 156.671 74.2128 139.472 72.3278 130.074C69.3638 115.274 68.3058 98.142 55.0818 88.291C46.4698 81.879 35.0208 77.5719 24.2258 79.1559C19.9478 79.7879 15.6828 81.4559 12.7308 84.6169C2.73079 95.3169 6.29179 117.917 9.37979 130.768C12.7868 144.936 19.2198 159.031 29.5668 169.496C30.6958 167.362 32.6028 166.757 33.9288 167.227C35.2148 167.682 35.7208 168.984 36.1818 170.15C37.0222 172.293 37.7236 174.487 38.2818 176.72C41.8488 179.099 45.7081 181.008 49.7638 182.399C55.9331 184.496 62.3343 185.836 68.8268 186.389C69.7048 175.36 75.2628 169.934 78.8658 175.258C80.3848 177.511 80.9818 180.275 81.6528 182.868C81.9425 184.033 82.1655 185.213 82.3208 186.403C89.0135 185.839 95.6053 184.413 101.933 182.16C106.464 180.594 110.872 178.695 115.123 176.478C115.237 175.569 115.368 174.664 115.523 173.765C115.892 171.718 116.323 168.855 117.94 167.565C118.356 167.234 118.851 167.015 119.377 166.931C119.902 166.846 120.44 166.898 120.94 167.082C122.408 167.737 123.636 168.832 124.455 170.216C126.588 168.282 129.927 164.295 130.905 160.716C130.911 159.279 130.784 157.845 130.526 156.431Z" fill="#FF8684"/>
<path d="M33.064 167.982C32.4354 168.038 31.8363 168.274 31.338 168.662C30.8398 169.049 30.4635 169.572 30.254 170.167C32.3831 172.275 34.6852 174.2 37.136 175.923C36.6286 174.044 36.0173 172.195 35.305 170.383C34.9 169.347 34.4 167.998 33.064 167.982Z" fill="#FF8684"/>
<path d="M160.709 49.9073C160.506 49.5533 160.263 49.2233 159.987 48.9233C159.428 48.2974 158.696 47.8526 157.883 47.6459C157.07 47.4392 156.214 47.4801 155.425 47.7633C154.428 48.147 153.596 48.8649 153.07 49.7943C153.179 50.2961 153.17 50.8165 153.042 51.314C152.915 51.8116 152.674 52.2725 152.337 52.6603C152.553 53.6774 153.105 54.5923 153.904 55.2581C154.702 55.924 155.702 56.3022 156.741 56.3321C157.78 56.362 158.8 56.0417 159.635 55.4228C160.471 54.8039 161.074 53.9222 161.349 52.9193C161.004 52.5078 160.765 52.018 160.654 51.4929C160.542 50.9678 160.561 50.4234 160.709 49.9073Z" fill="#FFCEB6"/>
<path d="M95.3772 31.3931C94.9675 31.5374 94.5183 31.521 94.1202 31.3471C91.8802 34.7661 92.0082 34.3521 92.2312 34.7541C92.9842 36.0753 93.7809 37.371 94.6202 38.6391C95.3722 37.0621 96.8952 34.6741 96.8952 34.4701C96.8912 34.3691 97.0002 34.6901 95.3772 31.3931ZM94.7882 30.5741C94.9653 30.5744 95.1402 30.5346 95.2997 30.4577C95.4592 30.3808 95.5992 30.2688 95.7092 30.1301C95.1496 30.1974 94.5833 30.1877 94.0262 30.1011C94.1089 30.2327 94.2205 30.3438 94.3525 30.4257C94.4846 30.5077 94.6336 30.5584 94.7882 30.5741Z" fill="#F76559"/>
<path d="M89.8234 25.2881C89.9394 25.2576 90.0627 25.2738 90.1669 25.3333C90.271 25.3928 90.3477 25.4907 90.3804 25.6061C91.4694 30.5901 98.6464 30.4061 99.7024 25.5461C99.7351 25.4305 99.8119 25.3324 99.9163 25.2729C100.021 25.2134 100.144 25.1973 100.26 25.2281C100.424 25.3183 100.617 25.3403 100.797 25.2892C100.977 25.2381 101.129 25.118 101.221 24.9551C101.272 24.8358 101.285 24.7041 101.261 24.577C101.236 24.4499 101.174 24.333 101.082 24.2415C100.99 24.1499 100.874 24.0877 100.746 24.0628C100.619 24.038 100.488 24.0517 100.368 24.1021C100.308 24.1362 100.241 24.1562 100.172 24.1606C100.102 24.1649 100.033 24.1535 99.9691 24.1273C99.905 24.101 99.8477 24.0605 99.8015 24.0088C99.7553 23.9572 99.7214 23.8957 99.7024 23.8291C98.3654 18.4791 91.5744 18.6691 90.4084 23.7211C90.4084 23.7321 90.4084 23.7431 90.3974 23.7601C90.3649 23.8756 90.2883 23.9738 90.1841 24.0335C90.08 24.0931 89.9565 24.1095 89.8404 24.0791C89.7464 24.0496 89.6469 24.0419 89.5494 24.0566C89.452 24.0713 89.3592 24.108 89.2781 24.1639C89.1969 24.2198 89.1296 24.2934 89.0811 24.3792C89.0326 24.465 89.0044 24.5607 88.9984 24.6591C88.9935 24.761 89.0135 24.8626 89.0565 24.9552C89.0996 25.0477 89.1645 25.1284 89.2457 25.1902C89.3269 25.2521 89.4219 25.2934 89.5225 25.3104C89.6231 25.3275 89.7264 25.3198 89.8234 25.2881Z" fill="#FFCEB6"/>
<path d="M66.5317 44.4203C67.1944 44.4203 67.7317 43.883 67.7317 43.2203C67.7317 42.5575 67.1944 42.0203 66.5317 42.0203C65.8689 42.0203 65.3317 42.5575 65.3317 43.2203C65.3317 43.883 65.8689 44.4203 66.5317 44.4203Z" fill="#1D1D1B"/>
<path d="M63.2669 37.3229C63.349 37.236 63.3948 37.121 63.3948 37.0014C63.3948 36.8818 63.349 36.7668 63.2669 36.6799C63.1812 36.5954 63.0657 36.5481 62.9454 36.5481C62.825 36.5481 62.7096 36.5954 62.6239 36.6799C61.6992 37.7354 61.1759 39.083 61.1459 40.4859C61.1133 40.7204 61.1426 40.9593 61.2309 41.1789C61.2639 41.235 61.3078 41.284 61.36 41.3228C61.4123 41.3617 61.4718 41.3897 61.535 41.4052C61.5983 41.4206 61.664 41.4233 61.7283 41.4129C61.7926 41.4025 61.8541 41.3793 61.9093 41.3448C61.9645 41.3102 62.0122 41.2649 62.0495 41.2116C62.0869 41.1582 62.1132 41.098 62.1268 41.0343C62.1405 40.9706 62.1413 40.9049 62.1291 40.8409C62.1169 40.7769 62.092 40.7161 62.0559 40.6619C62.035 39.4378 62.4662 38.249 63.2669 37.3229ZM62.0669 40.8229C62.0669 40.8849 62.0609 40.8739 62.0609 40.8109L62.0669 40.8229ZM66.3899 52.5779C66.9531 53.1408 67.6796 53.5116 68.466 53.6373C69.2523 53.763 70.0582 53.6372 70.7689 53.2779C70.8228 53.2493 70.8705 53.2101 70.909 53.1627C70.9475 53.1153 70.976 53.0605 70.9928 53.0018C71.0097 52.9431 71.0145 52.8816 71.007 52.821C70.9995 52.7603 70.9799 52.7019 70.9492 52.649C70.9186 52.5962 70.8776 52.55 70.8287 52.5134C70.7798 52.4767 70.7241 52.4504 70.6647 52.4358C70.6054 52.4212 70.5438 52.4187 70.4835 52.4286C70.4232 52.4384 70.3655 52.4603 70.3139 52.4929C69.7779 52.7552 69.1729 52.842 68.5849 52.741C67.9968 52.6399 67.4555 52.3561 67.0379 51.9299C66.9519 51.844 66.8354 51.7957 66.7139 51.7957C66.5923 51.7957 66.4758 51.844 66.3899 51.9299C66.3039 52.0158 66.2557 52.1324 66.2557 52.2539C66.2557 52.3754 66.3039 52.492 66.3899 52.5779Z" fill="#1D1D1B"/>
<path d="M179.3 122.789C178.635 122.761 111.161 119.598 109.693 119.529C111.344 118.251 112.904 116.86 114.362 115.366C114.837 115.386 178.119 118.346 179.067 118.366C179.188 118.366 179.304 118.318 179.389 118.233C179.474 118.147 179.522 118.032 179.522 117.911C179.522 117.79 179.474 117.674 179.389 117.589C179.304 117.504 179.188 117.456 179.067 117.456C178.482 117.428 115.614 114.51 115.193 114.487C117.604 111.82 119.299 109.446 120.068 106.115C120.591 106.115 124.026 103.491 125.278 99.2318C125.739 99.6215 126.309 99.8599 126.91 99.9148C127.261 99.8936 127.602 99.7913 127.906 99.6158C128.21 99.4403 128.47 99.1965 128.663 98.9037C128.857 98.6109 128.981 98.277 129.023 97.9283C129.066 97.5797 129.028 97.2259 128.91 96.8948C130.384 97.0882 131.861 97.2585 133.341 97.4058C131.749 98.9392 130.144 100.462 128.524 101.974C127.203 101.894 125.878 101.792 124.559 101.674C123.979 101.623 123.979 102.533 124.559 102.584C125.577 102.675 126.601 102.749 127.625 102.818C127.176 103.233 126.731 103.659 126.282 104.075C125.85 104.475 126.492 105.115 126.925 104.717C127.579 104.117 128.216 103.506 128.859 102.903C131.213 103.045 133.569 103.113 135.923 103.13C135.616 103.46 135.298 103.784 134.996 104.114C134.596 104.547 135.24 105.189 135.639 104.757C136.139 104.211 136.651 103.676 137.163 103.142C138.483 103.142 139.805 103.123 141.128 103.085C141.249 103.085 141.365 103.037 141.45 102.952C141.535 102.866 141.583 102.751 141.583 102.63C141.583 102.509 141.535 102.393 141.45 102.308C141.365 102.223 141.249 102.175 141.128 102.175C140.098 102.203 139.069 102.215 138.034 102.22C139.413 100.786 140.82 99.3794 142.253 97.9998C143.028 98.0278 146.634 98.0848 146.634 98.0848C146.649 98.1822 146.702 98.2699 146.78 98.3294C146.859 98.389 146.957 98.4156 147.055 98.4038C147.165 98.4016 147.272 98.3663 147.362 98.3024C147.451 98.2386 147.519 98.1492 147.557 98.046C147.595 97.9427 147.601 97.8304 147.575 97.7237C147.548 97.617 147.49 97.5209 147.407 97.4478C147.015 97.0218 146.298 97.1698 145.78 97.1638C144.916 97.1518 144.051 97.1238 143.187 97.1008C144.377 95.9675 145.582 94.8548 146.804 93.7628C147.242 93.3698 146.604 92.7328 146.162 93.1198C144.718 94.4112 143.299 95.7288 141.907 97.0728C141.788 97.0668 139.96 97.0468 135.394 96.6728C136.134 95.9508 136.885 95.2338 137.618 94.5058C137.698 94.4195 137.742 94.3056 137.739 94.1879C137.737 94.0703 137.689 93.9581 137.606 93.8749C137.523 93.7917 137.411 93.7439 137.293 93.7417C137.175 93.7394 137.062 93.7829 136.975 93.8628C136.06 94.7728 135.121 95.6628 134.194 96.5708C134.094 96.5598 132.032 96.4168 128.524 95.9388C128.452 95.8056 128.376 95.6749 128.295 95.5468C128.644 95.6072 129.002 95.5758 129.335 95.4556C129.668 95.3354 129.964 95.1306 130.193 94.8614C130.423 94.5922 130.579 94.2678 130.645 93.9202C130.711 93.5725 130.686 93.2137 130.571 92.8788C130.13 90.9438 126.671 87.6018 122.271 86.8618V85.6428C125.553 85.7948 175.532 88.1428 175.583 88.1428C175.704 88.1428 175.82 88.0949 175.905 88.0096C175.99 87.9242 176.038 87.8085 176.038 87.6878C176.038 87.5672 175.99 87.4514 175.905 87.3661C175.82 87.2808 175.704 87.2328 175.583 87.2328C174.701 87.1928 125.207 84.8748 122.271 84.7378C122.271 81.2058 122.271 74.8558 122.265 73.3028C126.741 73.4738 171.265 74.4688 171.857 74.4578C171.977 74.4543 172.09 74.4053 172.175 74.3207C172.26 74.2361 172.309 74.1224 172.312 74.0028C173.287 62.1028 176.359 20.9718 175.571 8.95683C175.569 8.8368 175.521 8.72226 175.436 8.63737C175.351 8.55248 175.236 8.50389 175.116 8.50183C174.251 8.46783 63.5722 5.00183 63.1512 5.02083C63.0313 5.02338 62.9171 5.07214 62.8323 5.15692C62.7475 5.2417 62.6988 5.35596 62.6962 5.47583C62.6962 6.40983 62.6612 15.2438 62.6252 25.1928C61.0192 22.7368 57.1962 21.7718 55.0252 23.7618C54.8552 22.7382 54.3757 21.7912 53.6514 21.0482C52.9271 20.3052 51.9926 19.8019 50.9736 19.6058C49.9547 19.4098 48.9001 19.5305 47.9518 19.9517C47.0035 20.3729 46.2069 21.0744 45.6692 21.9618C44.5316 21.2863 43.2222 20.9556 41.9002 21.0098C41.5396 21.0336 41.1923 21.1553 40.8957 21.3618C40.5992 21.5683 40.3646 21.8518 40.2172 22.1818C32.3172 22.7928 25.0482 30.3048 25.9172 43.4888C26.4592 51.7888 29.6462 53.3628 31.0172 58.0038C31.4275 59.4292 31.5489 60.9221 31.3743 62.395C31.1996 63.8679 30.7325 65.291 30.0002 66.5808C29.6122 67.2578 29.1302 68.0368 29.4082 68.7648C30.2082 70.8418 36.7002 69.8888 38.1392 64.9598C38.494 66.6229 39.4569 68.0935 40.8392 69.0838C39.0468 69.4029 37.2845 69.8729 35.5712 70.4888C35.4568 70.5231 35.36 70.6001 35.3008 70.7037C35.2416 70.8074 35.2246 70.9299 35.2532 71.0458C35.6513 72.3279 36.1204 73.5869 36.6582 74.8168C35.1386 75.9108 33.9319 77.3837 33.1582 79.0888C33.3182 79.1118 33.9582 79.1968 34.1202 79.2198C37.2332 72.9128 44.9322 72.5338 51.9062 73.4068C68.6982 75.4968 81.3512 87.1868 89.6062 102.034C89.8062 102.401 90.5852 103.755 90.4062 104.297C90.3849 104.387 90.3918 104.482 90.426 104.569C90.4602 104.655 90.52 104.729 90.5974 104.78C90.6749 104.832 90.7662 104.858 90.8591 104.856C90.9521 104.854 91.0421 104.824 91.1172 104.769C92.0672 105.812 92.5646 107.19 92.5002 108.6C92.5342 109.181 93.4442 109.186 93.4102 108.6C93.3212 107.13 93.0572 105.362 91.9362 104.317C93.8962 104.689 94.0692 106.883 94.8782 106.53C94.9798 106.488 95.0626 106.411 95.1107 106.312C95.1589 106.213 95.169 106.101 95.1392 105.995C94.9236 105.432 94.5874 104.923 94.1541 104.503C93.7209 104.084 93.2011 103.764 92.6312 103.567C98.0312 99.0998 107.157 90.9158 114.131 93.4928C119.745 95.5928 122.031 104.286 116.288 111.837C111.978 117.488 104.188 122.815 97.9442 125.744C95.0388 127.277 91.8348 128.16 88.5542 128.332C84.2484 128.484 79.9811 127.474 76.2002 125.408C76.0965 125.354 75.976 125.341 75.8635 125.373C75.751 125.406 75.6552 125.48 75.5959 125.581C75.5365 125.681 75.5182 125.801 75.5447 125.915C75.5712 126.029 75.6405 126.129 75.7382 126.193C78.8084 127.853 82.1868 128.866 85.6642 129.168C88.6287 129.464 91.6222 129.119 94.4412 128.155C99.5065 126.256 104.274 123.641 108.598 120.391C109.871 120.448 179.292 123.701 179.331 123.702C179.89 123.71 179.89 122.812 179.3 122.789ZM134.541 97.5058C136.669 97.7008 138.398 97.8288 141.007 97.9438C139.572 99.3451 138.163 100.773 136.781 102.227C134.455 102.221 132.123 102.147 129.796 102.027C131.39 100.538 132.972 99.0305 134.541 97.5058ZM49.3762 72.2518C45.1052 71.9458 40.8762 72.2238 37.3762 74.3368C36.9762 73.3068 36.6082 72.2658 36.2552 71.2138C38.2006 70.5297 40.2112 70.0475 42.2552 69.7748C50.9422 68.6038 58.1942 71.6168 60.9172 74.5638C57.1876 73.2929 53.3076 72.5156 49.3762 72.2518ZM111.067 91.6678C111.022 91.7315 110.997 91.8076 110.996 91.8859C110.995 91.9642 111.017 92.0409 111.061 92.1058C104.455 92.2058 97.3162 98.4648 92.2232 102.691C91.0702 103.651 91.5962 103.256 91.1872 103.391C90.9075 102.522 90.5116 101.696 90.0102 100.934C83.6202 89.7178 74.3772 79.8838 62.4812 75.1538C62.4692 75.0978 62.4483 75.0442 62.4192 74.9948C59.4382 70.6038 51.9192 68.7058 46.5612 68.6238C47.029 68.1929 47.3713 67.6432 47.5516 67.0332C47.7319 66.4233 47.7435 65.7759 47.5852 65.1598C48.2011 65.8817 49.0417 66.3756 49.972 66.5624C50.9023 66.7492 51.8684 66.618 52.7152 66.1898C53.5482 65.7365 54.2773 65.1143 54.8561 64.363C55.4348 63.6117 55.8504 62.7479 56.0762 61.8268C56.4222 60.6268 56.4342 59.4678 55.4572 58.7158C62.3492 58.5258 64.9572 50.8398 61.6682 45.6278C60.7746 44.138 59.3985 42.9983 57.7682 42.3978C57.3162 40.8138 57.4592 41.2348 56.9782 39.6788C57.2782 36.5548 60.5602 35.6898 62.3582 32.6318C62.7662 33.0508 63.0252 33.2978 63.5212 33.8518L63.6272 5.93283C73.5682 5.69083 171.362 9.53283 174.687 9.43283C175.356 20.3078 172.957 53.7688 172.127 64.7128C171.337 64.6888 91.7722 62.1548 69.2732 61.4478C69.0732 61.7518 68.8625 62.0485 68.6412 62.3378C90.1652 63.0258 170.854 65.6018 172.065 65.6118C171.35 74.6728 171.424 73.3618 171.422 73.5518C157.933 73.7828 74.4612 70.0938 63.3882 69.8518C63.3882 68.9848 63.3962 67.5378 63.4012 66.1278C63.1752 66.2528 62.9492 66.3748 62.7262 66.4928C62.5683 67.7107 62.4834 68.9369 62.4722 70.1648C62.4962 70.2648 62.4182 70.6998 62.9272 70.7338C63.6952 70.7738 101.809 72.4908 106.069 72.6678L107.131 84.0038C103.192 83.8218 77.1562 82.6108 77.1072 82.6098C76.9951 82.6196 76.8907 82.6709 76.8144 82.7536C76.7381 82.8364 76.6953 82.9446 76.6946 83.0571C76.6938 83.1696 76.7351 83.2784 76.8103 83.3622C76.8855 83.4459 76.9892 83.4986 77.1012 83.5098C77.9562 83.5458 102.759 84.7098 107.217 84.9148L107.446 87.3548C107.447 87.4542 107.481 87.5505 107.541 87.6294C107.601 87.7084 107.686 87.7657 107.781 87.7928C109.886 88.1262 112.001 88.3875 114.127 88.5768C112.912 89.3932 111.871 90.4441 111.067 91.6678ZM106.989 72.6998C111.783 72.8932 116.58 73.0828 121.379 73.2688C121.398 76.3308 121.379 84.3688 121.379 86.7468C119.367 86.5608 117.341 86.9193 115.515 87.7848C113.108 87.6098 110.71 87.3342 108.326 86.9588C108.263 86.2998 107.341 76.4838 106.989 72.6998ZM111.869 92.1238C113.355 89.9202 115.632 88.3737 118.229 87.8059C120.825 87.238 123.54 87.6925 125.81 89.0748C124.784 89.0208 123.759 89.2078 122.818 89.6208C122.716 89.683 122.643 89.7826 122.614 89.8982C122.585 90.0139 122.603 90.1363 122.663 90.2392C122.723 90.3421 122.821 90.4172 122.936 90.4483C123.052 90.4795 123.174 90.4642 123.278 90.4058C123.975 90.1094 124.726 89.9575 125.483 89.9594C126.241 89.9613 126.99 90.1169 127.686 90.4168C128.694 91.3168 130.145 92.7428 129.666 94.0008C129.291 94.9848 128.193 94.6488 127.431 94.3478C126.334 93.596 124.992 93.2906 123.677 93.4938C123.565 93.5297 123.471 93.6076 123.415 93.7112C123.36 93.8147 123.346 93.9359 123.378 94.0493C123.409 94.1627 123.483 94.2594 123.585 94.3192C123.686 94.3789 123.807 94.3971 123.921 94.3698C124.943 94.2583 125.972 94.4864 126.851 95.0188C127.551 95.7188 128.414 97.1258 128 98.1978C127.935 98.4199 127.803 98.6163 127.622 98.7597C127.44 98.9031 127.218 98.9863 126.987 98.9978C126.361 98.9002 125.788 98.5885 125.366 98.1158C125.309 98.0614 125.239 98.0226 125.162 98.0029C125.086 97.9832 125.005 97.9834 124.929 98.0035C124.853 98.0235 124.783 98.0627 124.726 98.1174C124.669 98.172 124.626 98.2403 124.603 98.3158C123.986 100.946 122.47 103.278 120.315 104.908C121.31 98.3998 117.98 92.4998 111.869 92.1198V92.1238Z" fill="#1D1D1B"/>
<path d="M107.961 60.022C108.914 59.9241 109.798 59.4797 110.445 58.7731C111.092 58.0666 111.457 57.147 111.471 56.189C111.502 55.361 111.247 54.5476 110.748 53.8856C110.25 53.2236 109.539 52.7534 108.735 52.5541C108.016 52.3516 107.255 52.363 106.543 52.5868C105.831 52.8107 105.199 53.2372 104.726 53.8143C104.253 54.3914 103.958 55.0939 103.878 55.8359C103.798 56.5779 103.936 57.3272 104.275 57.9921C104.634 58.6446 105.171 59.1818 105.824 59.5411C106.476 59.9005 107.217 60.0673 107.961 60.022ZM108.047 53.356C108.753 53.4027 109.414 53.7252 109.885 54.254C110.356 54.7828 110.601 55.4756 110.566 56.183C110.575 56.7748 110.404 57.3555 110.074 57.8469C109.744 58.3384 109.272 58.7172 108.721 58.9324C108.169 59.1477 107.565 59.189 106.99 59.051C106.414 58.913 105.895 58.6021 105.501 58.1602C105.107 57.7183 104.858 57.1665 104.787 56.5789C104.716 55.9913 104.827 55.3961 105.104 54.8731C105.381 54.3501 105.811 53.9245 106.337 53.6533C106.863 53.3821 107.46 53.2784 108.047 53.356ZM117.409 60.3291C118.362 60.2311 119.245 59.7867 119.892 59.0801C120.539 58.3735 120.904 57.4539 120.918 56.4961C120.95 55.6678 120.695 54.8538 120.197 54.1916C119.698 53.5293 118.987 53.0594 118.182 52.861C117.463 52.6593 116.702 52.6713 115.991 52.8954C115.279 53.1195 114.648 53.546 114.175 54.1229C113.702 54.6998 113.407 55.4019 113.327 56.1436C113.247 56.8853 113.384 57.6343 113.723 58.299C114.082 58.9517 114.619 59.4889 115.271 59.8483C115.924 60.2077 116.665 60.3744 117.409 60.3291ZM117.494 53.666C118.201 53.7124 118.861 54.0348 119.332 54.5636C119.804 55.0925 120.049 55.7854 120.014 56.493C120.024 57.0848 119.852 57.6654 119.522 58.1569C119.193 58.6483 118.72 59.0271 118.169 59.2424C117.618 59.4577 117.014 59.4992 116.438 59.3612C115.863 59.2233 115.343 58.9126 114.949 58.4708C114.556 58.029 114.306 57.4773 114.235 56.8898C114.164 56.3022 114.274 55.707 114.551 55.1839C114.828 54.6609 115.259 54.2351 115.785 53.9638C116.311 53.6925 116.907 53.5886 117.494 53.666ZM126.236 60.3291C127.189 60.2314 128.073 59.787 128.72 59.0804C129.367 58.3737 129.732 57.4541 129.746 56.4961C129.777 55.668 129.522 54.8546 129.023 54.1926C128.525 53.5306 127.814 53.0604 127.01 52.861C126.291 52.6584 125.529 52.6696 124.817 52.8934C124.105 53.1172 123.474 53.5438 123.001 54.121C122.528 54.6982 122.233 55.4008 122.153 56.1429C122.073 56.885 122.211 57.6343 122.551 58.299C122.909 58.9519 123.446 59.4893 124.099 59.8487C124.751 60.2081 125.492 60.3747 126.236 60.3291ZM126.318 53.666C127.025 53.7124 127.685 54.0348 128.156 54.5636C128.628 55.0925 128.873 55.7854 128.838 56.493C128.848 57.0848 128.676 57.6654 128.346 58.1569C128.017 58.6483 127.544 59.0271 126.993 59.2424C126.442 59.4577 125.838 59.4992 125.262 59.3612C124.687 59.2233 124.167 58.9126 123.773 58.4708C123.38 58.029 123.13 57.4773 123.059 56.8898C122.988 56.3022 123.098 55.707 123.375 55.1839C123.652 54.6609 124.083 54.2351 124.609 53.9638C125.135 53.6925 125.731 53.5886 126.318 53.666ZM101.562 93.4381C101.693 93.5211 101.762 93.509 102.222 93.472C102.342 93.472 102.458 93.4241 102.543 93.3388C102.629 93.2535 102.677 93.1377 102.677 93.017C102.677 92.8964 102.629 92.7806 102.543 92.6953C102.458 92.61 102.342 92.5621 102.222 92.5621C100.63 92.4831 99.0367 92.397 97.4437 92.3181C97.7567 92.0111 98.0587 91.692 98.3767 91.391C98.4567 91.3047 98.5001 91.1908 98.4979 91.0731C98.4956 90.9555 98.4479 90.8433 98.3647 90.7601C98.2815 90.6769 98.1693 90.6291 98.0516 90.6269C97.934 90.6246 97.82 90.6681 97.7337 90.7481C97.5917 90.89 97.4437 91.0321 97.3017 91.1751L97.2957 91.186C96.9317 91.539 96.5797 91.903 96.2207 92.2611C93.1774 92.1071 90.1364 91.9517 87.0977 91.795C86.5117 91.766 86.5117 92.6761 87.0977 92.7051C89.8504 92.847 92.6034 92.9874 95.3567 93.126C94.29 94.2061 93.2397 95.3017 92.2057 96.4131C91.4317 96.3677 90.66 96.3204 89.8907 96.2711C89.3047 96.2371 89.3107 97.147 89.8907 97.181C90.3907 97.209 90.8907 97.2441 91.3977 97.2721C91.3637 97.3121 91.3237 97.3461 91.2897 97.3861C90.8977 97.8181 91.5347 98.461 91.9327 98.028C92.1427 97.795 92.3647 97.5731 92.5807 97.3401L96.5567 97.5791C97.1427 97.6131 97.1367 96.703 96.5567 96.669L93.3997 96.4811C94.4498 95.3651 95.5166 94.2649 96.5997 93.181C98.2347 93.2681 99.8997 93.3531 101.562 93.4381ZM148.726 160.435C148.395 140.935 139.826 127.77 120.497 128.686C114.797 128.948 106.047 130.27 100.334 132.303C96.9987 133.49 93.5057 135.156 91.5007 138.054C90.5969 139.394 90.1452 140.987 90.2116 142.602C90.278 144.217 90.859 145.768 91.8697 147.029C92.2337 147.484 92.8547 146.858 92.5127 146.386C89.7737 142.605 90.5247 137.7 97.9447 134.249C103.045 131.865 110.197 130.656 115.81 130.017C121.248 129.403 126.776 129.226 132.004 131.117C143.067 135.101 147.117 146.467 147.719 158.317C147.944 162.86 147.711 167.414 147.025 171.911C146.925 172.485 147.799 172.73 147.901 172.155C148.512 168.279 148.788 164.358 148.726 160.435Z" fill="#1D1D1B"/>
<path d="M130.852 154.251C130.944 153.582 131.174 152.938 131.526 152.362C131.878 151.785 132.346 151.287 132.9 150.9C132.952 150.87 132.997 150.831 133.033 150.783C133.069 150.736 133.096 150.682 133.111 150.625C133.126 150.567 133.13 150.507 133.122 150.448C133.115 150.389 133.095 150.332 133.065 150.281C133.036 150.229 132.996 150.184 132.949 150.148C132.901 150.111 132.848 150.085 132.79 150.07C132.732 150.054 132.672 150.05 132.613 150.058C132.554 150.066 132.498 150.085 132.446 150.115C131.188 150.976 130.319 152.298 130.028 153.795L130.011 153.806C129.965 153.312 129.99 152.815 130.085 152.328C130.255 151.329 130.637 150.378 131.206 149.54C131.536 149.052 130.745 148.596 130.421 149.08C129.699 150.155 129.256 151.392 129.13 152.68C129.03 153.612 129.03 155.221 130.267 155.352C131.654 160.031 129.926 165.737 132.702 177.023C132.738 177.135 132.816 177.229 132.919 177.285C133.023 177.341 133.144 177.354 133.257 177.323C133.371 177.291 133.468 177.217 133.527 177.116C133.587 177.014 133.605 176.894 133.578 176.779C130.669 164.96 132.814 159.475 130.852 154.251ZM89.436 147.753C89.9841 149.521 90.0002 151.411 89.4825 153.187C88.9647 154.964 87.9359 156.55 86.524 157.746C86.074 158.124 86.724 158.752 87.167 158.389C88.6902 157.076 89.799 155.348 90.3584 153.417C90.9178 151.485 90.9038 149.432 90.318 147.508C90.136 146.956 89.255 147.2 89.436 147.753ZM124.461 170.2C123.643 168.816 122.414 167.721 120.946 167.066C120.446 166.882 119.908 166.831 119.383 166.915C118.857 167 118.362 167.219 117.946 167.55C117.197 168.222 116.651 169.091 116.37 170.058C115.479 172.648 114.256 180.306 114.857 187.753C114.861 187.861 114.903 187.964 114.975 188.044C115.048 188.123 115.146 188.175 115.253 188.189C115.36 188.203 115.469 188.179 115.56 188.121C115.65 188.063 115.718 187.975 115.75 187.872C115.901 187.489 116.064 187.186 115.723 186.991C115.376 181.934 115.747 176.854 116.823 171.901C117.165 170.337 117.808 167.772 119.844 167.772C121.428 167.772 122.896 169.455 123.768 170.786C125.318 173.322 126.152 176.232 126.18 179.204C126.203 179.79 127.113 179.79 127.09 179.204C127.059 176.018 126.149 172.902 124.461 170.2ZM81.652 182.866C80.982 180.278 80.389 177.509 78.865 175.256C76.829 172.241 74.283 172.727 72.199 175.421C68.58 180.086 68.521 188.741 68.812 194.541C68.84 195.121 69.75 195.127 69.722 194.541C69.444 189.063 69.398 182.01 72.136 177.167C72.7189 175.972 73.6538 174.983 74.815 174.335C76.18 173.712 77.147 174.379 77.989 175.58C79.457 177.668 80.045 180.258 80.671 182.687C81.766 186.914 81.647 189.553 82.389 193.287C82.502 193.861 83.378 193.616 83.265 193.042C82.589 189.652 82.535 186.276 81.652 182.866ZM36.181 170.151C35.719 168.985 35.214 167.683 33.928 167.228C33.3275 167.06 32.6925 167.06 32.0919 167.227C31.4913 167.395 30.948 167.724 30.521 168.178C29.6175 169.231 28.9745 170.482 28.644 171.829C27.106 176.629 26.873 181.92 26.665 186.896C26.642 187.482 27.552 187.482 27.575 186.896C27.775 182.096 28.28 167.936 33.058 168.001C34.383 168.018 34.884 169.361 35.299 170.407C37.5758 176.199 38.8281 182.342 39 188.563C39 188.684 39.0479 188.799 39.1332 188.885C39.2186 188.97 39.3343 189.018 39.455 189.018C39.5757 189.018 39.6914 188.97 39.7767 188.885C39.862 188.799 39.91 188.684 39.91 188.563C39.7368 182.257 38.4752 176.028 36.181 170.151ZM158.722 46.9581C159.843 47.4231 160.778 48.245 161.384 49.2961C161.568 49.0782 161.692 48.8159 161.744 48.5351C161.795 48.2544 161.772 47.9652 161.677 47.6961C161.535 47.3594 161.274 47.0872 160.943 46.9317C160.612 46.7763 160.236 46.7486 159.886 46.8541C159.899 46.5821 159.83 46.3124 159.686 46.0811C159.425 45.7401 158.827 45.5891 158.031 46.2171C158.072 46.0646 158.077 45.9048 158.046 45.75C158.015 45.5953 157.95 45.4495 157.854 45.3241C157.367 44.8811 156.126 45.4241 155.597 45.9501C155.614 45.9066 155.622 45.8598 155.619 45.8131C155.617 45.7663 155.604 45.7206 155.583 45.6791C155.561 45.6376 155.531 45.6012 155.494 45.5724C155.457 45.5436 155.415 45.523 155.369 45.5121C154.662 45.3121 152.5 46.9361 152.483 49.0381C153.124 48.0256 154.095 47.2655 155.232 46.8865C156.369 46.5075 157.602 46.5328 158.722 46.9581ZM153.987 50.9741C153.987 51.0607 154.013 51.1454 154.061 51.2174C154.109 51.2895 154.177 51.3456 154.257 51.3788C154.337 51.4119 154.425 51.4206 154.51 51.4037C154.595 51.3868 154.673 51.3451 154.735 51.2838C154.796 51.2226 154.838 51.1445 154.855 51.0595C154.871 50.9746 154.863 50.8865 154.83 50.8065C154.796 50.7264 154.74 50.658 154.668 50.6099C154.596 50.5618 154.512 50.5361 154.425 50.5361C154.309 50.5361 154.197 50.5822 154.115 50.6644C154.033 50.7465 153.987 50.8579 153.987 50.9741ZM159.277 51.2361C159.277 51.1199 159.231 51.0085 159.149 50.9264C159.067 50.8442 158.955 50.7981 158.839 50.7981C158.752 50.7981 158.668 50.8238 158.596 50.8719C158.524 50.92 158.467 50.9885 158.434 51.0685C158.401 51.1485 158.392 51.2366 158.409 51.3215C158.426 51.4065 158.468 51.4846 158.529 51.5458C158.591 51.6071 158.669 51.6488 158.754 51.6657C158.839 51.6826 158.927 51.6739 159.007 51.6408C159.087 51.6076 159.155 51.5515 159.203 51.4794C159.251 51.4074 159.277 51.3227 159.277 51.2361ZM157.576 52.6121C157.474 52.5554 157.354 52.5397 157.241 52.5683C157.128 52.597 157.031 52.6677 156.968 52.7661C156.972 52.7608 156.976 52.7551 156.979 52.7491C156.929 52.8116 156.858 52.8539 156.779 52.8681L156.756 52.8741C156.618 52.8842 156.479 52.8802 156.341 52.8621C156.208 52.8467 156.078 52.8131 155.954 52.7621C155.937 52.7561 155.926 52.7451 155.908 52.7391C155.856 52.7093 155.8 52.6899 155.741 52.6821C155.681 52.6743 155.621 52.6782 155.564 52.6935C155.506 52.7089 155.452 52.7355 155.405 52.7717C155.358 52.8079 155.318 52.8531 155.288 52.9046C155.259 52.9561 155.239 53.0131 155.231 53.0721C155.224 53.1311 155.228 53.1911 155.243 53.2486C155.258 53.3062 155.285 53.3601 155.321 53.4074C155.357 53.4546 155.402 53.4943 155.454 53.5241C155.632 53.6158 155.821 53.6831 156.017 53.7241C157.619 54.0481 158.161 52.9201 157.576 52.6121ZM151.615 56.8721C152.141 57.2231 152.326 57.2901 154.163 58.3401C154.418 58.4811 154.529 58.3221 155.163 57.9071V58.9771C155.163 59.0675 155.199 59.1543 155.263 59.2182C155.327 59.2822 155.414 59.3181 155.504 59.3181C155.594 59.3181 155.681 59.2822 155.745 59.2182C155.809 59.1543 155.845 59.0675 155.845 58.9771V57.2771C155.845 57.2174 155.829 57.1588 155.799 57.1071C155.769 57.0553 155.726 57.0123 155.675 56.982C155.623 56.9518 155.565 56.9354 155.505 56.9346C155.445 56.9337 155.386 56.9484 155.334 56.9771C154.998 57.1991 154.668 57.4211 154.334 57.6431L152.156 56.3861C152.299 55.8638 152.632 55.4136 153.089 55.1231C153.44 54.8841 153.117 54.2871 152.742 54.5311C152.176 54.8987 151.745 55.4397 151.513 56.0731C151.423 56.3531 151.377 56.7331 151.615 56.8721ZM160.739 54.7341C160.374 54.4891 160.034 55.0871 160.397 55.3251C160.852 55.6209 161.183 56.0719 161.33 56.5941L159.152 57.8511C158.816 57.6291 158.486 57.4071 158.152 57.1851C158.1 57.1548 158.04 57.139 157.98 57.1391C157.92 57.1392 157.861 57.1554 157.809 57.1859C157.757 57.2164 157.713 57.2602 157.684 57.3127C157.654 57.3653 157.639 57.4248 157.64 57.4851V59.1851C157.64 59.2755 157.676 59.3623 157.74 59.4262C157.804 59.4902 157.891 59.5261 157.981 59.5261C158.071 59.5261 158.158 59.4902 158.222 59.4262C158.286 59.3623 158.322 59.2755 158.322 59.1851V58.1151C158.947 58.5261 159.061 58.6901 159.322 58.5481C159.896 58.2181 161.58 57.2561 161.841 57.0971C161.943 57.0186 162.016 56.9085 162.049 56.7841C162.082 56.6596 162.073 56.5278 162.023 56.4091C161.806 55.7167 161.351 55.1233 160.739 54.7341Z" fill="#1D1D1B"/>
<path d="M153.936 43.1228C154.328 37.6958 154.483 21.1728 154.483 15.7778C154.498 15.1058 155.706 15.1688 119.508 14.4778C119.388 14.4803 119.274 14.5291 119.189 14.6139C119.105 14.6987 119.056 14.8129 119.053 14.9328L118.03 44.1908C118.031 44.3111 118.08 44.4263 118.165 44.5114C118.25 44.5965 118.365 44.6447 118.485 44.6458C119.441 44.6878 144.751 45.7658 149.596 45.9718C144.203 52.3368 149.427 62.4818 157.696 61.7208C160.051 61.4302 162.224 60.3065 163.822 58.5528C165.42 56.7991 166.338 54.5313 166.409 52.1598C166.518 46.0408 160.071 41.3238 153.936 43.1228ZM145.492 44.8798L129.26 44.1748C129.067 39.9828 129.76 34.4188 132.875 31.6068C132.779 31.8022 132.729 32.0168 132.728 32.2346C132.727 32.4524 132.775 32.6675 132.869 32.8638C133.301 33.6638 134.223 33.3638 134.934 32.9428C135.312 34.5968 136.514 34.6578 137.124 33.8708C137.372 33.4859 137.5 33.0364 137.493 32.5788C137.496 32.5173 137.487 32.4559 137.465 32.3982C137.443 32.3406 137.41 32.2879 137.368 32.2434C137.325 32.1988 137.274 32.1634 137.218 32.1392C137.161 32.1149 137.1 32.1025 137.039 32.1025C136.977 32.1025 136.916 32.1149 136.86 32.1392C136.803 32.1634 136.752 32.1988 136.71 32.2434C136.667 32.2879 136.634 32.3406 136.613 32.3982C136.591 32.4559 136.581 32.5173 136.584 32.5788C136.589 32.8205 136.538 33.0601 136.435 33.2788C136.41 33.3263 136.374 33.3669 136.33 33.3967C136.285 33.4266 136.234 33.4449 136.18 33.4498C136.03 33.3222 135.922 33.151 135.873 32.9598C135.783 32.6989 135.749 32.4218 135.773 32.1468C135.773 32.0671 135.751 31.989 135.711 31.9202C135.671 31.8515 135.613 31.7944 135.544 31.7548C135.475 31.7151 135.397 31.6943 135.317 31.6943C135.238 31.6943 135.159 31.7151 135.09 31.7548C134.684 32.0927 134.205 32.3322 133.69 32.4548C133.507 32.4478 133.69 31.9658 133.838 31.7548C134.027 31.4668 134.406 30.9548 134.366 30.5938C134.514 30.5198 134.666 30.4518 134.827 30.3938C135.72 30.9348 136.742 31.2241 137.785 31.231C138.829 31.2379 139.855 30.962 140.754 30.4328C141.002 30.547 141.241 30.6783 141.47 30.8258C141.38 30.8221 141.29 30.8454 141.213 30.8927C141.136 30.9401 141.074 31.0093 141.037 31.0916C140.999 31.1738 140.986 31.2655 141.001 31.3549C141.015 31.4444 141.056 31.5275 141.117 31.5938C141.257 31.7854 141.343 32.0105 141.367 32.2462C141.391 32.4819 141.353 32.7198 141.255 32.9358C140.906 32.7766 140.604 32.5295 140.379 32.2188C140.314 32.1572 140.233 32.1157 140.145 32.0995C140.057 32.0832 139.966 32.0929 139.883 32.1274C139.801 32.1618 139.73 32.2195 139.68 32.2934C139.629 32.3673 139.601 32.4543 139.599 32.5438C139.619 32.7958 139.664 33.3438 139.411 33.3798C139.233 33.4018 138.868 32.6958 138.797 32.5268C138.764 32.4131 138.687 32.3171 138.583 32.2594C138.479 32.2017 138.357 32.1867 138.243 32.2178C138.129 32.2489 138.031 32.3236 137.971 32.4258C137.911 32.528 137.893 32.6497 137.921 32.7648C138.177 33.3848 138.655 34.3408 139.462 34.2778C139.65 34.2597 139.831 34.1945 139.987 34.0882C140.143 33.9819 140.27 33.838 140.355 33.6698C140.484 33.4128 140.309 33.4558 140.748 33.6868C142.174 34.4148 142.742 32.2358 141.908 31.1268C144.4 33.0578 145.208 36.5448 145.492 39.6698C145.605 41.4046 145.605 43.1449 145.492 44.8798ZM131.701 25.8048C131.71 25.6906 131.744 25.5797 131.801 25.4804C131.858 25.381 131.936 25.2956 132.031 25.2305C132.125 25.1654 132.232 25.1222 132.346 25.1041C132.459 25.086 132.574 25.0934 132.684 25.1258C132.772 25.1486 132.865 25.1365 132.943 25.0918C133.022 25.0472 133.08 24.9736 133.105 24.8868C133.312 23.7691 133.905 22.7599 134.781 22.036C135.658 21.3121 136.761 20.9198 137.897 20.928C139.034 20.9361 140.131 21.3441 140.997 22.0804C141.863 22.8167 142.442 23.8343 142.632 24.9548C142.647 25.0047 142.672 25.0507 142.707 25.0893C142.742 25.128 142.785 25.1583 142.833 25.178C142.881 25.1977 142.933 25.2063 142.985 25.2032C143.036 25.2 143.087 25.1852 143.132 25.1598C143.273 25.0991 143.428 25.0817 143.578 25.11C143.729 25.1382 143.867 25.2107 143.976 25.3182C144.085 25.4257 144.159 25.5633 144.189 25.7132C144.219 25.8632 144.203 26.0187 144.144 26.1598C144.094 26.254 144.026 26.3374 143.943 26.4053C143.861 26.4731 143.766 26.524 143.664 26.5551C143.562 26.5862 143.454 26.5969 143.348 26.5866C143.242 26.5762 143.138 26.545 143.044 26.4948C142.957 26.4705 142.863 26.4821 142.784 26.5269C142.705 26.5717 142.647 26.6461 142.622 26.7338C141.537 31.7338 134.194 31.8748 133.084 26.7968C133.06 26.7099 133.002 26.6362 132.923 26.5915C132.845 26.5468 132.752 26.5347 132.664 26.5578C132.55 26.5936 132.428 26.601 132.31 26.5794C132.191 26.5578 132.08 26.5079 131.985 26.4338C131.891 26.3598 131.815 26.2638 131.766 26.1543C131.716 26.0447 131.694 25.9248 131.701 25.8048ZM146.443 40.3378C146.034 34.0118 144.011 32.3628 144.243 32.3628C144.68 32.2718 145.412 30.5398 144.533 29.1628C144.682 29.2858 144.857 29.3726 145.045 29.4163C145.232 29.4601 145.428 29.4596 145.615 29.4149C145.803 29.3702 145.977 29.2825 146.125 29.1587C146.273 29.035 146.39 28.8785 146.467 28.7018C146.593 28.5378 146.678 28.3468 146.717 28.1439C146.756 27.9411 146.747 27.732 146.691 27.5332C146.634 27.3345 146.533 27.1516 146.393 26.9992C146.254 26.8467 146.081 26.7287 145.888 26.6548C146.166 26.2222 146.339 25.7303 146.393 25.2188C146.446 24.7073 146.379 24.1903 146.196 23.7095C146.014 23.2287 145.721 22.7975 145.341 22.4505C144.961 22.1036 144.506 21.8505 144.01 21.7118C144.072 21.0813 143.942 20.4467 143.637 19.8914C143.332 19.336 142.867 18.8858 142.301 18.5998C141.555 18.2085 140.74 17.965 139.901 17.8828C138.969 17.8873 138.038 17.8285 137.114 17.7068C136.314 17.4848 135.462 17.5431 134.7 17.8719C133.937 18.2008 133.31 18.7805 132.922 19.5148C132.672 19.9818 132.677 21.0628 132.154 21.2218C131.292 21.4114 130.507 21.8576 129.902 22.5018C129.613 22.832 129.459 23.2593 129.472 23.6981C129.485 24.1369 129.663 24.5547 129.97 24.8678C129.431 25.3039 129.035 25.8908 128.831 26.5534C128.628 27.2161 128.626 27.9243 128.827 28.5878C129.372 29.8844 130.281 30.9957 131.443 31.7878C128.794 34.9468 128.172 40.0208 128.343 44.1398L118.949 43.7328C120.001 13.6998 119.962 15.4458 119.964 15.3998C120.764 15.4108 153.573 16.1998 153.573 16.1998C153.555 19.9588 153.406 37.9838 153.002 43.4538C152.059 43.8481 151.192 44.4034 150.439 45.0948L146.406 44.9208C146.542 43.3966 146.555 41.8641 146.446 40.3378H146.443ZM165.503 52.1568C165.427 54.07 164.753 55.9112 163.577 57.4221C162.401 58.9329 160.781 60.0375 158.945 60.5808C152.264 62.3518 146.445 55.3478 148.86 48.9608C149.494 47.3331 150.623 45.9455 152.088 44.9934C153.552 44.0413 155.278 43.5727 157.023 43.6538C161.373 43.8478 165.601 47.3318 165.506 52.1568H165.503Z" fill="#1D1D1B"/>
<path d="M135.585 25.3602C135.672 25.3602 135.756 25.3345 135.828 25.2864C135.9 25.2383 135.957 25.1699 135.99 25.0899C136.023 25.0098 136.032 24.9218 136.015 24.8368C135.998 24.7518 135.956 24.6738 135.895 24.6125C135.833 24.5513 135.755 24.5096 135.67 24.4927C135.586 24.4758 135.497 24.4844 135.417 24.5176C135.337 24.5507 135.269 24.6069 135.221 24.6789C135.173 24.7509 135.147 24.8356 135.147 24.9222C135.147 25.0384 135.193 25.1498 135.275 25.232C135.357 25.3141 135.469 25.3602 135.585 25.3602ZM140.076 24.9592C140.076 25.0754 140.122 25.1868 140.204 25.269C140.286 25.3511 140.398 25.3972 140.514 25.3972C140.63 25.3972 140.742 25.3511 140.824 25.269C140.906 25.1868 140.952 25.0754 140.952 24.9592C140.939 24.8519 140.888 24.7529 140.807 24.6811C140.726 24.6093 140.622 24.5696 140.514 24.5696C140.406 24.5696 140.302 24.6093 140.221 24.6811C140.14 24.7529 140.089 24.8519 140.076 24.9592ZM78.795 13.4692C78.6756 13.4732 78.5622 13.5224 78.4777 13.6069C78.3933 13.6914 78.344 13.8048 78.34 13.9242C78.323 14.8922 77.316 43.1832 77.316 43.1832C77.3176 43.3034 77.366 43.4183 77.451 43.5033C77.536 43.5882 77.6508 43.6367 77.771 43.6382C83.36 43.8642 112.315 45.1182 112.416 45.1112C113.339 45.0482 113.416 44.1052 113.769 14.7832C113.784 14.0872 114.957 14.1632 78.795 13.4692ZM91.883 29.2762C92.1635 29.4623 92.4604 29.6223 92.77 29.7542C92.9229 30.1291 93.1383 30.4754 93.407 30.7782C92.907 31.5342 92.417 32.2962 91.922 33.0532C91.179 34.1872 90.914 34.2532 91.45 35.2142C92.3434 36.7842 93.2934 38.3176 94.3 39.8142C94.3467 39.8891 94.4139 39.949 94.4936 39.9867C94.5734 40.0244 94.6623 40.0384 94.7498 40.0271C94.8372 40.0157 94.9196 39.9794 94.987 39.9225C95.0544 39.8656 95.1041 39.7906 95.13 39.7062C95.8316 38.2143 96.6141 36.7619 97.474 35.3552C98.018 34.3372 97.836 34.3182 97.28 33.1882C96.911 32.4372 96.541 31.6882 96.171 30.9412C96.499 30.6751 96.7242 30.3032 96.808 29.8892C97.2446 29.7525 97.6629 29.5635 98.054 29.3262C101.293 30.9122 102.345 34.8992 102.672 38.5062C102.783 40.2549 102.78 42.0089 102.664 43.7572L86.444 43.0572C86.206 38.0462 87.25 31.2332 91.883 29.2762ZM94.121 31.3492C94.5191 31.5231 94.9683 31.5396 95.378 31.3952C95.708 32.0492 96.558 33.7812 96.655 33.9802C96.717 34.1112 96.894 34.3292 96.896 34.4722C96.896 34.6722 95.377 37.0552 94.621 38.6412C93.7819 37.3731 92.9851 36.0774 92.232 34.7562C92.014 34.3752 91.844 34.8242 94.121 31.3492ZM94.027 30.1012C94.5836 30.1933 95.1506 30.2031 95.71 30.1302C95.6039 30.2733 95.4647 30.3884 95.3043 30.4657C95.1438 30.5431 94.967 30.5803 94.789 30.5742C94.634 30.5602 94.4843 30.5101 94.352 30.428C94.2197 30.3458 94.1085 30.234 94.027 30.1012ZM90.381 25.6012C90.3481 25.486 90.2714 25.3882 90.1673 25.3288C90.0632 25.2694 89.94 25.253 89.824 25.2832C89.7276 25.3148 89.625 25.3226 89.5249 25.3059C89.4249 25.2891 89.3303 25.2484 89.2495 25.1872C89.1686 25.1259 89.1037 25.046 89.0604 24.9543C89.0172 24.8625 88.9968 24.7616 89.001 24.6602C89.0081 24.5623 89.0371 24.4673 89.0859 24.3821C89.1346 24.2969 89.2019 24.2237 89.2828 24.1681C89.3636 24.1124 89.4559 24.0756 89.5529 24.0604C89.6499 24.0452 89.749 24.052 89.843 24.0802C89.9592 24.1107 90.0826 24.0943 90.1868 24.0346C90.2909 23.975 90.3675 23.8768 90.4 23.7612C90.405 23.7486 90.4086 23.7356 90.411 23.7222C90.6175 22.6329 91.2009 21.6511 92.0589 20.9488C92.9169 20.2466 93.9946 19.8688 95.1033 19.8817C96.2119 19.8945 97.2807 20.2973 98.1221 21.0193C98.9635 21.7413 99.5239 22.7364 99.705 23.8302C99.7244 23.8967 99.7584 23.9579 99.8047 24.0093C99.851 24.0607 99.9082 24.101 99.9722 24.1273C100.036 24.1535 100.105 24.165 100.174 24.1608C100.243 24.1567 100.311 24.137 100.371 24.1032C100.49 24.0528 100.622 24.0392 100.749 24.064C100.876 24.0888 100.993 24.151 101.085 24.2426C101.176 24.3342 101.238 24.451 101.263 24.5782C101.288 24.7053 101.274 24.8369 101.224 24.9562C101.132 25.1192 100.98 25.2392 100.8 25.2904C100.62 25.3415 100.427 25.3195 100.263 25.2292C100.147 25.1977 100.023 25.2134 99.9184 25.273C99.8138 25.3326 99.7371 25.4312 99.705 25.5472C98.65 30.4012 91.447 30.6432 90.381 25.6072V25.6012ZM112.101 44.1672L103.581 43.8012C103.717 42.2648 103.733 40.7201 103.628 39.1812C103.37 35.2282 102.328 30.7312 98.873 28.7332C99.6322 28.0555 100.186 27.1787 100.473 26.2022C100.837 26.2411 101.202 26.1514 101.506 25.9489C101.811 25.7463 102.035 25.4436 102.139 25.0932C102.196 24.8496 102.194 24.5961 102.134 24.3533C102.074 24.1104 101.958 23.8853 101.794 23.6961C101.63 23.5069 101.424 23.3591 101.193 23.2648C100.961 23.1704 100.71 23.1322 100.461 23.1532C100.439 23.0732 100.422 22.9882 100.393 22.9092C100.976 20.7722 100.136 18.4342 97.379 17.0732C97.1026 16.9057 96.7781 16.8353 96.457 16.8732C96.144 16.9412 95.883 17.3052 96.031 17.5892C93.978 16.8602 91.608 16.2262 89.78 17.6122C89.6428 17.7008 89.5341 17.8273 89.467 17.9762C89.4328 18.1067 89.4389 18.2446 89.4846 18.3715C89.5303 18.4984 89.6135 18.6085 89.723 18.6872C89.9459 18.8389 90.1973 18.9434 90.462 18.9942C89.8024 18.9692 89.1516 19.1526 88.602 19.5182C87.8682 19.8068 87.1848 20.2098 86.577 20.7122C86.3844 20.8884 86.2449 21.1149 86.1742 21.3662C86.1035 21.6175 86.1045 21.8835 86.177 22.1342C86.496 22.9762 87.696 23.3512 88.623 23.5342C88.3829 23.7329 88.2103 24.0011 88.129 24.3019C88.0476 24.6028 88.0615 24.9214 88.1688 25.214C88.276 25.5066 88.4714 25.7587 88.7279 25.9357C88.9844 26.1127 89.2894 26.2058 89.601 26.2022C89.8667 27.1365 90.3774 27.9827 91.08 28.6532C86.38 31.0182 85.285 37.7742 85.523 43.0212C81.34 42.8412 78.337 42.7112 78.243 42.7082C78.271 41.8952 79.243 15.4182 79.25 14.3712C80.05 14.3822 112.865 15.1712 112.865 15.1712C112.65 32.2152 112.533 42.0182 112.101 44.1672Z" fill="#1D1D1B"/>
<path d="M92.1723 24.428C92.2638 24.4291 92.3532 24.4011 92.4277 24.3481C92.5023 24.2951 92.5581 24.2198 92.5871 24.1331C92.6161 24.0464 92.6168 23.9527 92.5892 23.8655C92.5616 23.7783 92.507 23.7022 92.4333 23.648C92.3509 23.5804 92.2459 23.5465 92.1395 23.553C92.033 23.5594 91.933 23.6059 91.8593 23.683C91.7993 23.7448 91.7587 23.8228 91.7427 23.9075C91.7267 23.9921 91.736 24.0796 91.7694 24.159C91.8027 24.2385 91.8587 24.3063 91.9304 24.3541C92.002 24.402 92.0862 24.4277 92.1723 24.428ZM97.3083 24.146C97.3083 24.2622 97.3545 24.3736 97.4366 24.4557C97.5188 24.5379 97.6302 24.584 97.7463 24.584C97.8625 24.584 97.9739 24.5379 98.056 24.4557C98.1382 24.3736 98.1843 24.2622 98.1843 24.146C98.17 24.04 98.1177 23.9428 98.0371 23.8725C97.9566 23.8021 97.8533 23.7633 97.7463 23.7633C97.6394 23.7633 97.5361 23.8021 97.4555 23.8725C97.375 23.9428 97.3227 24.04 97.3083 24.146ZM137.447 34.899C137.319 36.9347 137.285 38.9752 137.347 41.014C137.347 41.1347 137.395 41.2504 137.481 41.3357C137.566 41.4211 137.682 41.469 137.802 41.469C137.923 41.469 138.039 41.4211 138.124 41.3357C138.209 41.2504 138.257 41.1347 138.257 41.014C138.196 38.9752 138.229 36.9347 138.357 34.899C138.4 34.313 137.485 34.313 137.447 34.899ZM139.353 36.839C139.804 37.185 140.408 36.504 139.983 36.122C139.5 35.691 138.712 36.348 139.353 36.839ZM139.011 38.124C138.802 38.567 139.444 38.978 139.83 38.619C140.348 38.138 139.349 37.407 139.011 38.124ZM139.892 23.114C140.087 23.0957 140.281 23.1467 140.441 23.258C140.602 23.3692 140.718 23.5336 140.768 23.722C140.776 23.7508 140.79 23.7778 140.808 23.8015C140.826 23.8251 140.849 23.8449 140.875 23.8598C140.901 23.8746 140.929 23.8842 140.959 23.8881C140.988 23.8919 141.018 23.8898 141.047 23.882C141.076 23.8742 141.103 23.8608 141.127 23.8425C141.15 23.8243 141.17 23.8015 141.185 23.7756C141.2 23.7497 141.21 23.7211 141.213 23.6915C141.217 23.6619 141.215 23.6318 141.207 23.603C141.105 23.3365 140.928 23.1055 140.698 22.9378C140.467 22.7702 140.192 22.6734 139.907 22.659C139.849 22.6604 139.794 22.6841 139.752 22.725C139.711 22.766 139.687 22.8212 139.685 22.8794C139.683 22.9376 139.704 22.9943 139.742 23.0379C139.781 23.0815 139.834 23.1087 139.892 23.114ZM134.532 23.762C134.585 23.7911 134.646 23.7991 134.704 23.7844C134.763 23.7697 134.813 23.7335 134.845 23.683C134.976 23.5139 135.146 23.3797 135.341 23.2925C135.536 23.2052 135.749 23.1676 135.962 23.183C136.102 23.173 136.122 22.797 135.905 22.768C134.906 22.638 134.131 23.546 134.532 23.762ZM135.926 26.575C135.891 26.5505 135.858 26.5238 135.826 26.495C135.394 26.103 134.745 26.746 135.183 27.138C135.747 27.6741 136.457 28.031 137.223 28.1636C137.99 28.2962 138.778 28.1985 139.489 27.883C139.27 28.1542 138.972 28.3509 138.636 28.446C138.036 28.624 138.401 29.562 138.903 29.311C139.452 29.1302 139.93 28.7823 140.271 28.316C140.611 27.8497 140.798 27.2885 140.803 26.711C140.801 26.622 140.772 26.5357 140.722 26.4624C140.671 26.3891 140.601 26.3319 140.518 26.2977C140.436 26.2635 140.346 26.2537 140.258 26.2696C140.171 26.2854 140.089 26.3262 140.024 26.387C139.773 26.6691 139.468 26.8988 139.128 27.0627C138.787 27.2267 138.417 27.3217 138.04 27.3423C137.663 27.363 137.285 27.3088 136.928 27.1829C136.572 27.0571 136.244 26.862 135.963 26.609C135.954 26.5947 135.941 26.583 135.926 26.575ZM91.9563 22.536C92.035 22.5799 92.1277 22.5915 92.2147 22.5681C92.3017 22.5448 92.3762 22.4884 92.4223 22.411C92.6293 21.997 93.0223 22.259 93.2473 22.133C93.3046 22.0984 93.3505 22.048 93.3796 21.9878C93.4087 21.9276 93.4197 21.8603 93.4112 21.7939C93.4027 21.7276 93.3752 21.6652 93.3319 21.6143C93.2886 21.5633 93.2314 21.5261 93.1673 21.507C92.2103 21.299 91.4343 22.262 91.9563 22.536ZM97.0523 22.056C97.1982 22.0432 97.345 22.0672 97.4792 22.1259C97.6134 22.1846 97.7307 22.2761 97.8203 22.392C98.0683 22.692 98.6253 22.301 98.2973 21.914C98.1451 21.7336 97.9525 21.5917 97.7351 21.4998C97.5178 21.4079 97.2818 21.3685 97.0463 21.385C97.0007 21.383 96.9552 21.3902 96.9125 21.4064C96.8698 21.4225 96.8308 21.4472 96.798 21.4788C96.7651 21.5105 96.7391 21.5486 96.7214 21.5907C96.7038 21.6328 96.6949 21.678 96.6953 21.7237C96.6957 21.7693 96.7054 21.8144 96.7238 21.8562C96.7422 21.8979 96.7689 21.9355 96.8023 21.9666C96.8358 21.9977 96.8752 22.0217 96.9181 22.037C96.9611 22.0524 97.0068 22.0589 97.0523 22.056ZM92.9853 25.756C92.9882 25.8599 93.0256 25.9598 93.0915 26.0402C93.1573 26.1206 93.248 26.1768 93.3493 26.2C93.3819 26.4295 93.4601 26.6502 93.5793 26.849C93.6986 27.0478 93.8565 27.2206 94.0436 27.3574C94.2308 27.4941 94.4435 27.592 94.6691 27.6452C94.8948 27.6983 95.1288 27.7058 95.3573 27.667C96.4993 27.467 96.4003 25.624 95.7723 25.367C95.5843 25.283 95.6113 25.31 93.4403 25.29C93.3191 25.2941 93.2041 25.3449 93.1193 25.4317C93.0345 25.5185 92.9866 25.6347 92.9853 25.756ZM168.394 97.136C163.603 94.683 158.6 99.136 156.103 102.948C155.153 104.399 154.103 106.218 154.192 108.011C154.325 110.711 157.335 113.092 162.292 111.844C166.902 110.696 170.729 106.571 171.023 101.925C171.152 100.951 170.967 99.9609 170.494 99.0995C170.021 98.238 169.285 97.5501 168.394 97.136ZM160.278 99.667C161.63 98.567 164.278 96.761 165.921 97.352C165.886 97.807 165.255 98.211 164.982 98.569C164.815 98.8978 164.623 99.2134 164.407 99.513C163.919 99.991 162.795 100.018 162.524 100.969C161.461 100.844 160.398 100.605 159.317 100.52C159.476 100.526 160.13 99.787 160.278 99.667ZM158.35 111.139C157.6 111.042 156.895 110.725 156.324 110.228C155.753 109.731 155.342 109.076 155.142 108.346C154.742 106.174 157.057 102.934 158.498 101.346C159.834 101.416 161.161 101.593 162.468 101.875C162.546 102.187 162.705 102.473 162.929 102.704C163.153 102.935 163.434 103.102 163.744 103.189C164.053 103.277 164.38 103.28 164.692 103.2C165.003 103.12 165.288 102.96 165.517 102.734C168.69 103.859 169.11 104.534 169.543 104.457C167.743 109.063 162.525 111.976 158.35 111.139ZM170.129 101.539C170.121 102.281 170.008 103.018 169.794 103.729C169.766 103.697 169.732 103.669 169.694 103.649C168.492 102.98 167.236 102.411 165.94 101.949C166.017 101.693 166.034 101.423 165.989 101.16C165.945 100.897 165.841 100.647 165.684 100.431C165.365 100.004 165.115 100.112 165.372 99.6C165.839 98.8267 166.437 98.1413 167.14 97.575C169.389 98.416 170.143 99.728 170.129 101.538V101.539Z" fill="#1D1D1B"/>
<path d="M183.258 80.1131C184.406 79.7301 185.979 80.1051 188.673 78.5541C189.543 78.0481 190.879 77.2541 190.703 76.0691C190.51 74.7891 189.065 74.4761 188.003 74.7321C186.216 75.2444 184.579 76.181 183.231 77.4621C183.22 77.2408 183.203 77.0191 183.18 76.7971C183.956 74.8211 186.568 73.5641 187.804 70.5401C188.288 69.3521 188.845 67.1401 187.134 66.6211C185.334 66.0751 184.313 68.0891 183.658 69.3801C183.163 70.3555 182.72 71.357 182.333 72.3801C182.19 71.9141 182.033 71.4531 181.861 70.9981C180.823 68.2871 178.682 66.5771 177.714 67.2381C176.905 67.7971 177.356 69.8661 177.788 70.8791C178.7 72.6967 179.975 74.3074 181.536 75.6111C181.613 75.6816 181.711 75.7247 181.815 75.734C181.919 75.7432 182.023 75.7179 182.111 75.6621C182.299 76.9811 182.251 76.6361 182.145 77.1011C180.602 76.097 178.94 75.2907 177.196 74.7011C176.91 74.5464 176.592 74.4583 176.267 74.4434C175.942 74.4285 175.618 74.4872 175.319 74.6151C175.094 74.7694 174.914 74.9797 174.795 75.2253C174.677 75.4708 174.624 75.7431 174.643 76.0151C174.798 78.3891 179.51 80.7821 182.367 79.3591C182.367 79.4331 182.367 79.5071 182.361 79.5811C182.071 79.7838 181.849 80.0693 181.724 80.4001C181.582 80.7581 181.912 80.9801 182.213 80.9401C182.254 81.1095 182.268 81.2844 182.253 81.4581C182.553 81.4471 182.853 81.4291 183.153 81.4181C183.207 80.9721 183.241 80.5451 183.258 80.1131Z" fill="#86F2AA"/>
<path d="M193.716 83.4179C193.673 82.7093 193.582 82.0045 193.444 81.3079C193.418 81.2118 193.36 81.127 193.281 81.0664C193.202 81.0058 193.105 80.9726 193.005 80.9719C190.582 81.0809 172.513 81.8649 171.637 81.9049C171.398 81.9049 171.237 81.9949 171.198 82.2349C170.15 88.2179 170.823 94.5459 176.159 97.5469C179.787 99.3341 183.961 99.6637 187.824 98.4679C193.321 96.2819 194.268 89.3309 193.716 83.4179Z" fill="#FF9F48"/>
<path d="M53.3479 42.4424C54.437 42.0542 55.6063 41.9465 56.7479 42.1294C55.7564 38.4382 54.4257 34.8466 52.7729 31.4004C50.5079 26.8004 48.1439 23.5824 43.8029 22.1524C43.4193 21.9805 43.0039 21.8912 42.5836 21.8901C42.1632 21.8891 41.7473 21.9764 41.3629 22.1464C43.9562 23.4085 46.2459 25.2165 48.0749 27.4464C51.366 31.7661 53.2111 37.0136 53.3479 42.4424Z" fill="#AC47F5"/>
<path d="M48.5456 49.2005C48.1659 50.7547 48.3276 52.3919 49.0039 53.8418C49.6803 55.2918 50.8308 56.4677 52.2656 57.1755C53.5966 57.785 55.0833 57.969 56.5227 57.7023C57.9621 57.4357 59.2842 56.7314 60.3086 55.6855C62.6626 53.1365 62.6746 48.9225 60.8826 46.0855C57.0996 40.2655 49.9886 43.2535 48.5456 49.2005Z" fill="#AC47F5"/>
</svg>
