<svg width="200" height="200" viewBox="0 0 200 200" fill="none" xmlns="http://www.w3.org/2000/svg">
<path d="M70.7708 150.1C72.4378 149.51 74.1456 149.042 75.8808 148.7L76.0908 149.47C76.1143 149.561 76.1696 149.64 76.2468 149.693C76.3239 149.746 76.4176 149.77 76.5108 149.76L83.3808 148.96C85.2708 144.65 88.7408 138.12 88.7908 138.02C88.7408 136.39 88.7908 135.02 88.7908 133.46C84.8608 134.92 77.5908 137.69 73.7908 139.46C73.7049 139.515 73.6384 139.596 73.6008 139.691C73.5631 139.786 73.5561 139.891 73.5808 139.99C73.5808 139.99 73.6508 140.24 73.7408 140.6C71.8808 140.6 66.3108 140.33 64.9708 141.6C64.7624 141.89 64.6601 142.243 64.6808 142.6C64.6008 143.98 65.2908 154.7 66.3908 157.85C66.9608 159.5 68.1608 159.32 68.9808 157.74C69.9299 155.361 70.5392 152.859 70.7908 150.31C70.7908 150.18 70.7608 150.19 70.7708 150.1ZM69.6208 141.15C70.8408 141.05 71.2208 141.07 73.8408 140.99C74.3108 142.77 75.2808 146.43 75.7808 148.3C74.0165 148.573 72.275 148.978 70.5708 149.51C70.0398 146.752 69.7221 143.957 69.6208 141.15Z" fill="black"/>
<path d="M162.811 53.6315C163.061 53.2816 162.741 52.8316 162.471 52.4816C163.236 51.6949 164.084 50.994 165.001 50.3916C166.548 49.6205 167.963 48.6078 169.191 47.3916C169.701 46.8615 170.661 45.7716 170.301 45.1316C169.941 44.4916 169.301 44.4515 168.431 44.8216C168.808 44.4258 169.116 43.9694 169.341 43.4716C169.621 42.6916 168.961 42.0616 167.531 42.6416C168.051 41.8116 168.171 40.9416 167.291 40.5216C166.581 40.1816 165.541 40.9916 164.941 41.5216C163.763 42.551 162.657 43.6603 161.631 44.8416C161.001 43.5216 160.001 42.0016 158.751 42.4816C157.501 42.9615 158.471 45.1115 159.111 46.2815L156.841 47.8515C156.498 47.6663 156.111 47.5798 155.721 47.6015C153.141 48.0415 141.291 57.0616 140.091 57.0616C139.171 57.0616 126.031 50.7615 114.671 48.9415C114.649 48.8734 114.609 48.8129 114.554 48.7669C114.499 48.7209 114.432 48.6913 114.361 48.6816C112.38 48.3434 110.371 48.1928 108.361 48.2316C108.3 48.2356 108.241 48.253 108.188 48.2823C108.134 48.3117 108.088 48.3524 108.051 48.4016H107.211C107.011 47.5916 106.271 45.7215 106.011 45.0016C106.691 44.4116 107.631 44.1116 108.121 43.1616C109.021 41.4016 108.981 38.3416 108.731 36.3816C109.861 35.5216 109.891 34.1415 109.631 32.7315C109.531 32.1615 109.221 30.8715 108.741 30.5515C108.471 30.3715 107.901 30.5515 107.411 30.7315C106.921 29.5915 106.921 30.1115 107.121 29.6515C107.214 29.4395 107.268 29.2126 107.281 28.9815C107.811 29.1415 108.911 28.0816 108.531 26.6816C108.332 26.1804 108.088 25.6984 107.801 25.2415C107.941 24.9015 108.241 24.4915 107.301 23.2415C106.896 22.8049 106.371 22.4985 105.791 22.3616H105.331C105 21.8798 104.512 21.5268 103.951 21.3616C103.104 21.1456 102.206 21.2713 101.451 21.7115C101.251 21.8615 101.091 22.0616 100.891 22.2016C100.439 21.927 99.9203 21.7818 99.3913 21.7818C98.8623 21.7818 98.3435 21.927 97.8913 22.2016C97.6266 22.3054 97.3856 22.4617 97.1829 22.6611C96.9801 22.8604 96.8197 23.0987 96.7113 23.3616C96.2213 23.1925 95.7015 23.1274 95.185 23.1705C94.6684 23.2135 94.1665 23.3637 93.7113 23.6116C91.9838 24.5483 90.6916 26.124 90.1113 28.0015C90.0951 28.2847 90.0951 28.5684 90.1113 28.8516H90.0013C88.5013 28.6316 86.5913 32.1915 88.1213 34.9615C88.3013 35.2915 88.5313 35.6015 88.7513 35.9615C89.3913 36.9615 89.1413 37.2616 90.5713 38.4816C90.9913 38.8416 91.0613 38.8116 91.3213 39.0315C91.5813 39.2515 91.4813 39.1416 91.6313 39.7016C91.7131 40.0314 91.8595 40.3418 92.062 40.6148C92.2646 40.8877 92.5192 41.1177 92.8113 41.2916C92.9176 42.2697 93.3347 43.188 94.0013 43.9116C94.2124 44.1478 94.4587 44.3502 94.7313 44.5115C94.8049 44.553 94.887 44.577 94.9713 44.5816C95.2713 46.4416 95.6413 48.8615 95.8013 49.8916L94.9113 50.3715C93.7468 50.8401 92.6144 51.3846 91.5213 52.0016C91.4356 52.0609 91.375 52.15 91.3513 52.2516C90.2913 52.8116 89.2913 53.3415 88.7213 53.6815C80.7813 58.3915 58.2313 89.4416 58.0013 90.8615C57.9759 90.9429 57.9759 91.0302 58.0013 91.1115C58.3245 91.6272 58.7183 92.0951 59.1713 92.5015C59.0317 92.7562 58.864 92.9943 58.6713 93.2115C56.6713 94.5215 53.6713 96.4715 52.0613 98.2115C51.9484 98.3122 51.8637 98.4406 51.8155 98.584C51.7674 98.7274 51.7574 98.8809 51.7867 99.0293C51.816 99.1777 51.8835 99.316 51.9825 99.4303C52.0815 99.5447 52.2086 99.6313 52.3513 99.6815C52.6513 99.7815 52.7013 99.7515 54.6513 98.6815C54.1154 99.1516 53.6771 99.7224 53.3613 100.362C53.2313 100.912 53.7313 101.232 54.3613 101.132C54.7158 101.039 55.0533 100.89 55.3613 100.692C55.1809 100.97 55.085 101.295 55.085 101.627C55.085 101.958 55.1809 102.283 55.3613 102.562C56.3613 103.822 58.9813 99.8516 60.3613 98.8716C60.9213 99.5816 61.6813 101.242 62.8913 100.802C63.9413 100.412 62.7913 98.1015 62.8913 97.4315C63.2982 97.0409 63.7327 96.6799 64.1913 96.3515C64.9627 96.9236 65.8447 97.3289 66.7813 97.5415C68.4313 97.5415 85.6513 80.1615 86.9613 78.7715C86.4913 83.1915 84.1213 102.162 84.6213 105.852C84.8513 107.522 88.8613 107.762 90.5513 107.852C90.0413 119.852 89.7013 138.032 89.6113 138.222C86.9613 143.932 86.2413 145.492 85.3513 147.222C83.7313 150.322 76.9113 161.762 76.1413 164.362C76.0313 164.772 76.0213 164.932 76.4513 165.692C75.1627 167.046 73.9666 168.486 72.8713 170.002C72.3213 171.002 74.6813 180.322 76.3513 183.622C76.7313 184.362 77.3513 185.502 78.1813 185.472C80.6813 185.382 80.6713 176.402 80.6013 173.892C80.6009 173.814 80.5725 173.74 80.5213 173.682C80.9745 173.005 81.4687 172.357 82.0013 171.742C82.3192 171.96 82.6535 172.154 83.0013 172.322C83.3413 172.472 83.7213 172.212 84.0013 171.982C87.3313 169.362 105.291 146.982 109.141 136.422C110.891 131.602 113.221 124.942 113.881 120.222C114.285 117.237 114.322 114.215 113.991 111.222C113.991 111.179 114.008 111.138 114.038 111.108C114.068 111.078 114.109 111.062 114.151 111.062C114.194 111.062 114.234 111.078 114.264 111.108C114.294 111.138 114.311 111.179 114.311 111.222C114.812 114.232 114.91 117.295 114.601 120.332C113.861 126.882 108.691 140.532 105.931 145.552C108.311 145.112 113.151 144.152 115.491 143.452C123.291 141.082 130.491 134.012 131.121 126.072C131.325 122.331 131.325 118.582 131.121 114.842C131.054 109.678 130.383 104.539 129.121 99.5315C131.241 98.3815 133.181 97.0315 133.811 95.7915C135.161 93.1415 131.591 77.8915 130.811 73.6115C135.081 74.0816 142.351 74.9315 145.741 72.2815C149.621 69.1615 158.001 60.3815 162.811 53.6315ZM80.0613 173.342C78.2613 172.252 75.7413 169.662 75.3613 167.632C75.7713 167.112 76.2013 166.632 76.6013 166.092C77.9565 168.16 79.6462 169.988 81.6013 171.502C81.0521 172.084 80.5378 172.698 80.0613 173.342ZM159.561 46.5616C159.613 46.5285 159.65 46.477 159.665 46.4175C159.68 46.358 159.671 46.295 159.641 46.2416C159.291 45.5916 158.241 43.3016 158.971 43.0416C159.391 42.8816 159.761 43.1416 160.071 43.4916C160.545 44.0921 160.913 44.7683 161.161 45.4916C161.18 45.5504 161.214 45.603 161.26 45.6439C161.306 45.6848 161.363 45.7124 161.423 45.7237C161.484 45.735 161.546 45.7296 161.604 45.7081C161.662 45.6865 161.713 45.6497 161.751 45.6015C162.751 44.4915 165.091 41.9615 166.411 41.2815C167.411 40.7615 167.651 41.7215 165.201 43.9615C164.639 44.3906 164.098 44.8479 163.581 45.3316C163.553 45.3708 163.538 45.4181 163.538 45.4666C163.538 45.515 163.553 45.5623 163.581 45.6015C163.581 45.8615 163.791 46.1516 164.151 45.8816C165.021 45.1185 165.939 44.4136 166.901 43.7716C167.392 43.4227 167.963 43.2026 168.561 43.1316C168.261 44.0516 165.471 46.5516 165.231 46.8316C165.155 46.8998 165.109 46.9952 165.102 47.0972C165.096 47.1992 165.13 47.2996 165.197 47.377C165.263 47.4543 165.358 47.5023 165.46 47.5106C165.562 47.519 165.663 47.487 165.741 47.4215C166.851 46.7015 168.791 45.0216 169.461 45.2716C170.131 45.5216 168.141 47.3815 167.641 47.8216C164.771 50.3116 165.511 48.7116 162.191 52.0916C160.746 50.5085 159.087 49.1352 157.261 48.0115L159.561 46.5616ZM116.111 94.3915C115.941 93.0116 115.731 91.5216 115.471 89.9715L115.901 89.4016C117.901 86.8316 118.501 82.7415 118.311 79.5315C119.381 84.2215 120.231 88.8316 120.881 93.4116L116.111 94.3915ZM101.241 60.1516C98.6113 58.1516 94.3813 54.7015 91.9213 52.3416L95.9213 50.3416C99.5943 53.7724 102.738 57.7287 105.251 62.0816C109.093 69.1398 111.944 76.6944 113.721 84.5315L99.4613 64.3615L101.321 60.5015C101.346 60.4421 101.351 60.3765 101.337 60.3138C101.323 60.2511 101.289 60.1944 101.241 60.1516ZM108.001 48.8116C108.061 48.9216 108.751 50.3916 109.801 52.9615C109.801 53.0716 109.611 55.5715 109.521 56.4515C108.245 55.9456 107.041 55.2731 105.941 54.4515C106.161 53.5816 107.151 49.6316 107.221 48.7416L108.001 48.8116ZM104.451 59.5515C104.521 59.3715 104.591 59.1315 104.671 58.8515L105.341 59.2015C105.721 59.4515 105.571 58.6915 105.911 60.8915C105.911 61.2615 106.011 61.6715 106.031 62.1215C105.571 61.2915 105.001 60.4015 104.461 59.5515H104.451ZM103.891 58.7115C102.002 56.0319 99.8515 53.5464 97.4713 51.2916L105.001 54.5616C104.711 55.2515 104.291 57.3615 103.901 58.7115H103.891ZM111.581 64.5715C110.581 61.8415 109.811 58.7915 109.431 57.9916C109.454 57.7421 109.454 57.491 109.431 57.2416C109.576 57.2954 109.727 57.3291 109.881 57.3415C109.978 57.3426 110.071 57.3088 110.145 57.2463C110.218 57.1839 110.267 57.0969 110.281 57.0015C110.361 56.6715 110.491 55.0015 110.511 54.6315C113.42 61.9761 115.849 69.5019 117.781 77.1616C112.131 65.1416 113.001 68.6215 111.591 64.5715H111.581ZM119.851 83.6616C117.571 72.7316 113.561 59.1016 109.001 49.0016C110.676 49.0025 112.348 49.1362 114.001 49.4016C114.851 57.0016 114.141 56.7416 114.711 57.0415C115.281 57.3415 118.711 58.7215 119.221 58.9315C119.171 59.7015 119.891 81.7216 119.861 83.6616H119.851ZM108.341 31.1916C108.863 32.3292 109.047 33.5925 108.871 34.8316C108.79 35.1469 108.623 35.4335 108.388 35.6594C108.153 35.8853 107.861 36.0417 107.542 36.1111C107.224 36.1806 106.893 36.1604 106.586 36.0527C106.278 35.9451 106.007 35.7543 105.801 35.5015C105.324 34.4964 104.965 33.4394 104.731 32.3515C105.001 32.0015 107.881 31.3015 108.341 31.1916ZM94.5813 41.1915C94.216 41.0252 93.8421 40.8784 93.4613 40.7516C93.2057 40.6465 92.9775 40.4843 92.7943 40.2774C92.6111 40.0705 92.4777 39.8244 92.4043 39.558C92.331 39.2915 92.3196 39.0118 92.3711 38.7403C92.4225 38.4688 92.5355 38.2127 92.7013 37.9916C93.3313 37.4616 93.9013 37.4915 94.4213 38.2815C94.7513 38.8916 94.7413 38.9416 94.8913 39.0016C94.9343 39.0205 94.9809 39.0301 95.0279 39.0296C95.075 39.029 95.1213 39.0185 95.1639 38.9986C95.2065 38.9787 95.2444 38.95 95.275 38.9143C95.3056 38.8785 95.3282 38.8367 95.3413 38.7916C95.4895 38.1656 95.5133 37.5167 95.4113 36.8816C95.2913 36.1916 95.2713 33.1315 95.2913 33.0315C95.5834 33.1855 95.9115 33.2581 96.2413 33.2416C98.0513 33.1716 98.4113 32.2415 99.1313 31.4815C99.9613 31.5615 100.131 31.9615 101.071 31.4815C101.511 31.2312 101.915 30.9216 102.271 30.5615C102.559 30.6792 102.836 30.8197 103.101 30.9815C103.701 31.2698 104.377 31.3583 105.03 31.2341C105.683 31.1099 106.28 30.7796 106.731 30.2916C106.841 30.5016 106.941 30.7115 107.031 30.9316C106.112 31.2167 105.247 31.6526 104.471 32.2216C104.301 32.4316 104.551 33.5715 104.611 33.8415C103.774 33.9469 102.963 34.2081 102.221 34.6116C102.071 34.0916 101.741 33.1215 101.221 32.8515C101.065 32.8037 100.898 32.8037 100.741 32.8515C99.8413 32.9915 96.6113 33.9616 96.2213 34.4916C95.8813 34.8616 96.8513 37.7215 97.1513 38.1915C98.3013 39.9715 101.671 39.4515 102.301 37.3715C102.457 36.6735 102.457 35.9496 102.301 35.2515C102.591 35.2515 103.461 34.9415 103.561 34.9115C104.251 36.4615 104.451 36.5516 105.251 38.2216C105.141 38.3116 104.961 38.4616 104.811 38.5616C104.101 39.0316 103.951 38.9516 103.991 39.1516C104.003 39.1912 104.029 39.2253 104.064 39.2474C104.099 39.2695 104.14 39.2781 104.181 39.2716C104.601 39.2116 105.011 39.0973 105.401 38.9316C105.635 38.8444 105.827 38.6733 105.941 38.4516C106.221 37.8216 104.671 35.4516 104.061 34.7416C104.181 34.7416 104.461 34.5415 104.671 34.4316C104.951 35.5515 105.141 36.4315 106.221 36.8715C106.533 36.9894 106.866 37.043 107.199 37.0293C107.533 37.0156 107.86 36.9347 108.161 36.7916C108.321 38.5515 108.291 41.4116 107.451 42.9716C107.021 43.7816 105.961 44.0915 105.281 44.7615C105.081 44.9515 105.211 45.2215 105.281 45.5115C106.391 48.6015 106.411 48.5916 106.351 48.9916C106.057 50.6518 105.646 52.2892 105.121 53.8915C104.871 53.7815 102.061 52.2916 96.5613 50.1516C96.3913 49.0216 95.4813 42.9916 95.1913 41.8816C95.2113 41.4916 95.1613 41.4016 94.5813 41.1416V41.1915ZM101.581 37.1116C101.261 38.2015 99.7513 38.6715 98.6713 38.3715C97.5913 38.0716 97.5213 37.5216 97.0113 36.2216C96.7723 35.7249 96.6072 35.196 96.5213 34.6516C96.8513 34.2916 100.461 33.5515 100.911 33.4815C101.542 34.5613 101.779 35.8266 101.581 37.0616V37.1116ZM62.4513 97.1516C62.0713 97.5216 62.5813 98.7315 62.6613 99.7815C62.6613 99.8715 62.6613 100.262 62.6013 100.292C62.0513 100.472 61.5413 99.6415 61.2313 99.1415C60.9213 98.6415 60.6113 97.9615 60.1213 98.1415C59.1213 98.6115 56.8013 101.692 55.8913 102.012C55.4313 101.132 58.0613 98.6216 58.1513 98.4816C58.1899 98.4173 58.2101 98.3436 58.2098 98.2687C58.2094 98.1937 58.1885 98.1202 58.1493 98.0563C58.1101 97.9924 58.0542 97.9404 57.9875 97.9061C57.9209 97.8717 57.8461 97.8563 57.7713 97.8615C57.5913 97.8615 57.4713 98.0215 57.1913 98.2715C56.3396 99.1028 55.3648 99.7976 54.3013 100.332C55.2656 99.2253 56.2976 98.18 57.3913 97.2015C57.4453 97.146 57.4833 97.0769 57.5013 97.0015C57.5013 97.0015 57.2913 96.4715 56.8813 96.6815C56.3013 97.0015 53.4813 98.6316 52.5913 99.0516C52.4713 98.9715 52.5413 98.8516 52.5913 98.7316C54.0013 97.0015 57.1013 94.9016 59.0013 93.5715C59.2243 93.3419 59.4099 93.0787 59.5513 92.7915C60.8672 94.0159 62.2709 95.1422 63.7513 96.1616C63.2952 96.4606 62.8608 96.7914 62.4513 97.1516ZM85.7213 106.242C85.5013 106.102 85.3413 105.972 85.3113 105.792C84.7613 101.712 87.8213 78.5915 87.7713 77.6815C87.7713 77.6282 87.7607 77.5753 87.7399 77.5261C87.7192 77.4769 87.6888 77.4324 87.6506 77.3951C87.6124 77.3578 87.5671 77.3286 87.5174 77.3091C87.4678 77.2896 87.4147 77.2802 87.3613 77.2815C86.8513 77.2815 87.7513 77.2816 75.0113 89.4816C74.1713 90.2716 67.7513 96.4115 66.6813 96.8215C65.2113 96.7115 59.6813 92.3016 58.7813 90.9116C60.5213 87.3916 81.6213 58.4315 88.9213 54.0015C89.4813 53.6615 90.4413 53.1315 91.4913 52.5716C91.8544 52.914 92.2458 53.2251 92.6613 53.5015C94.9813 55.7015 98.2113 58.4415 100.661 60.5015L98.7513 64.2915C98.7223 64.3417 98.7071 64.3986 98.7071 64.4566C98.7071 64.5145 98.7223 64.5714 98.7513 64.6216C114.261 86.8716 114.031 86.6216 114.131 86.6216C115.126 91.7631 115.744 96.9702 115.981 102.202C115.981 103.612 115.981 103.492 116.041 103.392C116.101 103.292 116.041 103.462 116.041 103.462C113.621 106.102 89.6713 108.562 85.7213 106.242ZM141.001 73.1115C136.471 73.7416 131.351 72.8016 130.361 72.7616C129.811 70.0957 128.715 67.5727 127.141 65.3515C127.117 65.3192 127.082 65.2971 127.042 65.2896C127.003 65.2822 126.962 65.29 126.928 65.3115C126.893 65.333 126.869 65.3666 126.858 65.4055C126.848 65.4444 126.853 65.4859 126.871 65.5215C127.451 66.7015 129.391 71.7915 129.871 73.0315C129.721 73.5115 134.391 92.8215 133.071 95.4215C131.891 97.7715 125.021 100.732 122.541 101.582C122.051 96.0145 121.25 90.4792 120.141 85.0015C120.481 82.1215 120.041 65.0015 119.911 58.6715C119.907 58.598 119.883 58.527 119.84 58.4669C119.798 58.4067 119.739 58.3598 119.671 58.3316L115.181 56.4415C115.161 54.0651 115.011 51.6916 114.731 49.3316C125.941 51.2716 139.001 57.6815 140.091 57.6915C141.671 57.6915 153.411 48.6916 155.841 48.3316C156.921 48.1616 161.561 52.2115 162.101 53.3316C157.361 59.9515 149.031 68.6516 145.171 71.6616C143.928 72.493 142.492 72.9922 141.001 73.1115Z" fill="black"/>
<path d="M100.55 35.1106C100.538 35.0449 100.513 34.9824 100.476 34.9265C100.439 34.8706 100.392 34.8225 100.337 34.7849C100.281 34.7472 100.219 34.7209 100.154 34.7073C100.088 34.6937 100.021 34.6931 99.9553 34.7056C99.8897 34.7181 99.8271 34.7433 99.7712 34.78C99.7153 34.8167 99.6672 34.864 99.6296 34.9192C99.592 34.9745 99.5656 35.0366 99.552 35.102C99.5384 35.1674 99.5378 35.2349 99.5503 35.3006C99.7503 36.3006 99.7903 36.5306 100.23 36.5306C100.313 36.5309 100.395 36.5104 100.469 36.4711C100.542 36.4317 100.604 36.3747 100.65 36.3052C100.696 36.2357 100.723 36.1559 100.73 36.073C100.737 35.9901 100.724 35.9068 100.69 35.8306C100.66 35.6706 100.57 35.2006 100.55 35.1106ZM103.61 41.7306C104.26 41.9206 104.88 41.6106 104.86 41.4506C104.84 41.2906 104.86 41.3706 103.98 41.0406C103.39 40.8206 102.74 40.0406 102.51 40.1606C102.28 40.2806 102.63 40.9206 102.71 41.0406C102.924 41.3652 103.241 41.6082 103.61 41.7306ZM121.9 32.2306C120.59 37.7206 119.63 42.3806 119.47 43.3106C119.364 43.7152 119.344 44.1376 119.41 44.5506C119.94 45.6806 126.79 47.9106 127.66 47.4706C128.53 47.0306 130.79 41.9406 133.42 36.6906C135.031 36.7421 136.644 36.6248 138.23 36.3406C139.901 36.0341 141.527 35.5201 143.07 34.8106C146.45 33.2506 150.15 26.5706 150.65 23.2106C151.025 19.5626 150.253 15.8886 148.44 12.7006C140.05 -1.84941 115.44 5.98059 117.44 22.1406C118.011 25.8383 119.55 29.3193 121.9 32.2306ZM128 44.1406C128 44.3006 127.82 44.2806 127 44.1406C125.323 43.9298 123.699 43.4111 122.21 42.6106C121.51 42.2306 121.32 42.1506 121.39 41.9806C121.46 41.8106 121.61 41.8706 122.69 42.1706C122.79 42.1706 125.89 43.1706 126.78 43.4806C127.93 44.0006 128 44.0006 128 44.1406ZM127.82 27.8706C128.888 27.926 129.952 27.7056 130.91 27.2306C131.801 27.662 132.764 27.9231 133.75 28.0006C132.07 31.1306 128.66 37.5106 127.56 40.9106L123.32 39.7406C124.32 37.2806 126.53 31.5206 127.8 27.8706H127.82ZM127.47 27.0406C126.724 26.9278 126.035 26.5733 125.509 26.0314C124.984 25.4895 124.65 24.7901 124.56 24.0406C124.28 22.0406 125.56 19.8006 127.49 20.3306C128.7 20.6606 128.85 21.6206 128.64 22.8306C128.46 23.7106 127.81 25.9206 127.45 27.0006L127.47 27.0406ZM130.19 24.6406C130.297 23.9862 130.543 23.3623 130.91 22.8106C131.085 22.5098 131.341 22.2642 131.649 22.1016C131.956 21.9389 132.303 21.8658 132.65 21.8906C133.39 22.1106 133.71 23.5106 133.1 24.3906C132.514 25.1686 131.784 25.8271 130.95 26.3306C130.663 26.1622 130.435 25.91 130.295 25.6079C130.156 25.3058 130.112 24.9682 130.17 24.6406H130.19ZM121 11.9306C125.48 6.54059 133.91 4.40059 140 6.62059C143.309 7.75623 146.091 10.0556 147.83 13.0906C149.554 16.1241 150.292 19.6191 149.94 23.0906C149.48 26.2006 145.94 32.6606 142.83 34.0906C139.987 35.3876 136.884 36.017 133.76 35.9306C133.42 35.9306 133.06 35.9306 132.93 36.1706C132.34 37.3706 131.26 39.6906 130.2 41.8706C129.468 41.5171 128.709 41.2229 127.93 40.9906C129.09 37.6706 132.75 31.1506 134.49 27.9906C135.998 28.1197 137.513 27.858 138.89 27.2306C139.262 27.0348 139.571 26.7369 139.779 26.3719C139.988 26.007 140.088 25.59 140.068 25.1701C140.048 24.7502 139.909 24.3446 139.667 24.0011C139.425 23.6576 139.089 23.3903 138.7 23.2306C137.15 22.4706 135.76 24.2906 134.95 25.8206C134.73 26.2206 134.48 26.6906 134.2 27.2206C133.391 27.1674 132.594 27.0025 131.83 26.7306C132.591 26.1961 133.265 25.5487 133.83 24.8106C134.147 24.3325 134.307 23.7679 134.289 23.1947C134.272 22.6215 134.076 22.068 133.73 21.6106C133.459 21.2951 133.081 21.0895 132.669 21.0325C132.257 20.9754 131.837 21.0707 131.49 21.3006C130.79 21.7309 130.229 22.3542 129.874 23.0957C129.519 23.8372 129.386 24.6653 129.49 25.4806C129.599 25.9408 129.847 26.3563 130.2 26.6706C129.544 26.9423 128.84 27.0783 128.13 27.0706C128.53 25.8906 129.18 23.7606 129.35 22.8906C129.457 22.3946 129.481 21.8843 129.42 21.3806C129.343 20.9481 129.142 20.5473 128.842 20.2262C128.543 19.905 128.156 19.6774 127.73 19.5706C125.3 18.8806 123.51 21.5706 123.86 24.0806C123.959 24.9801 124.345 25.8238 124.961 26.4866C125.577 27.1495 126.39 27.5962 127.28 27.7606C126 31.3606 124 37.1706 123 39.6506L120.8 39.0806C122.21 32.0006 122.38 32.1706 122.18 32.0806C119.908 29.1836 118.454 25.7304 117.97 22.0806C117.735 20.2708 117.883 18.4317 118.405 16.683C118.927 14.9342 119.811 13.315 121 11.9306ZM134.88 27.2806C135.58 26.0106 136.98 23.2306 138.34 23.9106C138.612 24.0202 138.849 24.202 139.025 24.4364C139.202 24.6708 139.311 24.9488 139.34 25.2406C139.32 27.0006 136.58 27.3106 134.84 27.2806H134.88ZM173.16 31.6906C174.365 30.9819 175.789 30.7399 177.16 31.0106C178.667 31.0375 180.106 31.64 181.183 32.6943C182.259 33.7486 182.892 35.1748 182.95 36.6806C182.044 36.1549 180.985 35.9571 179.95 36.1206C177.44 36.3406 174.16 37.7006 174.6 40.1206C174.96 42.1206 177.6 41.8506 179.6 41.3106C181.6 40.7706 183.19 39.7906 183.6 37.8606C186.03 39.6306 186.6 42.7306 186.7 45.7606C186.7 45.803 186.717 45.8437 186.747 45.8737C186.777 45.9037 186.818 45.9206 186.86 45.9206C186.903 45.9206 186.943 45.9037 186.973 45.8737C187.003 45.8437 187.02 45.803 187.02 45.7606C187.09 42.3706 186.48 39.0506 183.71 37.1206C183.739 36.2524 183.591 35.3874 183.275 34.578C182.96 33.7687 182.483 33.0318 181.875 32.4119C181.266 31.7921 180.538 31.3022 179.735 30.972C178.931 30.6417 178.069 30.4779 177.2 30.4906C175.812 30.2879 174.397 30.578 173.2 31.3106C172.83 31.4906 173 31.7606 173.16 31.6906ZM182.28 38.8606C181.15 40.3406 177.95 41.1106 176.47 40.8606C175.92 40.7706 175.47 40.5406 175.35 39.9706C174.99 37.9706 178.44 36.8806 180.5 36.8106C181.339 36.7463 182.176 36.9607 182.88 37.4206C182.805 37.9434 182.598 38.4387 182.28 38.8606ZM168.58 20.0006C169.65 18.6806 168.93 16.3806 165.94 16.3706C164.78 16.3706 164.22 17.5506 164.3 18.6806C164.48 21.3706 167.51 21.2906 168.58 20.0006ZM165 18.6306C165 17.9706 165.31 17.1106 166 17.1206C167.61 17.1206 168.35 17.8706 168.35 18.7006C168.31 20.5906 164.87 21.5706 165 18.6306ZM164.59 132.001C155.8 128.491 151.72 145.481 144.54 160.081C144.495 160.694 144.515 161.311 144.6 161.921C144.6 163.451 144.77 173.581 145.66 174.731C145.9 175.191 146.91 174.731 147.38 174.441C151.372 171.969 155.134 169.145 158.62 166.001C158.65 165.967 158.672 165.927 158.686 165.884C158.7 165.841 158.705 165.796 158.7 165.751C160.56 163.101 167.53 149.301 169.22 142.381C170.4 137.481 169.23 133.831 164.59 132.001ZM167.73 144.701C163.024 144.098 158.475 142.612 154.32 140.321C156.66 135.891 159.55 130.841 164.32 132.741C169.63 134.851 169.52 139.221 167.73 144.671V144.701ZM151.09 170.701C150.783 170.443 150.448 170.222 150.09 170.041C148.739 169.354 147.178 169.204 145.72 169.621C145.62 168.431 145.05 160.691 145.05 160.621C152.54 163.361 150.23 162.171 157.65 165.861C156.87 166.601 153.94 168.651 151.09 170.681V170.701ZM156.25 141.761C157.226 142.293 158.227 142.777 159.25 143.211C156.958 146.811 154.933 150.574 153.19 154.471C151.51 157.981 151.57 157.961 149.86 161.791C148.86 161.471 147.86 161.171 146.86 160.871C147.94 158.721 155.62 143.001 156.25 141.741V141.761ZM150.25 161.891C153.5 156.061 156.81 148.811 159.65 143.341C160.65 143.761 161.65 144.101 162.65 144.401C162.12 145.401 160.57 148.061 160.16 148.831C159.75 149.601 155.64 157.701 155.35 158.321C154.89 159.321 153.63 162.111 153.24 163.001C152.22 162.551 151.24 162.211 150.21 161.871L150.25 161.891ZM153.6 163.131C154.21 162.021 156.72 157.361 157.03 156.761C157.5 155.831 162.74 145.121 163.03 144.501C163.95 144.761 164.92 144.981 165.54 145.101C163.71 150.101 158.44 159.731 156.54 164.481C154.81 163.671 154.42 163.471 153.56 163.111L153.6 163.131ZM154.21 140.611L156 141.611C152.393 147.754 149.251 154.158 146.6 160.771L145.1 160.311C150.91 147.931 151.18 146.311 154.17 140.591L154.21 140.611ZM158.33 165.351L156.82 164.631C158.45 161.431 163.55 153.221 165.88 145.171C166.44 145.271 166.99 145.361 167.52 145.431C164.951 152.287 161.865 158.94 158.29 165.331L158.33 165.351ZM127 171.841C127.399 171.511 127.684 171.064 127.815 170.563C127.946 170.063 127.916 169.533 127.73 169.051C127.645 168.354 127.326 167.707 126.824 167.216C126.323 166.725 125.669 166.419 124.97 166.349C124.272 166.28 123.571 166.45 122.982 166.831C122.393 167.213 121.951 167.784 121.73 168.451C120.45 167.621 119.06 166.741 117.73 165.901C118.73 164.571 121.67 165.161 121.97 166.251C121.977 166.293 122 166.331 122.035 166.356C122.07 166.382 122.113 166.392 122.155 166.386C122.198 166.379 122.236 166.356 122.261 166.321C122.286 166.286 122.297 166.243 122.29 166.201C122.14 164.461 118.52 163.441 117.06 165.491C115.77 164.701 114.17 163.741 112.83 163.011C113.98 162.011 116.55 162.571 116.83 163.611C116.843 163.646 116.869 163.676 116.902 163.695C116.935 163.713 116.974 163.719 117.011 163.712C117.048 163.705 117.081 163.685 117.105 163.655C117.129 163.626 117.141 163.589 117.14 163.551C117.01 161.931 113.66 160.841 112.14 162.621C111.503 162.264 110.834 161.969 110.14 161.741C110.014 161.688 109.874 161.673 109.74 161.698C109.605 161.723 109.48 161.786 109.38 161.881C106.85 165.031 98.3203 173.211 94.3803 174.161C94.2813 174.175 94.1879 174.216 94.1096 174.279C94.0313 174.341 93.9709 174.423 93.9344 174.517C93.8979 174.61 93.8866 174.711 93.9017 174.81C93.9168 174.909 93.9577 175.002 94.0203 175.081C94.8855 175.959 95.8763 176.704 96.9603 177.291C95.9603 178.291 95.1803 179.191 94.6003 179.841C94.3003 180.161 94.1403 186.281 94.4003 187.631C94.439 187.763 94.5243 187.876 94.6403 187.951C95.9003 188.811 112.13 195.831 113.79 194.891C114.9 194.261 128.15 180.471 128.36 180.051C128.68 179.391 128.57 174.991 128.55 173.231C128.47 172.701 127.48 172.131 127 171.841ZM95.0003 185.051V182.821C99.1503 184.821 108.65 188.901 112.25 190.041C113.17 190.341 113.25 190.301 113.73 190.041C116.48 188.281 126.19 177.341 127.97 175.671V177.781C122.57 183.191 113.4 192.671 113.23 192.131C112.24 192.071 95.8603 185.451 95.0003 185.051ZM126.75 168.471C127.11 169.076 127.303 169.766 127.31 170.471C127.307 170.695 127.252 170.915 127.15 171.114C127.047 171.314 126.9 171.487 126.72 171.621C125.88 171.061 124.29 170.021 122.41 168.801C123.44 166.771 125.73 166.741 126.71 168.471H126.75ZM94.7503 174.871C99.0103 173.611 107.1 165.811 109.82 162.431C110.475 162.613 111.106 162.871 111.7 163.201C110.7 165.061 111.77 167.101 112.15 166.811C112.36 166.651 111.98 166.591 111.92 165.611C111.895 164.895 112.057 164.185 112.39 163.551C113.77 164.271 115.39 165.211 116.76 166.001C115.92 167.871 116.93 169.721 117.28 169.451C117.63 169.181 117.12 169.241 117.06 168.261C117.036 167.618 117.159 166.978 117.42 166.391C118.83 167.221 120.27 168.081 121.59 168.891C121.387 169.389 121.306 169.929 121.355 170.465C121.404 171.001 121.58 171.517 121.87 171.971C121.883 171.988 121.9 172.002 121.918 172.013C121.937 172.023 121.958 172.03 121.979 172.033C122 172.036 122.022 172.035 122.043 172.029C122.064 172.023 122.083 172.014 122.1 172.001C122.117 171.987 122.132 171.971 122.142 171.952C122.153 171.934 122.16 171.913 122.163 171.892C122.166 171.87 122.164 171.849 122.159 171.828C122.153 171.807 122.143 171.788 122.13 171.771C121.951 171.373 121.862 170.941 121.871 170.505C121.879 170.069 121.985 169.64 122.18 169.251C124.51 170.671 126.39 171.861 126.97 172.251C126.86 172.351 116.43 181.631 112.88 184.391C110.55 183.781 98.3203 177.711 94.7503 174.871ZM95.1303 180.441C99.6603 182.441 109.95 187.081 112.32 187.531C112.73 187.611 112.89 187.641 113.67 187.021C117 184.351 127.83 173.021 127.93 173.141C127.935 173.17 127.935 173.201 127.93 173.231V175.231C125.7 177.021 113.3 190.041 113.1 189.421C112.1 189.421 95.8503 182.791 95.0203 182.421C95.0003 182.001 95.0903 180.881 95.1303 180.441ZM113.34 194.221C112.34 194.791 97.1103 188.601 95.0703 187.341C94.9937 186.703 94.957 186.062 94.9603 185.421C99.3403 187.581 112.08 192.961 113.25 192.911C114.96 192.821 127.05 179.211 127.91 178.261C127.92 178.771 127.87 179.282 127.76 179.781C127.59 180.111 114 193.851 113.34 194.221ZM30.4903 137.851C30.5603 138.921 30.6103 139.851 30.6103 140.721C30.6103 140.853 30.663 140.98 30.7568 141.074C30.8505 141.168 30.9777 141.221 31.1103 141.221C31.2429 141.221 31.3701 141.168 31.4639 141.074C31.5576 140.98 31.6103 140.853 31.6103 140.721C31.6103 139.791 31.5603 138.871 31.4903 137.781C31.481 137.648 31.4194 137.524 31.3191 137.437C31.2188 137.35 31.0879 137.306 30.9553 137.316C30.8227 137.325 30.6992 137.386 30.612 137.487C30.5248 137.587 30.481 137.718 30.4903 137.851ZM182.86 117.801C182.795 117.804 182.731 117.821 182.672 117.85C182.614 117.879 182.561 117.919 182.519 117.969C182.476 118.018 182.443 118.075 182.423 118.138C182.403 118.2 182.395 118.265 182.4 118.331C182.46 119.251 182.52 120.241 182.52 121.201C182.52 121.333 182.573 121.46 182.667 121.554C182.761 121.648 182.888 121.701 183.02 121.701C183.153 121.701 183.28 121.648 183.374 121.554C183.468 121.46 183.52 121.333 183.52 121.201C183.52 120.201 183.46 119.201 183.39 118.261C183.387 118.195 183.37 118.131 183.341 118.073C183.312 118.014 183.272 117.962 183.222 117.919C183.173 117.876 183.115 117.843 183.053 117.823C182.991 117.803 182.926 117.795 182.86 117.801ZM27.9003 135.361C28.0329 135.361 28.1601 135.308 28.2539 135.214C28.3476 135.12 28.4003 134.993 28.4003 134.861C28.4003 134.728 28.3476 134.601 28.2539 134.507C28.1601 134.413 28.0329 134.361 27.9003 134.361C26.6903 134.361 25.6803 134.451 24.6803 134.431C24.5468 134.431 24.4185 134.483 24.3232 134.576C24.2278 134.67 24.1729 134.797 24.1703 134.931C24.1703 135.063 24.223 135.19 24.3168 135.284C24.4105 135.378 24.5377 135.431 24.6703 135.431C25.7003 135.451 26.8303 135.411 27.9003 135.361ZM179.76 114.841C178.56 114.841 177.55 114.911 176.54 114.921C176.408 114.921 176.281 114.973 176.187 115.067C176.093 115.161 176.04 115.288 176.04 115.421C176.04 115.553 176.093 115.68 176.187 115.774C176.281 115.868 176.408 115.921 176.54 115.921C177.62 115.921 178.74 115.921 179.82 115.841C179.953 115.833 180.077 115.772 180.165 115.673C180.253 115.574 180.298 115.443 180.29 115.311C180.282 115.178 180.222 115.054 180.123 114.966C180.023 114.878 179.893 114.833 179.76 114.841ZM30.2203 129.181C30.2803 130.101 30.3403 131.091 30.3403 132.051C30.3429 132.182 30.3964 132.308 30.4896 132.401C30.5828 132.495 30.7085 132.548 30.8403 132.551C30.9729 132.551 31.1001 132.498 31.1939 132.404C31.2876 132.31 31.3403 132.183 31.3403 132.051C31.3403 131.051 31.2803 130.051 31.2203 129.111C31.211 128.978 31.1495 128.854 31.0491 128.767C30.9488 128.68 30.8179 128.636 30.6853 128.646C30.5527 128.655 30.4292 128.716 30.342 128.817C30.2548 128.917 30.211 129.048 30.2203 129.181ZM183.25 112.531C183.25 111.531 183.19 110.531 183.12 109.591C183.111 109.458 183.049 109.334 182.949 109.247C182.849 109.16 182.718 109.116 182.585 109.126C182.453 109.135 182.329 109.196 182.242 109.297C182.155 109.397 182.111 109.528 182.12 109.661C182.18 110.581 182.24 111.571 182.24 112.531C182.24 112.663 182.293 112.79 182.387 112.884C182.481 112.978 182.608 113.031 182.74 113.031C182.874 113.031 183.002 112.978 183.097 112.885C183.193 112.791 183.248 112.664 183.25 112.531ZM37.6003 135.231C37.666 135.228 37.7305 135.213 37.7902 135.185C37.8499 135.157 37.9036 135.118 37.9481 135.07C37.9927 135.022 38.0273 134.965 38.05 134.904C38.0727 134.842 38.083 134.776 38.0803 134.711C38.0702 134.58 38.011 134.458 37.9146 134.368C37.8181 134.279 37.6916 134.23 37.5603 134.231C36.3503 134.281 35.3403 134.321 34.3303 134.301C34.1977 134.301 34.0705 134.353 33.9768 134.447C33.883 134.541 33.8303 134.668 33.8303 134.801C33.8303 134.933 33.883 135.06 33.9768 135.154C34.0705 135.248 34.1977 135.301 34.3303 135.301C35.4003 135.321 36.5203 135.281 37.6003 135.231ZM189.46 114.711C188.46 114.761 187.35 114.791 186.24 114.791C186.174 114.788 186.108 114.799 186.047 114.822C185.985 114.845 185.928 114.881 185.881 114.927C185.833 114.973 185.795 115.028 185.769 115.088C185.744 115.149 185.73 115.215 185.73 115.281C185.73 115.414 185.783 115.542 185.876 115.638C185.97 115.733 186.097 115.788 186.23 115.791C187.37 115.791 188.29 115.791 189.5 115.711C189.566 115.708 189.631 115.693 189.69 115.665C189.75 115.637 189.804 115.598 189.848 115.55C189.893 115.502 189.927 115.445 189.95 115.384C189.973 115.322 189.983 115.256 189.98 115.191C189.968 115.061 189.908 114.94 189.812 114.851C189.716 114.763 189.591 114.712 189.46 114.711ZM14.6203 105.601C14.7503 105.701 42.9503 101.521 44.1603 100.781C44.2273 100.732 44.2808 100.667 44.3158 100.591C44.3508 100.516 44.3661 100.433 44.3603 100.351C44.3603 99.0606 42.6703 86.9506 41.8603 83.9306C41.7603 83.5606 41.6603 83.1906 41.4303 83.0606C39.9003 82.1406 12.9403 87.2206 11.3303 88.2606C11.2867 88.2864 11.249 88.3211 11.2197 88.3624C11.1904 88.4038 11.1702 88.4509 11.1603 88.5006C10.8203 89.7106 13.7503 105.001 14.6203 105.601ZM11.7703 88.7406C13.6903 87.8706 38.1603 83.3906 40.9603 83.7406C41.6403 85.4906 43.4603 98.3106 43.5803 100.191C42.1903 100.601 15.0003 105.271 14.9003 105.291C14.8003 105.311 14.7903 105.431 14.5803 104.801C13.7003 102.161 11.7203 91.0006 11.7703 88.7406Z" fill="black"/>
<path d="M46.3613 101.67C46.4157 101.569 46.44 101.455 46.4313 101.34C46.4313 99.7503 44.1513 82.1003 43.3413 80.6903C43.2778 80.5864 43.1879 80.5011 43.0807 80.4431C42.9736 80.3851 42.853 80.3566 42.7313 80.3603C39.3813 79.9503 11.1212 85.4703 9.26125 86.7603C9.00125 86.9403 9.04125 87.3903 9.07125 87.8703C9.23125 90.5003 12.0712 107.8 13.0712 107.7C13.1812 107.7 13.1412 107.62 12.8812 108.15C11.3212 111.36 8.36125 121.64 8.42125 123.71C8.42125 124.58 8.62125 125.71 9.48125 125.65C15.6512 124.89 45.9012 120.09 54.6012 118.3C54.9412 118.23 55.1613 117.92 55.1513 117.41C55.0486 116.561 54.791 115.737 54.3913 114.98C53.1713 112.69 48.1113 103.62 46.3613 101.67ZM13.1312 107.39C12.3512 106.39 9.48125 89.1603 9.70125 87.2503C11.9012 86.1103 39.7813 80.7203 42.7013 81.1603C43.5013 83.3603 45.5713 99.2503 45.7013 101.16C42.1613 102.38 17.6512 106.34 13.1312 107.39ZM13.5712 107.69C14.4112 107.48 43.0213 102.69 45.6413 102C47.0713 103.33 53.5313 114.82 53.9513 115.8C48.2113 116.8 14.1612 122.49 9.15125 123.25C9.22125 120.22 12.3312 109.63 13.5712 107.69Z" fill="black"/>
<path d="M17.3308 118.06C18.2008 117.93 36.6608 115.71 43.3308 113.9C43.3719 113.889 43.4072 113.863 43.4287 113.826C43.4503 113.79 43.4564 113.746 43.4458 113.705C43.4352 113.664 43.4087 113.629 43.3722 113.607C43.3356 113.585 43.2919 113.579 43.2508 113.59C41.9408 113.86 25.9608 115.99 17.3108 117.75C17.2869 117.746 17.2624 117.747 17.239 117.753C17.2156 117.76 17.1941 117.772 17.176 117.788C17.1579 117.804 17.1437 117.824 17.1345 117.847C17.1252 117.869 17.1213 117.893 17.1228 117.918C17.1244 117.942 17.1315 117.965 17.1435 117.987C17.1555 118.008 17.1722 118.026 17.1922 118.039C17.2122 118.053 17.2351 118.062 17.2592 118.066C17.2832 118.069 17.3077 118.067 17.3308 118.06ZM30.8208 48.4799C30.4473 49.3236 30.1332 50.1924 29.8808 51.0799C29.866 51.2224 29.9052 51.3652 29.9908 51.4799C31.0008 52.9999 41.3508 64.6699 44.0508 66.3099C44.4208 66.5399 44.8608 66.6999 45.1308 66.3699C47.0922 63.9294 49.6519 62.0381 52.5608 60.8799C54.9285 60.0423 57.4108 59.5735 59.9208 59.4899C61.9208 59.3099 62.2708 59.1099 63.0408 57.7999C63.9491 56.0759 65.1542 54.5255 66.6008 53.2199C68.4454 51.6072 70.4927 50.2423 72.6908 49.1599C72.7898 49.1039 72.8671 49.0163 72.9106 48.9112C72.9541 48.8061 72.9612 48.6895 72.9308 48.5799C72.5928 47.7197 72.1458 46.9064 71.6008 46.1599C71.9608 46.0399 72.3608 45.9299 72.3608 45.5699C72.3608 44.5699 63.6408 31.9499 61.2208 29.5699C60.9708 29.3199 60.6108 28.9899 60.2808 29.0099C55.2808 29.2899 50.4108 34.0099 47.5908 38.1299C44.3608 38.0099 42.2708 37.7199 38.5908 39.2699C35.9929 40.3727 33.6507 42 31.7108 44.0499C31.4108 44.3599 29.3708 46.5199 29.3408 46.6899C29.3108 46.8599 29.3708 46.8599 30.8208 48.4799ZM70.8208 48.1999C66.6508 48.9099 63.9908 52.3799 62.0308 56.1499C61.1608 57.8299 61.2408 57.9099 60.3208 57.8899C58.7121 57.7988 57.0983 57.8591 55.5008 58.0699C54.3291 58.2451 53.1771 58.5331 52.0608 58.9299C49.5208 59.8299 46.6108 62.7099 45.0608 64.8499C45.0279 64.894 44.986 64.9305 44.938 64.9572C44.89 64.9839 44.8368 65.0002 44.782 65.0049C44.7273 65.0096 44.6721 65.0027 44.6202 64.9846C44.5683 64.9665 44.5208 64.9377 44.4808 64.8999C41.2308 61.5499 35.4808 55.6699 32.5908 52.2899C32.4508 52.1399 32.6908 51.9199 32.8308 52.0799C34.7008 54.0799 39.5308 58.8699 44.7108 64.0799C46.4608 61.8499 49.1608 59.1499 51.8308 58.2099C53.2868 57.6906 54.8018 57.3547 56.3408 57.2099C57.7821 57.1005 59.2296 57.1005 60.6708 57.2099C61.2608 56.5299 64.1808 48.8099 70.8008 47.9499C70.8202 47.9642 70.8361 47.9826 70.8474 48.0038C70.8587 48.025 70.8651 48.0485 70.866 48.0725C70.867 48.0966 70.8625 48.1205 70.853 48.1425C70.8434 48.1646 70.829 48.1842 70.8108 48.1999H70.8208ZM60.2708 29.8199C62.2708 31.2199 70.4108 43.2699 71.4708 45.3799C69.6315 45.9627 67.8558 46.73 66.1708 47.6699C64.5752 48.4698 63.1781 49.6156 62.0813 51.0238C60.9845 52.4319 60.2157 54.067 59.8308 55.8099C56.2408 49.9699 51.2308 43.5399 47.9008 38.8099C48.1008 38.6799 53.7208 30.2099 60.2708 29.8199ZM38.8108 39.8199C42.4608 38.3499 44.4808 38.6899 47.5008 38.8199C50.5008 43.9399 55.8908 51.1599 59.4408 55.8899C56.1643 55.1146 52.7164 55.5888 49.7708 57.2199C48.0008 58.2199 45.8408 60.6199 44.5108 62.1099C42.5908 60.5699 31.5108 48.7699 29.7308 46.7699C32.4708 43.6699 35.0008 41.3399 38.8108 39.7799V39.8199ZM20.5108 65.2499C20.2637 65.0765 19.9715 64.9785 19.6697 64.9678C19.368 64.9572 19.0696 65.0343 18.8108 65.1899C18.6224 65.274 18.4523 65.3943 18.3104 65.5441C18.1685 65.6939 18.0574 65.8701 17.9836 66.0628C17.9098 66.2555 17.8746 66.4608 17.8801 66.6671C17.8857 66.8733 17.9318 67.0765 18.0158 67.2649C18.0999 67.4534 18.2202 67.6234 18.37 67.7654C18.5197 67.9073 18.696 68.0184 18.8887 68.0922C19.0814 68.166 19.2867 68.2012 19.493 68.1956C19.6992 68.1901 19.9024 68.144 20.0908 68.0599C20.3919 67.9941 20.6658 67.8383 20.8763 67.6133C21.0868 67.3882 21.2239 67.1045 21.2694 66.7997C21.315 66.4949 21.2668 66.1835 21.1314 65.9067C20.9959 65.63 20.7795 65.4009 20.5108 65.2499ZM19.8508 67.2499C19.1508 67.4699 18.7308 67.2499 18.5608 66.9099C18.2408 66.1999 18.6408 65.1099 19.6808 65.4299C20.4108 65.6999 21.0008 66.9299 19.8508 67.2999V67.2499ZM71.3608 19.4899C71.6508 20.0799 73.0008 19.8599 73.5908 19.6699C73.9008 19.5699 74.1008 19.4599 74.1308 19.1599C74.2208 18.4099 74.3208 11.9099 73.9808 11.2799C73.9457 11.2139 73.8919 11.1597 73.826 11.1241C73.7602 11.0885 73.6854 11.0731 73.6108 11.0799C72.5439 11.077 71.4824 11.232 70.4608 11.5399C70.0508 11.7899 71.0008 18.8299 71.3608 19.4899ZM70.6708 11.7799C71.5946 11.6478 72.5288 11.6043 73.4608 11.6499C73.5208 12.3899 73.3608 18.7999 73.3508 18.8999C72.9283 19.0513 72.4773 19.106 72.0308 19.0599C71.9608 18.8299 71.8408 18.2099 71.6908 17.4299C71.2502 15.5662 70.9097 13.6801 70.6708 11.7799ZM19.5408 56.8099C19.6368 56.8591 19.743 56.8847 19.8508 56.8847C19.9586 56.8847 20.0649 56.8591 20.1608 56.8099C20.5472 56.5716 20.8536 56.2234 21.0408 55.8099C21.0663 55.7438 21.0741 55.6721 21.0636 55.602C21.0531 55.5319 21.0246 55.4657 20.9808 55.4099C20.5008 54.8399 15.2608 48.7699 14.6208 49.1499C13.835 49.6586 13.0895 50.227 12.3908 50.8499C12.3627 50.8751 12.3401 50.9059 12.3246 50.9404C12.3091 50.9748 12.301 51.0122 12.3008 51.0499C12.2808 51.5699 18.1008 56.2299 19.5408 56.8099ZM14.7408 49.4099C15.4708 49.9399 17.9308 52.9799 20.2108 55.6699C20.1127 55.8244 19.9913 55.9627 19.8508 56.0799C17.4537 54.5457 15.165 52.8484 13.0008 50.9999C13.5433 50.4303 14.1247 49.899 14.7408 49.4099ZM30.4508 27.3499C30.6708 23.4699 32.9308 21.6699 35.2908 21.2099C34.6208 23.6699 34.7308 26.8699 37.1608 27.2799C38.3208 27.4699 38.8908 26.8699 39.7308 26.1699C43.3208 23.1699 40.4208 20.1699 36.3708 20.3799C37.8808 16.2399 41.3708 12.8699 46.0008 12.7599C46.0433 12.7599 46.084 12.7431 46.114 12.7131C46.144 12.6831 46.1608 12.6424 46.1608 12.5999C46.1608 12.5575 46.144 12.5168 46.114 12.4868C46.084 12.4568 46.0433 12.4399 46.0008 12.4399C41.0008 12.3399 37.0708 15.9399 35.5208 20.4399C32.8508 20.8999 30.2008 22.8999 30.1308 27.2899C30.1269 27.311 30.1271 27.3325 30.1315 27.3535C30.1359 27.3744 30.1444 27.3942 30.1565 27.4119C30.1686 27.4295 30.184 27.4446 30.2019 27.4563C30.2198 27.468 30.2398 27.476 30.2608 27.4799C30.2818 27.4839 30.3034 27.4836 30.3243 27.4792C30.3453 27.4748 30.3651 27.4664 30.3828 27.4543C30.4004 27.4422 30.4155 27.4268 30.4272 27.4089C30.4389 27.391 30.4469 27.371 30.4508 27.3499ZM36.1408 21.0899C37.6308 20.9899 39.8508 21.4499 40.4608 22.7999C40.8108 23.5699 40.4608 24.5199 39.2208 25.5599C38.8842 25.8972 38.5001 26.1835 38.0808 26.4099C36.5808 27.0499 34.9208 25.1999 36.1408 21.0899ZM39.0008 162.52C38.0347 162.261 37.0266 162.198 36.0357 162.335C35.0449 162.471 34.0914 162.805 33.2314 163.316C32.3714 163.826 31.6222 164.504 31.0279 165.308C30.4336 166.113 30.0062 167.028 29.7708 168C29.3266 170.02 29.7028 172.133 30.8168 173.875C31.9308 175.617 33.6912 176.846 35.7108 177.29C37.7305 177.734 39.8438 177.358 41.586 176.244C43.3283 175.13 44.5566 173.37 45.0008 171.35C45.1906 170.376 45.1857 169.374 44.9864 168.402C44.787 167.429 44.3973 166.506 43.8395 165.686C43.2818 164.865 42.5671 164.162 41.7366 163.619C40.9061 163.076 39.9763 162.702 39.0008 162.52ZM42.0908 170.67C41.6896 172.27 40.729 173.674 39.3828 174.628C38.0366 175.582 36.3936 176.022 34.7508 175.87C33.2428 175.281 31.9909 174.179 31.2154 172.757C30.4398 171.336 30.1904 169.687 30.5108 168.1C30.885 166.461 31.8367 165.011 33.1917 164.016C34.5468 163.021 36.2149 162.546 37.8908 162.68C39.4137 163.309 40.6659 164.455 41.4268 165.917C42.1878 167.378 42.4087 169.062 42.0508 170.67H42.0908Z" fill="black"/>
<path d="M52.3217 165.371C51.4511 165.071 50.5181 164.998 49.6117 165.161C49.236 164.3 48.7736 163.479 48.2317 162.711C48.8817 162.121 50.6617 160.481 50.2317 159.711C48.7013 157.88 46.8845 156.31 44.8517 155.061C44.0028 154.585 43.0681 154.283 42.1017 154.171C41.4617 154.261 39.9417 156.751 39.6017 157.311C39.3817 157.311 38.6017 157.061 38.5417 157.031C38.5417 156.311 38.3317 153.711 37.6817 153.411C36.9548 153.143 36.2 152.959 35.4317 152.861C34.7217 152.751 28.3317 153.921 27.8617 154.781C27.5517 155.361 28.2717 157.551 28.4817 158.161C27.9423 158.458 27.4244 158.792 26.9317 159.161C25.9317 159.871 26.2017 159.841 26.0217 159.761C25.8041 159.657 25.571 159.59 25.3317 159.561C24.5328 159.093 23.5962 158.916 22.6817 159.061C21.7617 159.361 19.5917 164.301 19.2417 165.571C19.1271 165.891 19.0961 166.235 19.1517 166.571C19.3917 167.231 20.9917 167.761 21.6617 167.971C21.4766 169.258 21.4766 170.564 21.6617 171.851C20.7817 172.091 18.9517 172.631 19.0517 173.531C19.1517 174.431 21.4917 180.371 22.4617 180.841C22.993 181.138 23.5806 181.321 24.1868 181.378C24.793 181.435 25.4043 181.364 25.9817 181.171C26.3068 181.009 26.6209 180.825 26.9217 180.621C27.3217 180.921 27.7417 181.191 28.1717 181.451C27.8617 182.221 27.1717 183.941 27.3917 184.721C27.5017 185.131 27.8317 185.261 28.2917 185.431C29.5617 185.891 36.4017 187.531 37.4417 187.351C37.8317 187.291 38.0417 186.881 38.1617 186.491C38.3839 185.603 38.5145 184.695 38.5517 183.781C39.0652 183.73 39.5759 183.654 40.0817 183.551C40.3905 184.095 40.7857 184.584 41.2517 185.001C41.7617 185.361 42.1917 185.181 42.7717 184.811C43.0517 185.171 43.4717 185.671 43.9217 185.721C45.0517 185.851 49.7217 181.451 50.2017 180.551C50.6017 179.801 49.1417 178.461 48.4917 177.871C49.1948 176.813 49.7468 175.662 50.1317 174.451C50.8529 174.56 51.5828 174.6 52.3117 174.571C52.6417 174.571 53.0217 174.451 53.1617 174.141C53.7717 172.751 53.5917 167.481 53.1617 166.141C53.1017 165.751 52.6517 165.491 52.3217 165.371ZM52.5617 166.291C52.9017 167.591 53.0117 172.501 52.5117 173.771C51.6471 173.856 50.7747 173.816 49.9217 173.651C49.8306 173.635 49.737 173.654 49.6593 173.704C49.5815 173.754 49.5253 173.832 49.5017 173.921C49.1034 175.273 48.4851 176.55 47.6717 177.701C47.6137 177.777 47.5876 177.873 47.5988 177.968C47.61 178.063 47.6576 178.15 47.7317 178.211C48.4333 178.767 49.0294 179.444 49.4917 180.211C48.9917 181.031 45.0817 184.611 44.0017 184.911C43.8417 184.911 43.4017 184.311 43.2917 184.151C42.9223 183.596 42.5883 183.018 42.2917 182.421C42.2484 182.334 42.1741 182.266 42.0835 182.231C41.9928 182.196 41.8923 182.196 41.8017 182.231C38.9017 183.321 37.8017 182.681 37.8017 183.401C37.803 184.479 37.6273 185.55 37.2817 186.571C34.9316 186.315 32.6173 185.799 30.3817 185.031C30.4896 183.963 30.7877 182.924 31.2617 181.961C31.5617 181.291 30.3617 181.481 28.1217 179.201C28.0496 179.134 27.9549 179.097 27.8567 179.097C27.7584 179.097 27.6638 179.134 27.5917 179.201C26.5917 180.021 25.2917 180.821 25.0317 180.691C24.5217 180.441 22.1717 175.111 22.0317 174.031C22.7429 173.535 23.5504 173.195 24.4017 173.031C24.4925 173.005 24.5709 172.948 24.6223 172.869C24.6738 172.789 24.6949 172.694 24.6817 172.601C24.4366 171.185 24.4366 169.737 24.6817 168.321C24.6969 168.234 24.6786 168.144 24.6304 168.07C24.5821 167.996 24.5076 167.942 24.4217 167.921C23.6678 167.723 22.942 167.431 22.2617 167.051C22.0417 166.891 22.0617 166.901 22.0817 166.731C22.7289 164.397 23.7669 162.189 25.1517 160.201C25.6917 160.051 27.1517 161.121 27.6517 161.501C27.7039 161.552 27.7739 161.58 27.8467 161.58C27.9195 161.58 27.9894 161.552 28.0417 161.501C28.5012 161.024 28.9959 160.583 29.5217 160.181C31.0417 159.031 31.4517 159.181 31.3217 158.781C30.862 157.778 30.6037 156.694 30.5617 155.591C30.7167 155.462 30.8925 155.361 31.0817 155.291C32.0153 154.922 32.9745 154.621 33.9517 154.391C35.1362 154.061 36.3536 153.863 37.5817 153.801C37.7917 153.891 37.9817 154.801 38.0317 155.081C38.4017 157.081 38.1517 157.491 38.4417 157.521C41.2917 157.801 41.8717 158.591 42.0717 158.241C42.6262 157.271 43.2725 156.357 44.0017 155.511C44.2117 155.301 44.2017 155.201 44.8317 155.561C46.7138 156.791 48.3994 158.298 49.8317 160.031C49.9817 160.291 48.6817 161.671 47.7317 162.481C47.4017 162.771 47.8717 162.901 48.7317 164.541C49.5917 166.181 49.3917 166.641 49.8517 166.541C50.7384 166.329 51.651 166.245 52.5617 166.291ZM191.352 82.731C189.255 81.8748 187.057 81.2933 184.812 81.001C183.172 80.741 181.242 80.481 179.612 80.271C181.182 78.051 185.832 72.431 186.612 71.061C186.832 70.691 186.412 70.171 186.102 69.861C184.362 68.001 181.002 67.301 178.422 66.901C176.942 66.661 170.762 65.901 169.712 66.401C168.452 67.001 159.132 81.001 158.852 83.131C158.852 83.491 158.972 83.631 159.322 83.761C160.792 84.301 167.422 85.141 168.902 85.491C166.902 88.991 158.012 100.821 157.142 102.491C156.932 102.911 157.062 103.161 157.312 103.241C158.212 103.598 159.138 103.886 160.082 104.101C160.442 104.211 161.232 103.721 162.382 103.021C167.542 99.921 189.682 85.301 191.382 83.411C191.429 83.3666 191.465 83.3127 191.49 83.2528C191.514 83.193 191.525 83.1286 191.522 83.0641C191.519 82.9996 191.503 82.9365 191.473 82.879C191.444 82.8215 191.402 82.771 191.352 82.731ZM169.862 94.731C161.362 100.341 158.492 101.981 158.392 102.051C159.762 99.961 168.272 88.301 169.732 85.511C169.757 85.4571 169.77 85.3982 169.77 85.3386C169.77 85.279 169.756 85.2203 169.73 85.1666C169.704 85.1129 169.667 85.0657 169.62 85.0284C169.574 84.9911 169.52 84.9647 169.462 84.951C168.462 84.591 161.182 83.811 159.462 83.201C159.682 81.341 168.762 67.281 169.862 66.721C170.962 66.161 181.632 67.431 183.632 68.861C182.582 70.911 176.782 78.091 175.842 79.761C175.652 80.101 175.592 80.431 175.962 80.521C176.332 80.611 185.732 81.711 187.782 82.381C185.282 84.471 172.662 92.851 169.862 94.691V94.731ZM105.712 33.591C105.712 33.681 105.772 33.791 105.922 34.371C105.961 34.4968 106.048 34.6025 106.163 34.6659C106.279 34.7293 106.414 34.7454 106.542 34.711C106.669 34.6739 106.776 34.5877 106.84 34.4714C106.904 34.3551 106.919 34.2183 106.882 34.091C106.782 33.701 106.692 33.371 106.632 33.211C106.573 33.1012 106.476 33.017 106.359 32.9749C106.242 32.9328 106.114 32.9357 105.999 32.9832C105.884 33.0306 105.791 33.1192 105.738 33.2316C105.685 33.3439 105.675 33.4721 105.712 33.591Z" fill="black"/>
</svg>
