<svg width="200" height="200" viewBox="0 0 200 200" fill="none" xmlns="http://www.w3.org/2000/svg">
<path d="M131.2 96.3301C130.178 96.9383 129.115 97.473 128.017 97.9301C118.243 102.091 104.876 101.341 94.961 98.8611C91.825 114.185 101.099 177.685 101.099 177.685C109.636 179.853 115.276 177.541 115.276 177.541L113.546 115.903C114.417 129.359 119.913 169.479 119.913 169.479C126.137 173.822 132.643 169.047 132.643 169.047C134.893 144.097 131.379 98.6251 131.2 96.3301Z" fill="#59679C"/>
<path d="M37.5797 167.143C37.3365 167.317 37.0365 167.393 36.7397 167.356C36.8267 169.856 37.4077 173.234 38.7147 175.275C39.1527 175.959 40.1147 177.203 39.2077 177.918L39.1827 177.936C39.1611 177.26 38.9535 176.602 38.5827 176.036C38.5542 175.988 38.5165 175.946 38.4717 175.912C38.4269 175.879 38.376 175.854 38.3218 175.84C38.2675 175.826 38.2111 175.823 38.1557 175.831C38.1002 175.839 38.0469 175.858 37.9987 175.886C37.9505 175.915 37.9084 175.952 37.8748 175.997C37.8411 176.042 37.8167 176.093 37.8027 176.147C37.7888 176.201 37.7857 176.258 37.7936 176.313C37.8015 176.369 37.8202 176.422 37.8487 176.47C38.216 176.987 38.3908 177.616 38.3427 178.248C38.1524 178.265 37.961 178.265 37.7707 178.248C37.7602 177.469 37.6435 176.695 37.4237 175.948C37.3902 175.843 37.3174 175.756 37.2205 175.703C37.1236 175.651 37.0102 175.638 36.9042 175.668C36.7982 175.698 36.7079 175.767 36.6522 175.862C36.5965 175.957 36.5799 176.07 36.6057 176.177C36.7899 176.784 36.897 177.412 36.9247 178.046C33.7407 176.883 33.0787 172.646 32.4787 169.233C32.0335 166.655 31.7374 164.053 31.5917 161.441C31.3186 161.552 31.0399 161.648 30.7567 161.729C30.9657 165.22 31.8087 173.216 33.6327 176.243C36.2657 180.589 40.8797 179.391 40.3837 176.736C40.0407 174.866 37.7447 173.998 37.5797 167.143ZM25.9277 184.408L26.1977 182.48C26.2279 182.372 26.2139 182.256 26.1587 182.158C26.1034 182.06 26.0115 181.988 25.9032 181.958C25.7949 181.927 25.6789 181.941 25.5809 181.997C25.483 182.052 25.4109 182.144 25.3807 182.252L25.0567 184.541C24.4212 184.623 23.7797 184.649 23.1397 184.619C22.9047 182.66 24.1257 182.145 23.4467 181.736C23.349 181.681 23.2336 181.665 23.1249 181.693C23.0161 181.721 22.9224 181.79 22.8637 181.886C22.4163 182.685 22.2195 183.599 22.2987 184.511C21.6965 184.412 21.1111 184.229 20.5597 183.967C20.5717 183.92 20.5737 183.951 20.5867 183.913C21.1457 182.123 22.5157 180.297 24.5867 180.369C26.5307 180.439 28.0207 182.048 29.2237 183.552C28.1412 183.897 27.041 184.182 25.9277 184.408Z" fill="#FE744F"/>
<path d="M36.1089 128.097C37.9599 124.366 42.0319 115.921 43.1369 111.716C43.3442 110.539 43.3129 109.332 43.0447 108.167C42.7766 107.002 42.2771 105.903 41.5759 104.934C37.8509 106.292 35.6139 105.457 34.4299 104.598C27.1959 111.365 25.7509 108.424 21.9479 111.641C22.0261 111.604 22.1062 111.571 22.1879 111.541C22.7109 111.36 22.9329 112.184 22.4169 112.358C21.4455 112.745 20.5746 113.346 19.8699 114.118C19.1917 115.209 18.68 116.394 18.3519 117.635C17.927 119.207 17.727 120.831 17.7579 122.458C17.7639 122.646 17.9449 123.644 18.1099 124.571C20.6169 123.825 21.9599 120.817 22.8309 118.365C23.2129 117.401 23.3969 116.369 23.3719 115.331C23.3359 114.784 24.1879 114.791 24.2189 115.331C24.3479 117.516 22.2749 124.386 18.2499 125.423L18.4849 126.753C16.5279 128.532 14.9823 130.716 13.9559 133.153C9.45586 129.068 6.81886 117.707 11.9489 108.188C11.9959 108.099 12.0101 107.997 11.9889 107.898C11.9677 107.8 11.9125 107.712 11.8329 107.65C11.7534 107.588 11.6547 107.557 11.5541 107.561C11.4534 107.565 11.3574 107.604 11.2829 107.671C7.55186 110.571 5.85186 115.271 5.26286 119.812C4.25086 127.56 6.05686 135.734 12.5499 139.784C12.4439 142.968 12.7569 146.151 13.4809 149.252C13.1079 157.652 17.7529 166.136 17.1929 174.361C17.1569 175.032 17.1559 175.048 16.5619 175.334C15.8139 175.7 15.182 176.265 14.7367 176.969C14.2914 177.672 14.0501 178.485 14.0399 179.317C14.2399 180.701 17.3969 180.957 18.7129 180.489C22.2479 179.229 22.6129 174.6 22.8849 170.858C22.6768 169.976 22.4491 169.099 22.2019 168.226C22.1446 169.283 22.0779 170.339 22.0019 171.394C21.7629 174.473 21.4339 178.578 18.5019 179.647C18.5019 178.116 19.4329 177.735 18.8079 177.395C18.7099 177.342 18.5952 177.327 18.487 177.355C18.3788 177.383 18.2851 177.45 18.2249 177.544C17.7607 178.215 17.5698 179.038 17.6909 179.844C17.2536 179.907 16.809 179.895 16.3759 179.808C16.3481 179.78 16.3177 179.753 16.2849 179.73C16.3071 178.95 16.5601 178.193 17.0119 177.555C17.0691 177.458 17.0855 177.342 17.0573 177.233C17.029 177.124 16.9586 177.03 16.8614 176.973C16.7642 176.916 16.6482 176.899 16.5389 176.928C16.4297 176.956 16.3361 177.026 16.2789 177.123C15.7761 177.842 15.4829 178.687 15.4319 179.562C14.8659 179.373 14.8589 179.235 14.9269 178.853C15.0224 178.309 15.2347 177.793 15.549 177.338C15.8634 176.884 16.2724 176.503 16.7479 176.222C17.6059 175.722 17.9649 175.734 18.0629 174.492C18.6049 167.192 15.0059 159.609 14.4239 152.224C15.4077 155.017 17.1402 157.485 19.4319 159.359C19.0319 158.207 18.6399 157.139 18.3319 156.453C18.1089 155.961 18.8419 155.528 19.0649 156.027C19.9089 157.82 21.7269 163.627 22.2909 165.547C24.0739 171.69 25.0459 174.834 23.8519 179.598C26.1889 179.313 27.8919 180.773 29.4089 182.529C30.041 173.686 30.0931 164.811 29.5649 155.96C29.5299 155.417 30.3809 155.42 30.4179 155.96C30.5019 157.294 30.6339 160.592 30.6459 160.904C31.2851 160.72 31.8955 160.447 32.4599 160.094C32.4906 160.076 32.5245 160.063 32.5599 160.057C31.5179 156.234 31.1179 149.108 34.8309 147.719C35.3683 147.495 35.9618 147.441 36.5311 147.564C37.1003 147.688 37.6179 147.983 38.0139 148.41C38.3569 148.83 37.7569 149.438 37.4139 149.01C37.0269 148.613 36.5028 148.379 35.9489 148.356C35.3949 148.332 34.853 148.521 34.4339 148.884C33.4609 149.844 32.8917 151.14 32.8429 152.505C32.3538 156.423 33.1169 160.396 35.0229 163.853C35.5111 164.738 36.0738 165.58 36.7049 166.369C37.0479 166.721 37.3749 166.357 37.7799 165.854C36.8796 165.19 36.2114 164.258 35.8699 163.192C35.8395 163.084 35.8534 162.968 35.9085 162.87C35.9637 162.772 36.0555 162.7 36.1639 162.669C36.2722 162.639 36.3882 162.653 36.4862 162.708C36.5843 162.763 36.6565 162.855 36.6869 162.963C36.7289 163.083 36.7709 163.21 36.8189 163.33C37.1353 164.057 37.634 164.691 38.2669 165.168C38.5192 164.786 38.7479 164.389 38.9519 163.979C38.1849 163.391 37.5681 162.629 37.1519 161.756C36.8879 161.192 37.6679 160.864 37.8849 161.324C38.2069 162.003 39.0529 163.151 39.3089 163.151C39.8406 161.886 39.8706 160.466 39.3929 159.179C38.9159 157.979 37.0079 155.421 37.8489 151.19C37.9489 150.656 38.7739 150.884 38.6659 151.418C38.5548 151.987 38.4975 152.564 38.4949 153.143C39.0206 151.933 39.3695 150.653 39.5309 149.343C39.7899 145.498 38.9059 135.863 36.2879 131.4L36.2749 131.424C36.2749 131.424 29.8359 134.511 18.1879 131.112C18.1879 131.112 18.0449 128.504 18.9809 127.496C18.9769 127.483 27.8139 131.573 36.1089 128.097ZM38.7919 112.818C38.7919 112.818 38.1159 116.774 36.3799 116.774C34.6439 116.774 34.1599 112.05 34.1599 112.05C34.8245 112.518 35.5862 112.83 36.3883 112.963C37.1903 113.096 38.0119 113.046 38.7919 112.816V112.818ZM29.2439 110.597C29.4541 110.598 29.6595 110.66 29.8342 110.777C30.0088 110.894 30.1449 111.06 30.2252 111.254C30.3055 111.449 30.3264 111.662 30.2853 111.868C30.2442 112.075 30.1429 112.264 29.9942 112.412C29.8455 112.561 29.656 112.662 29.4499 112.703C29.2437 112.744 29.03 112.723 28.8358 112.642C28.6417 112.562 28.4757 112.426 28.3589 112.251C28.2422 112.076 28.1799 111.871 28.1799 111.66C28.1796 111.521 28.2069 111.382 28.2603 111.253C28.3137 111.124 28.3921 111.007 28.491 110.908C28.5898 110.809 28.7072 110.731 28.8364 110.677C28.9657 110.624 29.1041 110.597 29.2439 110.597ZM12.6009 138.806C8.30086 135.89 5.07586 129.906 6.00586 120.725C6.40586 116.761 7.60586 112.749 10.2529 109.798C6.17086 119.479 9.00086 129.973 13.6249 133.97C13.0555 135.526 12.7107 137.154 12.6009 138.806ZM18.8719 132.612C16.5776 138.434 16.1629 144.828 17.6859 150.897C17.8179 151.425 17.0009 151.653 16.8689 151.125C15.3026 144.907 15.7162 138.355 18.0519 132.383C18.2509 131.883 19.0669 132.108 18.8689 132.612H18.8719Z" fill="#FE744F"/>
<path d="M85.0358 89.7202C75.3147 91.9444 65.2216 91.9874 55.4818 89.8462C52.1178 98.6702 45.1498 125.056 57.4098 172.186C57.4098 172.186 58.9298 175.226 68.9098 173.057L70.3338 108.579L71.2048 108.531L76.5048 173.394C80.3939 174.918 84.6947 175.029 88.6568 173.706C88.6568 173.706 96.8458 113.718 85.0358 89.7202ZM57.0078 101.646C55.972 102.451 54.7356 102.956 53.4328 103.106C53.3241 103.101 53.2215 103.054 53.1464 102.975C53.0713 102.896 53.0294 102.792 53.0294 102.683C53.0294 102.574 53.0713 102.469 53.1464 102.39C53.2215 102.311 53.3241 102.265 53.4328 102.259C54.03 102.235 54.6119 102.063 55.1268 101.759C56.5802 101.115 57.8337 100.092 58.7558 98.7972C59.8389 97.1908 60.2645 95.2301 59.9448 93.3192C59.8448 92.7842 60.6688 92.5592 60.7648 93.0942C61.0606 94.7317 60.861 96.4202 60.1918 97.9437C59.5225 99.4672 58.4139 100.756 57.0078 101.646ZM86.3158 102.599C84.3299 101.504 82.757 99.7892 81.8372 97.7163C80.9174 95.6434 80.7013 93.3265 81.2218 91.1192C81.3478 90.5852 82.1648 90.8132 82.0388 91.3472C81.5482 93.3735 81.7435 95.5052 82.5939 97.4087C83.4444 99.3121 84.9021 100.88 86.7388 101.866C87.2228 102.124 86.7948 102.859 86.3158 102.597V102.599ZM36.0548 128.097C27.7608 131.578 18.9228 127.484 18.9228 127.484C17.9798 128.5 18.1298 131.101 18.1298 131.101C29.7778 134.501 36.2168 131.413 36.2168 131.413C36.515 130.902 36.6661 130.319 36.6534 129.727C36.6407 129.136 36.4647 128.559 36.1448 128.061C36.1088 128.071 36.0848 128.083 36.0548 128.097Z" fill="#FFD35C"/>
<path d="M170.743 106.423C158.488 112.983 143.843 108.507 140.756 107.438C140.576 115.055 140.167 142.705 143.129 164.078C143.73 164.352 144.357 164.567 145 164.718C148.037 165.481 151.252 165.045 153.977 163.501L156 120.966L157.592 121.687L157.016 172.903C157.016 172.903 163.095 175.215 168.591 172.614C170.256 154.649 171.717 124.998 170.743 106.423Z" fill="#B2EACD"/>
<path d="M180.27 93.3977C180.108 93.0127 179.356 91.2287 179.302 91.0977C179.088 90.5977 177.996 91.0527 186.944 86.1907C187.406 87.2537 187.844 88.3347 188.244 89.4217C185.714 90.9892 183.045 92.3201 180.27 93.3977Z" fill="#76D3DE"/>
<path d="M174.301 65.8124C173.962 66.8344 173.066 68.4414 172.007 68.2214C170.971 67.9994 170.857 66.3534 171.118 65.2414C170.631 66.4724 169.557 66.6834 169.004 66.2204C168.265 65.5874 168.588 63.7564 168.95 62.8324C168.672 63.369 168.285 63.8417 167.814 64.2204C167.574 64.4037 167.284 64.5088 166.982 64.5217C166.68 64.5346 166.382 64.4545 166.127 64.2924C165.209 63.5754 165.603 61.4234 166.042 60.3404C165.513 60.5563 164.93 60.6024 164.373 60.4724C164.187 60.4351 164.015 60.3475 163.875 60.2191C163.736 60.0907 163.634 59.9265 163.581 59.7443C163.528 59.562 163.527 59.3688 163.576 59.1857C163.625 59.0025 163.724 58.8364 163.861 58.7054C162.17 58.0563 160.403 57.6245 158.603 57.4204C158.65 57.4688 158.683 57.5288 158.699 57.5942C158.715 57.6596 158.713 57.728 158.693 57.7924C157.46 62.2614 151.408 64.4444 149.83 58.3364C149.822 58.295 149.819 58.2525 149.823 58.2104C148.269 58.8745 146.816 59.7552 145.508 60.8264C142.201 62.8974 137.739 65.9974 132.689 69.9504C132.697 71.1124 132.583 76.5744 132.461 81.9314L137.816 78.6464C137.737 78.6235 137.666 78.5778 137.612 78.5152C137.559 78.4525 137.524 78.3755 137.514 78.2937C137.503 78.2118 137.517 78.1286 137.553 78.0543C137.589 77.98 137.645 77.9178 137.716 77.8754C138.927 77.2893 140.099 76.6273 141.225 75.8934C141.329 75.86 141.44 75.8588 141.545 75.8898C141.649 75.9209 141.742 75.9828 141.81 76.0674C142.045 76.3974 141.747 79.2864 141.71 79.6534C141.709 79.7608 141.666 79.8637 141.592 79.9415C141.518 80.0193 141.418 80.0664 141.31 80.0734C141.025 88.5914 140.169 98.7224 140.169 107.233C149.278 110.793 162.28 111.274 171.422 106.079L170.942 76.9514C170.942 76.9514 175.627 84.7424 178.426 90.2694C178.956 89.5064 186.667 85.3624 186.986 85.2024C184.77 80.2464 180.501 72.0474 174.301 65.8124Z" fill="#76D3DE"/>
<path d="M81.2341 55.6905C79.0565 54.4955 76.688 53.6875 74.2341 53.3025C74.2492 53.8228 74.146 54.3398 73.9322 54.8145C73.7185 55.2891 73.3997 55.709 72.9999 56.0425C72.6002 56.376 72.13 56.6143 71.6247 56.7396C71.1194 56.8648 70.5923 56.8737 70.0831 56.7655C67.6661 56.7405 66.0891 55.7775 65.7641 53.4015C64.0895 53.6732 62.449 54.1245 60.8711 54.7475C60.7861 55.4185 60.0771 56.0075 58.7931 55.6905C58.6781 55.7505 58.5701 55.8015 58.4561 55.8615C58.8151 56.8935 59.1371 58.8425 58.2701 59.5205C58.0155 59.6837 57.7168 59.7643 57.4147 59.7514C57.1126 59.7386 56.8218 59.6328 56.5821 59.4485C56.1094 59.0718 55.7224 58.5986 55.4471 58.0605C55.7971 58.9605 56.1381 60.8345 55.3931 61.4485C54.8671 61.8955 53.7831 61.7485 53.2781 60.4695C53.9011 62.9975 52.2081 64.6975 50.7511 62.3675C48.7546 64.8528 46.916 67.4609 45.2461 70.1765C54.2961 73.7815 53.7121 73.4765 53.8331 73.7235L54.5211 74.0145L56.3411 70.8555C57.0882 77.1571 55.9977 83.5403 53.2011 89.2365C61.2071 91.8165 74.6081 92.4365 87.0621 89.2365C87.0621 89.2365 83.1621 82.2745 84.1251 70.2665L86.1491 72.1825C86.3401 72.0265 86.3141 72.0765 86.2941 71.9725C86.2031 71.6575 85.9611 72.0295 91.3751 66.7945C91.4323 66.7395 91.5034 66.7012 91.5807 66.6836C91.6581 66.666 91.7387 66.6697 91.8141 66.6945C91.9736 66.4725 92.1103 66.235 92.2221 65.9855C89.4284 61.7304 85.6619 58.2014 81.2341 55.6905Z" fill="#FCAFB7"/>
<path d="M193.645 106.484C192.955 106.449 192.645 105.625 192.414 105.084C192.371 105.013 192.309 104.955 192.234 104.919C192.16 104.883 192.076 104.869 191.994 104.88C191.911 104.89 191.834 104.925 191.771 104.979C191.708 105.033 191.662 105.104 191.639 105.184C191.406 106.537 192.517 107.741 191.783 108.512C191.083 109.245 190.191 106.266 190.089 105.857C189.952 105.323 189.177 105.551 189.272 106.086C189.421 106.896 189.417 107.727 189.26 108.536C189.084 109.436 188.952 110.009 188.377 109.036C187.762 107.544 187.436 105.949 187.416 104.336C187.411 104.227 187.364 104.124 187.285 104.049C187.206 103.974 187.101 103.932 186.992 103.932C186.884 103.932 186.779 103.974 186.7 104.049C186.621 104.124 186.574 104.227 186.569 104.336C186.469 106.115 185.142 107.47 184.755 107.322C184.368 107.174 184.371 106.397 184.371 106.079C184.386 104.308 185.344 102.334 185.031 100.204C184.651 97.5198 183.576 95.7458 182.593 93.3438C184.309 92.6136 185.979 91.7787 187.593 90.8438C190.383 95.9238 190.918 99.9438 193.685 104.936C193.901 105.325 194.607 106.533 193.645 106.484ZM162.712 40.1848C162.331 37.9281 161.806 35.6979 161.141 33.5078C156.366 38.4998 153.041 36.3308 150.365 37.2688C147.689 38.2068 149.572 42.9808 149.572 42.9808C146.59 42.0488 143.856 42.2058 143.856 45.3028C143.856 46.6838 146.337 46.9428 147.717 46.9728C147.545 46.3928 146.829 46.5548 146.962 45.9728C147.153 45.1368 148.983 46.1898 148.549 47.6078L149.792 52.7488C149.739 54.4576 149.922 56.1655 150.338 57.8238C150.346 57.8548 150.573 57.8678 150.638 58.1238C151.199 60.2548 152.501 61.7428 154.519 61.1238C155.326 60.8447 156.053 60.3743 156.638 59.7527C157.223 59.1311 157.649 58.3769 157.879 57.5548C158.159 55.8359 158.116 54.0798 157.751 52.3768C158.295 52.8668 161.282 51.1938 161.523 51.0138C164.301 48.9548 163.186 43.0688 162.712 40.1848ZM147.965 45.2728C147.609 44.8972 147.161 44.6214 146.665 44.4728C146.559 44.4388 146.47 44.366 146.415 44.269C146.361 44.172 146.345 44.058 146.371 43.9498C146.403 43.8432 146.475 43.7531 146.573 43.6984C146.67 43.6436 146.784 43.6284 146.892 43.6558C147.524 43.8513 148.097 44.2 148.562 44.6708C148.954 45.0888 148.347 45.6718 147.965 45.2728ZM153.984 41.8158C153.77 42.3838 152.984 42.0708 153.168 41.5878C153.329 41.0978 153.621 40.6614 154.013 40.3263C154.405 39.9913 154.881 39.7704 155.39 39.6878C155.496 39.6628 155.608 39.6799 155.703 39.7356C155.797 39.7913 155.866 39.8812 155.895 39.9865C155.925 40.0918 155.912 40.2045 155.861 40.3009C155.809 40.3973 155.722 40.47 155.618 40.5038C154.71 40.7988 154.326 40.9628 153.984 41.8158ZM155.339 42.2448C155.801 42.3898 156.258 42.5398 156.72 42.6898C156.828 42.7213 156.919 42.7934 156.975 42.8909C157.031 42.9884 157.047 43.1038 157.02 43.2128C156.989 43.3209 156.917 43.4124 156.819 43.4675C156.721 43.5226 156.605 43.5367 156.497 43.5068C156.035 43.3618 155.578 43.2128 155.116 43.0628C155.015 43.0272 154.93 42.9546 154.88 42.8594C154.83 42.7642 154.818 42.6537 154.847 42.55C154.875 42.4463 154.941 42.3571 155.033 42.3005C155.124 42.2439 155.234 42.224 155.339 42.2448ZM160.057 48.6608C159.688 48.8486 159.283 48.9562 158.869 48.9768C158.455 48.9973 158.041 48.9302 157.655 48.78C157.269 48.6297 156.919 48.3996 156.628 48.1047C156.337 47.8099 156.111 47.4569 155.966 47.0688C155.909 46.9716 155.892 46.8556 155.921 46.7464C155.949 46.6372 156.019 46.5436 156.116 46.4863C156.214 46.429 156.33 46.4127 156.439 46.4409C156.548 46.4691 156.642 46.5396 156.699 46.6368C156.788 46.9266 156.939 47.1938 157.141 47.42C157.342 47.6463 157.591 47.8263 157.868 47.9477C158.146 48.0691 158.447 48.1291 158.75 48.1236C159.053 48.1181 159.352 48.0473 159.625 47.9158C159.723 47.8643 159.838 47.8528 159.945 47.8837C160.051 47.9145 160.142 47.9854 160.198 48.0815C160.253 48.1776 160.27 48.2915 160.244 48.3994C160.217 48.5073 160.151 48.601 160.057 48.6608ZM160.292 37.7608C161.165 37.0268 162.505 37.5958 162.166 38.2348C161.999 38.5488 161.474 38.4418 160.592 38.4868C160.509 38.4851 160.428 38.4594 160.36 38.4127C160.292 38.3659 160.238 38.3003 160.206 38.2237C160.174 38.1472 160.166 38.063 160.181 37.9815C160.196 37.9 160.235 37.8247 160.292 37.7648V37.7608ZM162.67 40.6048C162.562 40.9108 162.454 41.2108 162.346 41.5118C162.314 41.6206 162.241 41.7126 162.142 41.7676C162.043 41.8227 161.926 41.8364 161.817 41.8058C161.709 41.7724 161.619 41.6988 161.564 41.6003C161.509 41.5017 161.494 41.3859 161.523 41.2768C161.631 40.9708 161.735 40.6688 161.847 40.3698C161.879 40.2607 161.952 40.1686 162.052 40.1138C162.152 40.0591 162.269 40.0461 162.378 40.0778C162.487 40.1095 162.579 40.1833 162.634 40.2828C162.689 40.3824 162.702 40.4997 162.67 40.6088V40.6048Z" fill="#FFCEB6"/>
<path d="M58.3826 177.424C60.9482 179.698 63.2421 182.261 65.2186 185.062C65.2186 185.062 67.7186 181.588 67.0506 178.404C67.0506 178.404 62.7556 175.364 58.3826 177.424Z" fill="#97A0B2"/>
<path d="M91.6637 67.6982C91.5637 67.7982 88.6537 70.5982 87.3086 71.9032L92.0547 76.8112C92.1097 73.9602 92.2377 70.9902 92.3847 68.4552L91.6637 67.6982ZM70.2727 55.9222C67.5087 55.9402 66.0576 54.9062 66.7286 50.4802C67.7341 50.9583 68.8283 51.2212 69.9412 51.2522C71.054 51.2832 72.1611 51.0816 73.1917 50.6602C73.7427 53.8042 73.4907 55.8892 70.2727 55.9222Z" fill="#FFCEB6"/>
<path d="M77.2637 43.097C76.9397 43.055 76.8077 43.379 76.8797 43.637C76.5226 45.0945 75.988 46.5027 75.2877 47.83C74.4627 48.9753 73.2782 49.8116 71.9228 50.2057C70.5675 50.5999 69.1192 50.5292 67.8087 50.005C63.1467 48.411 63.8977 44.165 63.6217 42.772C63.6028 42.7015 63.5656 42.6372 63.514 42.5856C63.4624 42.534 63.3982 42.4969 63.3277 42.478C62.0597 42.147 60.6367 41.03 60.5767 39.618C60.5627 39.2527 60.6537 38.8911 60.8389 38.576C61.0241 38.2609 61.2958 38.0054 61.6217 37.84C62.3547 37.528 62.9307 38.567 63.2077 39.084C63.251 39.1541 63.3137 39.2102 63.3881 39.2456C63.4626 39.281 63.5456 39.2943 63.6274 39.2837C63.7092 39.2732 63.7862 39.2393 63.8492 39.1861C63.9122 39.133 63.9585 39.0628 63.9827 38.984C64.1594 37.8971 64.3931 36.8203 64.6827 35.758C67.3267 35.818 70.3297 35.271 72.2337 33.325C72.3426 34.2528 72.6345 35.1499 73.0924 35.9642C73.5504 36.7785 74.1653 37.4939 74.9017 38.069C74.6291 37.881 74.3125 37.7669 73.9827 37.738C73.87 37.7395 73.7624 37.785 73.6828 37.8648C73.6032 37.9446 73.558 38.0523 73.5567 38.165C73.5927 38.816 74.5017 38.42 74.8477 39.252C75.1477 39.827 76.3617 39.201 74.9857 38.135C75.6437 38.6804 76.3735 39.133 77.1547 39.48C77.1307 39.78 77.1127 40.08 77.0887 40.369C77.0587 40.778 77.5567 40.88 77.8157 40.669C78.3215 40.2269 78.9037 39.8809 79.5337 39.648C80.2637 39.416 80.6167 39.572 80.8247 40.308C81.3547 42.412 78.9507 43.311 77.2637 43.097ZM36.9447 97.442C35.4488 98.8824 33.6333 99.9484 31.6466 100.553C29.6599 101.157 27.5583 101.283 25.5137 100.92C23.7967 100.653 24.6817 100.299 25.5017 100.259C25.7963 100.257 26.0887 100.207 26.3667 100.109C26.4449 100.084 26.5144 100.037 26.567 99.9744C26.6196 99.9115 26.6532 99.8347 26.6637 99.7533C26.6742 99.6719 26.6612 99.5892 26.6263 99.5149C26.5914 99.4406 26.536 99.3778 26.4667 99.334C25.6237 98.769 24.1877 98.962 24.0757 98.09C24.0217 97.64 24.9827 97.802 25.2417 97.802C25.9257 97.802 26.6047 97.796 27.2897 97.796C27.3909 97.7933 27.4879 97.7546 27.5633 97.687C27.6387 97.6194 27.6876 97.5272 27.7013 97.4269C27.715 97.3265 27.6926 97.2246 27.6381 97.1392C27.5835 97.0539 27.5005 96.9907 27.4037 96.961C26.6237 96.6513 25.9192 96.178 25.3377 95.573C25.1817 95.411 24.7187 95.045 25.0607 94.889C27.2869 94.6972 29.5227 95.1275 31.5187 96.132C31.9187 96.324 32.4377 95.79 32.0357 95.465C30.3437 94.105 29.8237 92.327 31.6267 93.08C33.1483 93.8533 34.5606 94.8251 35.8267 95.97C36.2347 96.336 36.8357 95.736 36.4267 95.37C35.2612 94.3353 33.9953 93.4198 32.6477 92.637C46.5157 70.845 46.1477 71.537 46.1697 71.498C48.2477 72.315 52.6817 74.063 52.8257 74.117C43.7707 88.263 41.2277 93.678 36.9447 97.442Z" fill="#FFCEB6"/>
<path d="M164.63 29.9531C164.72 29.2531 164.166 28.4341 163.482 28.5661C163.182 28.6271 163.182 28.6721 160.557 30.3981C161.028 29.6549 161.288 28.797 161.308 27.9171C161.248 27.0401 160.508 26.1571 159.638 26.2771C157.998 26.5051 156.865 30.2611 151.546 31.9901C148.8 32.8851 143.939 33.1251 144.158 38.5131C144.278 39.9812 144.628 41.4213 145.194 42.7811C146.065 42.3611 147.435 42.3131 149.573 42.9811C149.573 42.9811 147.693 38.2061 150.366 37.2691C153.039 36.3321 156.373 38.5001 161.142 33.5081C161.275 33.9351 161.395 34.3611 161.515 34.7941C162.353 33.8854 163.075 32.8752 163.662 31.7871C164.128 31.2632 164.46 30.6338 164.63 29.9531Z" fill="#C17E48"/>
<path d="M137.519 64.8362L138.195 65.8003C142.971 62.3493 144.443 61.5903 146.184 60.3003L144.421 57.8402C141.879 59.9205 139.565 62.2657 137.519 64.8362ZM82.6012 54.2103L81.2382 55.6903C84.3133 57.4068 87.0685 59.6421 89.3822 62.2972L89.6382 61.9972C86.8713 59.8157 84.4923 57.1831 82.6012 54.2103ZM60.2512 53.7052C59.6912 53.3462 58.1132 53.5432 57.4512 53.5852L57.2512 53.5972C56.1076 53.2503 54.8847 53.2656 53.7502 53.641C52.6156 54.0163 51.625 54.7335 50.914 55.694C50.2031 56.6546 49.8067 57.8115 49.7791 59.0062C49.7516 60.201 50.0942 61.3749 50.7602 62.3672C52.1752 64.6312 53.9101 63.1393 53.2891 60.4673C53.7781 61.7013 54.8532 61.9062 55.4042 61.4463C56.1422 60.8133 55.8192 58.9813 55.4582 58.0583C55.7355 58.5951 56.1221 59.0679 56.5932 59.4463C56.8335 59.6292 57.1241 59.7341 57.4259 59.747C57.7276 59.7599 58.0261 59.68 58.2812 59.5182C59.2112 58.7922 58.7862 56.6813 58.3682 55.5653C58.8973 55.7782 59.4786 55.8252 60.0352 55.7002C60.2528 55.654 60.4502 55.5403 60.5993 55.3752C60.7485 55.2101 60.8416 55.0021 60.8656 54.781C60.8895 54.5598 60.843 54.3367 60.7327 54.1435C60.6223 53.9504 60.4538 53.797 60.2512 53.7052ZM120.39 28.3762C119.981 28.3617 119.573 28.4394 119.198 28.6037C118.823 28.768 118.489 29.0146 118.222 29.3252C118.095 28.3098 117.951 27.2967 117.789 26.2862C117.368 23.6972 114.944 22.4862 112.329 22.2972C110.177 22.0331 107.996 22.1472 105.883 22.6342C104.527 22.849 103.279 23.5007 102.327 24.4902C101.054 26.0272 101.204 28.2502 101.408 30.2382C101.498 31.0672 101.847 34.3082 101.931 35.1072C107.103 40.2372 113.368 37.7072 118.498 32.5722L118.522 32.5482C118.54 32.5482 118.552 32.5422 118.564 32.5422C122.53 32.0662 122.53 28.3762 120.39 28.3762ZM173.601 60.6133C172.885 59.6265 171.884 58.8827 170.733 58.482C169.581 58.0814 168.335 58.0431 167.161 58.3722C165.177 58.2562 164.509 58.1032 163.861 58.7052C163.724 58.8364 163.626 59.0025 163.577 59.1856C163.527 59.3686 163.529 59.5617 163.582 59.7438C163.635 59.9259 163.737 60.09 163.876 60.2184C164.015 60.3469 164.187 60.4346 164.373 60.4722C164.93 60.6022 165.513 60.5561 166.042 60.3402C165.606 61.4212 165.208 63.5762 166.127 64.2922C166.381 64.4558 166.68 64.5366 166.982 64.5237C167.284 64.5109 167.575 64.4048 167.814 64.2202C168.287 63.8435 168.674 63.3703 168.95 62.8322C168.598 63.7323 168.26 65.6082 169.004 66.2202C169.528 66.6662 170.613 66.5203 171.118 65.2413C170.527 67.6623 172.038 69.3162 173.467 67.4282C174.182 66.4417 174.578 65.26 174.602 64.0418C174.626 62.8235 174.277 61.6271 173.601 60.6133Z" fill="#9B6868"/>
<path d="M102.326 24.4904C103.278 23.5013 104.527 22.8496 105.882 22.6344C108.715 21.9804 113.291 21.8614 115.812 23.3434C116.337 23.6589 116.787 24.0862 117.128 24.5948C117.47 25.1034 117.695 25.6809 117.788 26.2864C117.95 27.2954 118.095 28.3114 118.221 29.3254C119.047 28.3694 120.827 27.9494 121.534 28.9204C122.064 28.3677 122.392 27.6522 122.465 26.89C122.537 26.1277 122.35 25.3633 121.934 24.7204C121.729 24.514 121.598 24.2459 121.561 23.9574C121.576 23.5894 122.661 21.5704 121.441 19.4944C121.091 18.8846 120.57 18.3907 119.942 18.0736C119.315 17.7566 118.608 17.6303 117.909 17.7104C117.812 17.112 117.501 16.5694 117.032 16.1844C116.032 15.0825 114.675 14.368 113.2 14.1664C112.466 14.0874 111.726 14.2568 111.098 14.6476C110.471 15.0384 109.993 15.6281 109.74 16.3224C107.06 13.6514 102.531 14.5834 101.558 16.4604C101.43 16.6925 101.369 16.9553 101.381 17.22C101.393 17.4847 101.478 17.7409 101.626 17.9604C100.926 17.1264 99.5193 17.3404 98.5733 17.9334C96.5333 19.2154 96.4463 21.1674 97.4203 22.1024C97.6963 22.3664 98.0803 22.5824 98.1653 22.9554C98.1799 23.1563 98.1317 23.3568 98.0272 23.529C97.9227 23.7012 97.7672 23.8366 97.5823 23.9164C97.2273 24.1034 96.8193 24.1744 96.4593 24.3494C96.1831 24.5129 95.944 24.7322 95.7571 24.9931C95.5702 25.2541 95.4397 25.5511 95.3739 25.8653C95.3081 26.1794 95.3083 26.5039 95.3747 26.8179C95.441 27.132 95.572 27.4287 95.7593 27.6894C96.1792 28.1874 96.7586 28.5246 97.399 28.6439C98.0394 28.7631 98.7013 28.6569 99.2723 28.3434C98.8405 28.7298 98.5521 29.2508 98.4541 29.8219C98.356 30.3929 98.454 30.9804 98.7321 31.4886C99.0102 31.9969 99.4522 32.3962 99.986 32.6215C100.52 32.8467 101.114 32.8848 101.672 32.7294C101.319 29.4704 100.746 26.3974 102.326 24.4904ZM118.521 32.5484C113.389 37.6794 107.121 40.2584 101.93 35.1074C102.309 38.6384 102.323 38.7674 102.359 39.5464C102.433 41.2244 102.515 43.4904 103.818 44.3104C105.598 45.4324 110.176 45.3994 112.324 44.9654C114.59 44.5084 117.562 43.3314 118.578 41.0784C118.816 40.5272 118.948 39.9364 118.968 39.3364C118.991 38.8224 118.66 32.5484 118.521 32.5484ZM115.31 39.1324C115.271 39.6715 115.043 40.1795 114.666 40.5672C114.289 40.9548 113.788 41.1975 113.25 41.2524C112.538 41.4191 111.791 41.3627 111.111 41.091C110.432 40.8194 109.852 40.3454 109.45 39.7334C110.557 39.8127 111.666 39.6204 112.682 39.1732C113.697 38.726 114.588 38.0374 115.276 37.1674C115.4 37.8156 115.412 38.4803 115.31 39.1324Z" fill="#C17E48"/>
<path d="M145 164.717C144.052 166.06 142.043 172.794 144.018 177.346C145.118 179.881 147.838 181.263 149.754 178.656C150.769 177.274 150.654 175.598 150.754 173.97C151.238 166.36 151.409 165.761 150.983 164.72C149.019 165.207 146.965 165.206 145 164.717ZM124.724 172.565C122.982 173.902 122.724 176.36 123.024 176.89C120.263 177.936 119.594 180.63 121.102 181.353C121.773 181.674 125.293 181.553 125.968 181.533C132.44 181.354 133.114 181.433 133.086 178.278C133.016 172.548 127.948 170.097 124.724 172.565ZM127.318 180.638C125.888 180.705 124.459 180.731 123.029 180.716C122.097 180.7 121.513 180.76 121.287 180.422C121.204 180.229 121.171 180.017 121.192 179.807C121.213 179.597 121.287 179.396 121.407 179.222C121.754 178.725 122.201 178.305 122.72 177.989C123.238 177.674 123.816 177.469 124.417 177.389C125.968 177.184 127.543 177.26 129.066 177.612C129.157 177.628 129.251 177.616 129.334 177.576C129.417 177.536 129.486 177.472 129.531 177.391C129.576 177.31 129.595 177.218 129.584 177.126C129.574 177.035 129.536 176.948 129.474 176.879C129.773 176.871 130.071 176.918 130.352 177.017C130.461 177.045 130.575 177.03 130.673 176.976C130.77 176.921 130.842 176.83 130.874 176.723C131.151 175.74 128.437 175.958 127.18 176.523C126.066 176.395 124.939 176.444 123.84 176.667C123.775 176.1 123.838 175.525 124.025 174.985C124.213 174.445 124.519 173.954 124.922 173.549C127.286 171.238 131.512 172.742 132.172 177.226C132.681 180.947 131.642 180.422 127.318 180.638ZM120.5 142.987C123.517 143.748 126.674 143.769 129.7 143.047C130.235 142.921 130.009 142.098 129.475 142.229C126.596 142.92 123.593 142.899 120.723 142.17C120.617 142.147 120.506 142.166 120.413 142.222C120.32 142.278 120.252 142.368 120.224 142.473C120.195 142.578 120.208 142.69 120.259 142.785C120.311 142.881 120.397 142.954 120.5 142.987ZM112.283 29.4194C112.373 29.4614 112.47 29.4852 112.569 29.4893C112.669 29.4934 112.767 29.4778 112.86 29.4434C113.288 29.3744 113.727 29.4274 114.127 29.5963C114.526 29.7652 114.87 30.0432 115.118 30.3984C115.178 30.4909 115.271 30.5567 115.378 30.5821C115.485 30.6074 115.598 30.5903 115.693 30.5343C115.788 30.4783 115.857 30.3878 115.887 30.2817C115.916 30.1757 115.904 30.0623 115.851 29.9654C115.457 29.4109 114.911 28.9831 114.277 28.7344C113.937 28.5836 113.566 28.5141 113.194 28.5314C112.821 28.5488 112.458 28.6525 112.133 28.8344C112.076 28.932 112.06 29.0483 112.088 29.1579C112.116 29.2675 112.186 29.3616 112.283 29.4194ZM103.11 32.0084C103.293 31.9324 104.133 30.3804 105.759 30.3804C105.872 30.3779 105.979 30.3321 106.059 30.2526C106.138 30.173 106.184 30.0659 106.186 29.9534C106.186 29.1644 104.021 29.5414 102.893 30.9534C102.521 31.4044 102.371 31.5974 102.515 31.8424C102.577 31.9382 102.672 32.0079 102.781 32.0385C102.891 32.0691 103.008 32.0584 103.11 32.0084ZM105.585 33.7804C105.579 33.6191 105.51 33.4666 105.394 33.3547C105.277 33.2429 105.122 33.1804 104.961 33.1804C104.799 33.1804 104.644 33.2429 104.528 33.3547C104.411 33.4666 104.343 33.6191 104.336 33.7804C104.343 33.9417 104.411 34.0943 104.528 34.2061C104.644 34.318 104.799 34.3804 104.961 34.3804C105.122 34.3804 105.277 34.318 105.394 34.2061C105.51 34.0943 105.579 33.9417 105.585 33.7804ZM113.01 31.6084C112.845 31.6084 112.686 31.6743 112.568 31.7915C112.451 31.9087 112.385 32.0677 112.385 32.2334C112.385 32.3992 112.451 32.5582 112.568 32.6754C112.686 32.7926 112.845 32.8584 113.01 32.8584C113.176 32.8584 113.335 32.7926 113.452 32.6754C113.57 32.5582 113.635 32.3992 113.635 32.2334C113.635 32.0677 113.57 31.9087 113.452 31.7915C113.335 31.6743 113.176 31.6084 113.01 31.6084ZM110.385 35.2694C110.694 35.1664 110.978 35.0006 111.22 34.7826C111.462 34.5646 111.656 34.299 111.79 34.0024C111.82 33.8937 111.806 33.7776 111.75 33.6796C111.694 33.5816 111.602 33.5098 111.493 33.4799C111.384 33.4501 111.268 33.4647 111.17 33.5205C111.072 33.5763 111 33.6687 110.97 33.7774C110.896 33.9381 110.775 34.0721 110.622 34.1614C109.969 34.6104 109.737 34.7554 109.372 33.7614C108.965 32.6614 108.718 31.5081 108.64 30.3374C108.604 29.7964 107.751 29.7904 107.793 30.3374C107.916 32.2774 108.567 35.9974 110.385 35.2694ZM145.387 55.8554C142.257 51.9334 136.554 42.0824 125.918 39.4624C123.625 38.9653 121.298 38.6381 118.956 38.4834C118.973 38.7655 118.973 39.0484 118.956 39.3304C126.323 39.9144 131.268 41.2434 137.302 47.1694C139.839 49.6614 140.33 50.5124 143.188 54.3964C139.103 56.451 135.693 59.6342 133.362 63.5684C132.011 61.7914 132.331 61.6144 128.616 55.3754C128.559 55.2808 128.466 55.2126 128.359 55.1854C128.251 55.1582 128.137 55.1741 128.041 55.2298C127.946 55.2855 127.875 55.3765 127.846 55.4834C127.816 55.5902 127.83 55.7044 127.883 55.8014C129.127 57.8861 130.314 60.0028 131.445 62.1514C131.388 62.4924 131.903 63.9624 131.812 74.6094C131.812 75.1544 131.392 94.4535 131.229 94.9675C130.875 96.0555 126.285 97.7195 125.39 98.0185C116.458 100.996 105.147 100.347 96.0764 98.2715C94.8184 97.9715 94.5834 98.0275 94.2324 96.3784C92.5704 88.6504 92.7324 77.2404 93.1924 69.2994C93.6454 62.0534 93.7304 61.7314 94.5384 54.3664C94.5984 53.8254 93.7454 53.8254 93.6914 54.3664C93.5234 55.9034 93.3494 57.4474 93.1804 58.9854C90.4164 56.8924 85.6154 52.6584 84.2304 49.4464C89.5184 45.088 95.7278 41.9883 102.389 40.3814C102.381 40.2814 102.346 39.6424 102.341 39.5404C96.143 40.9855 90.3195 43.7225 85.2514 47.5724C83.9839 48.3556 82.894 49.3948 82.0514 50.6234C81.8215 50.9554 81.6767 51.3388 81.6296 51.7398C81.5825 52.1408 81.6347 52.5473 81.7814 52.9234C84.1714 56.9234 88.2614 61.9554 92.6544 63.6694C92.6334 63.8394 92.6084 63.9294 92.6964 64.0694C92.5964 65.1444 92.5164 66.2134 92.4444 67.2894C92.2814 67.1204 92.1254 66.9524 91.9634 66.7844C91.8815 66.7094 91.7745 66.6678 91.6634 66.6678C91.5523 66.6678 91.4453 66.7094 91.3634 66.7844C85.9684 72.0004 86.1904 71.6444 86.2814 71.9624C86.3524 72.2444 89.3114 75.1554 92.0244 78.0114C91.9564 83.6374 92.2054 91.5115 93.4904 97.0055C93.5261 97.4227 93.6834 97.8203 93.9427 98.1491C94.202 98.4779 94.552 98.7235 94.9494 98.8555C96.7144 99.5175 103.043 100.416 106.405 100.681C112.188 101.239 118.024 100.811 123.663 99.4145C126.302 98.7311 128.834 97.6901 131.19 96.3204C132.281 95.5535 132.127 94.6444 132.181 93.3475C132.211 92.5474 132.703 72.2084 132.681 69.9384C132.671 67.8653 132.584 65.7933 132.423 63.7264C133.27 64.8598 134.117 65.9871 134.964 67.1084C135.003 67.1707 135.057 67.2219 135.121 67.2575C135.185 67.2931 135.258 67.3117 135.331 67.3117C135.404 67.3117 135.476 67.2931 135.54 67.2575C135.605 67.2219 135.659 67.1707 135.697 67.1084C138.226 63.6837 141.15 60.5689 144.407 57.8284C146.035 56.5824 146.274 56.9254 145.387 55.8554ZM92.0554 76.8084C90.4716 75.1742 88.8896 73.5382 87.3094 71.9004C88.6604 70.6004 91.5624 67.8004 91.6644 67.6954L92.3854 68.4524C92.2234 71.2355 92.1133 74.0213 92.0554 76.8084ZM82.9004 53.0974C82.5004 52.4554 82.2504 52.2494 82.6844 51.3074C82.9074 50.8391 83.2172 50.4173 83.5974 50.0644C85.6294 54.4954 92.9834 59.8574 93.0834 59.9574C92.9834 60.9064 92.8724 61.8574 92.7714 62.8044C88.8194 61.1744 85.1624 56.7054 82.9004 53.0974ZM135.347 66.2104C134.873 65.5744 134.398 64.9434 133.918 64.3104C136.199 60.3383 139.606 57.1315 143.709 55.0954C144.069 55.5764 144.442 56.0514 144.827 56.5134C141.54 58.6974 137.753 63.0684 135.343 66.2114L135.347 66.2104Z" fill="#1D1D1B"/>
<path d="M97.1581 55.5797C96.9581 55.5237 96.4581 55.7287 96.4661 56.0797C96.6221 61.4607 96.1811 66.0117 99.4581 68.4477C102.24 70.5237 106.5 69.0087 107.758 63.4317C108.258 61.2317 108.684 58.0727 107.987 55.9317C107.958 55.8474 107.903 55.7743 107.831 55.722C107.759 55.6698 107.672 55.641 107.583 55.6396C107.494 55.6381 107.407 55.6642 107.333 55.7141C107.259 55.764 107.202 55.8354 107.17 55.9187C99.1001 55.8587 98.7001 56.0077 97.1581 55.5797ZM104.829 67.3297C104.24 67.9318 103.466 68.3197 102.631 68.4317C101.797 68.5437 100.948 68.3733 100.221 67.9477C97.0431 65.9707 97.5581 60.8967 97.4151 59.7307C100.743 60.2655 104.132 60.3019 107.471 59.8387C107.216 62.4977 106.684 65.6367 104.829 67.3297ZM107.315 56.7387C107.478 57.48 107.546 58.2392 107.515 58.9977C104.152 59.4663 100.737 59.4238 97.3871 58.8717C97.3631 58.0787 97.3451 57.2797 97.3221 56.4867C98.8472 56.727 100.393 56.8114 101.935 56.7387C105.732 56.7647 107.193 56.7917 107.315 56.7387ZM53.1621 175.708C49.1131 177.828 55.2831 184.676 58.0821 185.451C60.4454 186.045 62.9331 185.909 65.2181 185.063C63.0101 181.898 56.5791 173.919 53.1621 175.708ZM81.5211 175.998C77.0821 176.767 74.4811 182.366 74.4811 182.366C79.303 183.212 84.2383 183.178 89.0481 182.266C89.0481 182.266 85.9541 175.228 81.5211 175.998ZM112.337 180.387C106.769 177.971 101.064 179.693 99.5481 181.715C98.6191 182.95 98.8291 184.479 100.864 185.277C103.664 186.315 109.257 185.719 112.193 185.126C116.676 184.223 116.2 182.061 112.337 180.387ZM108.769 184.787C92.1801 186.511 102.015 177.022 111.724 181.04C114.479 182.185 114.595 183.111 114.487 182.896C114.978 184.11 110.1 184.643 108.769 184.783V184.787ZM41.5751 104.933C40.5874 103.416 39.3922 102.045 38.0241 100.86C36.8895 102.165 35.6896 103.412 34.4291 104.597C35.6001 105.456 37.8501 106.298 41.5751 104.933ZM21.8571 122.506C22.7571 121.098 24.3481 117.531 24.2181 115.328C24.1871 114.788 23.3351 114.782 23.3711 115.328C23.4711 117.065 22.4831 119.499 21.7011 121.053C19.5211 125.414 14.9371 126.226 15.5831 121.447C15.9213 119.621 16.7144 117.91 17.8891 116.472C19.0171 114.957 20.6391 112.964 22.4161 112.355C22.9321 112.181 22.7101 111.355 22.1871 111.538C20.2261 112.225 18.7971 113.915 17.5471 115.523C16.1717 117.122 15.2196 119.041 14.7781 121.104C13.9001 126.64 19.0741 126.87 21.8571 122.506ZM18.8681 132.613C19.0681 132.103 18.2501 131.883 18.0511 132.388C15.7154 138.36 15.3018 144.912 16.8681 151.13C16.8983 151.238 16.9704 151.33 17.0684 151.385C17.1663 151.44 17.2823 151.454 17.3906 151.424C17.4989 151.394 17.5908 151.322 17.6461 151.224C17.7013 151.126 17.7153 151.01 17.6851 150.902C16.1601 144.831 16.5738 138.436 18.8681 132.613ZM39.1301 156.641C38.4849 154.975 38.3223 153.162 38.6611 151.409C38.7691 150.875 37.9471 150.647 37.8441 151.181C37.5787 152.564 37.5848 153.986 37.8621 155.367C38.2152 156.69 38.7276 157.966 39.3881 159.167C39.8659 160.453 39.8358 161.873 39.3041 163.139C39.0481 163.139 38.2041 161.991 37.8801 161.312C37.6621 160.849 36.8801 161.181 37.1471 161.744C37.5631 162.616 38.1799 163.378 38.9471 163.967C38.7429 164.376 38.5141 164.773 38.2621 165.156C37.6294 164.687 37.1319 164.06 36.8201 163.337C36.8161 163.331 36.814 163.325 36.8141 163.318C36.7661 163.198 36.7241 163.071 36.6821 162.951C36.6671 162.897 36.6416 162.847 36.6072 162.803C36.5728 162.759 36.5301 162.723 36.4815 162.695C36.4329 162.668 36.3795 162.651 36.3242 162.644C36.2688 162.637 36.2128 162.642 36.1591 162.657C36.1055 162.672 36.0553 162.697 36.0115 162.732C35.9677 162.766 35.9311 162.809 35.9038 162.857C35.8765 162.906 35.859 162.959 35.8524 163.015C35.8457 163.07 35.8501 163.126 35.8651 163.18C36.2059 164.246 36.8743 165.177 37.7751 165.842C37.6564 165.992 37.5282 166.134 37.3911 166.268C37.1571 166.49 36.9521 166.616 36.7001 166.357C36.0688 165.567 35.5061 164.726 35.0181 163.841C33.1127 160.383 32.3497 156.411 32.8381 152.493C32.8869 151.127 33.4561 149.831 34.4291 148.872C34.8483 148.509 35.3902 148.32 35.9441 148.343C36.498 148.367 37.022 148.601 37.4091 148.998C37.7511 149.424 38.3521 148.818 38.0091 148.398C36.7171 146.798 33.5251 147.181 32.4091 150.488C31.4871 153.188 31.7841 157.225 32.5531 160.045C32.5177 160.051 32.4838 160.063 32.4531 160.082C31.8888 160.434 31.2783 160.707 30.6391 160.892C30.6271 160.58 30.4951 157.282 30.4111 155.948C30.4045 155.878 30.3816 155.81 30.3443 155.75C30.307 155.691 30.2563 155.64 30.1962 155.604C30.1361 155.567 30.0683 155.545 29.9982 155.539C29.928 155.533 29.8575 155.544 29.7921 155.57C29.3761 155.733 29.6381 155.6 29.8101 161.703C30.064 168.643 29.9278 175.592 29.4021 182.517C27.8751 180.749 26.1731 179.301 23.8451 179.586C24.8591 175.542 24.2711 172.88 23.3451 169.338C22.1602 164.822 20.7287 160.374 19.0571 156.015C18.8351 155.515 18.1011 155.949 18.3241 156.441C19.4371 158.934 23.4581 171.056 23.5141 175.195C23.5641 178.214 22.8381 179.395 23.0331 179.785C22.2252 180.152 21.5092 180.695 20.9367 181.373C20.3643 182.051 19.9497 182.849 19.7231 183.707C19.826 184.027 19.9164 184.352 19.9941 184.68C23.0151 186.157 26.3611 185.28 29.4131 184.38C29.4691 184.364 30.1131 183.887 30.1391 183.666C30.1391 182.749 30.5611 181.315 30.7161 173.111C30.8831 163.958 30.5251 161.746 30.6981 161.746C31.4247 161.541 32.1215 161.242 32.7711 160.858C33.3041 162.527 35.3471 167.029 36.6811 167.345C37.6301 167.561 38.5491 166.217 39.0721 165.404C41.9881 160.88 39.7791 158.304 39.1301 156.641ZM25.9301 184.408L26.2001 182.48C26.2303 182.371 26.2163 182.255 26.1611 182.157C26.1058 182.059 26.0139 181.987 25.9056 181.957C25.7973 181.927 25.6814 181.941 25.5834 181.996C25.4854 182.051 25.4133 182.143 25.3831 182.252L25.0591 184.541C24.4236 184.623 23.7822 184.649 23.1421 184.619C22.9071 182.66 24.1281 182.145 23.4491 181.736C23.3515 181.68 23.2361 181.665 23.1273 181.693C23.0185 181.721 22.9248 181.79 22.8661 181.886C22.4188 182.684 22.2219 183.599 22.3011 184.511C21.6989 184.411 21.1135 184.228 20.5621 183.967C20.5741 183.92 20.5761 183.951 20.5891 183.913C21.1481 182.123 22.5181 180.297 24.5891 180.369C26.5331 180.439 28.0231 182.048 29.2261 183.552C28.1426 183.896 27.0414 184.182 25.9271 184.408H25.9301ZM29.2431 110.598C29.4533 110.598 29.6587 110.66 29.8334 110.777C30.0081 110.894 30.1442 111.06 30.2245 111.255C30.3048 111.449 30.3257 111.663 30.2846 111.869C30.2434 112.075 30.1421 112.264 29.9934 112.413C29.8447 112.561 29.6553 112.662 29.4491 112.703C29.2429 112.744 29.0293 112.723 28.8351 112.643C28.6409 112.562 28.4749 112.426 28.3582 112.251C28.2414 112.076 28.1791 111.871 28.1791 111.661C28.1791 111.521 28.2066 111.383 28.2601 111.254C28.3136 111.125 28.392 111.007 28.4908 110.909C28.5896 110.81 28.7069 110.732 28.836 110.678C28.9651 110.625 29.1034 110.598 29.2431 110.598ZM36.3791 116.773C38.1151 116.773 38.7911 112.817 38.7911 112.817C38.0108 113.044 37.1894 113.093 36.3876 112.96C35.5858 112.827 34.8242 112.516 34.1591 112.049C34.1591 112.049 34.6431 116.773 36.3791 116.773ZM53.8171 74.1047C53.8478 74.0482 53.8655 73.9856 53.8689 73.9214C53.8724 73.8572 53.8615 73.7931 53.8371 73.7336C53.8127 73.6741 53.7754 73.6209 53.7278 73.5776C53.6802 73.5344 53.6236 73.5023 53.5621 73.4837C51.8041 72.7927 46.1621 70.5687 46.0861 70.5367C45.9951 70.5117 45.8984 70.5179 45.8113 70.5541C45.7242 70.5903 45.6516 70.6546 45.6051 70.7367C45.1431 71.4567 32.3361 91.4487 31.8611 92.2527C30.3551 91.6877 29.4431 92.5197 29.6511 93.5527C29.9631 95.0897 31.0211 94.7527 28.5821 94.2527C27.4643 94.0087 26.3184 93.9179 25.1761 93.9827C23.8651 94.1827 23.3831 95.3297 25.6441 96.9497C25.2961 96.9497 24.9441 96.9497 24.5991 96.9557C22.6671 96.9737 22.8681 99.0737 24.4991 99.5747C23.4791 99.9147 23.2281 101.388 24.8171 101.675C34.1291 103.303 39.1381 97.5127 44.0641 89.7217C44.6361 88.8067 53.4881 74.7627 53.8171 74.1047ZM36.9431 97.4427C35.4473 98.8831 33.6318 99.9492 31.645 100.554C29.6583 101.158 27.5567 101.284 25.5121 100.921C23.7951 100.654 24.6801 100.3 25.5001 100.26C25.7948 100.258 26.0871 100.207 26.3651 100.11C26.4433 100.085 26.5128 100.038 26.5655 99.9752C26.6181 99.9122 26.6516 99.8354 26.6621 99.754C26.6726 99.6726 26.6597 99.5899 26.6248 99.5156C26.5899 99.4413 26.5345 99.3786 26.4651 99.3347C25.6221 98.7697 24.1861 98.9627 24.0741 98.0907C24.0201 97.6407 24.9811 97.8027 25.2401 97.8027C25.9241 97.8027 26.6031 97.7967 27.2881 97.7967C27.3893 97.794 27.4863 97.7553 27.5617 97.6877C27.6371 97.6201 27.686 97.5279 27.6997 97.4276C27.7134 97.3272 27.691 97.2253 27.6365 97.14C27.582 97.0546 27.4989 96.9914 27.4021 96.9617C26.6221 96.652 25.9176 96.1787 25.3361 95.5737C25.1801 95.4117 24.7171 95.0457 25.0591 94.8897C27.2853 94.6979 29.5211 95.1282 31.5171 96.1327C31.9171 96.3247 32.4361 95.7907 32.0341 95.4657C30.3421 94.1057 29.8221 92.3277 31.6251 93.0807C33.1467 93.854 34.5591 94.8258 35.8251 95.9707C36.2331 96.3367 36.8341 95.7367 36.4251 95.3707C35.2597 94.336 33.9937 93.4205 32.6461 92.6377C46.5141 70.8457 46.1461 71.5377 46.1681 71.4987C48.2461 72.3157 52.6801 74.0637 52.8241 74.1177C43.7691 88.2637 41.2261 93.6787 36.9431 97.4427ZM155.617 40.4977C155.721 40.4638 155.808 40.3911 155.86 40.2947C155.911 40.1983 155.924 40.0857 155.894 39.9803C155.865 39.875 155.796 39.7851 155.702 39.7295C155.608 39.6738 155.496 39.6567 155.389 39.6817C154.88 39.7642 154.404 39.9851 154.012 40.3202C153.62 40.6553 153.328 41.0917 153.167 41.5817C152.986 42.0677 153.767 42.3817 153.983 41.8097C154.324 40.9617 154.714 40.8177 155.617 40.4977ZM157.014 43.2117C157.041 43.1026 157.025 42.9873 156.969 42.8898C156.914 42.7923 156.822 42.7202 156.714 42.6887C156.252 42.5387 155.795 42.3887 155.333 42.2437C155.226 42.2189 155.114 42.2363 155.02 42.2922C154.926 42.348 154.857 42.4381 154.828 42.5436C154.798 42.649 154.811 42.7618 154.862 42.8583C154.914 42.9548 155.001 43.0277 155.105 43.0617C155.567 43.2117 156.024 43.3617 156.486 43.5057C156.54 43.5212 156.597 43.5259 156.652 43.5196C156.708 43.5132 156.762 43.4958 156.811 43.4685C156.86 43.4412 156.904 43.4044 156.938 43.3603C156.973 43.3163 156.999 43.2657 157.014 43.2117ZM162.375 40.0787C161.861 39.9647 161.8 40.4937 161.522 41.2787C161.493 41.3872 161.508 41.5028 161.563 41.6005C161.618 41.6983 161.71 41.7704 161.818 41.8012C161.926 41.8321 162.042 41.8192 162.14 41.7654C162.239 41.7116 162.313 41.6212 162.345 41.5137C162.453 41.2137 162.561 40.9137 162.669 40.6067C162.698 40.4977 162.684 40.3818 162.629 40.2833C162.574 40.1848 162.483 40.1114 162.375 40.0787ZM162.165 38.2377C162.516 37.6137 161.174 37.0247 160.291 37.7637C160.233 37.8236 160.194 37.8992 160.178 37.9812C160.162 38.0632 160.171 38.148 160.203 38.2252C160.235 38.3023 160.288 38.3685 160.357 38.4155C160.426 38.4625 160.508 38.4883 160.591 38.4897C161.474 38.4457 162.006 38.5557 162.165 38.2377ZM159.624 47.9147C159.351 48.0461 159.053 48.117 158.749 48.1225C158.446 48.128 158.145 48.068 157.868 47.9465C157.59 47.8251 157.342 47.6451 157.14 47.4189C156.938 47.1926 156.787 46.9255 156.698 46.6357C156.507 46.1897 155.698 46.4767 155.965 47.0677C156.111 47.4556 156.336 47.8085 156.627 48.1033C156.919 48.3981 157.269 48.6281 157.655 48.7783C158.041 48.9286 158.454 48.9957 158.868 48.9752C159.282 48.9548 159.687 48.8473 160.056 48.6597C160.15 48.5998 160.217 48.5062 160.243 48.3982C160.269 48.2903 160.253 48.1764 160.197 48.0803C160.141 47.9842 160.05 47.9134 159.944 47.8825C159.837 47.8516 159.723 47.8632 159.624 47.9147ZM146.894 43.6557C146.786 43.6272 146.671 43.642 146.574 43.6969C146.477 43.7518 146.405 43.8425 146.373 43.9497C146.346 44.0579 146.362 44.1722 146.417 44.2694C146.471 44.3666 146.561 44.4393 146.667 44.4727C147.163 44.6208 147.611 44.8967 147.967 45.2727C148.047 45.352 148.155 45.3966 148.267 45.3966C148.38 45.3966 148.487 45.352 148.567 45.2727C149.123 44.6737 147.582 43.8697 146.894 43.6557ZM148.151 48.3117C148.342 48.1169 148.479 47.8764 148.55 47.6132C148.621 47.3501 148.623 47.0732 148.556 46.809C148.489 46.5449 148.355 46.3024 148.167 46.1048C147.98 45.9072 147.744 45.7611 147.484 45.6807C147.376 45.6519 147.261 45.6665 147.163 45.7214C147.065 45.7763 146.993 45.8672 146.961 45.9747C146.82 46.5887 147.634 46.3687 147.742 47.0857C147.742 48.0227 146.636 48.0537 146.636 46.8937C146.358 46.8659 146.082 46.8239 145.808 46.7677C145.741 47.0649 145.767 47.3754 145.881 47.6579C145.995 47.9404 146.192 48.1814 146.446 48.3491C146.701 48.5167 147 48.6029 147.305 48.5962C147.609 48.5895 147.904 48.4903 148.151 48.3117ZM193.461 102.657C191.499 98.5737 190.949 95.1287 188.325 90.3837C188.825 90.0587 189.336 89.8527 189.13 89.3927C188.977 88.7807 187.93 86.2927 187.521 85.3747C187.469 85.2851 187.385 85.218 187.286 85.1862C187.187 85.1545 187.08 85.1604 186.985 85.2027C186.885 85.2377 178.951 89.4787 178.413 90.2577C178.085 90.7407 178.242 90.7577 179.603 93.9947C179.646 94.1029 179.725 94.1937 179.825 94.2527C180.04 94.4677 180.172 94.3577 181.814 93.6757C182.792 96.0187 184.12 98.3137 184.246 100.876C184.318 102.383 183.736 103.849 183.561 105.333C183.19 108.419 185.148 109.306 186.775 106.516C186.975 107.701 187.339 109.473 188.217 110.132C188.363 110.255 188.54 110.335 188.729 110.364C188.917 110.393 189.11 110.369 189.286 110.295C189.48 110.168 189.644 110 189.765 109.803C189.886 109.605 189.961 109.383 189.986 109.153C190.235 108.164 190.042 108.244 190.286 108.625C191.396 110.467 193.368 109.115 192.756 107.045C193.034 107.249 193.372 107.351 193.716 107.336C194.06 107.321 194.389 107.188 194.647 106.961C195.61 105.998 194.409 104.644 193.461 102.657ZM180.27 93.3977C180.108 93.0127 179.356 91.2287 179.302 91.0977C179.088 90.5977 177.996 91.0527 186.944 86.1907C187.406 87.2537 187.844 88.3347 188.244 89.4217C185.714 90.9892 183.045 92.3201 180.27 93.3977ZM193.644 106.487C192.954 106.452 192.644 105.628 192.413 105.087C192.371 105.015 192.308 104.958 192.233 104.922C192.159 104.886 192.075 104.872 191.993 104.883C191.911 104.893 191.833 104.928 191.77 104.982C191.707 105.036 191.661 105.107 191.638 105.187C191.405 106.54 192.516 107.744 191.782 108.515C191.082 109.248 190.19 106.269 190.088 105.86C189.951 105.326 189.176 105.554 189.271 106.089C189.42 106.899 189.416 107.73 189.259 108.539C189.083 109.439 188.951 110.012 188.376 109.039C187.762 107.547 187.436 105.952 187.415 104.339C187.41 104.23 187.363 104.127 187.284 104.052C187.205 103.977 187.101 103.935 186.992 103.935C186.883 103.935 186.778 103.977 186.699 104.052C186.62 104.127 186.573 104.23 186.568 104.339C186.468 106.118 185.141 107.473 184.754 107.325C184.367 107.177 184.37 106.4 184.37 106.082C184.385 104.311 185.343 102.337 185.03 100.207C184.65 97.5227 183.575 95.7487 182.592 93.3467C184.308 92.6164 185.978 91.7815 187.592 90.8467C190.382 95.9267 190.917 99.9467 193.684 104.939C193.9 105.324 194.606 106.532 193.644 106.483V106.487ZM151.064 62.5417C150.478 62.8047 148.331 63.7497 148.283 63.7677C148.668 62.6963 148.966 61.5953 149.172 60.4757C149.202 60.3673 149.189 60.2514 149.133 60.1533C149.078 60.0552 148.986 59.983 148.878 59.9527C148.77 59.9223 148.654 59.9362 148.556 59.9913C148.458 60.0465 148.385 60.1383 148.355 60.2467C147.693 63.8967 146.888 64.0697 147.496 64.4997C148.155 64.9637 148.809 64.4587 151.508 63.2747C151.941 63.0897 151.67 62.2697 151.064 62.5417ZM159.762 60.4517C160.022 61.5412 160.073 62.6702 159.912 63.7787C158.993 63.4372 158.111 63.0015 157.281 62.4787C156.819 62.1847 156.392 62.9227 156.854 63.2117C157.887 63.857 158.992 64.3792 160.146 64.7677C160.255 64.7962 160.371 64.7808 160.469 64.7247C160.567 64.6686 160.639 64.5763 160.669 64.4677C160.943 63.0608 160.912 61.6116 160.579 60.2177C160.453 59.6917 159.633 59.9217 159.762 60.4517ZM158.69 57.7977C158.713 57.6926 158.695 57.5829 158.639 57.4908C158.584 57.3987 158.496 57.3311 158.392 57.3017C158.289 57.2723 158.178 57.2833 158.083 57.3325C157.987 57.3817 157.914 57.4655 157.878 57.5667C157.648 58.3888 157.222 59.143 156.637 59.7645C156.052 60.3861 155.325 60.8566 154.518 61.1357C152.462 61.7627 151.183 60.2057 150.637 58.1357C150.602 58.0326 150.53 57.9466 150.434 57.8953C150.338 57.844 150.226 57.8312 150.121 57.8595C150.016 57.8878 149.926 57.9551 149.869 58.0477C149.812 58.1403 149.792 58.2511 149.814 58.3577C151.4 64.4447 157.483 62.2797 158.69 57.7977Z" fill="#1D1D1B"/>
<path d="M180.301 91.1433C180.234 91.1846 180.176 91.24 180.131 91.3058C180.087 91.3716 180.058 91.4461 180.045 91.5244C180.033 91.6026 180.037 91.6826 180.059 91.7589C180.08 91.8352 180.118 91.906 180.169 91.9663C180.255 92.0388 180.359 92.0859 180.469 92.1024C180.58 92.1188 180.693 92.1039 180.796 92.0593C181.428 91.4603 180.684 90.9103 180.301 91.1433ZM154.674 65.7283C155.038 65.7023 155.196 65.0993 154.847 64.8103C154.785 64.7714 154.716 64.7456 154.644 64.7346C154.572 64.7236 154.498 64.7276 154.428 64.7464C154.357 64.7651 154.291 64.7983 154.234 64.8437C154.177 64.8891 154.129 64.9458 154.095 65.0103C153.901 65.4643 154.254 65.7573 154.674 65.7283ZM154.901 70.2723C155.265 70.2473 155.423 69.6443 155.074 69.3543C155.012 69.3154 154.943 69.2896 154.871 69.2786C154.799 69.2676 154.725 69.2716 154.655 69.2904C154.584 69.3091 154.518 69.3423 154.461 69.3877C154.404 69.4331 154.356 69.4898 154.322 69.5543C154.119 70.0083 154.477 70.2973 154.901 70.2723ZM141.225 75.8973C140.1 76.6345 138.928 77.2966 137.716 77.8793C137.236 78.1433 137.662 78.8793 138.143 78.6123C138.758 78.2743 140.968 77.0803 141.048 77.0233C141.048 77.6443 140.93 78.9963 140.859 79.6543C140.859 79.767 140.904 79.8751 140.984 79.9548C141.063 80.0345 141.171 80.0793 141.284 80.0793C141.397 80.0793 141.505 80.0345 141.585 79.9548C141.664 79.8751 141.709 79.767 141.709 79.6543C141.748 79.2793 142.046 76.3993 141.809 76.0683C141.74 75.9846 141.648 75.9236 141.543 75.8931C141.439 75.8626 141.328 75.8641 141.225 75.8973ZM162.52 175.941C160.925 176.156 159.404 176.749 158.084 177.671C156.764 178.593 155.684 179.817 154.933 181.241C160.234 180.934 165.551 181.049 170.833 181.583C168.774 178.848 165.501 175.706 162.52 175.941ZM144.727 142.014C146.437 142.459 148.218 142.559 149.966 142.307C150.071 142.274 150.159 142.201 150.211 142.105C150.263 142.008 150.276 141.894 150.246 141.789C150.217 141.683 150.147 141.592 150.052 141.537C149.957 141.482 149.844 141.465 149.737 141.491C148.14 141.712 146.514 141.612 144.956 141.196C144.849 141.17 144.736 141.187 144.641 141.243C144.546 141.298 144.477 141.389 144.447 141.495C144.417 141.601 144.43 141.714 144.482 141.811C144.535 141.908 144.622 141.981 144.727 142.014Z" fill="#1D1D1B"/>
<path d="M86.7415 101.866C84.9057 100.879 83.4488 99.3108 82.5985 97.4076C81.7481 95.5045 81.5523 93.3733 82.0415 91.347C82.1675 90.813 81.3505 90.591 81.2245 91.119C80.7061 93.3262 80.9233 95.6424 81.8429 97.7148C82.7625 99.7872 84.3341 101.502 86.3185 102.599C86.8005 102.862 87.2225 102.129 86.7415 101.866ZM59.9445 93.321C60.1868 94.7552 60.0082 96.2289 59.4304 97.5637C58.8525 98.8986 57.9001 100.037 56.6885 100.842C55.7406 101.582 54.6202 102.07 53.4325 102.259C53.3237 102.264 53.2212 102.311 53.146 102.39C53.0709 102.469 53.0291 102.574 53.0291 102.683C53.0291 102.791 53.0709 102.896 53.146 102.975C53.2212 103.054 53.3237 103.101 53.4325 103.106C54.7355 102.956 55.9722 102.451 57.0075 101.646C58.414 100.757 59.5229 99.4683 60.1923 97.945C60.8617 96.4217 61.0609 94.7333 60.7645 93.096C60.6625 92.555 59.8455 92.786 59.9445 93.321Z" fill="#AC47F5"/>
<path d="M83.6311 38.3041C83.2051 36.4996 82.3911 34.8095 81.2459 33.3514C80.1006 31.8932 78.6515 30.702 76.9993 29.8606C75.3471 29.0191 73.5315 28.5476 71.6787 28.4788C69.8258 28.41 67.9802 28.7455 66.2701 29.4621C57.4701 33.1721 52.1331 48.4861 65.7481 51.5251C65.6065 52.2608 65.6311 53.0189 65.8203 53.7438C66.0094 54.4688 66.3582 55.1423 66.8411 55.7151C68.3411 57.1511 72.2551 57.2491 73.6291 55.3281C74.1571 57.3481 75.3991 57.3181 74.2721 58.0491C73.8108 58.3563 73.4453 58.7872 73.2175 59.2924C72.9897 59.7977 72.9088 60.3569 72.984 60.906C73.0592 61.4551 73.2876 61.9719 73.6429 62.3973C73.9983 62.8226 74.4662 63.1393 74.9931 63.3111C74.4984 63.75 74.1098 64.2957 73.8569 64.9068C73.6039 65.518 73.4932 66.1786 73.5331 66.8388C73.573 67.499 73.7624 68.1415 74.0871 68.7178C74.4117 69.294 74.8631 69.7889 75.4071 70.1651C74.9672 70.7865 74.6937 71.5103 74.6126 72.2673C74.5316 73.0244 74.6457 73.7896 74.9441 74.4901C75.3051 75.3131 75.9301 76.2261 75.5031 77.0131C76.8581 77.5131 78.7381 75.0921 78.1821 72.3391C78.0814 72.0473 78.0612 71.7337 78.1237 71.4313C78.1861 71.129 78.329 70.8491 78.5371 70.6211C79.4721 69.1371 80.1941 67.3761 79.2881 65.8641C79.1218 65.6897 79.022 65.4624 79.0061 65.2219C78.9902 64.9814 79.0592 64.7429 79.2011 64.5481C79.9901 62.8581 80.3631 60.8481 79.0871 59.4851C78.4871 58.8551 78.3301 58.7361 78.7691 57.7671C79.073 57.2334 79.2195 56.6246 79.1919 56.0111C79.1643 55.3976 78.9637 54.8044 78.6131 54.3001C78.3561 54.0161 78.2691 53.9361 78.4131 53.5621C78.8182 52.8161 79.0232 51.9779 79.0081 51.1291C82.3801 48.9831 84.8711 43.6111 83.6311 38.3041ZM70.2741 55.9221C67.5101 55.9401 66.0591 54.9061 66.7301 50.4801C67.7356 50.9582 68.8298 51.2211 69.9426 51.2521C71.0555 51.2831 72.1626 51.0815 73.1931 50.6601C73.7441 53.8041 73.4921 55.8891 70.2741 55.9221ZM77.2631 43.0981C76.9391 43.0561 76.8071 43.3801 76.8791 43.6381C76.5221 45.0957 75.9874 46.5039 75.2871 47.8311C74.4621 48.9764 73.2776 49.8127 71.9223 50.2069C70.5669 50.601 69.1187 50.5304 67.8081 50.0061C63.1461 48.4121 63.8971 44.1661 63.6211 42.7731C63.6022 42.7026 63.5651 42.6383 63.5135 42.5867C63.4619 42.5351 63.3976 42.498 63.3271 42.4791C62.0591 42.1481 60.6361 41.0311 60.5761 39.6191C60.5622 39.2539 60.6532 38.8922 60.8384 38.5771C61.0236 38.262 61.2952 38.0066 61.6211 37.8411C62.3541 37.5291 62.9301 38.5681 63.2071 39.0851C63.2505 39.1552 63.3132 39.2113 63.3876 39.2468C63.462 39.2822 63.5451 39.2954 63.6269 39.2849C63.7086 39.2743 63.7856 39.2404 63.8486 39.1873C63.9116 39.1341 63.958 39.0639 63.9821 38.9851C64.1589 37.8983 64.3925 36.8215 64.6821 35.7591C67.3261 35.8191 70.3291 35.2721 72.2331 33.3261C72.342 34.254 72.6339 35.1511 73.0919 35.9654C73.5499 36.7797 74.1648 37.4951 74.9011 38.0701C74.6286 37.8821 74.312 37.7681 73.9821 37.7391C73.8695 37.7407 73.7619 37.7862 73.6823 37.8659C73.6027 37.9457 73.5574 38.0534 73.5561 38.1661C73.5921 38.8171 74.5011 38.4211 74.8471 39.2531C75.1471 39.8281 76.3611 39.2021 74.9851 38.1361C75.6432 38.6816 76.373 39.1341 77.1541 39.4811C77.1301 39.7811 77.1121 40.0811 77.0881 40.3701C77.0581 40.7791 77.5561 40.8811 77.8151 40.6701C78.3209 40.2281 78.9031 39.8821 79.5331 39.6491C80.2631 39.4171 80.6161 39.5731 80.8241 40.3091C81.3541 42.4131 78.9501 43.3121 77.2631 43.0981Z" fill="#1D1D1B"/>
<path d="M67.389 40.4426C67.389 40.2769 67.3232 40.1179 67.2059 40.0007C67.0887 39.8835 66.9298 39.8176 66.764 39.8176C66.5982 39.8176 66.4393 39.8835 66.3221 40.0007C66.2049 40.1179 66.139 40.2769 66.139 40.4426C66.139 40.6084 66.2049 40.7674 66.3221 40.8846C66.4393 41.0018 66.5982 41.0676 66.764 41.0676C66.9298 41.0676 67.0887 41.0018 67.2059 40.8846C67.3232 40.7674 67.389 40.6084 67.389 40.4426ZM73.78 40.8696C73.6187 40.8761 73.4661 40.9447 73.3543 41.0611C73.2425 41.1775 73.18 41.3327 73.18 41.4941C73.18 41.6556 73.2425 41.8108 73.3543 41.9272C73.4661 42.0436 73.6187 42.1122 73.78 42.1186C73.9413 42.1122 74.0939 42.0436 74.2057 41.9272C74.3175 41.8108 74.38 41.6556 74.38 41.4941C74.38 41.3327 74.3175 41.1775 74.2057 41.0611C74.0939 40.9447 73.9413 40.8761 73.78 40.8696ZM67.389 37.7636C67.4985 37.7583 67.6018 37.7111 67.6775 37.6317C67.7531 37.5523 67.7953 37.4468 67.7953 37.3371C67.7953 37.2275 67.7531 37.122 67.6775 37.0426C67.6018 36.9632 67.4985 36.916 67.389 36.9106C67.0519 36.9278 66.7241 37.027 66.4341 37.1998C66.1441 37.3725 65.9007 37.6134 65.725 37.9016C65.6695 37.9993 65.6541 38.1147 65.6821 38.2235C65.7101 38.3323 65.7793 38.4259 65.875 38.4846C66.466 38.8056 66.569 37.7636 67.389 37.7636ZM72.645 44.1136C71.561 45.6596 68.402 45.4306 67.989 43.6986C67.863 43.1646 67.046 43.3926 67.172 43.9266C67.726 46.2946 71.802 46.8146 73.378 44.5516C73.696 44.0896 72.957 43.6686 72.645 44.1136ZM75.768 78.1307C76.152 77.7397 75.552 77.1396 75.168 77.5306C74.5799 78.1369 74.1403 78.8712 73.8839 79.6759C73.6274 80.4807 73.5611 81.3339 73.69 82.1686C73.705 82.2223 73.7305 82.2725 73.7649 82.3163C73.7993 82.3601 73.842 82.3967 73.8906 82.424C73.9392 82.4513 73.9926 82.4687 74.048 82.4754C74.1033 82.482 74.1594 82.4777 74.213 82.4626C74.2666 82.4476 74.3168 82.4222 74.3606 82.3877C74.4044 82.3533 74.441 82.3106 74.4683 82.262C74.4956 82.2135 74.5131 82.16 74.5197 82.1047C74.5264 82.0494 74.522 81.9933 74.507 81.9397C74.4144 81.2507 74.4798 80.5497 74.6983 79.8897C74.9168 79.2298 75.2826 78.6283 75.768 78.1307ZM76.339 77.9866C76.2837 77.9985 76.2318 78.0226 76.1872 78.0572C76.1425 78.0918 76.1062 78.1361 76.081 78.1867C75.2965 79.6203 75.0484 81.2866 75.381 82.8867C75.4114 82.995 75.4835 83.0868 75.5816 83.142C75.6797 83.1971 75.7957 83.211 75.904 83.1806C76.0123 83.1503 76.1042 83.0781 76.1593 82.98C76.2145 82.882 76.2284 82.766 76.198 82.6576C75.9686 81.5219 76.0792 80.3438 76.516 79.2707C76.8649 80.1303 77.035 81.0521 77.016 81.9797C77.0213 82.0884 77.0682 82.191 77.1471 82.2661C77.2259 82.3412 77.3306 82.3831 77.4395 82.3831C77.5484 82.3831 77.6531 82.3412 77.7319 82.2661C77.8108 82.191 77.8577 82.0884 77.863 81.9797C77.8848 80.6336 77.5579 79.3049 76.914 78.1227C76.8887 78.0724 76.8526 78.0283 76.8084 77.9934C76.7642 77.9585 76.713 77.9337 76.6582 77.9208C76.6034 77.9078 76.5464 77.907 76.4913 77.9184C76.4362 77.9298 76.3842 77.9531 76.339 77.9866ZM77.114 77.6146C77.9205 78.6364 78.3907 79.8828 78.46 81.1826C78.4653 81.2922 78.5126 81.3955 78.592 81.4711C78.6714 81.5468 78.7768 81.589 78.8865 81.589C78.9962 81.589 79.1016 81.5468 79.181 81.4711C79.2604 81.3955 79.3077 81.2922 79.313 81.1826C79.2312 79.6607 78.6744 78.2027 77.721 77.0136C77.418 76.6347 76.702 77.1046 77.114 77.6146Z" fill="#1D1D1B"/>
</svg>
