<svg width="24" height="24" viewBox="0 0 24 24" fill="none" xmlns="http://www.w3.org/2000/svg">
<path d="M6.75 4C6.55109 4 6.36032 4.07902 6.21967 4.21967C6.07902 4.36032 6 4.55109 6 4.75C6 4.94891 6.07902 5.13968 6.21967 5.28033C6.36032 5.42098 6.55109 5.5 6.75 5.5H8.25C8.44891 5.5 8.63968 5.42098 8.78033 5.28033C8.92098 5.13968 9 4.94891 9 4.75C9 4.55109 8.92098 4.36032 8.78033 4.21967C8.63968 4.07902 8.44891 4 8.25 4H6.75ZM3.5 8.75C3.5 8.55109 3.42098 8.36032 3.28033 8.21967C3.13968 8.07902 2.94891 8 2.75 8C2.55109 8 2.36032 8.07902 2.21967 8.21967C2.07902 8.36032 2 8.55109 2 8.75V10.25C2 10.4489 2.07902 10.6397 2.21967 10.7803C2.36032 10.921 2.55109 11 2.75 11C2.94891 11 3.13968 10.921 3.28033 10.7803C3.42098 10.6397 3.5 10.4489 3.5 10.25V8.75ZM3.9 11C3.65049 11 3.40342 11.0491 3.1729 11.1446C2.94238 11.2401 2.73293 11.3801 2.5565 11.5565C2.38007 11.7329 2.24011 11.9424 2.14463 12.1729C2.04915 12.4034 2 12.6505 2 12.9V18.1C2 19.15 2.85 20 3.9 20H14.1C14.6039 20 15.0872 19.7998 15.4435 19.4435C15.7998 19.0872 16 18.6039 16 18.1V12.9C16 12.3961 15.7998 11.9128 15.4435 11.5565C15.0872 11.2002 14.6039 11 14.1 11H12.25C12.4489 11 12.6397 10.921 12.7803 10.7803C12.921 10.6397 13 10.4489 13 10.25V8.75C13 8.55109 12.921 8.36032 12.7803 8.21967C12.6397 8.07902 12.4489 8 12.25 8C12.0511 8 11.8603 8.07902 11.7197 8.21967C11.579 8.36032 11.5 8.55109 11.5 8.75V10.25C11.5 10.664 11.836 11 12.25 11H3.9ZM3.5 12.9C3.5 12.68 3.68 12.5 3.9 12.5H14.1C14.32 12.5 14.5 12.68 14.5 12.9V18.1C14.5 18.2061 14.4579 18.3078 14.3828 18.3828C14.3078 18.4579 14.2061 18.5 14.1 18.5H3.9C3.79391 18.5 3.69217 18.4579 3.61716 18.3828C3.54214 18.3078 3.5 18.2061 3.5 18.1V12.9ZM3.75 5.5C3.6837 5.5 3.62011 5.52634 3.57322 5.57322C3.52634 5.62011 3.5 5.6837 3.5 5.75V6.25C3.5 6.44891 3.42098 6.63968 3.28033 6.78033C3.13968 6.92098 2.94891 7 2.75 7C2.55109 7 2.36032 6.92098 2.21967 6.78033C2.07902 6.63968 2 6.44891 2 6.25V5.75C2 4.784 2.784 4 3.75 4H4.25C4.44891 4 4.63968 4.07902 4.78033 4.21967C4.92098 4.36032 5 4.55109 5 4.75C5 4.94891 4.92098 5.13968 4.78033 5.28033C4.63968 5.42098 4.44891 5.5 4.25 5.5H3.75ZM11.5 5.75C11.5 5.6837 11.4737 5.62011 11.4268 5.57322C11.3799 5.52634 11.3163 5.5 11.25 5.5H10.75C10.5511 5.5 10.3603 5.42098 10.2197 5.28033C10.079 5.13968 10 4.94891 10 4.75C10 4.55109 10.079 4.36032 10.2197 4.21967C10.3603 4.07902 10.5511 4 10.75 4H11.25C12.216 4 13 4.784 13 5.75V6.25C13 6.44891 12.921 6.63968 12.7803 6.78033C12.6397 6.92098 12.4489 7 12.25 7C12.0511 7 11.8603 6.92098 11.7197 6.78033C11.579 6.63968 11.5 6.44891 11.5 6.25V5.75ZM17 16.076C17 16.56 17.419 16.946 17.888 16.823C19.0971 16.5069 20.1625 15.7887 20.909 14.7864C21.6555 13.7842 22.0385 12.5577 21.9951 11.3087C21.9517 10.0598 21.4844 8.86286 20.6701 7.91488C19.8558 6.9669 18.7431 6.32436 17.515 6.093L17.819 5.738C17.8869 5.66385 17.9392 5.5768 17.9728 5.48203C18.0064 5.38726 18.0206 5.28671 18.0145 5.18635C18.0085 5.08599 17.9823 4.98786 17.9376 4.89782C17.8928 4.80777 17.8305 4.72764 17.7541 4.66218C17.6778 4.59673 17.5891 4.54729 17.4933 4.5168C17.3975 4.48631 17.2965 4.4754 17.1964 4.48471C17.0963 4.49402 16.9991 4.52337 16.9105 4.571C16.822 4.61864 16.7439 4.68359 16.681 4.762L15.181 6.512C15.0645 6.64792 15.0005 6.82101 15.0005 7C15.0005 7.17899 15.0645 7.35208 15.181 7.488L16.681 9.238C16.7439 9.31641 16.822 9.38136 16.9105 9.429C16.9991 9.47663 17.0963 9.50598 17.1964 9.51529C17.2965 9.5246 17.3975 9.51369 17.4933 9.4832C17.5891 9.45271 17.6778 9.40327 17.7541 9.33782C17.8305 9.27236 17.8928 9.19223 17.9376 9.10218C17.9823 9.01214 18.0085 8.91401 18.0145 8.81365C18.0206 8.71329 18.0064 8.61273 17.9728 8.51797C17.9392 8.4232 17.8869 8.33615 17.819 8.262L17.222 7.565C18.1099 7.72832 18.9164 8.18712 19.5106 8.86683C20.1047 9.54654 20.4515 10.4072 20.4946 11.309C20.5377 12.2107 20.2746 13.1005 19.748 13.8338C19.2214 14.5671 18.4623 15.1007 17.594 15.348C17.261 15.443 17 15.729 17 16.076Z" fill="black"/>
</svg>
