<svg width="24" height="24" viewBox="0 0 24 24" fill="none" xmlns="http://www.w3.org/2000/svg">
<path d="M5.92995 7.83003L2.27995 11.49C1.49995 12.27 1.49995 13.54 2.27995 14.32L5.93995 17.98C6.71995 18.76 7.98995 18.76 8.76995 17.98L12.4299 14.33C13.2099 13.55 13.2099 12.28 12.4299 11.5L8.75995 7.82003C7.96995 7.04003 6.70995 7.04003 5.92995 7.83003ZM4.39995 12.19L6.64995 9.94003C7.03995 9.55003 7.66995 9.55003 8.06995 9.94003L10.3099 12.18C10.6999 12.57 10.6999 13.2 10.3099 13.59L8.05995 15.84C7.66995 16.23 7.03995 16.23 6.63995 15.84L4.39995 13.61C4.00995 13.22 4.00995 12.58 4.39995 12.19ZM19.3599 6.64003C18.5267 5.80184 17.5356 5.13699 16.444 4.68387C15.3524 4.23075 14.1819 3.99833 12.9999 4.00003V3.17003C12.9999 2.28003 11.9199 1.83003 11.2899 2.46003L9.46995 4.29003C9.37724 4.38254 9.3037 4.49243 9.25351 4.6134C9.20333 4.73438 9.1775 4.86406 9.1775 4.99503C9.1775 5.126 9.20333 5.25568 9.25351 5.37665C9.3037 5.49762 9.37724 5.60751 9.46995 5.70003L11.2999 7.53003C11.9199 8.16003 12.9999 7.72003 12.9999 6.83003V6.00003C15.0199 6.00003 17.0299 6.86003 18.4499 8.61003C20.4999 11.13 20.4999 14.88 18.4499 17.4C17.5454 18.5218 16.316 19.3364 14.9303 19.732C13.5446 20.1277 12.0705 20.0851 10.7099 19.61C10.5326 19.5542 10.3431 19.549 10.163 19.595C9.98279 19.6409 9.81898 19.7361 9.68995 19.87C9.18995 20.37 9.34995 21.26 10.0299 21.49C11.6273 22.0544 13.352 22.1538 15.0035 21.7768C16.6551 21.3997 18.1658 20.5617 19.3599 19.36C20.1969 18.5258 20.8609 17.5346 21.314 16.4432C21.7671 15.3518 22.0003 14.1817 22.0003 13C22.0003 11.8183 21.7671 10.6483 21.314 9.55687C20.8609 8.46549 20.1969 7.47427 19.3599 6.64003Z" fill="black"/>
</svg>
