<svg width="24" height="24" viewBox="0 0 24 24" fill="none" xmlns="http://www.w3.org/2000/svg">
<path fill-rule="evenodd" clip-rule="evenodd" d="M9.00125 15.9556L8.62812 21.0096C8.60162 21.365 8.91321 21.609 9.19145 21.4508C11.1631 20.3308 17.3388 16.2174 20.4691 7.17669C20.6127 6.76189 20.2268 6.38783 19.8977 6.62189C18.0487 7.93522 14.008 10.6486 11.5106 11.1661C11.5106 11.1661 13.11 10.0392 14.0669 8.31058C14.1129 8.22754 14.1354 8.13331 14.1322 8.03815C14.129 7.943 14.1 7.85057 14.0486 7.77094L10.5579 2.66845C10.351 2.36634 9.92617 2.49161 9.8518 2.87694L8.7649 8.48439L3.66417 12.9991C3.40857 13.2254 3.46072 13.6827 3.75606 13.8036L9.00125 15.9556ZM18.0213 13.9635C17.6982 14.4208 17.0024 15.361 16.36 15.9357C16.2318 16.0506 16.2489 16.243 16.3959 16.3366L19.7908 18.4978C19.9951 18.6278 20.2708 18.4735 20.2366 18.2481C20.0785 17.2152 19.6237 15.0619 18.4735 13.9315C18.3453 13.8058 18.1239 13.8188 18.0213 13.9635Z" fill="black"/>
</svg>
