<svg width="24" height="24" viewBox="0 0 24 24" fill="none" xmlns="http://www.w3.org/2000/svg">
<path d="M15 14C16.33 14 19 14.67 19 16V17H11V16C11 14.67 13.67 14 15 14ZM15 13C16.11 13 17 12.11 17 11C17 9.89 16.11 9 15 9C14.4696 9 13.9609 9.21071 13.5858 9.58579C13.2107 9.96086 13 10.4696 13 11C13 11.5304 13.2107 12.0391 13.5858 12.4142C13.9609 12.7893 14.4696 13 15 13ZM22 8V18C22 19.11 21.11 20 20 20H4C3.46957 20 2.96086 19.7893 2.58579 19.4142C2.21071 19.0391 2 18.5304 2 18V6C2 5.46957 2.21071 4.96086 2.58579 4.58579C2.96086 4.21071 3.46957 4 4 4H10L12 6H20C20.5304 6 21.0391 6.21071 21.4142 6.58579C21.7893 6.96086 22 7.46957 22 8ZM20 8H4V18H20V8Z" fill="black"/>
</svg>
