<svg width="24" height="24" viewBox="0 0 24 24" fill="none" xmlns="http://www.w3.org/2000/svg">
<path d="M19.9799 11.5354L19.6091 11.8662C19.4407 12.0182 19.2228 12.0982 18.9996 12.0898C18.7764 12.0814 18.5646 11.9854 18.4072 11.8212C18.2499 11.657 18.1588 11.4369 18.1524 11.2057C18.1461 10.9744 18.2249 10.7494 18.373 10.5761C18.2579 10.5662 18.1458 10.5328 18.0432 10.478C17.9406 10.4232 17.8493 10.348 17.7748 10.2567C17.7002 10.1653 17.6437 10.0597 17.6086 9.94576C17.5734 9.83183 17.5603 9.71185 17.5699 9.59266C17.5795 9.47347 17.6117 9.35742 17.6647 9.25111C17.7176 9.14481 17.7902 9.05035 17.8784 8.97312C17.9666 8.89588 18.0686 8.8374 18.1786 8.80099C18.2886 8.76459 18.4044 8.75098 18.5195 8.76095L19.1255 8.81179C19.4197 8.83708 19.7002 8.95183 19.9317 9.14162C20.1631 9.33142 20.3353 9.58781 20.4266 9.8786C20.5179 10.1694 20.5242 10.4816 20.4447 10.7761C20.3652 11.0706 20.2035 11.3342 19.9799 11.5338V11.5354ZM15.2633 13.343C15.1413 13.4519 15.0505 13.5935 15.0009 13.7522C14.9513 13.9109 14.9447 14.0807 14.9819 14.243L15.2809 15.5497C15.3063 15.6673 15.3541 15.7785 15.4214 15.8769C15.4887 15.9752 15.5741 16.0587 15.6728 16.1226C15.7715 16.1865 15.8815 16.2294 15.9963 16.249C16.1111 16.2685 16.2286 16.2642 16.3418 16.2364C16.455 16.2086 16.5618 16.1578 16.6559 16.0869C16.75 16.016 16.8296 15.9265 16.8901 15.8235C16.9505 15.7205 16.9907 15.6061 17.0081 15.487C17.0256 15.3678 17.02 15.2463 16.9918 15.1293L16.8159 14.3614L17.2644 13.9607C17.4348 13.8012 17.5383 13.579 17.5526 13.3416C17.5669 13.1041 17.4909 12.8703 17.3409 12.6902C17.1909 12.51 16.9787 12.3978 16.7498 12.3775C16.521 12.3573 16.2935 12.4306 16.1162 12.5818L15.2633 13.343ZM17.6864 18.1656C17.6368 17.947 17.5109 17.7551 17.333 17.6267C17.1551 17.4984 16.9377 17.4427 16.7225 17.4703C16.5073 17.4978 16.3096 17.6068 16.1672 17.7761C16.0249 17.9455 15.948 18.1634 15.9513 18.3879C15.7509 18.2719 15.5146 18.2417 15.293 18.3037C15.0714 18.3657 14.8819 18.515 14.7652 18.7198C14.6484 18.9245 14.6137 19.1684 14.6683 19.3994C14.7229 19.6303 14.8625 19.83 15.0574 19.9557L15.549 20.2691C15.801 20.4293 16.0932 20.5085 16.3887 20.4966C16.6841 20.4847 16.9695 20.3822 17.2087 20.2023C17.4479 20.0223 17.6302 19.7729 17.7324 19.4855C17.8347 19.1982 17.8523 18.8859 17.7831 18.5882L17.6864 18.1656ZM15.4443 10.3303L14.2983 10.2347C14.1367 10.2212 13.9819 10.1618 13.8509 10.063C13.7199 9.96414 13.6179 9.82974 13.556 9.67462L12.8797 7.97324V16.4308L13.2849 16.6888C13.4744 16.8193 13.6076 17.0208 13.6566 17.2509C13.7056 17.481 13.6666 17.7219 13.5477 17.9228C13.4288 18.1237 13.2394 18.2691 13.0191 18.3284C12.7989 18.3877 12.5651 18.3562 12.3668 18.2407L12.0004 18.0092L8.4518 20.2714C8.19982 20.4316 7.90761 20.5107 7.61217 20.4988C7.31673 20.4869 7.03134 20.3845 6.79213 20.2045C6.55292 20.0246 6.37065 19.7751 6.2684 19.4878C6.16615 19.2005 6.1485 18.8882 6.2177 18.5905L7.18491 14.3636L4.02098 11.5354C3.79712 11.3358 3.63519 11.0722 3.55553 10.7777C3.47587 10.4831 3.48203 10.1708 3.57324 9.87986C3.66445 9.58894 3.83664 9.33241 4.06818 9.14252C4.29971 8.95262 4.58027 8.83783 4.87461 8.81255L9.02187 8.46575L10.6207 4.45743C10.7332 4.17419 10.9244 3.93195 11.17 3.76148C11.4157 3.59101 11.7047 3.5 12.0004 3.5C12.2961 3.5 12.5852 3.59101 12.8308 3.76148C13.0765 3.93195 13.2677 4.17419 13.3802 4.45743L14.979 8.46575L15.5886 8.51659C15.8141 8.54522 16.0201 8.6631 16.1635 8.84553C16.3069 9.02797 16.3766 9.26081 16.3579 9.49527C16.3393 9.72973 16.2337 9.94761 16.0634 10.1033C15.8931 10.2589 15.6712 10.3403 15.4443 10.3303ZM11.1211 16.4285V7.97324L10.4419 9.67689C10.38 9.83202 10.278 9.96642 10.147 10.0652C10.016 10.1641 9.86118 10.2235 9.69964 10.2369L5.64031 10.5761L8.73757 13.343C8.85957 13.4519 8.95033 13.5935 8.99995 13.7522C9.04957 13.9109 9.05614 14.0807 9.01894 14.243L8.07445 18.3742L11.1211 16.4285Z" fill="black"/>
</svg>
