<svg width="24" height="24" viewBox="0 0 24 24" fill="none" xmlns="http://www.w3.org/2000/svg">
<path d="M12 4C14.1217 4 16.1566 4.84285 17.6569 6.34315C19.1571 7.84344 20 9.87827 20 12C20 14.1217 19.1571 16.1566 17.6569 17.6569C16.1566 19.1571 14.1217 20 12 20C9.87827 20 7.84344 19.1571 6.34315 17.6569C4.84285 16.1566 4 14.1217 4 12C4 9.87827 4.84285 7.84344 6.34315 6.34315C7.84344 4.84285 9.87827 4 12 4ZM12 5.14752C10.2049 5.18122 8.49468 5.91799 7.2371 7.19942C5.97951 8.48084 5.27498 10.2046 5.27498 12C5.27498 13.7954 5.97951 15.5192 7.2371 16.8006C8.49468 18.082 10.2049 18.8188 12 18.8525V5.1451" fill="black"/>
</svg>
