<svg width="24" height="24" viewBox="0 0 24 24" fill="none" xmlns="http://www.w3.org/2000/svg">
<mask id="mask0_2772_4192" style="mask-type:luminance" maskUnits="userSpaceOnUse" x="4" y="4" width="16" height="16">
<path d="M4 4H20V20H4V4Z" fill="white"/>
</mask>
<g mask="url(#mask0_2772_4192)">
<path d="M19.3333 12C19.3355 12.9516 19.149 13.8942 18.7846 14.7733L12.8859 12.3573C12.9819 12.124 12.9793 11.862 12.8793 11.6307L18.7659 9.16199C19.1415 10.061 19.3348 11.0257 19.3333 12Z" fill="#66E1FF"/>
<path d="M18.7853 14.7733C18.423 15.6663 17.887 16.4785 17.2083 17.1627C16.5297 17.8469 15.722 18.3896 14.832 18.7593L12.37 12.8793C12.4865 12.8311 12.5923 12.7601 12.681 12.6704C12.7697 12.5808 12.8397 12.4743 12.8867 12.3573L18.7853 14.7733Z" fill="#C2F3FF"/>
<path d="M14.8313 18.7593C13.944 19.1339 12.9913 19.3289 12.0282 19.3333C11.0651 19.3376 10.1106 19.1512 9.21997 18.7847L11.6366 12.88C11.7506 12.9307 11.8746 12.958 12 12.9567C12.128 12.958 12.2533 12.9307 12.37 12.88L14.8313 18.7593Z" fill="#FF808C"/>
<path d="M11.6372 12.88L9.22056 18.7847C7.42201 18.0451 5.98923 16.6239 5.23523 14.8313L11.1206 12.37C11.2179 12.602 11.4039 12.786 11.6372 12.88Z" fill="#FFBFC5"/>
<path d="M11.0439 12C11.0425 12.1273 11.0685 12.2533 11.1205 12.37L5.23454 14.8313C4.85942 13.9345 4.66634 12.9721 4.66654 12C4.66348 11.0461 4.84998 10.1011 5.21521 9.21997L11.1199 11.6366C11.0686 11.7508 11.0427 11.8748 11.0439 12Z" fill="#78EB7B"/>
<path d="M11.6305 11.1199C11.3958 11.2133 11.2105 11.3999 11.1205 11.6366L5.21582 9.21995C5.58006 8.32809 6.11677 7.51689 6.79517 6.83289C7.47357 6.14888 8.28032 5.60552 9.16915 5.23395L11.6305 11.1199Z" fill="#C9F7CA"/>
<path d="M14.7746 5.21532L12.364 11.12C12.2483 11.0697 12.1235 11.0438 11.9973 11.0438C11.8712 11.0438 11.7463 11.0697 11.6306 11.12L9.16931 5.23332C10.066 4.85897 11.0282 4.66658 12 4.66732C12.9516 4.66493 13.8942 4.85118 14.7733 5.21532" fill="#FFEF5E"/>
<path d="M18.7659 9.162L12.8799 11.63C12.8329 11.5144 12.7629 11.4096 12.674 11.3219C12.5852 11.2342 12.4795 11.1655 12.3633 11.12L14.7739 5.21533H14.7806C16.5787 5.95206 18.0117 7.37116 18.7659 9.162Z" fill="#FFF9BF"/>
<path d="M19.3333 12C19.3355 12.9516 19.149 13.8942 18.7846 14.7733L12.8859 12.3573C12.9819 12.124 12.9793 11.862 12.8793 11.6307L18.7659 9.16199C19.1415 10.061 19.3348 11.0257 19.3333 12Z" stroke="#191919" stroke-linecap="round" stroke-linejoin="round"/>
<path d="M14.832 18.7593C15.722 18.3896 16.5297 17.8469 17.2083 17.1627C17.8869 16.4785 18.423 15.6663 18.7853 14.7733L12.8866 12.3573C12.8396 12.4743 12.7697 12.5808 12.681 12.6704C12.5923 12.7601 12.4865 12.8311 12.37 12.8793M14.832 18.7593L12.37 12.8793M14.832 18.7593C13.9447 19.1338 12.9913 19.3289 12.0282 19.3332C11.0651 19.3376 10.1106 19.1511 9.21997 18.7846L11.6366 12.88C11.7506 12.9306 11.8746 12.958 12 12.9566C12.128 12.958 12.2533 12.93 12.37 12.8793" stroke="#191919" stroke-linecap="round" stroke-linejoin="round"/>
<path d="M5.23466 14.8313C5.98882 16.624 7.42186 18.0453 9.22066 18.7847L11.6373 12.88C11.5215 12.8338 11.4161 12.7649 11.3274 12.6773C11.2386 12.5897 11.1683 12.4852 11.1207 12.37M5.23466 14.8313L11.1207 12.37M5.23466 14.8313C4.85954 13.9345 4.66647 12.9721 4.66666 12C4.6636 11.0461 4.8501 10.1012 5.21533 9.21999M11.1207 12.37C11.0682 12.2538 11.042 12.1275 11.044 12C11.0428 11.8748 11.0687 11.7509 11.12 11.6367M5.21533 9.21999L11.12 11.6367M5.21533 9.21999C5.57958 8.32794 6.11635 7.51658 6.79488 6.83246C7.4734 6.14833 8.28031 5.60489 9.16933 5.23332L11.6307 11.1193M11.12 11.6367C11.2107 11.4007 11.396 11.2127 11.6307 11.1193M11.6307 11.1193C11.864 11.0173 12.1307 11.0173 12.364 11.1193L14.7747 5.21465C13.8951 4.85034 12.952 4.66408 12 4.66665C11.028 4.66665 10.0653 4.85999 9.16866 5.23399" stroke="#191919" stroke-linecap="round" stroke-linejoin="round"/>
<path d="M18.7659 9.162L12.8799 11.63C12.8329 11.5144 12.7629 11.4096 12.674 11.3219C12.5852 11.2342 12.4795 11.1655 12.3633 11.12L14.7739 5.21533H14.7806C16.5787 5.95206 18.0117 7.37116 18.7659 9.162Z" stroke="#191919" stroke-linecap="round" stroke-linejoin="round"/>
</g>
</svg>
