<svg width="400" height="268" viewBox="0 0 400 268" fill="none" xmlns="http://www.w3.org/2000/svg">
<path d="M397.999 0H184.5C183.395 0 182.5 0.785505 182.5 1.75447V96.4961C182.5 97.4651 183.395 98.2506 184.5 98.2506H397.999C399.104 98.2506 399.999 97.4651 399.999 96.4961V1.75447C399.999 0.785505 399.104 0 397.999 0Z" fill="white"/>
<path d="M184.281 0.424924C183.989 0.425733 183.71 0.527659 183.504 0.708449C183.298 0.889239 183.181 1.13421 183.181 1.38988V97.1386C183.181 97.3942 183.298 97.6392 183.504 97.82C183.71 98.0008 183.989 98.1027 184.281 98.1035H398.53C398.821 98.1027 399.101 98.0008 399.307 97.82C399.513 97.6392 399.629 97.3942 399.63 97.1386V1.39208C399.629 1.1364 399.513 0.891432 399.307 0.710642C399.101 0.529852 398.821 0.427926 398.53 0.427117H184.281M184.281 0.102539H398.53C398.92 0.102539 399.294 0.238401 399.569 0.480236C399.845 0.722072 400 1.05007 400 1.39208V97.1386C400 97.4806 399.845 97.8086 399.569 98.0504C399.294 98.2922 398.92 98.4281 398.53 98.4281H184.281C183.891 98.4281 183.517 98.2922 183.241 98.0504C182.965 97.8086 182.811 97.4806 182.811 97.1386V1.39208C182.811 1.05007 182.965 0.722072 183.241 0.480236C183.517 0.238401 183.891 0.102539 184.281 0.102539Z" fill="black"/>
<path d="M184.281 0.102539H398.53C398.92 0.102539 399.294 0.238401 399.569 0.480236C399.845 0.722072 400 1.05007 400 1.39208V8.48454H182.811V1.39208C182.811 1.05007 182.965 0.722072 183.241 0.480236C183.517 0.238401 183.891 0.102539 184.281 0.102539Z" fill="black"/>
<path d="M189.884 5.45758C190.827 5.45758 191.592 4.78676 191.592 3.95926C191.592 3.13176 190.827 2.46094 189.884 2.46094C188.94 2.46094 188.176 3.13176 188.176 3.95926C188.176 4.78676 188.94 5.45758 189.884 5.45758Z" fill="white"/>
<path d="M196.368 5.45758C197.311 5.45758 198.076 4.78676 198.076 3.95926C198.076 3.13176 197.311 2.46094 196.368 2.46094C195.425 2.46094 194.66 3.13176 194.66 3.95926C194.66 4.78676 195.425 5.45758 196.368 5.45758Z" fill="white"/>
<path d="M202.851 5.45758C203.794 5.45758 204.559 4.78676 204.559 3.95926C204.559 3.13176 203.794 2.46094 202.851 2.46094C201.907 2.46094 201.143 3.13176 201.143 3.95926C201.143 4.78676 201.907 5.45758 202.851 5.45758Z" fill="white"/>
<path d="M392.535 1.95996H385.071C384.924 1.95996 384.783 2.01107 384.68 2.10205C384.576 2.19303 384.518 2.31641 384.518 2.44507C384.518 2.57373 384.576 2.69712 384.68 2.7881C384.783 2.87908 384.924 2.93019 385.071 2.93019H392.535C392.607 2.93019 392.679 2.91764 392.746 2.89326C392.813 2.86888 392.874 2.83315 392.926 2.7881C392.977 2.74305 393.018 2.68958 393.045 2.63072C393.073 2.57186 393.088 2.50878 393.088 2.44507C393.088 2.38137 393.073 2.31829 393.045 2.25943C393.018 2.20057 392.977 2.1471 392.926 2.10205C392.874 2.057 392.813 2.02127 392.746 1.99689C392.679 1.97251 392.607 1.95996 392.535 1.95996Z" fill="white"/>
<path d="M392.535 3.77734H385.071C384.924 3.77734 384.783 3.82846 384.68 3.91943C384.576 4.01041 384.518 4.1338 384.518 4.26246C384.518 4.39112 384.576 4.51451 384.68 4.60548C384.783 4.69646 384.924 4.74757 385.071 4.74757H392.535C392.607 4.74757 392.679 4.73503 392.746 4.71065C392.813 4.68627 392.874 4.65053 392.926 4.60548C392.977 4.56044 393.018 4.50696 393.045 4.4481C393.073 4.38925 393.088 4.32616 393.088 4.26246C393.088 4.19875 393.073 4.13567 393.045 4.07681C393.018 4.01796 392.977 3.96448 392.926 3.91943C392.874 3.87438 392.813 3.83865 392.746 3.81427C392.679 3.7899 392.607 3.77734 392.535 3.77734Z" fill="white"/>
<path d="M392.535 5.5957H385.071C384.924 5.5957 384.783 5.64681 384.68 5.73779C384.576 5.82877 384.518 5.95216 384.518 6.08082C384.518 6.20948 384.576 6.33287 384.68 6.42384C384.783 6.51482 384.924 6.56593 385.071 6.56593H392.535C392.607 6.56593 392.679 6.55338 392.746 6.529C392.813 6.50462 392.874 6.46889 392.926 6.42384C392.977 6.3788 393.018 6.32532 393.045 6.26646C393.073 6.2076 393.088 6.14452 393.088 6.08082C393.088 6.01711 393.073 5.95403 393.045 5.89517C393.018 5.83632 392.977 5.78284 392.926 5.73779C392.874 5.69274 392.813 5.65701 392.746 5.63263C392.679 5.60825 392.607 5.5957 392.535 5.5957Z" fill="white"/>
<path d="M391.687 26.3721H336.037C335.649 26.373 335.278 26.5085 335.004 26.7489C334.73 26.9893 334.575 27.3151 334.574 27.655V47.4652C334.575 47.8052 334.73 48.131 335.004 48.3714C335.278 48.6118 335.649 48.7473 336.037 48.7482H391.687C392.074 48.7479 392.446 48.6126 392.72 48.372C392.994 48.1315 393.149 47.8054 393.149 47.4652V27.655C393.149 27.3149 392.994 26.9888 392.72 26.7482C392.446 26.5077 392.074 26.3724 391.687 26.3721Z" fill="#E8E6E6"/>
<path d="M386.387 55.1711H341.337C341.104 55.1677 340.873 55.2049 340.657 55.2807C340.44 55.3566 340.243 55.4694 340.077 55.6127C339.911 55.7559 339.779 55.9268 339.689 56.1153C339.599 56.3038 339.553 56.5061 339.553 56.7104C339.553 56.9148 339.599 57.1171 339.689 57.3056C339.779 57.4941 339.911 57.6649 340.077 57.8082C340.243 57.9515 340.44 58.0643 340.657 58.1401C340.873 58.216 341.104 58.2532 341.337 58.2498H386.387C388.673 58.2787 388.651 55.1422 386.387 55.1711Z" fill="#E8E6E6"/>
<path d="M386.387 62.2278H341.337C341.104 62.2243 340.873 62.2616 340.657 62.3374C340.44 62.4132 340.243 62.526 340.077 62.6693C339.911 62.8126 339.779 62.9835 339.689 63.1719C339.599 63.3604 339.553 63.5627 339.553 63.7671C339.553 63.9715 339.599 64.1738 339.689 64.3622C339.779 64.5507 339.911 64.7216 340.077 64.8649C340.243 65.0081 340.44 65.121 340.657 65.1968C340.873 65.2726 341.104 65.3099 341.337 65.3064H386.387C388.673 65.3354 388.651 62.1992 386.387 62.2278Z" fill="#E8E6E6"/>
<path d="M386.387 69.2864H341.337C341.104 69.2829 340.873 69.3202 340.657 69.396C340.44 69.4718 340.243 69.5846 340.077 69.7279C339.911 69.8712 339.779 70.0421 339.689 70.2305C339.599 70.419 339.553 70.6213 339.553 70.8257C339.553 71.03 339.599 71.2324 339.689 71.4208C339.779 71.6093 339.911 71.7802 340.077 71.9235C340.243 72.0667 340.44 72.1796 340.657 72.2554C340.873 72.3312 341.104 72.3685 341.337 72.365H386.387C388.673 72.394 388.651 69.2574 386.387 69.2864Z" fill="#E8E6E6"/>
<path d="M318.553 26.3721H262.904C262.516 26.373 262.145 26.5085 261.871 26.7489C261.597 26.9893 261.442 27.3151 261.441 27.655V47.4652C261.442 47.8052 261.597 48.131 261.871 48.3714C262.145 48.6118 262.516 48.7473 262.904 48.7482H318.554C318.942 48.7479 319.313 48.6126 319.587 48.372C319.862 48.1315 320.016 47.8054 320.016 47.4652V27.655C320.016 27.3148 319.862 26.9886 319.587 26.7481C319.313 26.5075 318.941 26.3723 318.553 26.3721Z" fill="#E8E6E6"/>
<path d="M313.254 55.1711H268.205C267.972 55.1677 267.74 55.2049 267.524 55.2807C267.308 55.3566 267.111 55.4694 266.944 55.6127C266.778 55.7559 266.646 55.9268 266.556 56.1153C266.466 56.3038 266.42 56.5061 266.42 56.7104C266.42 56.9148 266.466 57.1171 266.556 57.3056C266.646 57.4941 266.778 57.6649 266.944 57.8082C267.111 57.9515 267.308 58.0643 267.524 58.1401C267.74 58.216 267.972 58.2532 268.205 58.2498H313.254C315.54 58.2787 315.518 55.1422 313.254 55.1711Z" fill="#E8E6E6"/>
<path d="M313.254 62.2278H268.205C267.972 62.2243 267.74 62.2616 267.524 62.3374C267.308 62.4132 267.111 62.526 266.944 62.6693C266.778 62.8126 266.646 62.9835 266.556 63.1719C266.466 63.3604 266.42 63.5627 266.42 63.7671C266.42 63.9715 266.466 64.1738 266.556 64.3622C266.646 64.5507 266.778 64.7216 266.944 64.8649C267.111 65.0081 267.308 65.121 267.524 65.1968C267.74 65.2726 267.972 65.3099 268.205 65.3064H313.254C315.54 65.3354 315.518 62.1992 313.254 62.2278Z" fill="#E8E6E6"/>
<path d="M313.254 69.2864H268.205C267.972 69.2829 267.74 69.3202 267.524 69.396C267.308 69.4718 267.111 69.5846 266.944 69.7279C266.778 69.8712 266.646 70.0421 266.556 70.2305C266.466 70.419 266.42 70.6213 266.42 70.8257C266.42 71.03 266.466 71.2324 266.556 71.4208C266.646 71.6093 266.778 71.7802 266.944 71.9235C267.111 72.0667 267.308 72.1796 267.524 72.2554C267.74 72.3312 267.972 72.3685 268.205 72.365H313.254C315.54 72.394 315.518 69.2574 313.254 69.2864Z" fill="#E8E6E6"/>
<path d="M243.998 52.6367H157.998C156.341 52.6367 154.998 53.815 154.998 55.2684V129.834C154.998 131.287 156.341 132.465 157.998 132.465H243.998C245.655 132.465 246.998 131.287 246.998 129.834V55.2684C246.998 53.815 245.655 52.6367 243.998 52.6367Z" fill="white"/>
<path d="M157.086 52.9738C156.599 52.9742 156.132 53.1442 155.787 53.4464C155.443 53.7486 155.249 54.1583 155.248 54.5857V130.345C155.249 130.772 155.443 131.182 155.787 131.484C156.132 131.786 156.599 131.956 157.086 131.957H244.917C245.404 131.956 245.871 131.786 246.215 131.484C246.56 131.182 246.754 130.772 246.754 130.345V54.5857C246.754 54.1583 246.56 53.7486 246.215 53.4464C245.871 53.1442 245.404 52.9742 244.917 52.9738H157.086ZM157.086 52.6514H244.917C245.501 52.6514 246.062 52.8552 246.476 53.2179C246.889 53.5807 247.122 54.0727 247.122 54.5857V130.345C247.122 130.858 246.889 131.35 246.476 131.713C246.062 132.075 245.501 132.279 244.917 132.279H157.086C156.501 132.279 155.94 132.075 155.527 131.713C155.113 131.35 154.881 130.858 154.881 130.345V54.5857C154.881 54.0727 155.113 53.5807 155.527 53.2179C155.94 52.8552 156.501 52.6514 157.086 52.6514Z" fill="black"/>
<path d="M236.466 63.1533H165.533C165.038 63.1539 164.564 63.3266 164.214 63.6337C163.864 63.9407 163.667 64.3569 163.666 64.7911V90.0367C163.667 90.4709 163.864 90.8871 164.214 91.1942C164.564 91.5012 165.038 91.6739 165.533 91.6745H236.466C236.961 91.6732 237.434 91.5001 237.783 91.1932C238.133 90.8862 238.329 90.4704 238.329 90.0367V64.7911C238.329 64.3575 238.133 63.9416 237.783 63.6347C237.434 63.3277 236.961 63.1546 236.466 63.1533Z" fill="#E82E2D"/>
<path d="M229.714 99.8586H172.289C171.695 99.8586 171.126 100.065 170.706 100.434C170.287 100.802 170.051 101.301 170.051 101.822C170.051 102.343 170.287 102.842 170.706 103.21C171.126 103.578 171.695 103.785 172.289 103.785H229.714C232.628 103.821 232.599 99.8231 229.714 99.8586Z" fill="#E82E2D"/>
<path d="M229.714 108.855H172.289C171.695 108.855 171.126 109.062 170.706 109.43C170.287 109.798 170.051 110.297 170.051 110.818C170.051 111.339 170.287 111.838 170.706 112.206C171.126 112.574 171.695 112.781 172.289 112.781H229.714C232.628 112.817 232.599 108.819 229.714 108.855Z" fill="#E82E2D"/>
<path d="M229.714 117.851H172.289C171.696 117.851 171.127 118.058 170.708 118.425C170.288 118.793 170.053 119.292 170.053 119.813C170.053 120.333 170.288 120.832 170.708 121.2C171.127 121.568 171.696 121.774 172.289 121.774H229.714C232.629 121.809 232.599 117.815 229.714 117.851Z" fill="#E82E2D"/>
<path d="M212.773 48.6737C210.684 48.6737 208.643 48.1304 206.906 47.1125C205.169 46.0946 203.816 44.6479 203.017 42.9551C202.217 41.2624 202.008 39.3998 202.416 37.6029C202.823 35.8059 203.829 34.1553 205.306 32.8597C206.783 31.5642 208.664 30.6819 210.713 30.3245C212.761 29.967 214.884 30.1505 216.814 30.8516C218.744 31.5528 220.393 32.7401 221.553 34.2635C222.714 35.7869 223.333 37.5779 223.333 39.4101C223.333 41.867 222.22 44.2232 220.24 45.9605C218.26 47.6978 215.574 48.6737 212.773 48.6737Z" fill="#E82E2D"/>
<path d="M216.94 38.4948H213.815V35.7557C213.815 35.5133 213.705 35.2808 213.51 35.1095C213.314 34.9381 213.049 34.8418 212.773 34.8418C212.497 34.8418 212.232 34.9381 212.036 35.1095C211.841 35.2808 211.731 35.5133 211.731 35.7557V38.497H208.606C208.33 38.497 208.065 38.5933 207.87 38.7647C207.674 38.9361 207.564 39.1685 207.564 39.4109C207.564 39.6533 207.674 39.8857 207.87 40.0571C208.065 40.2285 208.33 40.3247 208.606 40.3247H211.731V43.0661C211.731 43.3085 211.841 43.5409 212.036 43.7123C212.232 43.8837 212.497 43.98 212.773 43.98C213.049 43.98 213.314 43.8837 213.51 43.7123C213.705 43.5409 213.815 43.3085 213.815 43.0661V40.3247H216.94C217.216 40.3247 217.481 40.2285 217.676 40.0571C217.872 39.8857 217.981 39.6533 217.981 39.4109C217.981 39.1685 217.872 38.9361 217.676 38.7647C217.481 38.5933 217.216 38.497 216.94 38.497V38.4948Z" fill="white"/>
<path d="M16.044 133.412L0.469576 180.112C-0.0153031 181.566 -0.126392 183.096 0.144313 184.592C0.415019 186.088 1.06078 187.513 2.03503 188.764C3.00929 190.015 4.28776 191.06 5.77828 191.825C7.26881 192.59 8.93426 193.055 10.6545 193.187L27.648 194.492L16.044 133.412Z" fill="#E82E2D"/>
<path opacity="0.1" d="M16.044 133.412L0.469576 180.112C-0.0153031 181.566 -0.126392 183.096 0.144313 184.592C0.415019 186.088 1.06078 187.513 2.03503 188.764C3.00929 190.015 4.28776 191.06 5.77828 191.825C7.26881 192.59 8.93426 193.055 10.6545 193.187L27.648 194.492L16.044 133.412Z" fill="black"/>
<path d="M157.393 124.797L136.562 155.018L126.754 144.117L145.923 117.79C145.242 114.728 146.066 111.172 148.503 108.102C152.766 102.73 160.332 100.885 165.4 103.979C170.468 107.073 171.12 113.938 166.857 119.31C165.774 120.729 164.379 121.945 162.754 122.886C161.13 123.827 159.308 124.476 157.395 124.793L157.393 124.797Z" fill="#ED9DA0"/>
<path d="M27.523 198.061L25.023 205.524L25.108 213.092C25.108 213.092 8.65109 230.453 14.7146 268L91.8068 267.153L82.6234 206.732L27.5235 198.061L27.523 198.061Z" fill="black"/>
<path d="M36.2017 94.6353C36.2027 91.0906 37.3235 87.6155 39.4398 84.5958C41.5561 81.5762 44.585 79.1301 48.1902 77.5292C51.7953 75.9283 55.8357 75.2353 59.8628 75.527C63.8898 75.8187 67.7459 77.0838 71.0029 79.1818C74.2599 81.2798 76.7904 84.1285 78.3133 87.4118C79.8363 90.6951 80.2921 94.2845 79.6303 97.7813C78.9684 101.278 77.2148 104.546 74.5641 107.221C71.9133 109.896 68.4692 111.875 64.6141 112.937L61.3546 115.241L67.2046 133.207L60.3856 137.441L38.8422 121.691C38.8422 121.691 43.4967 116.49 45.9921 110.626C42.9805 108.878 40.5097 106.503 38.801 103.712C37.0923 100.922 36.1991 97.8033 36.2012 94.6358L36.2017 94.6353Z" fill="#ED9DA0"/>
<path d="M141.59 123.839C133.872 123.736 119.603 145.465 119.603 145.465L107.881 141.827L83.7735 134.341L65.2991 127.67L65.3801 128.16C65.3066 128.006 65.2301 127.853 65.1411 127.695C63.1991 124.186 57.5571 120.055 41.5412 120.872L34.0007 126.095L32.9752 126.811C29.74 126.658 26.5043 127.101 23.4752 128.109C20.0447 129.319 16.6142 131.574 14.9912 135.795C14.1502 137.97 14.1502 142.47 14.6552 148.186C16.4797 168.883 24.9817 212.882 24.9817 212.882L78.6656 206.646L82.6255 206.727C82.6255 206.727 83.0965 201.985 83.5165 195.774C83.777 192.132 84.0126 187.993 84.147 184.01C84.2395 181.089 84.2645 178.256 84.206 175.764C84.1975 175.608 84.1975 175.454 84.189 175.299C84.029 170.748 83.508 167.451 82.389 167.09C82.389 167.09 85.8615 167.008 90.8725 166.846C102.98 166.448 124.084 165.557 127.094 164.117C131.349 162.088 153.655 134.864 153.655 134.864C153.655 134.864 149.317 123.947 141.59 123.838L141.59 123.839Z" fill="#E82E2D"/>
<path d="M48.1299 67.1068C49.2992 67.1087 50.4655 67.2104 51.6124 67.4103C53.685 66.5278 55.9585 66.0683 58.2624 66.0664H58.8659C70.4993 66.0664 79.9298 75.3011 79.9298 86.6924H76.0298L75.3998 82.4892L74.4769 86.6924H71.2293C72.239 90.0654 72.7454 93.539 72.7358 97.0263V118.021H66.8428L63.4309 110.242L64.2844 118.021H19.8125V101.535C19.8125 82.5216 32.4905 67.1068 48.1299 67.1068Z" fill="black"/>
</svg>
