<svg width="400" height="455" viewBox="0 0 400 455" fill="none" xmlns="http://www.w3.org/2000/svg">
<g clip-path="url(#clip0_5377_11552)">
<path d="M166.857 439.439L177.2 440.776L179.78 409.04L169.368 413.078L166.857 439.439Z" fill="#C2C2C2"/>
<path d="M177.473 437.556C177.473 437.556 177.409 435.011 178.948 435.482C180.487 435.953 184.632 438.905 184.632 438.905C184.632 438.905 199.57 440.949 197.743 444.179C195.915 447.408 188.552 448.103 186.512 447.899C184.471 447.695 173.881 446.56 173.881 446.56C173.881 446.56 165.632 447.403 165.835 445.361C166.039 443.318 166.147 437.458 166.147 437.458C166.147 437.458 174.822 443.481 177.473 437.556Z" fill="black"/>
<path d="M271.16 239.433V227.014C271.16 222.601 272.912 218.368 276.03 215.247C279.149 212.126 283.378 210.373 287.788 210.373C292.198 210.373 296.427 212.126 299.545 215.247C302.664 218.368 304.415 222.601 304.415 227.014V239.433C304.415 240.025 304.179 240.593 303.761 241.012C303.342 241.431 302.774 241.667 302.182 241.668H273.395C272.803 241.667 272.236 241.431 271.817 241.012C271.398 240.593 271.163 240.025 271.162 239.433H271.16Z" fill="black"/>
<path d="M292.263 198.165L116.841 300.776C116.227 301.134 115.496 301.234 114.808 301.054C114.121 300.873 113.533 300.427 113.173 299.814L0.367341 106.647C0.00928474 106.032 -0.090563 105.301 0.0897067 104.613C0.269976 103.925 0.715638 103.336 1.32889 102.977L176.75 0.365682C177.364 0.00733752 178.095 -0.0925906 178.782 0.0878242C179.47 0.268239 180.058 0.714259 180.417 1.32801L293.225 194.496C293.583 195.11 293.683 195.842 293.502 196.53C293.322 197.218 292.876 197.806 292.263 198.166V198.165Z" fill="white"/>
<path d="M157.751 227.606C157.751 227.606 166.259 223.745 169.36 228.711C172.462 233.678 166.77 245.143 166.77 245.143L151.551 242.067L157.751 227.606Z" fill="#ED9DA0"/>
<path d="M292.263 198.165L116.841 300.776C116.227 301.134 115.496 301.234 114.808 301.054C114.121 300.873 113.533 300.427 113.173 299.814L0.367341 106.647C0.00928474 106.032 -0.090563 105.301 0.0897067 104.613C0.269976 103.925 0.715638 103.336 1.32889 102.977L176.75 0.365682C177.364 0.00733752 178.095 -0.0925906 178.782 0.0878242C179.47 0.268239 180.058 0.714259 180.417 1.32801L293.225 194.496C293.583 195.11 293.683 195.842 293.502 196.53C293.322 197.218 292.876 197.806 292.263 198.166V198.165ZM1.86593 103.903C1.49795 104.119 1.23053 104.472 1.12238 104.885C1.01424 105.298 1.07421 105.737 1.28912 106.105L114.095 299.273C114.311 299.641 114.664 299.909 115.076 300.017C115.489 300.125 115.927 300.065 116.296 299.85L291.722 197.239C292.09 197.023 292.358 196.67 292.466 196.257C292.574 195.844 292.514 195.405 292.299 195.036L179.493 1.86946C179.278 1.50117 178.925 1.23354 178.512 1.12531C178.1 1.01708 177.661 1.07709 177.293 1.29217L1.86593 103.903Z" fill="#2F2F2F"/>
<path d="M116.902 123.14L73.3936 148.59C72.7796 148.948 72.0487 149.048 71.3611 148.868C70.6736 148.688 70.0857 148.242 69.7264 147.628L44.297 104.084C43.939 103.47 43.8391 102.738 44.0194 102.05C44.1997 101.362 44.6453 100.774 45.2586 100.414L88.767 74.9643C89.381 74.606 90.112 74.506 90.7995 74.6865C91.487 74.8669 92.0749 75.3129 92.4342 75.9266L117.864 119.47C118.222 120.085 118.322 120.816 118.141 121.504C117.961 122.192 117.515 122.781 116.902 123.14ZM45.8013 101.338C45.4333 101.554 45.1659 101.907 45.0577 102.32C44.9496 102.732 45.0096 103.171 45.2245 103.54L70.6539 147.084C70.8694 147.452 71.2221 147.719 71.6345 147.827C72.0469 147.936 72.4854 147.876 72.8537 147.661L116.362 122.211C116.73 121.995 116.998 121.642 117.106 121.229C117.214 120.816 117.154 120.377 116.939 120.009L91.5096 76.4653C91.2941 76.0971 90.9414 75.8296 90.529 75.7214C90.1166 75.6132 89.6781 75.6731 89.3098 75.888L45.8013 101.338Z" fill="#C2C2C2"/>
<path d="M107.516 135.777L64.0073 161.227C63.4547 161.549 62.7969 161.639 62.1783 161.476C61.5596 161.314 61.0306 160.913 60.7072 160.36L35.2778 116.817C34.9557 116.264 34.866 115.606 35.0282 114.986C35.1905 114.367 35.5915 113.838 36.1433 113.514L79.6518 88.0642C80.2044 87.7419 80.8621 87.652 81.4808 87.8144C82.0994 87.9768 82.6285 88.3782 82.9519 88.9304L108.381 132.474C108.703 133.027 108.793 133.685 108.631 134.304C108.469 134.924 108.068 135.453 107.516 135.777Z" fill="#E82E2D"/>
<path d="M212.53 102.94L76.45 182.536C76.1765 182.696 75.8742 182.8 75.5603 182.843C75.2465 182.886 74.9272 182.867 74.6207 182.786C74.3143 182.706 74.0267 182.566 73.7743 182.374C73.522 182.183 73.3098 181.943 73.15 181.669C72.9901 181.396 72.8857 181.093 72.8427 180.779C72.7996 180.465 72.8189 180.145 72.8992 179.839C72.9796 179.532 73.1195 179.244 73.3111 178.992C73.5026 178.739 73.742 178.527 74.0155 178.367L210.096 98.7684C210.648 98.4453 211.306 98.355 211.925 98.5175C212.544 98.6799 213.073 99.0818 213.396 99.6346C213.719 100.187 213.809 100.846 213.647 101.465C213.484 102.085 213.083 102.614 212.53 102.937V102.94Z" fill="#E8E6E6"/>
<path d="M188.056 136.521L84.8387 196.896C84.2863 197.219 83.6283 197.309 83.0094 197.147C82.3905 196.984 81.8615 196.583 81.5386 196.03C81.2158 195.477 81.1256 194.818 81.2879 194.199C81.4502 193.58 81.8517 193.05 82.4041 192.727L185.621 132.351C185.895 132.191 186.197 132.087 186.511 132.044C186.825 132.001 187.144 132.02 187.451 132.1C187.757 132.181 188.045 132.321 188.297 132.513C188.549 132.704 188.762 132.944 188.921 133.218C189.081 133.491 189.186 133.794 189.229 134.108C189.272 134.422 189.253 134.742 189.172 135.048C189.092 135.355 188.952 135.643 188.76 135.895C188.569 136.148 188.329 136.36 188.056 136.52V136.521Z" fill="#E8E6E6"/>
<path d="M181.229 50.4002L121.057 85.5967C120.784 85.7567 120.482 85.8612 120.168 85.9043C119.854 85.9473 119.535 85.9281 119.228 85.8477C118.922 85.7672 118.634 85.6272 118.382 85.4355C118.129 85.2438 117.917 85.0043 117.757 84.7305C117.598 84.4568 117.493 84.1542 117.45 83.8401C117.407 83.526 117.426 83.2065 117.507 82.8998C117.587 82.5931 117.727 82.3052 117.918 82.0527C118.11 81.8001 118.349 81.5878 118.623 81.4278L178.794 46.2313C179.347 45.9082 180.005 45.8179 180.624 45.9804C181.242 46.1428 181.771 46.5446 182.094 47.0975C182.417 47.6503 182.507 48.3089 182.345 48.9282C182.183 49.5476 181.782 50.0771 181.229 50.4002Z" fill="#E8E6E6"/>
<path d="M174.599 73.5438L129.444 99.9565C129.171 100.116 128.868 100.221 128.554 100.264C128.241 100.307 127.921 100.288 127.615 100.207C126.996 100.045 126.467 99.6431 126.144 99.0903C125.821 98.5375 125.731 97.8789 125.893 97.2595C126.056 96.6402 126.457 96.1107 127.01 95.7876L172.164 69.3748C172.438 69.2148 172.74 69.1103 173.054 69.0673C173.368 69.0242 173.687 69.0435 173.994 69.1239C174.3 69.2043 174.588 69.3444 174.84 69.5361C175.092 69.7277 175.305 69.9673 175.464 70.241C175.624 70.5148 175.729 70.8173 175.772 71.1315C175.815 71.4456 175.796 71.7651 175.715 72.0718C175.635 72.3785 175.495 72.6663 175.303 72.9189C175.112 73.1714 174.872 73.3838 174.599 73.5438Z" fill="#E8E6E6"/>
<path d="M229.304 131.658L93.2235 211.256C92.9499 211.416 92.6476 211.521 92.3337 211.564C92.0199 211.607 91.7006 211.588 91.3942 211.507C91.0877 211.427 90.8001 211.287 90.5478 211.095C90.2954 210.903 90.0832 210.664 89.9234 210.39C89.7635 210.116 89.6591 209.814 89.6161 209.5C89.5731 209.186 89.5923 208.866 89.6727 208.559C89.753 208.253 89.893 207.965 90.0845 207.712C90.276 207.46 90.5154 207.247 90.7889 207.087L226.869 127.489C227.142 127.329 227.445 127.225 227.758 127.182C228.072 127.138 228.392 127.158 228.698 127.238C229.005 127.319 229.292 127.459 229.544 127.65C229.797 127.842 230.009 128.082 230.169 128.355C230.329 128.629 230.433 128.932 230.476 129.246C230.519 129.56 230.5 129.879 230.42 130.186C230.339 130.493 230.199 130.781 230.008 131.033C229.816 131.286 229.577 131.498 229.303 131.658H229.304Z" fill="#E8E6E6"/>
<path d="M204.827 165.241L101.61 225.614C101.337 225.774 101.034 225.879 100.72 225.922C100.407 225.965 100.087 225.946 99.7809 225.865C99.4745 225.785 99.1868 225.645 98.9345 225.453C98.6821 225.261 98.47 225.022 98.3101 224.748C98.1503 224.474 98.0458 224.172 98.0028 223.858C97.9598 223.544 97.979 223.224 98.0594 222.917C98.1398 222.611 98.2797 222.323 98.4712 222.07C98.6627 221.818 98.9021 221.605 99.1756 221.445L202.393 161.072C202.945 160.749 203.603 160.659 204.222 160.821C204.841 160.984 205.37 161.385 205.693 161.938C206.016 162.491 206.106 163.15 205.944 163.769C205.781 164.388 205.38 164.918 204.827 165.241Z" fill="#E8E6E6"/>
<path d="M246.078 160.379L109.997 239.977C109.445 240.3 108.786 240.39 108.168 240.228C107.549 240.065 107.02 239.664 106.697 239.111C106.374 238.558 106.284 237.899 106.446 237.28C106.608 236.661 107.01 236.131 107.562 235.808L243.642 156.21C244.195 155.887 244.853 155.796 245.472 155.959C246.09 156.121 246.619 156.523 246.942 157.076C247.265 157.629 247.355 158.287 247.193 158.907C247.031 159.526 246.629 160.056 246.077 160.379H246.078Z" fill="#E8E6E6"/>
<path d="M254.462 174.738L118.382 254.336C117.829 254.659 117.171 254.75 116.552 254.587C115.933 254.425 115.404 254.023 115.082 253.47C114.759 252.917 114.669 252.259 114.831 251.639C114.993 251.02 115.395 250.491 115.947 250.167L252.028 170.569C252.58 170.246 253.238 170.156 253.857 170.318C254.476 170.481 255.005 170.883 255.328 171.435C255.65 171.988 255.741 172.647 255.578 173.266C255.416 173.886 255.015 174.415 254.462 174.738Z" fill="#E8E6E6"/>
<path d="M210.457 230.641C212.348 228.413 214.049 226.031 215.545 223.52C216.886 221.254 218.202 218.833 218.497 216.175C218.648 215.044 218.53 213.893 218.153 212.816C217.776 211.739 217.15 210.766 216.327 209.976C215.531 209.241 214.522 208.779 213.446 208.657C212.371 208.534 211.284 208.757 210.343 209.294C209.391 209.84 208.605 210.634 208.067 211.592C207.53 212.549 207.261 213.634 207.289 214.732C207.366 215.941 207.715 217.117 208.31 218.172C208.905 219.227 209.73 220.134 210.723 220.825C214.746 223.742 221.027 223.589 225.314 221.37C230.145 218.867 232.638 212.327 228.844 207.852C228.056 206.921 226.742 207.962 226.94 208.967C227.191 210.323 227.95 211.533 229.062 212.348C230.174 213.163 231.555 213.523 232.923 213.354C234.291 213.185 235.543 212.499 236.424 211.437C237.304 210.376 237.746 209.018 237.659 207.641L235.954 208.638C238.045 209.565 240.343 209.925 242.617 209.681C244.891 209.437 247.06 208.597 248.907 207.248C249.82 206.584 250.636 205.794 251.331 204.903C252.165 203.814 253.567 203.11 254.703 202.324L262.886 196.666C264.09 195.834 262.943 193.85 261.732 194.689L254.322 199.814C253.087 200.667 251.844 201.511 250.616 202.376C249.739 202.994 249.199 203.992 248.4 204.727C246.888 206.087 245.021 206.99 243.017 207.329C241.012 207.669 238.952 207.431 237.077 206.643C236.903 206.549 236.707 206.502 236.509 206.506C236.311 206.509 236.117 206.564 235.946 206.664C235.774 206.764 235.632 206.906 235.532 207.077C235.431 207.248 235.376 207.442 235.372 207.641C235.421 208.049 235.389 208.464 235.277 208.86C235.166 209.256 234.977 209.626 234.723 209.95C234.468 210.273 234.153 210.543 233.794 210.744C233.435 210.946 233.041 211.074 232.632 211.123C232.224 211.171 231.81 211.139 231.414 211.027C231.018 210.916 230.648 210.727 230.325 210.473C230.002 210.218 229.732 209.902 229.531 209.543C229.33 209.184 229.202 208.789 229.153 208.38L227.249 209.494C229.696 212.382 228.066 216.812 225.247 218.75C222.094 220.918 217.435 221.294 213.881 219.945C213.009 219.644 212.209 219.167 211.529 218.544C210.85 217.92 210.307 217.162 209.933 216.319C209.587 215.557 209.488 214.705 209.651 213.884C209.814 213.062 210.231 212.313 210.842 211.741C211.371 211.218 212.083 210.921 212.827 210.913C213.571 210.905 214.289 211.187 214.829 211.699C215.417 212.301 215.849 213.038 216.085 213.846C216.322 214.653 216.356 215.507 216.185 216.331C215.819 218.625 214.551 220.74 213.373 222.701C212.027 224.934 210.505 227.055 208.821 229.045C207.877 230.162 209.503 231.775 210.459 230.643L210.457 230.641Z" fill="#E82E2D"/>
<path d="M228.496 285.076C228.693 285.279 228.874 285.497 229.037 285.729L254.377 285.108L257.332 279.702L266.068 283.101L261.764 293.181C261.416 293.995 260.813 294.674 260.047 295.117C259.281 295.559 258.392 295.741 257.513 295.636L228.884 292.174C228.209 293.03 227.289 293.659 226.247 293.979C225.206 294.299 224.092 294.294 223.053 293.964C222.014 293.635 221.101 292.997 220.433 292.135C219.766 291.273 219.376 290.228 219.317 289.14C219.257 288.051 219.53 286.97 220.099 286.04C220.669 285.11 221.507 284.376 222.504 283.935C223.5 283.494 224.607 283.367 225.677 283.571C226.748 283.775 227.731 284.3 228.495 285.077L228.496 285.076Z" fill="#ED9DA0"/>
<path d="M311.1 439.092H302.769L298.805 406.928H311.101L311.1 439.092Z" fill="#ED9DA0"/>
<path d="M234.994 439.521L226.9 436.06L236.386 403.168L248.331 408.276L234.994 439.521Z" fill="#ED9DA0"/>
<path d="M281.702 238.985C284.364 235.842 291.67 238.041 291.67 238.041L294.05 250.615H281.02C281.02 250.615 279.041 242.128 281.702 238.985Z" fill="#ED9DA0"/>
<path d="M270.603 292.044L270.002 301.815L287.614 303.701L306.042 305.674L300.618 290.837L270.603 292.044Z" fill="#FFB7B7"/>
<path d="M269.443 301.941L262.602 254.206L274.46 250.316L277.943 245.536L294.892 246.54L297.381 252.118L306.417 256.392L305.028 282.208L306.041 303.803L269.443 301.941Z" fill="#E8E6E6"/>
<path d="M265.138 289.149L253.076 284.319L253.128 284.104C253.18 283.887 258.314 262.416 258.995 258.965C259.705 255.371 262.3 254.377 262.41 254.336L262.49 254.307L267.264 255.761L269.361 272.247L265.138 289.149Z" fill="#E8E6E6"/>
<path d="M241.648 433.255L225.592 429.957L251.255 359.085L260.038 334.913C260.038 334.913 265.608 315.532 268.126 308.031L269.645 297.967L305.601 301.948C305.601 301.948 315.643 316.708 312.591 340.766L313.97 431.192L297.914 432.016L284.466 340.82L260.862 390.814C255.55 405.431 249.126 419.62 241.648 433.255Z" fill="black"/>
<path d="M291.182 305.307C291.465 305.3 291.748 305.316 292.028 305.353L308.803 286.334L306.851 280.489L315.281 276.389L319.74 286.399C319.74 286.399 320.036 290.011 318.648 291.187L296.647 309.842C296.815 310.919 296.651 312.022 296.177 313.004C295.703 313.986 294.942 314.8 293.994 315.339C293.047 315.877 291.958 316.114 290.873 316.017C289.787 315.921 288.757 315.497 287.919 314.8C287.08 314.104 286.474 313.168 286.18 312.118C285.886 311.068 285.918 309.954 286.272 308.923C286.626 307.892 287.286 306.993 288.163 306.346C289.04 305.699 290.093 305.335 291.182 305.302V305.307Z" fill="#ED9DA0"/>
<path d="M307.464 288.186L300.467 271.713L303.195 260.239L306.135 256.521C306.35 256.429 306.583 256.383 306.817 256.385C307.051 256.387 307.282 256.438 307.496 256.534C308.58 256.971 309.504 258.31 310.241 260.515L316.798 279.209L307.464 288.186Z" fill="#E8E6E6"/>
<path d="M284.371 241.378C291.104 241.378 296.562 235.916 296.562 229.177C296.562 222.439 291.104 216.977 284.371 216.977C277.638 216.977 272.18 222.439 272.18 229.177C272.18 235.916 277.638 241.378 284.371 241.378Z" fill="#ED9DA0"/>
<path d="M267.225 228.006C267.229 224.516 268.616 221.17 271.081 218.703C273.547 216.235 276.891 214.847 280.378 214.843H282.859C286.347 214.847 289.69 216.235 292.156 218.703C294.622 221.17 296.009 224.516 296.013 228.006V228.255H290.768L288.979 223.242L288.621 228.255H285.91L285.008 225.726L284.827 228.255H267.225V228.006Z" fill="black"/>
<path d="M283.171 243.064C282.924 242.73 282.777 242.334 282.746 241.92C282.715 241.506 282.802 241.092 282.996 240.726C285.626 235.721 289.308 226.469 284.42 220.763L284.069 220.353H298.259V241.673L285.369 243.948C285.238 243.971 285.104 243.983 284.971 243.983C284.619 243.983 284.272 243.899 283.959 243.739C283.645 243.579 283.375 243.346 283.168 243.061L283.171 243.064Z" fill="black"/>
<path d="M119.148 431.821L127.553 436.188L137.35 408.919H130.373L119.148 431.821Z" fill="#C2C2C2"/>
<path d="M150.66 242.314L154.138 235.437C154.138 235.437 167.095 238.685 168.27 246.2L150.66 242.314Z" fill="#E8E6E6"/>
<path d="M136.311 320.95L139.828 359.25L141.161 373.767L121.164 424.151L131.258 429.481C131.258 429.481 152.093 394.181 159.268 380.473C166.443 366.764 164.357 369.254 164.357 369.254L166.017 438.226L180.255 435.991C180.255 435.991 183.089 401.407 182.152 373.769C181.216 346.132 176.097 319.646 176.097 319.646L136.311 320.95Z" fill="black"/>
<path d="M154.266 333.436C140.372 333.436 131.551 330.776 131.353 330.734L131.033 330.666L138.27 297.087L138.595 266.114C138.595 252.989 147.227 243.312 148.427 242.419C148.629 241.622 149.002 240.879 149.52 240.242C150.038 239.604 150.689 239.087 151.428 238.728C154.306 237.42 157.825 238.989 157.973 239.057L168.533 243.019L168.583 243.166C168.71 243.541 182.619 289.241 182.619 289.241C182.619 289.241 181.778 329.17 181.483 330.478C181.482 330.477 161.984 333.436 154.266 333.436Z" fill="#2F2F2F"/>
<path d="M164.939 236.375C172.821 236.375 179.211 229.98 179.211 222.091C179.211 214.202 172.821 207.807 164.939 207.807C157.056 207.807 150.666 214.202 150.666 222.091C150.666 229.98 157.056 236.375 164.939 236.375Z" fill="#ED9DA0"/>
<path d="M227.313 292.371C226.61 292.927 225.795 293.323 224.923 293.529C224.052 293.735 223.146 293.748 222.269 293.566C221.392 293.384 220.566 293.012 219.848 292.476C219.131 291.94 218.539 291.253 218.116 290.463L196.623 293.906L201.279 283.59L220.975 281.902C222.348 281.277 223.902 281.178 225.342 281.623C226.783 282.069 228.011 283.028 228.792 284.318C229.573 285.609 229.854 287.142 229.581 288.626C229.309 290.111 228.501 291.443 227.312 292.371H227.313Z" fill="#ED9DA0"/>
<path d="M202.387 283.002L210.109 282.244L212.249 293.025L202.532 293.196L202.387 283.002Z" fill="#E8E6E6"/>
<path d="M208.716 296.782L170.894 293.412L151.797 263.015L151.74 262.747C151.199 260.264 151.579 257.669 152.81 255.447C154.04 253.224 156.036 251.525 158.426 250.667C160.816 249.809 163.436 249.851 165.798 250.784C168.159 251.718 170.1 253.479 171.26 255.74L182.47 277.625L205.096 281.048L208.716 296.782Z" fill="#2F2F2F"/>
<path d="M399.316 447.839H35.9842C35.8451 447.806 35.7213 447.726 35.6327 447.613C35.5442 447.501 35.4961 447.362 35.4961 447.218C35.4961 447.075 35.5442 446.936 35.6327 446.823C35.7213 446.711 35.8451 446.631 35.9842 446.598H399.511C399.657 446.618 399.79 446.693 399.881 446.809C399.972 446.925 400.015 447.072 400 447.219C399.974 447.385 399.892 447.537 399.768 447.65C399.643 447.763 399.484 447.83 399.316 447.839Z" fill="#E8E6E6"/>
<path d="M312.743 446.049C313.081 445.808 313.365 445.498 313.576 445.14C313.787 444.782 313.92 444.383 313.967 443.97C314.024 443.109 313.599 442.185 312.704 441.224C312.682 440.947 312.404 437.521 311.785 436.907C311.837 436.724 312.152 435.507 311.636 434.718C311.504 434.528 311.33 434.37 311.128 434.259C310.926 434.147 310.701 434.083 310.47 434.073H310.446L310.435 434.094C310.42 434.121 308.914 436.772 306.648 437.004C305.35 437.138 304.049 436.46 302.784 434.991C302.739 434.882 302.381 433.092 302.15 431.908L302.141 431.86L289.797 438.435L282.58 440.458C282.166 440.578 281.799 440.821 281.525 441.153C281.252 441.486 281.085 441.894 281.047 442.323C281.009 442.752 281.102 443.183 281.313 443.558C281.524 443.934 281.843 444.237 282.229 444.427L285.727 446.134C287.195 446.847 288.806 447.219 290.439 447.222H309.41C310.622 447.228 311.798 446.815 312.741 446.054L312.743 446.049Z" fill="black"/>
<path d="M239.553 445.943C239.91 445.689 240.209 445.362 240.431 444.985C240.654 444.607 240.795 444.186 240.844 443.751C240.901 442.841 240.455 441.868 239.511 440.854C239.489 440.562 239.196 436.948 238.545 436.301C238.431 435.328 238.123 434.388 237.64 433.536C237.384 433.144 235.516 436.155 233.127 436.401C231.757 436.541 230.386 435.828 229.051 434.278C229.002 434.164 228.626 432.275 228.382 431.026L228.372 430.976L215.351 437.91L207.741 440.044C207.305 440.17 206.918 440.426 206.63 440.777C206.341 441.128 206.166 441.558 206.126 442.011C206.086 442.463 206.184 442.917 206.406 443.314C206.629 443.71 206.966 444.029 207.373 444.23L211.061 446.027C212.611 446.78 214.31 447.172 216.032 447.175H236.042C237.32 447.181 238.561 446.746 239.555 445.942L239.553 445.943Z" fill="black"/>
<path d="M127.019 432.075C129.469 432.93 128.26 429.248 129.623 430.204C130.985 431.159 134.812 436.19 134.812 436.19C134.812 436.19 148.844 442.984 146.013 445.576C143.183 448.168 135.725 446.487 133.784 445.634C131.843 444.782 121.796 440.274 121.796 440.274C121.796 440.274 113.415 438.463 114.267 436.521C115.119 434.579 120.518 427.588 120.518 427.588C120.518 427.588 124.569 431.221 127.019 432.075Z" fill="black"/>
<path d="M160.575 232.425C157.152 233.351 154.564 234.757 151.893 232.425C149.223 230.094 146.365 224.148 145.402 220.733C144.697 218.231 144.363 215.456 145.476 213.108C146.588 210.76 149.583 209.175 151.893 210.362C150.468 208.7 151.18 205.951 152.845 204.529C154.509 203.107 156.795 202.7 158.972 202.477C162.132 202.154 165.394 202.118 168.401 203.142C171.409 204.167 174.141 206.406 175.08 209.442C176.041 209.889 177.124 210.006 178.158 209.772C179.192 209.538 180.119 208.968 180.795 208.151C180.969 209.09 180.829 210.06 180.396 210.911C179.964 211.763 179.264 212.448 178.403 212.86L183.01 211.366C183.802 213.044 182.414 215.119 180.639 215.659C178.864 216.198 176.945 215.609 175.263 214.832C173.581 214.056 171.946 213.074 170.116 212.772C168.287 212.469 166.138 213.056 165.291 214.709C164.848 215.574 164.824 216.586 164.567 217.524C164.31 218.463 163.658 219.433 162.692 219.51C162.08 219.559 161.481 219.233 160.873 219.299C160.499 219.373 160.155 219.555 159.882 219.822C159.61 220.089 159.421 220.429 159.339 220.802C159.187 221.55 159.185 222.321 159.333 223.07L160.503 232.021" fill="black"/>
</g>
<defs>
<clipPath id="clip0_5377_11552">
<rect width="400" height="455" fill="white"/>
</clipPath>
</defs>
</svg>
