<svg width="400" height="268" viewBox="0 0 400 268" fill="none" xmlns="http://www.w3.org/2000/svg">
<g clip-path="url(#clip0_5377_11550)">
<path d="M110.744 262.092L117.887 261.403L118.16 237.681L107.617 238.697L110.744 262.092Z" fill="#FFB8B8"/>
<path d="M132.416 265.707L109.967 267.871L108.982 260.506L122.758 259.178C125.059 258.956 127.368 259.52 129.18 260.744C130.991 261.969 132.155 263.754 132.416 265.707Z" fill="black"/>
<path d="M37.2824 261.713H44.4714L47.8911 238.167L37.2812 238.168L37.2824 261.713Z" fill="#FFB8B8"/>
<path d="M58.3361 267.38L35.7426 267.381L35.7422 259.968L49.6064 259.968C51.9215 259.968 54.1419 260.749 55.779 262.139C57.4162 263.529 58.336 265.414 58.3361 267.38Z" fill="black"/>
<path d="M88.8621 156.421L92.9668 167.758L115.249 208.702L121.113 247.538L107.626 248.036L99.4169 212.187L71.2709 186.296L46.6431 254.011L35.502 253.015C35.502 253.015 44.884 165.384 57.7842 156.421C57.7842 156.421 78.8937 147.957 88.8621 156.421Z" fill="black"/>
<path d="M70.6539 107.503C78.6079 107.503 85.0559 102.028 85.0559 95.2741C85.0559 88.5201 78.6079 83.0449 70.6539 83.0449C62.6999 83.0449 56.252 88.5201 56.252 95.2741C56.252 102.028 62.6999 107.503 70.6539 107.503Z" fill="#FFB8B8"/>
<path d="M90.3277 158.661C90.3277 158.661 92.0868 107.875 67.459 111.36C42.8312 114.845 53.0928 163.889 53.0928 163.889C53.0928 163.889 58.3702 172.852 71.2705 162.894C84.1707 152.935 90.3277 158.661 90.3277 158.661Z" fill="#C2C2C2"/>
<path opacity="0.2" d="M56.3184 132.771L62.1135 151.633L70.9426 159.13L58.6639 155.674L56.3184 132.771Z" fill="black"/>
<path d="M90.5101 180.14C89.6997 179.89 88.9636 179.493 88.3536 178.976C87.7436 178.459 87.2746 177.834 86.9796 177.146C86.6846 176.459 86.5708 175.724 86.6461 174.995C86.7215 174.266 86.9842 173.56 87.4158 172.926L73.7188 159.461L84.5165 158.268L95.868 171.237C97.0736 171.923 97.9407 172.961 98.3053 174.154C98.6698 175.347 98.5064 176.612 97.846 177.709C97.1855 178.807 96.074 179.66 94.7219 180.108C93.3699 180.556 91.8713 180.567 90.5101 180.14Z" fill="#FFB8B8"/>
<path d="M73.8318 121.704L75.374 147.458L93.5516 167.375L85.9287 172.354L61.3009 151.442C61.3009 151.442 52.5053 126.048 58.9554 118.58C61.3742 115.779 64.0404 115.009 66.4283 115.14C68.393 115.279 70.2301 116.023 71.5937 117.232C72.9573 118.441 73.7533 120.032 73.8318 121.704Z" fill="#C2C2C2"/>
<path d="M68.9413 108.124C69.0101 108.072 69.0636 108.006 69.0975 107.933C69.1314 107.861 69.1448 107.782 69.1367 107.704C69.1285 107.626 69.099 107.55 69.0505 107.483C69.0021 107.417 68.9359 107.36 68.8574 107.319C67.5785 106.647 66.5365 105.694 65.8409 104.561C65.1453 103.429 64.8218 102.158 64.9043 100.883C64.9869 99.6072 65.4725 98.3741 66.31 97.3131C67.1476 96.2521 68.3063 95.4022 69.6643 94.8527C73.8986 93.1385 79.6362 94.4721 82.7664 91.1779C83.4029 90.4732 83.8531 89.6601 84.0861 88.7942C84.3191 87.9284 84.3295 87.03 84.1166 86.1604C83.4412 83.0491 80.6866 80.7385 77.6018 79.155C73.8123 77.2098 69.4569 76.2048 65.0292 76.2537C60.6015 76.3026 56.2784 77.4035 52.5497 79.4317C48.8211 81.46 45.836 84.3344 43.9326 87.7294C42.0293 91.1244 41.2838 94.9041 41.7806 98.6404C42.1788 101.635 43.267 104.993 41.17 107.424C39.3245 109.564 35.841 109.965 32.7809 110.496C26.2175 111.637 19.8855 114.268 15.4315 118.517C10.9775 122.766 8.60138 128.728 9.94428 134.301C11.2872 139.874 16.6747 144.772 23.2964 145.636C28.6862 146.339 34.2515 144.396 38.2094 141.211C42.1674 138.026 44.6692 133.724 46.2472 129.292C48.1201 124.032 48.8589 118.363 52.2404 113.677C55.5494 109.091 62.6802 105.804 68.269 108.192C68.3761 108.24 68.4976 108.259 68.6176 108.246C68.7376 108.234 68.8505 108.192 68.9413 108.124Z" fill="black"/>
<path d="M180.604 268H0.586376C0.430859 268 0.281703 267.947 0.171736 267.854C0.0617693 267.761 0 267.634 0 267.502C0 267.37 0.0617693 267.243 0.171736 267.15C0.281703 267.056 0.430859 267.004 0.586376 267.004H180.604C180.759 267.004 180.908 267.056 181.018 267.15C181.128 267.243 181.19 267.37 181.19 267.502C181.19 267.634 181.128 267.761 181.018 267.854C180.908 267.947 180.759 268 180.604 268Z" fill="#2F2F2F"/>
<path d="M362.455 98.4763C362.423 112.58 356.178 126.164 344.949 136.556C333.719 146.948 318.318 153.398 301.772 154.637C285.227 155.876 268.734 151.815 255.536 143.252C242.338 134.689 233.39 122.243 230.45 108.362C227.511 94.4805 230.794 80.1677 239.652 68.2371C248.511 56.3066 262.305 47.6214 278.323 43.889C294.34 40.1566 311.423 41.6471 326.212 48.0673C341.001 54.4876 352.427 65.3732 358.243 78.5841C358.388 78.9158 358.53 79.2476 358.667 79.5825V79.5857C359.281 81.058 359.822 82.5577 360.29 84.0848C361.732 88.7838 362.46 93.6203 362.455 98.4763Z" fill="#2F2F2F"/>
<path d="M288.153 60.1066C285.143 58.7245 281.801 57.9443 278.382 57.8255C274.963 57.7067 271.557 58.2525 268.425 59.4212C265.666 60.4405 262.762 62.2691 261.842 65.5711C265.563 63.7061 270.381 66.6527 271.338 71.3797L271.115 71.4321C270.609 74.7062 271.738 78.2709 273.924 80.301C274.087 79.385 274.488 78.5112 275.098 77.7431C275.707 76.975 276.511 76.3319 277.45 75.8605C279.056 74.9639 280.833 74.3127 282.059 72.7716C283.513 70.9447 283.882 68.2747 284.459 65.839C285.036 63.4032 286.132 60.7853 288.153 60.1066Z" fill="#E82E2D"/>
<path d="M267.32 87.9678C266.29 89.2822 264.913 90.1068 263.678 91.1337C262.251 92.2352 261.316 93.7203 261.028 95.339C260.872 96.4827 261.114 97.6454 261.08 98.8018C261.047 99.9581 260.593 101.26 259.666 101.547C258.204 101.996 257.088 99.6896 255.585 99.5284C254.39 99.4021 253.315 100.998 253.661 102.381C254.007 103.765 255.633 104.378 256.567 103.475C257.412 104.678 256.816 106.862 255.547 107.231C255.413 107.99 255.28 108.745 255.149 109.503C251.942 107.598 248.701 105.661 245.974 102.871C242.94 99.7947 241.059 96.0187 240.571 92.0278C240.217 88.8209 240.742 85.1527 239.008 82.6852C237.62 80.7105 235.239 80.2744 233.096 80.3977C232.705 80.4198 232.311 80.4577 231.92 80.4987C233.184 77.2753 234.789 74.1557 236.716 71.1782C237.152 71.0193 237.557 70.8051 237.918 70.5431C239.912 69.1056 240.798 66.1956 242.416 64.183C242.521 64.0535 242.629 63.9271 242.74 63.8039C244.396 61.9682 246.614 61.0236 248.757 60.1452C253.501 58.1895 258.383 56.2085 263.391 56.4802L261.966 56.5971C260.303 60.5528 258.638 64.5085 256.972 68.4642C256.719 69.0708 256.464 69.6785 256.206 70.2872C255.261 72.5368 254.286 74.9317 254.431 77.4498C254.517 78.9411 255.127 80.5335 256.288 81.0453C257.371 81.5193 258.554 80.9379 259.599 80.3629C260.042 80.1227 260.481 79.8826 260.924 79.6393C262.513 78.7705 264.273 77.8795 265.951 78.4608C267.488 78.9916 268.622 80.7641 268.838 82.6756C269.036 84.5337 268.502 86.3951 267.32 87.9678Z" fill="#E82E2D"/>
<path d="M276.771 114.975C272.13 112.549 267.49 110.123 262.85 107.697L262.929 107.524C260.044 108.457 258.846 112.812 259.322 116.373C259.799 119.935 261.416 123.118 262.233 126.588C263.334 131.337 262.918 136.249 261.029 140.815C267.131 135.002 272.531 128.683 277.148 121.955C277.793 121.107 278.284 120.182 278.606 119.21C278.946 118.174 278.825 117.068 278.265 116.104C277.885 115.628 277.372 115.24 276.771 114.975Z" fill="#E82E2D"/>
<path d="M258.456 70.8381C257.911 71.8315 257.827 72.9629 258.221 74.0065C258.679 74.8474 259.51 75.5006 260.532 75.8239L263.096 76.9031C263.949 77.2621 264.868 77.6247 265.738 77.3293C266.787 76.973 267.514 75.5769 267.326 74.2807C267.125 72.9015 266.102 71.9527 265.155 71.1448C263.83 70.0142 262.504 68.8836 261.179 67.7529L260.432 68.5296C259.625 69.1987 258.956 69.9792 258.456 70.8381Z" fill="#E82E2D"/>
<path d="M348.71 85.5823C349.864 85.813 351.017 86.0436 352.171 86.2742C351.97 89.5822 350.039 92.6438 347.449 93.7528C346.37 94.2141 345.168 94.3846 344.275 95.2472C343.468 96.0308 343.058 97.2503 342.682 98.4162C342.024 100.451 341.365 102.486 340.707 104.52C340 106.713 339.092 109.149 337.254 109.939C335.676 110.618 333.871 109.787 332.658 108.394C331.445 107.001 330.705 105.127 329.987 103.301C330.031 105.291 328.941 107.244 327.397 107.936C325.849 108.628 323.966 108.002 322.932 106.457C322.188 105.348 321.879 103.885 321.15 102.761C320.42 101.636 318.891 100.991 318.095 102.046C317.57 102.748 317.637 103.822 317.377 104.713C317.246 105.305 316.901 105.847 316.39 106.264C315.879 106.681 315.228 106.953 314.527 107.042C313.882 107.029 313.247 106.905 312.66 106.678C312.074 106.45 311.548 106.123 311.115 105.718C308.836 103.739 307.353 101.198 306.876 98.4604C306.554 97.1477 306.594 95.7892 306.996 94.4921C307.453 93.2631 308.558 92.3153 309.656 92.549C310.378 91.2536 308.953 89.5349 307.669 89.6865C306.382 89.8382 305.373 91.0103 304.317 91.9108C303.264 92.8113 301.79 93.4653 300.73 92.5711C300.753 92.8982 300.623 93.2198 300.367 93.4653C300.112 93.7108 299.752 93.8601 299.367 93.8802C299.329 93.8822 299.291 93.8829 299.252 93.8823C298.547 93.7105 297.892 93.4156 297.329 93.0166C294.899 91.7307 291.814 92.5838 290.088 95.0166C291.167 91.1177 292.748 86.6439 296.064 85.7276C297.418 85.3516 298.895 85.6612 300.175 85.0104C302.441 83.8572 302.899 79.5002 300.942 77.7025C301.191 79.4023 301.143 81.3865 300.086 82.5492C299.029 83.7119 296.811 82.9536 296.945 81.2348C296.915 81.4766 296.796 81.704 296.604 81.8846C296.413 82.0652 296.159 82.1896 295.879 82.2401C295.599 82.2906 295.307 82.2646 295.045 82.1657C294.784 82.0669 294.566 81.9003 294.423 81.6898C293.72 80.7799 293.779 79.2918 294.278 78.2049C294.792 77.2205 295.529 76.3316 296.447 75.5888C298.214 73.9807 300.008 72.3535 302.054 71.3424C304.105 70.3314 306.471 69.9902 308.525 70.9949C309.608 71.5257 310.56 72.4104 311.665 72.8779C311.925 73.0148 312.214 73.1068 312.515 73.1489C312.817 73.1909 313.125 73.1821 313.423 73.1229C313.721 73.0637 314.001 72.9554 314.25 72.804C314.498 72.6526 314.709 72.4613 314.87 72.2407C314.882 72.2237 314.894 72.2065 314.906 72.1892C315.729 70.9633 315.342 69.1434 315.647 67.6111C316.194 64.9034 319.382 63.6364 321.15 65.4247C319.829 65.1372 318.463 66.4642 318.3 68.0724C318.132 69.6805 319.089 71.3045 320.368 71.7911C322.519 72.5999 324.625 70.5652 326.251 68.6821C327.948 66.7106 329.647 64.7401 331.349 62.7707C331.62 62.4354 331.925 62.1204 332.26 61.8292C332.793 61.3881 333.504 61.1355 334.248 61.1226C334.992 61.1097 335.714 61.3375 336.268 61.7597C337.987 62.9508 338.794 65.3931 340.204 67.074C342.251 69.5162 345.313 70.1102 348.163 70.5842C350.288 70.9349 352.414 71.2877 354.541 71.6426C355.959 73.8825 357.196 76.2017 358.243 78.5841C354.342 80.0944 351.034 82.5232 348.71 85.5823Z" fill="#E82E2D"/>
<path d="M355.58 123.598C353.986 126.346 352.132 128.98 350.036 131.474C348.697 130.988 347.257 131.857 346.003 132.672C344.693 133.525 343.119 134.356 341.776 133.579C340.403 132.782 339.96 130.555 340.395 128.789C340.896 127.16 341.771 125.63 342.97 124.29C344.087 122.874 345.281 121.405 346.833 120.855C348.388 120.306 350.386 121.083 350.84 122.96L351.941 122.928C351.324 122.208 351.647 120.716 352.477 120.454C353.433 120.148 354.263 121.263 354.829 122.249C355.082 122.694 355.338 123.143 355.58 123.598Z" fill="#E82E2D"/>
<path d="M313.398 110.252C311.031 110.379 309.155 107.904 307.909 105.47C306.663 103.035 305.526 100.251 303.39 99.0119C302.17 98.3038 300.778 98.2067 299.454 97.8635C298.703 97.7025 298.009 97.3918 297.427 96.9573C296.846 96.5227 296.395 95.9768 296.112 95.3647L294.61 94.8496C292.51 95.7412 290.586 96.9059 288.909 98.3016C286.992 100.03 285.798 102.247 285.511 104.608C285.224 107.161 286.284 110.007 288.263 110.966C289.827 111.723 291.648 111.246 293.232 111.939C295.211 112.806 296.386 115.323 296.831 117.808C297.276 120.294 297.163 122.877 297.482 125.39C297.8 127.904 298.677 130.519 300.492 131.808C302.764 133.42 306.097 132.08 307.116 129.146C307.616 127.706 307.598 126.082 307.972 124.588C308.631 121.957 310.407 120.005 311.817 117.847C313.226 115.688 314.335 112.757 313.398 110.252Z" fill="#E82E2D"/>
<path d="M290.005 84.3973C290.226 84.5699 290.432 84.7556 290.622 84.953C290.818 85.2405 290.919 85.5679 290.912 85.9002C290.905 86.2324 290.792 86.5568 290.584 86.8384C290.869 86.8246 291.148 86.7607 291.403 86.6508C291.657 86.541 291.882 86.3874 292.063 86.2C292.495 85.7821 292.876 85.3275 293.198 84.8433C293.349 84.6775 293.457 84.4862 293.515 84.2822C293.573 84.0781 293.578 83.866 293.532 83.6599C293.42 83.3889 293.156 83.2733 292.97 83.0695C292.713 82.671 292.538 82.2383 292.452 81.7899C292.349 81.3696 292.11 80.9821 291.762 80.6707C291.414 80.3593 290.971 80.1365 290.482 80.0273L290.601 80.0466C290.399 80.1484 290.239 80.3012 290.145 80.4837C290.05 80.6663 290.025 80.8693 290.073 81.0645C290.145 81.4588 290.444 81.7861 290.414 82.1882C290.371 82.7664 289.691 83.0378 289.649 83.6161C289.642 83.9062 289.77 84.1868 290.005 84.3973Z" fill="#E82E2D"/>
<path d="M285.949 74.5712L285.96 74.5695C286.033 74.5131 286.1 74.452 286.162 74.3867L285.949 74.5712Z" fill="#E82E2D"/>
<path d="M286.658 77.2858C286.943 77.0739 287.153 76.7998 287.266 76.4933C287.38 76.1869 287.392 75.8598 287.301 75.548C287.129 74.8905 286.52 74.4485 285.959 74.5699C285.796 74.7101 285.594 74.8128 285.371 74.8685C285.149 74.9241 284.913 74.9308 284.687 74.8879C284.34 74.812 283.959 74.6166 283.658 74.8386C283.486 75.0045 283.365 75.2043 283.307 75.4199C283.196 75.7104 283.084 76.0008 282.973 76.2912C282.92 76.3951 282.906 76.5105 282.934 76.6213C282.955 76.6658 282.989 76.7048 283.034 76.7347C283.078 76.7646 283.13 76.7842 283.186 76.7919L285.192 77.2939C285.422 77.384 285.673 77.43 285.926 77.4285C286.18 77.4271 286.43 77.3784 286.658 77.2858Z" fill="#E82E2D"/>
<path d="M337.129 114.757C336.82 114.328 336.511 113.898 336.202 113.468C335.899 112.971 335.484 112.528 334.981 112.166C334.76 112.009 334.476 111.933 334.19 111.955C333.904 111.976 333.64 112.093 333.456 112.28L333.439 112.297L333.477 112.542C334.305 113.296 334.868 114.23 335.105 115.24C335.176 115.679 335.151 116.134 335.213 116.575C335.22 116.779 335.274 116.98 335.372 117.167C335.47 117.354 335.611 117.522 335.786 117.663C336.272 117.939 336.844 117.532 337.19 117.035C337.5 116.627 337.639 116.143 337.584 115.66C337.507 115.336 337.352 115.028 337.129 114.757Z" fill="#E82E2D"/>
<path d="M341.978 115.316C342.037 114.913 341.998 114.505 341.865 114.116C341.843 113.59 342.007 113.07 342.337 112.623C342.664 112.202 342.912 111.741 343.072 111.255C343.139 111.033 343.127 110.8 343.037 110.584C342.934 110.389 342.687 110.3 342.544 110.455L342.849 110.621C342.438 110.559 342.016 110.576 341.614 110.672C341.385 110.746 341.181 110.866 341.018 111.022C340.855 111.178 340.739 111.365 340.679 111.567C340.629 111.882 340.547 112.193 340.434 112.496C340.252 112.813 339.901 112.918 339.68 113.196C339.53 113.442 339.454 113.717 339.459 113.994C339.465 114.272 339.551 114.544 339.711 114.786C339.988 115.182 340.429 115.476 340.947 115.611C341.319 115.724 341.808 115.73 341.978 115.316Z" fill="#E82E2D"/>
<path d="M350.611 117.527C350.745 117.824 350.925 118.104 351.146 118.361C351.559 118.714 352.121 118.497 352.622 118.411C353.077 118.35 353.543 118.395 353.971 118.541C354.398 118.686 354.771 118.927 355.05 119.238C354.856 118.415 354.432 117.643 353.813 116.988C353.194 116.332 352.4 115.813 351.495 115.472C350.32 115.127 349.082 114.962 347.839 114.987L347.627 115.033C348.168 116.37 349.867 116.34 350.611 117.527Z" fill="#E82E2D"/>
<path d="M314.045 120.263L314.048 120.269L314.11 120.168L314.045 120.263Z" fill="#E82E2D"/>
<path d="M312.737 122.415C312.451 122.856 312.205 123.314 312.002 123.786C311.733 124.55 311.554 125.336 311.469 126.131C311.403 126.583 311.382 127.16 311.716 127.38C311.812 127.434 311.927 127.457 312.041 127.444C312.155 127.431 312.259 127.383 312.335 127.309C312.52 127.143 312.672 126.951 312.783 126.743C313.439 125.784 313.948 124.759 314.298 123.691C314.663 122.558 314.576 121.355 314.05 120.269C313.612 120.984 313.174 121.7 312.737 122.415Z" fill="#E82E2D"/>
<path d="M300.101 65.0655C300.309 65.2382 300.572 65.3554 300.858 65.4027C301.143 65.45 301.439 65.4254 301.708 65.3318C302.266 65.1248 302.777 64.838 303.22 64.4838C303.587 64.2533 303.898 63.9651 304.137 63.6347C304.268 63.4374 304.352 63.2199 304.385 62.9948C304.417 62.7697 304.396 62.5414 304.324 62.323C304.222 62.1138 304.058 61.9303 303.849 61.7897C303.64 61.6491 303.392 61.5562 303.128 61.5197C302.386 61.3328 301.644 61.1459 300.902 60.9591L301.439 60.5483C300.887 60.2966 300.276 60.7637 299.93 61.342C299.709 61.7196 299.555 62.123 299.472 62.539C299.355 62.9736 299.35 63.4248 299.459 63.8611C299.568 64.2974 299.787 64.7084 300.101 65.0655Z" fill="#E82E2D"/>
<path d="M313.202 61.3306C313.411 61.5264 313.7 61.6472 314.01 61.6687C314.32 61.6901 314.629 61.6105 314.872 61.446C315.082 61.3122 315.256 61.1425 315.384 60.9477C315.511 60.753 315.589 60.5377 315.611 60.3158C315.664 59.8201 315.375 59.2693 314.963 59.2265L315.057 58.7624C314.263 58.6406 313.286 58.6163 312.861 59.4351C312.717 59.7487 312.673 60.0888 312.733 60.4215C312.793 60.7541 312.954 61.0676 313.202 61.3306Z" fill="#E82E2D"/>
<path d="M259.221 94.7127C261.957 94.7127 264.174 92.1876 264.174 89.0727C264.174 85.9578 261.957 83.4326 259.221 83.4326C256.485 83.4326 254.268 85.9578 254.268 89.0727C254.268 92.1876 256.485 94.7127 259.221 94.7127Z" fill="#E8E6E6"/>
<path d="M349.739 164.552C352.104 164.017 353.666 162.451 353.228 161.055C352.79 159.658 350.518 158.959 348.153 159.494C345.788 160.028 344.226 161.594 344.664 162.991C345.102 164.388 347.375 165.087 349.739 164.552Z" fill="#E8E6E6"/>
<path d="M320.775 165.006C323.139 164.471 324.701 162.906 324.263 161.509C323.825 160.112 321.553 159.413 319.188 159.948C316.823 160.482 315.261 162.048 315.7 163.445C316.138 164.842 318.41 165.541 320.775 165.006Z" fill="#E8E6E6"/>
<path d="M354.884 144.089C357.249 143.554 358.811 141.989 358.372 140.592C357.934 139.195 355.662 138.496 353.297 139.031C350.933 139.566 349.371 141.131 349.809 142.528C350.247 143.925 352.519 144.624 354.884 144.089Z" fill="#E8E6E6"/>
<path d="M363.427 135.391C364.495 135.279 365.206 134.131 365.016 132.828C364.826 131.524 363.806 130.559 362.738 130.671C361.67 130.784 360.959 131.932 361.149 133.235C361.34 134.538 362.359 135.504 363.427 135.391Z" fill="#E8E6E6"/>
<path d="M365.589 119.954C366.657 119.841 367.368 118.694 367.178 117.39C366.988 116.087 365.968 115.122 364.9 115.234C363.832 115.346 363.121 116.494 363.311 117.797C363.502 119.101 364.521 120.066 365.589 119.954Z" fill="#E8E6E6"/>
<path d="M336.392 149.63C337.46 149.518 338.171 148.37 337.981 147.067C337.79 145.764 336.771 144.798 335.703 144.911C334.635 145.023 333.924 146.171 334.114 147.474C334.304 148.777 335.324 149.743 336.392 149.63Z" fill="#E8E6E6"/>
<path d="M351.037 154.131C352.104 154.019 352.816 152.871 352.625 151.568C352.435 150.265 351.415 149.299 350.347 149.412C349.28 149.524 348.568 150.672 348.759 151.975C348.949 153.278 349.969 154.244 351.037 154.131Z" fill="#E8E6E6"/>
<path d="M333.255 166.878C334.323 166.766 335.034 165.618 334.844 164.315C334.654 163.012 333.634 162.046 332.566 162.159C331.498 162.271 330.787 163.419 330.977 164.722C331.168 166.025 332.188 166.991 333.255 166.878Z" fill="#E8E6E6"/>
<path d="M205.767 143.898C208.132 143.363 209.693 141.797 209.255 140.4C208.817 139.003 206.545 138.305 204.18 138.839C201.815 139.374 200.254 140.94 200.692 142.337C201.13 143.734 203.402 144.433 205.767 143.898Z" fill="#E8E6E6"/>
<path d="M176.802 144.354C179.167 143.819 180.729 142.253 180.29 140.856C179.852 139.46 177.58 138.761 175.215 139.295C172.851 139.83 171.289 141.396 171.727 142.793C172.165 144.19 174.437 144.889 176.802 144.354Z" fill="#E8E6E6"/>
<path d="M210.913 123.435C213.278 122.9 214.84 121.334 214.402 119.937C213.964 118.541 211.691 117.842 209.327 118.376C206.962 118.911 205.4 120.477 205.838 121.874C206.276 123.271 208.548 123.97 210.913 123.435Z" fill="#E8E6E6"/>
<path d="M219.454 114.737C220.522 114.624 221.234 113.477 221.043 112.173C220.853 110.87 219.833 109.905 218.765 110.017C217.698 110.13 216.986 111.277 217.177 112.581C217.367 113.884 218.387 114.849 219.454 114.737Z" fill="#E8E6E6"/>
<path d="M221.617 99.2994C222.684 99.1869 223.396 98.0393 223.205 96.736C223.015 95.4327 221.995 94.4673 220.927 94.5797C219.86 94.6921 219.148 95.8397 219.339 97.143C219.529 98.4463 220.549 99.4118 221.617 99.2994Z" fill="#E8E6E6"/>
<path d="M192.419 128.976C193.487 128.864 194.198 127.716 194.008 126.413C193.818 125.109 192.798 124.144 191.73 124.256C190.662 124.369 189.951 125.517 190.141 126.82C190.332 128.123 191.352 129.089 192.419 128.976Z" fill="#E8E6E6"/>
<path d="M207.064 133.477C208.132 133.365 208.843 132.217 208.653 130.914C208.462 129.61 207.442 128.645 206.375 128.757C205.307 128.87 204.596 130.017 204.786 131.321C204.976 132.624 205.996 133.589 207.064 133.477Z" fill="#E8E6E6"/>
<path d="M189.285 146.225C190.352 146.113 191.064 144.965 190.873 143.662C190.683 142.358 189.663 141.393 188.595 141.505C187.528 141.618 186.816 142.766 187.007 144.069C187.197 145.372 188.217 146.338 189.285 146.225Z" fill="#E8E6E6"/>
<path d="M381.741 49.3275C384.106 48.7928 385.668 47.2269 385.23 45.83C384.792 44.4331 382.52 43.7343 380.155 44.269C377.79 44.8038 376.228 46.3697 376.666 47.7666C377.104 49.1634 379.377 49.8623 381.741 49.3275Z" fill="#E8E6E6"/>
<path d="M352.777 49.7826C355.141 49.2478 356.703 47.6819 356.265 46.2851C355.827 44.8882 353.555 44.1893 351.19 44.7241C348.825 45.2589 347.263 46.8248 347.701 48.2216C348.14 49.6185 350.412 50.3174 352.777 49.7826Z" fill="#E8E6E6"/>
<path d="M386.888 28.8637C389.253 28.3289 390.815 26.763 390.376 25.3661C389.938 23.9692 387.666 23.2704 385.301 23.8051C382.937 24.3399 381.375 25.9058 381.813 27.3027C382.251 28.6996 384.523 29.3984 386.888 28.8637Z" fill="#E8E6E6"/>
<path d="M395.429 20.1666C396.497 20.0541 397.208 18.9065 397.018 17.6032C396.828 16.2999 395.808 15.3344 394.74 15.4469C393.672 15.5593 392.961 16.7069 393.151 18.0102C393.342 19.3136 394.361 20.279 395.429 20.1666Z" fill="#E8E6E6"/>
<path d="M397.591 4.72905C398.659 4.61664 399.37 3.46897 399.18 2.16566C398.99 0.862355 397.97 -0.103057 396.902 0.00935259C395.834 0.121763 395.123 1.26943 395.313 2.57274C395.504 3.87604 396.523 4.84146 397.591 4.72905Z" fill="#E8E6E6"/>
<path d="M368.394 34.4058C369.462 34.2934 370.173 33.1457 369.983 31.8424C369.792 30.5391 368.773 29.5737 367.705 29.6861C366.637 29.7985 365.926 30.9462 366.116 32.2495C366.306 33.5528 367.326 34.5182 368.394 34.4058Z" fill="#E8E6E6"/>
<path d="M383.038 38.9068C384.106 38.7944 384.818 37.6467 384.627 36.3434C384.437 35.0401 383.417 34.0747 382.349 34.1871C381.282 34.2995 380.57 35.4472 380.761 36.7505C380.951 38.0538 381.971 39.0192 383.038 38.9068Z" fill="#E8E6E6"/>
<path d="M365.259 51.6538C366.327 51.5414 367.038 50.3938 366.848 49.0905C366.658 47.7872 365.638 46.8217 364.57 46.9342C363.502 47.0466 362.791 48.1942 362.981 49.4975C363.172 50.8008 364.191 51.7663 365.259 51.6538Z" fill="#E8E6E6"/>
<path d="M197.063 147.397C192.324 147.397 189.243 146.397 187.88 144.41C185.191 140.49 189.694 133.612 201.265 123.968L202.237 124.809C191.489 133.768 186.816 140.518 189.079 143.817C190.51 145.903 194.771 146.651 201.404 145.978C207.988 145.311 216.713 143.322 227.337 140.066C249.21 133.363 276.651 122.057 304.606 108.23C332.56 94.4029 357.678 79.7113 375.335 66.8617C378.727 64.3932 381.804 62.0184 384.483 59.8039C388 56.9678 391.244 53.8977 394.185 50.623C398.145 46.0567 399.482 42.5402 398.05 40.4535C395.659 36.9682 385.614 37.2959 369.765 41.3776L369.363 40.25C386.367 35.8715 396.423 35.7402 399.249 39.8606C401.005 42.4206 399.677 46.2767 395.302 51.3218C392.316 54.6484 389.022 57.7671 385.451 60.6481C382.752 62.88 379.652 65.2715 376.238 67.7563C358.52 80.6509 333.328 95.3863 305.304 109.248C277.279 123.11 249.757 134.448 227.808 141.174C217.085 144.46 208.256 146.47 201.568 147.148C200.073 147.306 198.569 147.39 197.063 147.397Z" fill="#2F2F2F"/>
</g>
<defs>
<clipPath id="clip0_5377_11550">
<rect width="400" height="268" fill="white"/>
</clipPath>
</defs>
</svg>
