<svg width="400" height="217" viewBox="0 0 400 217" fill="none" xmlns="http://www.w3.org/2000/svg">
<g clip-path="url(#clip0_5591_7389)">
<path d="M30.8608 205.543C24.5547 209.07 21.8477 216.557 21.8477 216.557C21.8477 216.557 29.3648 218.325 35.6708 214.797C41.9769 211.27 44.6839 203.783 44.6839 203.783C44.6839 203.783 37.1669 202.015 30.8608 205.543Z" fill="#F1F1F1"/>
<path d="M32.9356 207.968C29.2421 214.336 21.906 216.789 21.906 216.789C21.906 216.789 20.5581 208.916 24.2515 202.547C27.9449 196.178 35.2811 193.726 35.2811 193.726C35.2811 193.726 36.629 201.599 32.9356 207.968Z" fill="#F1F1F1"/>
<path d="M378.705 4.77637H197.004V5.61267H378.705V4.77637Z" fill="#CBCBCB"/>
<path d="M222.158 5.09082H221.352V31.6698H222.158V5.09082Z" fill="#CBCBCB"/>
<path d="M288.269 52.7386H246.734V5.06543H247.54V51.9023H288.269V52.7386Z" fill="#CBCBCB"/>
<path d="M274.839 5.09082H274.033V31.6698H274.839V5.09082Z" fill="#CBCBCB"/>
<path d="M288.367 52.3418H287.561V78.9208H288.367V52.3418Z" fill="#CBCBCB"/>
<path d="M330.105 5.09082H329.299V31.6698H330.105V5.09082Z" fill="#CBCBCB"/>
<path d="M357.738 5.09082H356.932V31.6698H357.738V5.09082Z" fill="#CBCBCB"/>
<path d="M229.507 35.7354H214.199V41.9226H229.507V35.7354Z" fill="#E82E2D"/>
<path d="M281.903 35.7354H266.596V41.9226H281.903V35.7354Z" fill="#3F3D56"/>
<path d="M337.526 35.7354H322.219V41.9226H337.526V35.7354Z" fill="#CBCBCB"/>
<path d="M364.128 35.7354H348.82V41.9226H364.128V35.7354Z" fill="#E82E2D"/>
<path d="M400.001 2.28418H384.693V8.4714H400.001V2.28418Z" fill="#3F3D56"/>
<path d="M295.608 82.5684H280.301V88.7556H295.608V82.5684Z" fill="#3F3D56"/>
<path d="M191.801 0H167.262V9.9186H191.801V0Z" fill="#E82E2D"/>
<path d="M113.857 100.838L115.46 115.84L135.936 116.206L133.465 98.2598L113.857 100.838Z" fill="#FFB7B7"/>
<path d="M104.631 134.204C104.941 133.819 105.166 133.368 105.29 132.882C105.414 132.397 105.434 131.89 105.348 131.395C105.263 130.901 105.074 130.433 104.795 130.022C104.515 129.612 104.153 129.271 103.733 129.021L104.683 121.236L100.264 119.482L99.0701 130.497C98.7135 131.257 98.638 132.126 98.8579 132.94C99.0778 133.754 99.5779 134.456 100.263 134.913C100.949 135.37 101.772 135.55 102.577 135.42C103.382 135.289 104.113 134.857 104.631 134.204Z" fill="#FFB7B7"/>
<path d="M141.868 212.184H146.196L148.255 194.864L141.867 194.865L141.868 212.184Z" fill="#FFB7B7"/>
<path d="M140.764 210.718L149.287 210.718C150.728 210.718 152.11 211.312 153.128 212.368C154.147 213.425 154.719 214.858 154.72 216.353V216.536L140.764 216.537L140.764 210.718Z" fill="#2F2E41"/>
<path d="M92.4422 212.184H96.7703L98.8291 194.864L92.4414 194.865L92.4422 212.184Z" fill="#FFB7B7"/>
<path d="M91.3379 210.718L99.8615 210.718C101.302 210.718 102.684 211.312 103.703 212.368C104.721 213.425 105.294 214.858 105.294 216.353V216.536L91.3381 216.537L91.3379 210.718Z" fill="#2F2E41"/>
<path d="M98.6738 128.126L100.577 105.28L106.131 84.4136C106.543 82.8875 107.39 81.5258 108.56 80.5065C109.73 79.4872 111.169 78.8575 112.689 78.6997L112.87 78.6816L113.857 94.3431L106.755 109.483L104.408 127.646L98.6738 128.126Z" fill="#E82E2D"/>
<path d="M115.135 107.11L112.22 112.554C112.22 112.554 100.85 124.479 99.9753 142.9L89.4199 205.597L99.2025 205.347L119.009 146.584L133.019 171.517L140.023 204.094L151.135 201.964L146.183 164.125L136.642 128.917L135.676 109.747L115.135 107.11Z" fill="#2F2E41"/>
<path d="M125.237 71.1228C130.026 71.1228 133.908 67.0954 133.908 62.1273C133.908 57.1593 130.026 53.1318 125.237 53.1318C120.448 53.1318 116.566 57.1593 116.566 62.1273C116.566 67.0954 120.448 71.1228 125.237 71.1228Z" fill="#FFB7B7"/>
<path d="M91.0131 82.5592C92.624 79.2947 93.1738 75.5879 94.4136 72.1534C95.6535 68.719 97.9061 65.3115 101.321 64.365C103.259 63.8281 105.317 64.1558 107.307 63.9002C109.057 63.6754 110.94 62.7487 111.611 61.1366C111.476 59.5384 111.668 57.9288 112.175 56.4132C113.423 52.7339 116.4 49.8293 119.87 48.3278C122.689 47.1081 125.935 46.7636 128.813 47.8228C131.692 48.882 134.108 51.4707 134.626 54.5934C135.143 57.7162 133.484 61.2032 130.623 62.3124C128.569 63.1088 125.924 62.8436 124.582 64.6435C123.224 66.4668 124.198 69.124 125.432 71.0403L125.347 71.1293C121.317 71.1783 116.96 70.3703 114.183 67.3383C113.882 67.0073 113.605 66.6535 113.354 66.2797C113.269 66.4213 113.18 66.5593 113.084 66.6912C111.686 68.617 109.498 69.7096 107.413 70.774C105.327 71.8384 103.165 73.033 101.912 75.0639C99.6493 78.7339 101.135 83.6768 99.8406 87.8216C99.2645 89.6668 98.1537 91.2826 96.6598 92.4486C95.1658 93.6146 93.3615 94.274 91.4929 94.3368C89.6244 94.3997 87.7826 93.863 86.219 92.7998C84.6554 91.7367 83.446 90.1989 82.7559 88.3964C86.2787 88.7017 89.4022 85.8237 91.0131 82.5592Z" fill="#2F2E41"/>
<path d="M146.536 133.906C146.639 133.415 146.637 132.907 146.531 132.418C146.424 131.928 146.215 131.468 145.919 131.071C145.623 130.674 145.246 130.35 144.816 130.12C144.386 129.89 143.912 129.761 143.428 129.742L140.8 122.383L136.1 122.949L139.952 133.288C139.975 134.132 140.296 134.939 140.854 135.556C141.411 136.172 142.168 136.554 142.979 136.63C143.791 136.707 144.601 136.471 145.256 135.969C145.912 135.467 146.367 134.733 146.536 133.906Z" fill="#FFB7B7"/>
<path d="M113.763 109.325L111.254 96.8016L110.466 87.2623C110.019 81.852 111.477 76.457 114.569 72.0759L115.371 70.9395L128.875 75.9189L135.458 84.9226C139.476 89.1134 136.331 93.1255 135.892 93.6423L135.757 106.297L135.606 106.318L113.763 109.325Z" fill="#E82E2D"/>
<path d="M138.629 131.285L128.587 107.278L127.128 85.2838L126.833 80.6612C126.761 79.5176 127.119 78.3894 127.833 77.5148C128.547 76.6403 129.561 76.0878 130.66 75.974C131.759 75.8602 132.858 76.194 133.725 76.905C134.591 77.616 135.158 78.6484 135.304 79.7844L138.465 104.303L143.907 128.763L138.629 131.285Z" fill="#E82E2D"/>
<path d="M216.846 216.909H0.403059C0.296161 216.909 0.193641 216.865 0.118053 216.786C0.0424647 216.708 0 216.601 0 216.49C0 216.38 0.0424647 216.273 0.118053 216.195C0.193641 216.116 0.296161 216.072 0.403059 216.072H216.846C216.953 216.072 217.055 216.116 217.131 216.195C217.206 216.273 217.249 216.38 217.249 216.49C217.249 216.601 217.206 216.708 217.131 216.786C217.055 216.865 216.953 216.909 216.846 216.909Z" fill="#CBCBCB"/>
</g>
<defs>
<clipPath id="clip0_5591_7389">
<rect width="400" height="217" fill="white"/>
</clipPath>
</defs>
</svg>
