<svg width="400" height="223" viewBox="0 0 400 223" fill="none" xmlns="http://www.w3.org/2000/svg">
<g clip-path="url(#clip0_5377_11555)">
<path d="M133.177 147.545C206.729 147.545 266.354 145.947 266.354 143.974C266.354 142.002 206.729 140.403 133.177 140.403C59.6254 140.403 0 142.002 0 143.974C0 145.947 59.6254 147.545 133.177 147.545Z" fill="#C2C2C2"/>
<g opacity="0.7">
<path d="M71.1087 110.495H20.2637V141.296H71.1087V110.495Z" fill="#C2C2C2"/>
<path opacity="0.1" d="M53.6191 115.853H38.1621V119.424H53.6191V115.853Z" fill="black"/>
<path opacity="0.1" d="M51.6862 116.298H40.0938V118.976H51.6862V116.298Z" fill="black"/>
<path d="M122.767 110.495H71.9219V141.296H122.767V110.495Z" fill="#C2C2C2"/>
<path opacity="0.1" d="M105.277 115.853H89.8203V119.424H105.277V115.853Z" fill="black"/>
<path opacity="0.1" d="M103.344 116.298H91.752V118.976H103.344V116.298Z" fill="black"/>
<path d="M71.1087 78.8018H20.2637V109.602H71.1087V78.8018Z" fill="#C2C2C2"/>
<path opacity="0.1" d="M53.6191 84.1592H38.1621V87.7302H53.6191V84.1592Z" fill="black"/>
<path opacity="0.1" d="M51.6862 84.6045H40.0938V87.2827H51.6862V84.6045Z" fill="black"/>
<path d="M122.767 78.8018H71.9219V109.602H122.767V78.8018Z" fill="#C2C2C2"/>
<path opacity="0.1" d="M105.277 84.1592H89.8203V87.7302H105.277V84.1592Z" fill="black"/>
<path opacity="0.1" d="M103.344 84.6045H91.752V87.2827H103.344V84.6045Z" fill="black"/>
<path d="M71.1087 46.6621H20.2637V77.4627H71.1087V46.6621Z" fill="#C2C2C2"/>
<path opacity="0.1" d="M53.6191 52.0186H38.1621V55.5895H53.6191V52.0186Z" fill="black"/>
<path opacity="0.1" d="M51.6862 52.4648H40.0938V55.1431H51.6862V52.4648Z" fill="black"/>
<path d="M122.767 46.6621H71.9219V77.4627H122.767V46.6621Z" fill="#C2C2C2"/>
<path opacity="0.1" d="M105.277 52.0186H89.8203V55.5895H105.277V52.0186Z" fill="black"/>
<path opacity="0.1" d="M103.344 52.4648H91.752V55.1431H103.344V52.4648Z" fill="black"/>
<path d="M122.767 14.5225H71.9219V45.323H122.767V14.5225Z" fill="#C2C2C2"/>
<path opacity="0.1" d="M105.277 19.8789H89.8203V23.4499H105.277V19.8789Z" fill="black"/>
<path opacity="0.1" d="M103.344 20.3252H91.752V23.0034H103.344V20.3252Z" fill="black"/>
</g>
<g opacity="0.7">
<path d="M174.427 110.049H123.582V140.849H174.427V110.049Z" fill="#C2C2C2"/>
<path opacity="0.1" d="M156.937 115.406H141.48V118.977H156.937V115.406Z" fill="black"/>
<path opacity="0.1" d="M155.005 115.852H143.412V118.53H155.005V115.852Z" fill="black"/>
<path d="M226.085 110.049H175.24V140.849H226.085V110.049Z" fill="#8D8D8D"/>
<path opacity="0.1" d="M208.596 115.406H193.139V118.977H208.596V115.406Z" fill="black"/>
<path opacity="0.1" d="M206.663 115.852H195.07V118.53H206.663V115.852Z" fill="black"/>
<path d="M174.427 78.3555H123.582V109.156H174.427V78.3555Z" fill="#C2C2C2"/>
<path opacity="0.1" d="M156.937 83.7129H141.48V87.2839H156.937V83.7129Z" fill="black"/>
<path opacity="0.1" d="M155.005 84.1582H143.412V86.8364H155.005V84.1582Z" fill="black"/>
<path d="M226.085 78.3555H175.24V109.156H226.085V78.3555Z" fill="#C2C2C2"/>
<path opacity="0.1" d="M208.596 83.7129H193.139V87.2839H208.596V83.7129Z" fill="black"/>
<path opacity="0.1" d="M206.663 84.1582H195.07V86.8364H206.663V84.1582Z" fill="black"/>
<path d="M174.427 46.2158H123.582V77.0164H174.427V46.2158Z" fill="#C2C2C2"/>
<path opacity="0.1" d="M156.937 51.5723H141.48V55.1433H156.937V51.5723Z" fill="black"/>
<path opacity="0.1" d="M155.005 52.0186H143.412V54.6968H155.005V52.0186Z" fill="black"/>
<path d="M226.085 46.2158H175.24V77.0164H226.085V46.2158Z" fill="#C2C2C2"/>
<path opacity="0.1" d="M208.596 51.5723H193.139V55.1433H208.596V51.5723Z" fill="black"/>
<path opacity="0.1" d="M206.663 52.0186H195.07V54.6968H206.663V52.0186Z" fill="black"/>
<path d="M226.085 14.0762H175.24V44.8767H226.085V14.0762Z" fill="#C2C2C2"/>
<path opacity="0.1" d="M208.596 19.4326H193.139V23.0036H208.596V19.4326Z" fill="black"/>
<path opacity="0.1" d="M206.663 19.8789H195.07V22.5571H206.663V19.8789Z" fill="black"/>
</g>
<path d="M254.299 84.9407C254.266 84.6026 254.156 84.2791 253.979 83.9999C253.802 83.7207 253.564 83.4948 253.286 83.3429C253.053 83.2337 252.802 83.1772 252.548 83.1768C252.294 83.1763 252.043 83.2318 251.809 83.3401C251.576 83.4484 251.364 83.6072 251.187 83.8071C251.011 84.0069 250.872 84.2437 250.781 84.5034L241.747 105.363L239.713 187.498H242.967L244.187 105.546L254.128 86.234C254.308 85.8335 254.368 85.3808 254.299 84.9407Z" fill="#2F2F2F"/>
<path d="M400.001 206.05C397.336 208.606 394.466 210.893 391.427 212.884C391.379 212.957 391.326 213.026 391.268 213.089C390.946 213.39 390.562 213.601 390.15 213.705C380.07 219.87 368.709 223.072 357.169 222.999H133.524C107.898 220.106 92.2617 216.272 92.2617 212.062C92.2617 208.799 101.65 205.759 117.815 203.215C119.491 202.947 121.238 202.688 123.058 202.438C124.178 202.283 125.323 202.135 126.495 201.992L128.484 201.737C129.959 201.555 131.474 201.375 133.027 201.197H133.153L134.78 201.019C136.155 200.863 137.558 200.714 138.99 200.572L140.032 200.47L142.688 200.211C144.412 200.042 146.175 199.879 147.976 199.724C149.47 199.596 150.989 199.468 152.532 199.34C168.176 198.068 186.212 197.108 205.838 196.487L211.443 196.277L213.33 196.233L217.317 196.135L218.917 196.099L220.597 196.063L221.793 196.041L227.406 195.942L230.29 195.898H230.88C237.7 195.809 244.648 195.763 251.723 195.76C265.707 195.76 279.269 195.942 292.191 196.291C299.611 196.487 306.803 196.737 313.77 197.041H313.835C333.921 197.907 351.899 199.181 366.779 200.768L367.051 200.8C370.871 201.206 374.487 201.639 377.879 202.085C381.072 202.505 384.07 202.947 386.852 203.398C387.816 203.554 388.752 203.715 389.663 203.871L389.895 203.915C393.749 204.599 397.134 205.295 400.001 206.05Z" fill="#C2C2C2"/>
<path d="M305.338 38.7929C307.828 38.0566 310.045 36.5164 312.217 34.9942L319.787 29.7047C317.733 29.5264 315.959 27.9192 314.906 25.9735C313.852 24.0278 313.417 21.7638 313.059 19.541C309.805 20.9336 306.986 23.2953 304.359 25.7902C303.318 26.7779 301.105 28.2677 300.784 29.8079C300.462 31.3481 302.512 32.5975 303.306 33.6291C303.577 33.972 306.144 38.5477 305.338 38.7929Z" fill="#ED9DA0"/>
<path d="M263.973 82.4848C262.639 83.2349 261.219 84.0025 259.727 83.8955C258.38 83.7202 257.123 83.0628 256.151 82.025C255.338 81.2485 254.501 80.2795 253.43 80.3602C252.719 80.5016 252.065 80.8822 251.559 81.4494L248.609 84.1589C248.113 84.525 247.737 85.0573 247.539 85.6766C247.481 86.0968 247.504 86.5258 247.608 86.9353C247.743 87.6585 247.966 88.5019 248.601 88.7461C249.235 88.9902 249.927 88.4646 250.598 88.2638C251.008 88.1486 251.438 88.1571 251.844 88.2884C252.25 88.4196 252.616 88.6688 252.904 89.0095C253.144 89.2681 253.288 89.6143 253.311 89.9823C253.311 90.7905 252.497 91.3217 251.749 91.3618C251 91.4018 250.284 91.134 249.544 91.1834C249.499 91.1772 249.454 91.1808 249.411 91.194C249.367 91.2072 249.327 91.2299 249.292 91.2605C249.256 91.2912 249.227 91.3293 249.205 91.3726C249.184 91.4159 249.17 91.4635 249.166 91.5126C249.12 91.7946 249.139 92.0847 249.222 92.3562C249.306 92.6277 249.45 92.8718 249.642 93.066C250.028 93.4531 250.478 93.7561 250.968 93.9588C251.537 94.2676 252.151 94.4641 252.782 94.5393C254.032 94.6288 255.178 93.8699 256.361 93.4276C257.956 92.8383 259.672 92.8208 261.356 92.8241C263.04 92.8274 264.749 92.8553 266.364 92.3374C267.979 91.8194 269.514 90.6726 270.143 88.9628C270.217 88.8032 270.241 88.6211 270.212 88.4448C270.149 88.2569 270.028 88.0991 269.87 87.9987C267.6 86.1551 266.681 83.9142 264.127 82.5885L263.973 82.4848Z" fill="#ED9DA0"/>
<path d="M311.607 34.8785C310.976 34.4316 310.26 34.1497 309.514 34.0545C308.768 33.9594 308.012 34.0536 307.304 34.3298C305.887 34.89 304.615 35.8199 303.598 37.0393C302.583 38.1754 301.704 39.449 300.983 40.8292C300.291 42.1686 299.762 43.57 299.071 44.9045C297.791 47.2472 296.312 49.4518 294.653 51.489C293.712 52.8374 292.608 54.0388 291.371 55.0599C290.093 56.0152 288.666 56.6002 287.799 57.9258C287.527 58.3456 287.331 58.8186 287.063 59.2427C286.213 60.6085 284.769 61.341 283.513 62.2557C279.909 64.8895 277.668 69.2731 274.3 72.2592C272.85 73.5448 271.209 74.5539 269.781 75.8658C268.451 77.0845 267.341 78.5441 266.015 79.794C264.689 81.044 263.131 82.075 261.402 82.1913C262.557 85.0171 263.936 87.7881 265.917 89.9895C267.898 92.1909 270.867 93.5962 273.572 92.7331C274.06 92.6135 274.517 92.3748 274.909 92.0347C275.302 91.6947 275.619 91.2619 275.838 90.7687C275.953 90.2456 276.114 89.7359 276.318 89.2466C276.59 88.8539 276.942 88.5372 277.347 88.3226C288.205 81.3662 298.556 73.4961 308.305 64.783C310.921 62.4439 313.516 60.3506 316.2 58.0888C317.163 57.3397 318.053 56.4841 318.856 55.5357C319.976 54.0684 320.675 52.2707 320.866 50.3684C321.058 48.4661 320.732 46.5443 319.93 44.8447C319.211 43.5444 318.386 42.3178 317.465 41.1799C315.791 38.7888 313.819 36.6677 311.607 34.8785Z" fill="#E82E2D"/>
<path opacity="0.1" d="M311.607 34.8785C310.976 34.4316 310.26 34.1497 309.514 34.0545C308.768 33.9594 308.012 34.0536 307.304 34.3298C305.887 34.89 304.615 35.8199 303.598 37.0393C302.583 38.1754 301.704 39.449 300.983 40.8292C300.291 42.1686 299.762 43.57 299.071 44.9045C297.791 47.2472 296.312 49.4518 294.653 51.489C293.712 52.8374 292.608 54.0388 291.371 55.0599C290.093 56.0152 288.666 56.6002 287.799 57.9258C287.527 58.3456 287.331 58.8186 287.063 59.2427C286.213 60.6085 284.769 61.341 283.513 62.2557C279.909 64.8895 277.668 69.2731 274.3 72.2592C272.85 73.5448 271.209 74.5539 269.781 75.8658C268.451 77.0845 267.341 78.5441 266.015 79.794C264.689 81.044 263.131 82.075 261.402 82.1913C262.557 85.0171 263.936 87.7881 265.917 89.9895C267.898 92.1909 270.867 93.5962 273.572 92.7331C274.06 92.6135 274.517 92.3748 274.909 92.0347C275.302 91.6947 275.619 91.2619 275.838 90.7687C275.953 90.2456 276.114 89.7359 276.318 89.2466C276.59 88.8539 276.942 88.5372 277.347 88.3226C288.205 81.3662 298.556 73.4961 308.305 64.783C310.921 62.4439 313.516 60.3506 316.2 58.0888C317.163 57.3397 318.053 56.4841 318.856 55.5357C319.976 54.0684 320.675 52.2707 320.866 50.3684C321.058 48.4661 320.732 46.5443 319.93 44.8447C319.211 43.5444 318.386 42.3178 317.465 41.1799C315.791 38.7888 313.819 36.6677 311.607 34.8785Z" fill="black"/>
<path d="M294.127 200.472C293.415 200.918 292.541 201.168 292.041 201.891C291.878 202.123 291.768 202.396 291.593 202.619C291.052 203.315 290.093 203.346 289.34 203.744C288.74 204.056 288.25 204.636 287.611 204.82C287.229 204.919 286.835 204.952 286.444 204.918L282.49 204.788C281.237 204.748 279.769 204.82 279.04 205.941C278.804 206.351 278.636 206.805 278.544 207.28C278.239 208.561 277.991 210.012 278.63 211.137C279.394 212.476 281.07 212.749 282.514 212.838C288.092 213.177 293.686 213.057 299.248 212.481C300.001 212.375 300.76 212.341 301.518 212.378C302.118 212.433 302.71 212.579 303.303 212.691C306.303 213.249 309.368 212.923 312.394 212.593C312.906 212.566 313.41 212.448 313.887 212.244C314.125 212.138 314.336 211.97 314.501 211.755C314.667 211.54 314.782 211.283 314.837 211.008C314.963 210.088 314.178 209.307 314.093 208.383C314.032 207.731 314.316 207.004 313.993 206.45C313.871 206.287 313.735 206.137 313.586 206.003C313.099 205.32 312.808 204.494 312.748 203.628L312.031 199.045C312.011 198.722 311.891 198.416 311.69 198.179C311.54 198.061 311.367 197.983 311.185 197.952C308.085 197.183 304.909 197.885 301.83 198.313C300.245 198.568 298.642 198.656 297.042 198.577C296.351 198.528 296.082 198.438 295.566 198.934C295.049 199.429 294.774 200.059 294.127 200.472Z" fill="#2F2F2F"/>
<path d="M368.976 205.991C368.432 206.325 367.849 206.575 367.243 206.737C365.646 207.249 364.051 207.783 362.46 208.339C362.036 208.454 361.639 208.664 361.292 208.955C360.788 209.564 360.523 210.366 360.556 211.188C360.503 211.64 360.552 212.1 360.698 212.527C360.889 212.927 361.169 213.268 361.512 213.518C363.334 215.031 365.712 215.5 368 215.5C370.288 215.5 372.555 215.076 374.841 215.009C377.603 214.929 380.438 215.357 383.094 214.509C383.601 214.303 384.128 214.162 384.664 214.089C385.021 214.083 385.377 214.108 385.73 214.165C387.154 214.319 388.593 214.175 389.968 213.741C390.382 213.64 390.767 213.43 391.091 213.129C391.25 212.977 391.365 212.775 391.418 212.55C391.472 212.326 391.462 212.089 391.391 211.87C391.244 211.509 390.87 211.245 390.866 210.848C390.886 210.657 390.931 210.47 391.001 210.294C391.167 209.682 390.901 209.044 390.712 208.442C390.187 206.719 390.273 204.737 389.333 203.241C388.393 201.745 386.669 201.13 385.029 200.893C383.697 200.687 382.342 200.729 381.023 201.018C379.538 201.367 378.151 202.094 376.695 202.559C375.005 203.092 373.239 203.275 371.488 203.099C370.325 202.989 370.724 203.192 370.329 204.263C370.05 204.978 369.577 205.581 368.976 205.991Z" fill="#2F2F2F"/>
<path d="M303.98 32.6011C310.494 32.6011 315.776 26.8054 315.776 19.656C315.776 12.5067 310.494 6.71094 303.98 6.71094C297.465 6.71094 292.184 12.5067 292.184 19.656C292.184 26.8054 297.465 32.6011 303.98 32.6011Z" fill="#ED9DA0"/>
<path d="M389.497 201.362C385.836 204.812 380.894 206.321 376.074 206.375C374.04 206.398 371.929 206.156 370.197 205C370.075 204.268 370.026 203.478 369.904 202.746C367.801 202.264 366.17 200.387 365.154 198.305C364.138 196.223 363.62 193.912 362.864 191.707C361.709 188.35 360.016 185.257 358.324 182.186C356.77 179.356 355.212 176.517 353.443 173.846C352.272 172.06 351.003 170.382 349.843 168.6C346.559 163.643 344.202 158.02 342.908 152.057C342.711 150.914 342.429 149.79 342.066 148.696C341.366 146.83 340.085 145.312 339.097 143.612C338.032 141.776 337.301 139.731 336.947 137.59C336.747 136.376 336.406 135.066 335.297 134.939C332.962 139.916 330.582 144.974 327.052 149.023C326.497 149.607 325.99 150.244 325.535 150.924C325.17 151.586 324.844 152.271 324.558 152.978C324.011 154.244 323.283 155.408 322.402 156.424C321.664 157.29 320.692 157.872 319.628 158.084C320.413 162.373 319.946 166.824 318.294 170.806C317.802 171.984 317.212 173.11 316.749 174.301C314.853 179.211 315.293 184.751 315.093 190.076C315.076 191.192 314.956 192.303 314.735 193.393C314.243 195.571 313.226 197.888 313.718 200.066C308.618 202.206 302.951 202.07 297.549 201.168C296.493 201.062 295.467 200.721 294.535 200.164C293.769 199.569 293.101 198.835 292.558 197.995C292.35 197.749 292.196 197.455 292.108 197.133C291.897 196.115 292.922 195.348 293.398 194.455C293.874 193.562 293.959 192.147 293.304 191.415C293.63 185.572 295.104 179.867 295.428 174.006C295.558 171.685 295.505 169.355 295.603 167.029C295.7 164.704 295.928 162.441 296.164 160.155C296.701 154.937 298.003 149.822 297.82 144.576C297.764 142.962 298.103 141.361 298.8 139.939C299.388 138.857 300.055 137.83 300.793 136.866C303.293 133.326 306.293 129.777 307.183 125.407C307.643 123.153 308.66 121.091 309.669 119.064C310.2 117.816 310.937 116.686 311.841 115.73C312.359 115.337 312.84 114.888 313.277 114.39C313.944 113.449 313.968 112.158 314.363 111.033C314.566 110.453 314.879 109.917 315.03 109.319C315.154 108.658 315.215 107.985 315.213 107.31C315.343 105.15 316.1 103.061 316.897 101.083C315.022 99.8919 313.367 98.3264 312.016 96.4674C311.562 95.8638 311.167 95.2101 310.836 94.5168C309.998 92.7061 309.807 90.638 309.413 88.6511C308.473 83.9103 306.313 79.4509 306.013 74.6081C305.923 73.1304 306.013 71.6039 305.545 70.2069C305.329 69.6156 305.076 69.0414 304.788 68.4883C304.505 67.9451 304.289 67.3627 304.146 66.7566C303.885 65.4397 304.246 64.0784 304.146 62.739C304.046 61.556 303.588 60.4492 303.361 59.2931C303.128 57.7885 303.089 56.2555 303.243 54.7388C303.343 52.9533 303.698 51.1097 303.56 49.3467C303.335 46.4295 303.673 43.4929 304.552 40.7285C305.43 37.9641 306.83 35.434 308.659 33.303L308.752 33.2004C309.529 32.3077 310.379 31.5175 311.079 30.571C312.029 29.3035 312.706 27.8121 313.71 26.5803C314.15 26.0316 314.646 25.5377 315.081 24.989C315.481 24.4085 315.923 23.8651 316.403 23.3643C316.897 22.8611 318.514 24.1325 318.803 24.7257C319.649 24.797 320.403 24.9265 321.244 25C321.634 25.0204 322.021 25.0862 322.399 25.1965C323.169 25.5428 323.881 26.0269 324.506 26.6291C326.198 27.9372 328.276 28.5441 329.94 29.8923C332.381 31.8786 333.601 35.1599 335.074 38.1015C337.024 42.0428 340.199 45.3954 341.582 49.6095L343.489 55.3413C344.661 59.1133 346.06 62.7953 347.679 66.3626C350.034 71.273 353.223 75.6967 355.114 80.8342C355.303 81.3495 355.654 81.7737 356.103 82.0304C358.678 85.9945 360.967 90.1735 362.949 94.5294C363.994 96.834 364.982 99.2252 365.283 101.772C365.727 105.375 364.833 109.015 363.587 112.383C363.386 112.865 363.249 113.376 363.181 113.9C363.099 114.753 363.396 115.592 363.478 116.445C363.556 117.241 363.448 118.046 363.164 118.784C362.912 119.302 362.698 119.843 362.526 120.4C362.306 121.426 362.697 122.471 362.908 123.498C363.624 126.975 363.494 130.576 363.315 134.139C363.221 135.925 364.535 137.34 365.629 138.648C367.663 141.099 369.249 143.965 370.783 146.824C371.617 148.275 372.32 149.812 372.883 151.413C373.392 153.264 373.771 155.154 374.018 157.068C375.051 162.92 378.435 168.094 379.354 173.964C379.78 176.653 380.866 179.164 382.495 181.227C382.986 181.785 383.438 182.381 383.849 183.012C384.13 183.513 384.354 184.05 384.516 184.61C384.917 185.914 385.105 187.284 385.074 188.659C385.009 189.317 385.043 189.982 385.174 190.628C385.556 191.989 386.924 192.739 387.484 194.02C388.045 195.302 387.659 196.944 387.891 198.4C388.067 199.574 388.641 200.633 389.498 201.363L389.497 201.362Z" fill="#E82E2D"/>
<path d="M266.415 78.4672C265.081 79.2173 263.661 79.9849 262.168 79.8779C260.822 79.7026 259.565 79.0452 258.593 78.0074C257.779 77.2304 256.943 76.262 255.871 76.3426C255.16 76.4839 254.506 76.8646 254 77.4318L251.05 80.1413C250.554 80.5074 250.179 81.0398 249.98 81.659C249.922 82.0792 249.946 82.5083 250.049 82.9178C250.183 83.641 250.407 84.4843 251.042 84.7285C251.676 84.9727 252.368 84.447 253.039 84.2462C253.449 84.131 253.88 84.1395 254.286 84.2708C254.692 84.402 255.058 84.6512 255.345 84.9919C255.585 85.2504 255.73 85.5967 255.752 85.9647C255.752 86.773 254.939 87.3041 254.19 87.3442C253.442 87.3842 252.726 87.1165 251.986 87.1658C251.941 87.1596 251.896 87.1632 251.853 87.1764C251.809 87.1897 251.769 87.2123 251.733 87.243C251.698 87.2737 251.669 87.3118 251.647 87.3551C251.626 87.3983 251.612 87.446 251.607 87.4951C251.562 87.777 251.581 88.0671 251.664 88.3386C251.747 88.6101 251.892 88.8542 252.083 89.0485C252.47 89.4356 252.92 89.7385 253.409 89.9412C253.978 90.25 254.592 90.4465 255.223 90.5218C256.473 90.6112 257.619 89.8523 258.803 89.4101C260.397 88.8208 262.114 88.8032 263.798 88.8065C265.482 88.8098 267.19 88.8378 268.805 88.3198C270.419 87.8018 271.955 86.655 272.584 84.9452C272.658 84.7857 272.683 84.6035 272.653 84.4273C272.59 84.2394 272.469 84.0815 272.311 83.9812C270.041 82.1375 269.122 79.8966 266.568 78.5709L266.415 78.4672Z" fill="#ED9DA0"/>
<path d="M314.047 30.8609C313.416 30.414 312.699 30.1321 311.953 30.037C311.207 29.9418 310.451 30.036 309.743 30.3122C308.326 30.8723 307.055 31.8022 306.038 33.0217C305.023 34.1578 304.144 35.4314 303.422 36.8116C302.731 38.1504 302.202 39.5524 301.51 40.8868C300.23 43.2295 298.751 45.4341 297.093 47.4713C296.152 48.8198 295.047 50.0212 293.81 51.0423C292.533 51.9976 291.105 52.5825 290.239 53.9082C289.966 54.328 289.771 54.8009 289.503 55.2251C288.653 56.5908 287.209 57.3234 285.953 58.2381C282.349 60.8719 280.108 65.2555 276.74 68.2415C275.29 69.5271 273.648 70.5362 272.221 71.8482C270.891 73.0669 269.78 74.5264 268.454 75.7764C267.128 77.0263 265.57 78.0573 263.842 78.1737C264.997 80.9995 266.376 83.7705 268.357 85.9719C270.338 88.1733 273.307 89.5785 276.012 88.7154C276.5 88.5959 276.957 88.3573 277.349 88.0173C277.741 87.6773 278.058 87.2447 278.277 86.7516C278.393 86.2285 278.553 85.7188 278.757 85.2295C279.029 84.8367 279.382 84.52 279.786 84.3055C290.645 77.3491 300.995 69.479 310.745 60.7659C313.36 58.4268 315.955 56.3335 318.64 54.0717C319.603 53.3226 320.493 52.467 321.296 51.5186C322.416 50.0514 323.115 48.2536 323.306 46.3513C323.498 44.449 323.172 42.5272 322.37 40.8276C321.65 39.5273 320.825 38.3007 319.905 37.1628C318.231 34.7712 316.26 32.6495 314.048 30.8598L314.047 30.8609Z" fill="#E82E2D"/>
<path d="M216.73 215.842C223.47 215.842 228.933 209.846 228.933 202.45C228.933 195.054 223.47 189.059 216.73 189.059C209.991 189.059 204.527 195.054 204.527 202.45C204.527 209.846 209.991 215.842 216.73 215.842Z" fill="#2F2F2F"/>
<path opacity="0.1" d="M216.73 215.842C223.47 215.842 228.933 209.846 228.933 202.45C228.933 195.054 223.47 189.059 216.73 189.059C209.991 189.059 204.527 195.054 204.527 202.45C204.527 209.846 209.991 215.842 216.73 215.842Z" fill="black"/>
<path d="M216.73 210.932C220.999 210.932 224.459 207.135 224.459 202.451C224.459 197.767 220.999 193.97 216.73 193.97C212.462 193.97 209.002 197.767 209.002 202.451C209.002 207.135 212.462 210.932 216.73 210.932Z" fill="#8D8D8D"/>
<path opacity="0.1" d="M216.73 210.932C220.999 210.932 224.459 207.135 224.459 202.451C224.459 197.767 220.999 193.97 216.73 193.97C212.462 193.97 209.002 197.767 209.002 202.451C209.002 207.135 212.462 210.932 216.73 210.932Z" fill="black"/>
<path d="M207.373 181.472L215.378 201.335C215.497 201.633 215.692 201.887 215.938 202.067C216.185 202.248 216.473 202.347 216.769 202.354C217.066 202.361 217.358 202.274 217.61 202.105C217.863 201.935 218.067 201.69 218.197 201.398L227.711 180.132L207.373 181.472Z" fill="#2F2F2F"/>
<path opacity="0.1" d="M207.373 181.472L215.378 201.335C215.497 201.633 215.692 201.887 215.938 202.067C216.185 202.248 216.473 202.347 216.769 202.354C217.066 202.361 217.358 202.274 217.61 202.105C217.863 201.935 218.067 201.69 218.197 201.398L227.711 180.132L207.373 181.472Z" fill="black"/>
<path d="M140.666 215.842C147.405 215.842 152.869 209.846 152.869 202.45C152.869 195.054 147.405 189.059 140.666 189.059C133.926 189.059 128.463 195.054 128.463 202.45C128.463 209.846 133.926 215.842 140.666 215.842Z" fill="#2F2F2F"/>
<path opacity="0.1" d="M140.666 215.842C147.405 215.842 152.869 209.846 152.869 202.45C152.869 195.054 147.405 189.059 140.666 189.059C133.926 189.059 128.463 195.054 128.463 202.45C128.463 209.846 133.926 215.842 140.666 215.842Z" fill="black"/>
<path d="M140.666 210.932C144.934 210.932 148.394 207.135 148.394 202.451C148.394 197.767 144.934 193.97 140.666 193.97C136.398 193.97 132.938 197.767 132.938 202.451C132.938 207.135 136.398 210.932 140.666 210.932Z" fill="#8D8D8D"/>
<path opacity="0.1" d="M140.666 210.932C144.934 210.932 148.394 207.135 148.394 202.451C148.394 197.767 144.934 193.97 140.666 193.97C136.398 193.97 132.938 197.767 132.938 202.451C132.938 207.135 136.398 210.932 140.666 210.932Z" fill="black"/>
<path d="M131.311 181.472L139.316 201.335C139.435 201.633 139.629 201.887 139.876 202.067C140.122 202.248 140.411 202.347 140.707 202.354C141.003 202.361 141.295 202.274 141.548 202.105C141.801 201.935 142.004 201.69 142.135 201.398L151.649 180.132L131.311 181.472Z" fill="#2F2F2F"/>
<path opacity="0.1" d="M131.311 181.472L139.316 201.335C139.435 201.633 139.629 201.887 139.876 202.067C140.122 202.248 140.411 202.347 140.707 202.354C141.003 202.361 141.295 202.274 141.548 202.105C141.801 201.935 142.004 201.69 142.135 201.398L151.649 180.132L131.311 181.472Z" fill="black"/>
<path d="M256.332 85.8333C256.298 85.4952 256.188 85.1717 256.011 84.8925C255.834 84.6133 255.596 84.3874 255.319 84.2355C255.085 84.1263 254.834 84.0698 254.581 84.0693C254.327 84.0689 254.076 84.1244 253.842 84.2327C253.608 84.341 253.397 84.4998 253.22 84.6996C253.043 84.8995 252.905 85.1363 252.813 85.396L245.813 104.47L243.779 190.174H247.033L248.254 104.651L256.161 87.1266C256.341 86.7257 256.401 86.2727 256.332 85.8322L256.332 85.8333Z" fill="#2F2F2F"/>
<path d="M112.395 183.48L123.377 175.891L241.948 174.775L244.998 183.48H112.395Z" fill="#E82E2D"/>
<path d="M112.395 191.515V183.479L247.145 182.053L247.015 187.499H114.835V191.516L112.395 191.515Z" fill="#2F2F2F"/>
<path d="M129.48 220.53C136.22 220.53 141.683 214.534 141.683 207.138C141.683 199.742 136.22 193.746 129.48 193.746C122.741 193.746 117.277 199.742 117.277 207.138C117.277 214.534 122.741 220.53 129.48 220.53Z" fill="#2F2F2F"/>
<path d="M129.48 215.619C133.749 215.619 137.209 211.822 137.209 207.138C137.209 202.453 133.749 198.656 129.48 198.656C125.212 198.656 121.752 202.453 121.752 207.138C121.752 211.822 125.212 215.619 129.48 215.619Z" fill="#8D8D8D"/>
<path d="M120.123 186.158L128.128 206.022C128.247 206.319 128.442 206.573 128.688 206.754C128.935 206.934 129.223 207.034 129.519 207.04C129.816 207.047 130.107 206.961 130.36 206.791C130.613 206.622 130.817 206.376 130.947 206.084L140.461 184.818L120.123 186.158Z" fill="#2F2F2F"/>
<path d="M224.256 220.53C230.995 220.53 236.459 214.534 236.459 207.138C236.459 199.742 230.995 193.746 224.256 193.746C217.516 193.746 212.053 199.742 212.053 207.138C212.053 214.534 217.516 220.53 224.256 220.53Z" fill="#2F2F2F"/>
<path d="M224.256 215.619C228.524 215.619 231.984 211.822 231.984 207.138C231.984 202.453 228.524 198.656 224.256 198.656C219.988 198.656 216.527 202.453 216.527 207.138C216.527 211.822 219.988 215.619 224.256 215.619Z" fill="#8D8D8D"/>
<path d="M214.9 186.158L222.905 206.022C223.025 206.319 223.219 206.573 223.465 206.754C223.712 206.934 224 207.034 224.297 207.04C224.593 207.047 224.885 206.961 225.138 206.791C225.391 206.622 225.594 206.376 225.724 206.084L235.238 184.818L214.9 186.158Z" fill="#2F2F2F"/>
<path d="M178.493 148.438H127.648V179.239H178.493V148.438Z" fill="#8D8D8D"/>
<path opacity="0.1" d="M161.004 153.795H145.547V157.366H161.004V153.795Z" fill="black"/>
<path opacity="0.1" d="M159.071 154.241H147.479V156.919H159.071V154.241Z" fill="black"/>
<path d="M230.152 148.438H179.307V179.239H230.152V148.438Z" fill="#8D8D8D"/>
<path opacity="0.1" d="M212.662 153.795H197.205V157.366H212.662V153.795Z" fill="black"/>
<path opacity="0.1" d="M210.729 154.241H199.137V156.919H210.729V154.241Z" fill="black"/>
<path d="M178.493 116.744H127.648V147.545H178.493V116.744Z" fill="#8D8D8D"/>
<path opacity="0.1" d="M161.004 122.102H145.547V125.673H161.004V122.102Z" fill="black"/>
<path opacity="0.1" d="M159.071 122.548H147.479V125.226H159.071V122.548Z" fill="black"/>
<path d="M230.152 116.744H179.307V147.545H230.152V116.744Z" fill="#8D8D8D"/>
<path opacity="0.1" d="M212.662 122.102H197.205V125.673H212.662V122.102Z" fill="black"/>
<path opacity="0.1" d="M210.729 122.548H199.137V125.226H210.729V122.548Z" fill="black"/>
<path d="M178.493 84.6055H127.648V115.406H178.493V84.6055Z" fill="#8D8D8D"/>
<path opacity="0.1" d="M161.004 89.9619H145.547V93.5329H161.004V89.9619Z" fill="black"/>
<path opacity="0.1" d="M159.071 90.4082H147.479V93.0864H159.071V90.4082Z" fill="black"/>
<path d="M230.152 84.6055H179.307V115.406H230.152V84.6055Z" fill="#8D8D8D"/>
<path opacity="0.1" d="M212.662 89.9619H197.205V93.5329H212.662V89.9619Z" fill="black"/>
<path opacity="0.1" d="M210.729 90.4082H199.137V93.0864H210.729V90.4082Z" fill="black"/>
<path d="M230.152 52.4648H179.307V83.2654H230.152V52.4648Z" fill="#8D8D8D"/>
<path opacity="0.1" d="M212.662 57.8213H197.205V61.3923H212.662V57.8213Z" fill="black"/>
<path opacity="0.1" d="M210.729 58.2686H199.137V60.9468H210.729V58.2686Z" fill="black"/>
<path d="M305.857 20.0029C312.24 17.0399 311.503 27.6771 311.503 27.6771L312.719 30.2121L318.086 19.0185C321.314 8.16068 310.028 1.92244 310.028 1.92244C306.35 -2.83101 298.947 2.73178 298.947 2.73178C288.277 0.132554 293.429 10.0043 293.429 10.0043C293.429 10.0043 297.067 10.0954 297.067 13.3273C297.067 16.5592 301.032 16.3337 301.032 16.3337L304.138 22.3036L305.857 20.0149V20.004V20.0029Z" fill="black"/>
</g>
<defs>
<clipPath id="clip0_5377_11555">
<rect width="400" height="223" fill="white"/>
</clipPath>
</defs>
</svg>
