<svg width="400" height="268" viewBox="0 0 400 268" fill="none" xmlns="http://www.w3.org/2000/svg">
<g clip-path="url(#clip0_5377_11557)">
<path d="M101.372 24.1928H76.9067C74.5544 24.1947 72.299 25.0304 70.6358 26.5165C68.9726 28.0026 68.0375 30.0175 68.0358 32.1189V55.8142C67.7228 55.7976 67.4103 55.7726 67.1018 55.7391C61.3058 55.1943 55.7954 53.2139 51.1919 50.0211C46.5885 46.8283 43.075 42.5502 41.0476 37.669C39.0202 32.7878 38.5595 27.4978 39.7175 22.3953C40.8755 17.2927 43.6061 12.5806 47.6014 8.79027C51.5968 4.99991 56.698 2.28199 62.3299 0.942974C67.9619 -0.396047 73.9006 -0.302931 79.4764 1.21183C85.0523 2.72659 90.0436 5.60275 93.8876 9.51604C97.7316 13.4293 100.275 18.2241 101.232 23.3598C101.284 23.6323 101.33 23.9137 101.372 24.1928Z" fill="#C2C2C2"/>
<path d="M390.195 23.3604H76.9065C74.307 23.3628 71.8146 24.2865 69.9764 25.9286C68.1382 27.5707 67.1043 29.7972 67.1016 32.1195V179.769C67.1043 182.091 68.1382 184.318 69.9764 185.96C71.8146 187.602 74.307 188.526 76.9065 188.528H390.195C392.795 188.526 395.287 187.602 397.125 185.96C398.963 184.318 399.997 182.091 400 179.769V32.115C399.996 29.7935 398.962 27.5682 397.123 25.927C395.285 24.2858 392.794 23.3628 390.195 23.3604ZM399.066 179.771C399.064 181.873 398.129 183.887 396.466 185.373C394.802 186.859 392.547 187.694 390.195 187.696H76.9065C74.5545 187.694 72.2993 186.859 70.6361 185.373C68.973 183.887 68.0377 181.873 68.0356 179.771V32.115C68.0377 30.0138 68.973 27.9992 70.6361 26.5135C72.2993 25.0277 74.5545 24.1922 76.9065 24.1903H390.195C392.547 24.1922 394.802 25.0277 396.466 26.5135C398.129 27.9992 399.064 30.0138 399.066 32.115V179.771Z" fill="#2F2F2F"/>
<path d="M374.786 47.2865H92.3127C92.1888 47.2865 92.0701 47.2426 91.9825 47.1643C91.8949 47.0861 91.8457 46.98 91.8457 46.8693C91.8457 46.7587 91.8949 46.6526 91.9825 46.5743C92.0701 46.4961 92.1888 46.4521 92.3127 46.4521H374.786C374.91 46.4521 375.029 46.4961 375.116 46.5743C375.204 46.6526 375.253 46.7587 375.253 46.8693C375.253 46.98 375.204 47.0861 375.116 47.1643C375.029 47.2426 374.91 47.2865 374.786 47.2865Z" fill="#2F2F2F"/>
<path d="M172.153 170.594C172.029 170.594 171.91 170.55 171.822 170.472C171.735 170.394 171.686 170.287 171.686 170.177V32.9523C171.686 32.8417 171.735 32.7356 171.822 32.6573C171.91 32.5791 172.029 32.5352 172.153 32.5352C172.276 32.5352 172.395 32.5791 172.483 32.6573C172.57 32.7356 172.62 32.8417 172.62 32.9523V170.177C172.62 170.287 172.57 170.394 172.483 170.472C172.395 170.55 172.276 170.594 172.153 170.594Z" fill="#2F2F2F"/>
<path d="M242.654 170.594C242.531 170.594 242.412 170.55 242.324 170.472C242.237 170.394 242.188 170.287 242.188 170.177V32.9523C242.188 32.8417 242.237 32.7356 242.324 32.6573C242.412 32.5791 242.531 32.5352 242.654 32.5352C242.778 32.5352 242.897 32.5791 242.985 32.6573C243.072 32.7356 243.121 32.8417 243.121 32.9523V170.177C243.121 170.287 243.072 170.394 242.985 170.472C242.897 170.55 242.778 170.594 242.654 170.594Z" fill="#2F2F2F"/>
<path d="M313.156 170.594C313.033 170.594 312.914 170.55 312.826 170.472C312.739 170.394 312.689 170.287 312.689 170.177V32.9523C312.689 32.8417 312.739 32.7356 312.826 32.6573C312.914 32.5791 313.033 32.5352 313.156 32.5352C313.28 32.5352 313.399 32.5791 313.487 32.6573C313.574 32.7356 313.623 32.8417 313.623 32.9523V170.177C313.623 170.287 313.574 170.394 313.487 170.472C313.399 170.55 313.28 170.594 313.156 170.594Z" fill="#2F2F2F"/>
<path d="M126.825 90.3385H109.764C109.207 90.3377 108.674 90.1398 108.28 89.7881C107.887 89.4365 107.665 88.9598 107.664 88.4625V70.4766C107.665 69.9793 107.887 69.5026 108.28 69.151C108.674 68.7993 109.207 68.6014 109.764 68.6006H126.825C127.381 68.6014 127.915 68.7993 128.308 69.151C128.702 69.5026 128.924 69.9793 128.925 70.4766V88.4616C128.924 88.9589 128.702 89.4356 128.308 89.7872C127.915 90.1389 127.381 90.3368 126.825 90.3376V90.3385Z" fill="#E82E2D"/>
<path d="M105.859 161.069L90.0402 155.36C89.5244 155.173 89.1127 154.81 88.8952 154.353C88.6777 153.895 88.6721 153.379 88.8798 152.917L96.4223 136.24C96.6317 135.78 97.037 135.412 97.5494 135.217C98.0618 135.023 98.6396 135.018 99.1561 135.204L114.975 140.913C115.491 141.1 115.903 141.462 116.12 141.92C116.338 142.378 116.343 142.894 116.136 143.356L108.593 160.032C108.384 160.493 107.979 160.861 107.466 161.055C106.954 161.25 106.376 161.255 105.859 161.069Z" fill="#E82E2D"/>
<path d="M206.198 101.183H189.137C188.58 101.182 188.047 100.985 187.653 100.633C187.26 100.281 187.038 99.8045 187.037 99.3072V81.3213C187.038 80.824 187.26 80.3473 187.653 79.9957C188.047 79.6441 188.58 79.4461 189.137 79.4453H206.198C206.754 79.4461 207.288 79.6441 207.681 79.9957C208.075 80.3473 208.297 80.824 208.298 81.3213V99.3063C208.297 99.8038 208.075 100.281 207.682 100.633C207.288 100.984 206.754 101.182 206.198 101.183Z" fill="#E82E2D"/>
<path d="M277.633 81.5797H260.573C260.016 81.5789 259.482 81.381 259.089 81.0293C258.695 80.6777 258.474 80.201 258.473 79.7037V61.7178C258.474 61.2205 258.695 60.7438 259.089 60.3922C259.482 60.0405 260.016 59.8426 260.573 59.8418H277.633C278.19 59.8426 278.723 60.0405 279.117 60.3922C279.511 60.7438 279.732 61.2205 279.733 61.7178V79.7028C279.732 80.2003 279.511 80.6772 279.117 81.029C278.724 81.3809 278.19 81.5789 277.633 81.5797Z" fill="#E82E2D"/>
<path d="M343.465 81.5797H326.405C325.848 81.5789 325.314 81.381 324.921 81.0293C324.527 80.6777 324.306 80.201 324.305 79.7037V61.7178C324.306 61.2205 324.527 60.7438 324.921 60.3922C325.314 60.0405 325.848 59.8426 326.405 59.8418H343.465C344.022 59.8426 344.555 60.0405 344.949 60.3922C345.343 60.7438 345.564 61.2205 345.565 61.7178V79.7028C345.564 80.2001 345.343 80.6768 344.949 81.0284C344.555 81.3801 344.022 81.578 343.465 81.5788V81.5797Z" fill="#E82E2D"/>
<path d="M373.815 86.5846H356.754C356.198 86.5838 355.664 86.3859 355.27 86.0342C354.877 85.6826 354.655 85.2059 354.654 84.7086V66.7227C354.655 66.2254 354.877 65.7487 355.27 65.3971C355.664 65.0454 356.198 64.8475 356.754 64.8467H373.815C374.371 64.8475 374.905 65.0454 375.299 65.3971C375.692 65.7487 375.914 66.2254 375.915 66.7227V84.7077C375.914 85.2052 375.693 85.6821 375.299 86.0339C374.905 86.3857 374.372 86.5838 373.815 86.5846Z" fill="#E8E6E6"/>
<path d="M360.274 118.701H343.213C342.657 118.7 342.123 118.502 341.729 118.15C341.336 117.799 341.114 117.322 341.113 116.825V98.8389C341.114 98.3416 341.336 97.8649 341.729 97.5133C342.123 97.1616 342.657 96.9637 343.213 96.9629H360.274C360.83 96.9637 361.364 97.1616 361.758 97.5133C362.151 97.8649 362.373 98.3416 362.374 98.8389V116.824C362.373 117.321 362.152 117.798 361.758 118.15C361.364 118.502 360.831 118.7 360.274 118.701Z" fill="#E8E6E6"/>
<path d="M302.379 112.028H285.319C284.762 112.027 284.228 111.829 283.835 111.478C283.441 111.126 283.22 110.649 283.219 110.152V92.166C283.22 91.6688 283.441 91.1921 283.835 90.8404C284.228 90.4888 284.762 90.2909 285.319 90.29H302.379C302.936 90.2909 303.47 90.4888 303.863 90.8404C304.257 91.1921 304.478 91.6688 304.479 92.166V110.151C304.479 110.649 304.257 111.125 303.863 111.477C303.47 111.829 302.936 112.027 302.379 112.028Z" fill="#FF6584"/>
<path d="M269.229 118.701H252.168C251.612 118.7 251.078 118.502 250.684 118.15C250.291 117.799 250.069 117.322 250.068 116.825V98.8389C250.069 98.3416 250.291 97.8649 250.684 97.5133C251.078 97.1616 251.612 96.9637 252.168 96.9629H269.229C269.785 96.9637 270.319 97.1616 270.713 97.5133C271.106 97.8649 271.328 98.3416 271.329 98.8389V116.824C271.328 117.321 271.107 117.798 270.713 118.15C270.319 118.502 269.786 118.7 269.229 118.701Z" fill="#E8E6E6"/>
<path d="M197.793 147.064H180.733C180.176 147.063 179.643 146.865 179.249 146.514C178.855 146.162 178.634 145.685 178.633 145.188V127.202C178.634 126.705 178.855 126.228 179.249 125.877C179.643 125.525 180.176 125.327 180.733 125.326H197.793C198.35 125.327 198.884 125.525 199.277 125.877C199.671 126.228 199.892 126.705 199.893 127.202V145.187C199.892 145.684 199.671 146.161 199.277 146.513C198.884 146.864 198.35 147.062 197.793 147.063V147.064Z" fill="#E8E6E6"/>
<path d="M142.096 123.29H125.036C124.479 123.289 123.945 123.091 123.552 122.739C123.158 122.388 122.936 121.911 122.936 121.414V103.428C122.936 102.93 123.158 102.454 123.552 102.102C123.945 101.751 124.479 101.553 125.036 101.552H142.096C142.653 101.553 143.186 101.751 143.58 102.102C143.974 102.454 144.195 102.93 144.196 103.428V121.413C144.195 121.91 143.974 122.387 143.58 122.738C143.186 123.09 142.653 123.288 142.096 123.289V123.29Z" fill="#FF6584"/>
<path d="M159.508 90.3385H142.448C141.891 90.3377 141.357 90.1398 140.964 89.7881C140.57 89.4365 140.349 88.9598 140.348 88.4625V70.4766C140.349 69.9793 140.57 69.5026 140.964 69.151C141.357 68.7993 141.891 68.6014 142.448 68.6006H159.508C160.065 68.6014 160.598 68.7993 160.992 69.151C161.386 69.5026 161.607 69.9793 161.608 70.4766V88.4616C161.607 88.9589 161.386 89.4356 160.992 89.7872C160.598 90.1389 160.065 90.3368 159.508 90.3376V90.3385Z" fill="#E8E6E6"/>
<path d="M145.54 40.4596H118.926C118.681 40.4596 118.438 40.4165 118.211 40.3327C117.985 40.2488 117.779 40.1259 117.606 39.971C117.432 39.8161 117.295 39.6322 117.201 39.4298C117.107 39.2274 117.059 39.0104 117.059 38.7913C117.059 38.5723 117.107 38.3553 117.201 38.1529C117.295 37.9505 117.432 37.7666 117.606 37.6117C117.779 37.4568 117.985 37.3339 118.211 37.25C118.438 37.1662 118.681 37.123 118.926 37.123H145.54C145.785 37.123 146.028 37.1662 146.254 37.25C146.481 37.3339 146.687 37.4568 146.86 37.6117C147.033 37.7666 147.171 37.9505 147.265 38.1529C147.359 38.3553 147.407 38.5723 147.407 38.7913C147.407 39.0104 147.359 39.2274 147.265 39.4298C147.171 39.6322 147.033 39.8161 146.86 39.971C146.687 40.1259 146.481 40.2488 146.254 40.3327C146.028 40.4165 145.785 40.4596 145.54 40.4596Z" fill="#C2C2C2"/>
<path d="M220.709 40.4596H194.096C193.851 40.4596 193.608 40.4165 193.381 40.3327C193.155 40.2488 192.949 40.1259 192.775 39.971C192.602 39.8161 192.465 39.6322 192.371 39.4298C192.277 39.2274 192.229 39.0104 192.229 38.7913C192.229 38.5723 192.277 38.3553 192.371 38.1529C192.465 37.9505 192.602 37.7666 192.775 37.6117C192.949 37.4568 193.155 37.3339 193.381 37.25C193.608 37.1662 193.851 37.123 194.096 37.123H220.709C221.205 37.123 221.68 37.2988 222.03 37.6117C222.38 37.9245 222.577 38.3489 222.577 38.7913C222.577 39.2338 222.38 39.6581 222.03 39.971C221.68 40.2839 221.205 40.4596 220.709 40.4596Z" fill="#C2C2C2"/>
<path d="M291.211 40.4596H264.598C264.353 40.4596 264.11 40.4165 263.883 40.3327C263.657 40.2488 263.451 40.1259 263.277 39.971C263.104 39.8161 262.966 39.6322 262.873 39.4298C262.779 39.2274 262.73 39.0104 262.73 38.7913C262.73 38.5723 262.779 38.3553 262.873 38.1529C262.966 37.9505 263.104 37.7666 263.277 37.6117C263.451 37.4568 263.657 37.3339 263.883 37.25C264.11 37.1662 264.353 37.123 264.598 37.123H291.211C291.707 37.123 292.182 37.2988 292.532 37.6117C292.882 37.9245 293.079 38.3489 293.079 38.7913C293.079 39.2338 292.882 39.6581 292.532 39.971C292.182 40.2839 291.707 40.4596 291.211 40.4596Z" fill="#C2C2C2"/>
<path d="M357.045 40.4596H330.432C329.937 40.4596 329.462 40.2839 329.111 39.971C328.761 39.6581 328.564 39.2338 328.564 38.7913C328.564 38.3489 328.761 37.9245 329.111 37.6117C329.462 37.2988 329.937 37.123 330.432 37.123H357.045C357.541 37.123 358.016 37.2988 358.366 37.6117C358.716 37.9245 358.913 38.3489 358.913 38.7913C358.913 39.2338 358.716 39.6581 358.366 39.971C358.016 40.2839 357.541 40.4596 357.045 40.4596Z" fill="#C2C2C2"/>
<path d="M359.988 265.927H0.579498C0.425805 265.927 0.278408 265.872 0.169731 265.775C0.0610537 265.678 0 265.547 0 265.409C0 265.272 0.0610537 265.14 0.169731 265.043C0.278408 264.946 0.425805 264.892 0.579498 264.892H359.988C360.142 264.892 360.289 264.946 360.398 265.043C360.507 265.14 360.568 265.272 360.568 265.409C360.568 265.547 360.507 265.678 360.398 265.775C360.289 265.872 360.142 265.927 359.988 265.927Z" fill="#2F2F2F"/>
<path d="M89.6173 253.062H82.1113V261.9H89.6173V253.062Z" fill="#ED9DA0"/>
<path d="M83.3937 268H99.3487C100.72 267.998 102.075 267.723 103.312 267.193L106.253 265.93C106.576 265.791 106.845 265.567 107.022 265.288C107.2 265.008 107.278 264.687 107.246 264.368C107.214 264.048 107.073 263.744 106.843 263.498C106.613 263.251 106.304 263.073 105.958 262.987L99.8892 261.487L89.5092 256.613L89.5017 256.648C89.3087 257.526 89.0072 258.853 88.9682 258.934C87.9037 260.024 86.8102 260.525 85.7182 260.426C83.8127 260.254 82.5462 258.288 82.5342 258.269L82.5247 258.253H82.5052C82.3116 258.261 82.1224 258.307 81.9523 258.39C81.7822 258.473 81.6357 258.59 81.5242 258.731C81.0892 259.318 81.3547 260.218 81.3982 260.355C80.8777 260.809 80.6442 263.35 80.6257 263.555C79.8732 264.27 79.5157 264.953 79.5627 265.591C79.603 265.898 79.7156 266.194 79.8931 266.46C80.0707 266.725 80.3091 266.954 80.5927 267.132C81.3881 267.697 82.3761 268.003 83.3927 267.998L83.3937 268Z" fill="black"/>
<path d="M29.8416 257.518L37.0488 259.391L39.8123 250.904L32.6051 249.031L29.8416 257.518Z" fill="#ED9DA0"/>
<path d="M29.1666 263.693L44.4871 267.674C45.8048 268.015 47.1912 268.088 48.5446 267.889L51.7641 267.41C52.118 267.356 52.4453 267.208 52.7024 266.984C52.9595 266.761 53.1343 266.472 53.2033 266.158C53.2724 265.843 53.2325 265.517 53.089 265.223C52.9455 264.929 52.7052 264.681 52.4001 264.512L47.0436 261.558L38.5986 254.288L38.5806 254.319C38.1211 255.112 37.4146 256.312 37.3536 256.38C35.9911 257.161 34.7837 257.37 33.7662 257.001C31.9897 256.36 31.3892 254.157 31.3832 254.135L31.3786 254.118L31.3596 254.115C31.1716 254.073 30.9754 254.071 30.7862 254.108C30.5971 254.145 30.42 254.221 30.2687 254.329C29.6687 254.783 29.6411 255.713 29.6401 255.856C28.9982 256.163 27.9797 258.544 27.8977 258.737C26.9522 259.233 26.3946 259.801 26.2406 260.427C26.1835 260.732 26.1993 261.044 26.287 261.343C26.3746 261.643 26.5321 261.922 26.7492 262.163C27.3362 262.905 28.1896 263.445 29.1676 263.694L29.1666 263.693Z" fill="black"/>
<path d="M53.9824 94.2326C53.984 92.2186 54.6104 90.2444 55.7918 88.529C56.9733 86.8137 58.6637 85.4244 60.6755 84.5153C62.6872 83.6062 64.9416 83.2128 67.1885 83.3789C69.4353 83.545 71.5867 84.264 73.4038 85.4561C75.2209 86.6483 76.6327 88.2669 77.4825 90.1324C78.3323 91.9978 78.5869 94.0372 78.2179 96.0241C77.849 98.0109 76.8709 99.8676 75.3924 101.388C73.9138 102.908 71.9926 104.033 69.8419 104.637L67.4829 118.564L55.4574 109.613C57.0973 107.686 58.4403 105.57 59.4504 103.324C57.7697 102.331 56.3908 100.981 55.4371 99.3949C54.4834 97.8091 53.9846 96.0368 53.9854 94.2366L53.9824 94.2326Z" fill="#ED9DA0"/>
<path d="M49.1668 148.037L47.4049 126.006C47.252 124.095 47.5223 122.176 48.2004 120.359L53.4218 106.37L68.7978 110.782L75.2853 124.041L78.8188 129.828C79.602 131.111 79.8992 132.586 79.6661 134.032C79.4331 135.478 78.6822 136.818 77.5258 137.851L75.2863 139.852L78.4088 150.083L78.0803 150.072L78.5208 150.123C78.5208 150.123 99.3973 206.227 98.6478 253.942H71.8518L70.2613 198.555L65.6068 256.092L30.2969 254.275L49.1653 148.036L49.1668 148.037Z" fill="#E8E6E6"/>
<path d="M50.0638 108.555C50.0638 108.555 50.6338 112.419 55.9138 112.544L66.6228 112.8C66.6228 112.8 57.5698 93.1181 61.2938 95.3349C65.0178 97.5517 74.9438 88.2566 74.9438 88.2566L77.8728 93.1637C77.8728 93.1637 84.8688 90.9 77.1153 85.3573C77.1153 85.3573 67.8623 78.9659 58.0393 82.8046C48.2163 86.6432 50.0638 108.555 50.0638 108.555Z" fill="black"/>
<path d="M93.372 152.38C93.5135 149.92 90.934 147.803 87.608 147.649C86.7409 147.595 85.8705 147.695 85.0473 147.945C84.2242 148.194 83.4648 148.587 82.8135 149.101L82.7365 149.098L63.0185 147.273L64.4975 129.791C65.0445 126.41 63.982 123.002 60.254 122.236C59.1737 122.014 58.051 122.012 56.9701 122.233C55.8892 122.453 54.8781 122.888 54.0124 123.507C53.1467 124.126 52.4489 124.911 51.9712 125.805C51.4935 126.699 51.2483 127.678 51.254 128.668L51.367 150.689C51.3705 151.433 51.5382 152.169 51.8606 152.855C52.183 153.541 52.6538 154.164 53.2459 154.687C53.838 155.21 54.5399 155.624 55.3113 155.905C56.0828 156.185 56.9086 156.327 57.7415 156.322L82.488 154.67C83.0763 155.241 83.786 155.702 84.5757 156.026C85.3655 156.35 86.2195 156.53 87.088 156.556C90.4145 156.71 93.2279 154.841 93.3689 152.382L93.372 152.38Z" fill="#ED9DA0"/>
<path d="M66.3946 122.073L65.2066 142.019L48.7031 141.018L51.6216 120.274" fill="#E8E6E6"/>
<path d="M234.378 264.829H217.954C216.541 264.828 215.147 264.544 213.873 263.999L210.845 262.699C210.512 262.556 210.235 262.325 210.052 262.038C209.869 261.751 209.789 261.42 209.822 261.091C209.855 260.761 209.999 260.449 210.236 260.195C210.473 259.941 210.791 259.758 211.148 259.67L217.394 258.126L228.082 253.108L228.09 253.145C228.29 254.049 228.599 255.415 228.64 255.498C229.736 256.619 230.861 257.136 231.986 257.034C233.947 256.855 235.251 254.833 235.264 254.813L235.273 254.797H235.293C235.492 254.805 235.687 254.853 235.862 254.938C236.037 255.023 236.188 255.143 236.303 255.289C236.753 255.891 236.477 256.819 236.432 256.96C236.968 257.428 237.209 260.042 237.227 260.255C238.002 260.988 238.37 261.694 238.323 262.351C238.282 262.667 238.166 262.972 237.983 263.246C237.801 263.519 237.555 263.755 237.264 263.937C236.445 264.52 235.428 264.835 234.381 264.831L234.378 264.829Z" fill="black"/>
<path d="M192.19 153.319C192.732 153.442 193.297 153.457 193.847 153.364C194.396 153.27 194.916 153.07 195.369 152.778C195.822 152.486 196.199 152.108 196.471 151.672C196.744 151.236 196.906 150.752 196.946 150.254L210.073 147.113L204.792 142.924L193.136 146.549C192.194 146.542 191.283 146.846 190.574 147.4C189.866 147.955 189.41 148.723 189.293 149.558C189.177 150.393 189.407 151.237 189.941 151.93C190.475 152.623 191.275 153.118 192.19 153.319Z" fill="#9F616A"/>
<path d="M201.811 151.545C202.087 151.68 202.392 151.761 202.705 151.783C203.018 151.805 203.333 151.768 203.63 151.674L225.224 144.353C230.492 142.685 234.902 139.364 237.634 135.008L246.639 120.658C247.27 120.027 247.755 119.291 248.067 118.493C248.379 117.695 248.512 116.849 248.458 116.005C248.405 115.161 248.165 114.334 247.754 113.573C247.343 112.811 246.768 112.129 246.062 111.566C245.355 111.003 244.532 110.57 243.638 110.291C242.745 110.012 241.798 109.893 240.853 109.941C239.908 109.989 238.983 110.203 238.13 110.57C237.278 110.937 236.515 111.451 235.884 112.082L220.298 134.151L200.683 144.425C200.299 144.65 200.001 144.975 199.83 145.357C199.66 145.738 199.624 146.157 199.729 146.557L200.704 150.25C200.776 150.523 200.912 150.779 201.103 151.003C201.294 151.226 201.535 151.411 201.811 151.545L201.811 151.545Z" fill="#E82E2D"/>
<path d="M239.965 95.1426L232.242 97.0673L234.404 104.038L244.249 102.589L239.965 95.1426Z" fill="#9F616A"/>
<path d="M280.947 252.053L286.574 248.266L282.125 242.99L276.498 246.777L280.947 252.053Z" fill="#9F616A"/>
<path d="M289.612 253.743L277.058 262.192C275.978 262.917 274.731 263.417 273.407 263.655L270.254 264.219C269.907 264.281 269.547 264.247 269.222 264.121C268.897 263.996 268.623 263.784 268.435 263.516C268.248 263.247 268.157 262.934 268.175 262.618C268.192 262.302 268.317 261.998 268.533 261.748L272.308 257.354L277.241 248.021L277.271 248.045C278.007 248.633 279.122 249.518 279.207 249.561C280.768 249.853 281.961 249.671 282.754 249.015C284.138 247.87 283.831 245.653 283.827 245.631L283.824 245.614L283.84 245.603C283.997 245.506 284.176 245.443 284.365 245.418C284.554 245.393 284.747 245.407 284.928 245.46C285.659 245.69 286.049 246.54 286.104 246.67C286.815 246.751 288.685 248.626 288.837 248.78C289.904 248.943 290.64 249.293 291.028 249.82C291.201 250.083 291.309 250.375 291.346 250.678C291.382 250.981 291.347 251.288 291.242 251.578C290.991 252.444 290.416 253.208 289.613 253.742L289.612 253.743Z" fill="black"/>
<path d="M235.695 251.648H228.334V258.55H235.695V251.648Z" fill="#9F616A"/>
<path d="M258.73 121.29C258.73 121.29 262.027 119.034 262.027 124.546L262.547 142.761L256.734 159.969L253.35 154.388L254.738 142.296L258.73 121.29Z" fill="#E82E2D"/>
<path d="M223.461 171.112C223.461 171.112 219.637 187.746 224.48 201.396L227.09 252.211L236.968 253.199L240.409 214.262L243.723 194.907L250.605 212.555L273.29 249.896L283.74 242.61C283.74 242.61 272.159 214.38 263.604 208.454L259.313 164.796L223.461 171.112Z" fill="black"/>
<path d="M244.896 85.6755C241.93 80.8339 235.132 79.0572 229.712 81.7071C224.292 84.357 222.303 90.4301 225.27 95.2716C228.236 100.113 235.034 101.89 240.454 99.24C245.873 96.5901 247.862 90.5171 244.896 85.6755Z" fill="#9F616A"/>
<path d="M235.884 92.5918C234.542 92.7477 233.531 91.5198 233.061 90.3884C232.592 89.257 232.234 87.9358 231.068 87.3239C229.475 86.4873 227.436 87.4936 225.614 87.2176C223.557 86.9049 222.219 84.9579 222.114 83.0962C222.01 81.2345 222.839 79.4433 223.653 77.7268L223.937 79.8601C223.899 79.137 224.069 78.4173 224.432 77.7699C224.794 77.1224 225.336 76.5689 226.006 76.1621L225.64 79.2928C225.718 78.861 225.891 78.4472 226.148 78.0751C226.406 77.7031 226.743 77.3802 227.141 77.1248C227.538 76.8695 227.988 76.6868 228.465 76.5872C228.942 76.4876 229.436 76.4731 229.919 76.5445L229.861 78.4097C232.229 78.0838 234.627 77.979 237.019 78.0971C239.402 78.2891 241.803 78.9632 243.609 80.3652C246.309 82.4646 247.298 85.9169 246.967 89.1025C246.636 92.2881 245.165 95.2781 243.631 98.1698C243.246 98.897 242.712 99.7175 241.818 99.81C241.412 99.8151 241.016 99.6993 240.692 99.481C240.368 99.2626 240.134 98.954 240.028 98.604C239.836 97.8988 239.843 97.1619 240.05 96.46C240.276 95.388 240.561 94.2901 240.35 93.2141C240.139 92.138 239.271 91.0759 238.057 90.9436C236.844 90.8114 235.602 92.0514 236.185 93.0108L235.884 92.5918Z" fill="black"/>
<path d="M245.802 102.687L243.459 99.7812C243.459 99.7812 240.841 100.576 233.828 103.694L233.333 106.416L221.16 173.3C221.16 173.3 233.327 172.71 243.286 172.447C253.245 172.184 260.997 172.247 260.997 172.247L259.684 152.912L257.775 138.186L260.725 124.313C260.725 124.313 264.437 111.571 250.139 104.704L245.802 102.687Z" fill="#E82E2D"/>
</g>
<defs>
<clipPath id="clip0_5377_11557">
<rect width="400" height="268" fill="white"/>
</clipPath>
</defs>
</svg>
