<svg width="400" height="223" viewBox="0 0 400 223" fill="none" xmlns="http://www.w3.org/2000/svg">
<path d="M141.836 6.83105H400.001V118.477C400.001 119.223 399.695 119.937 399.149 120.464C398.602 120.991 397.862 121.287 397.089 121.287H144.748C143.976 121.287 143.235 120.991 142.689 120.464C142.143 119.937 141.836 119.223 141.836 118.477V6.83105Z" fill="#E8E6E6"/>
<path d="M392.612 16.9688H149.211V115.597H392.612V16.9688Z" fill="white"/>
<path d="M144.633 0H396.974C397.747 0 398.487 0.29605 399.033 0.823023C399.579 1.35 399.886 2.06473 399.886 2.80998V10.5833H141.721V2.80998C141.721 2.06473 142.027 1.35 142.574 0.823023C143.12 0.29605 143.86 0 144.633 0Z" fill="#E82E2D"/>
<path d="M149.873 7.2546C150.996 7.2546 151.906 6.37629 151.906 5.29283C151.906 4.20937 150.996 3.33105 149.873 3.33105C148.75 3.33105 147.84 4.20937 147.84 5.29283C147.84 6.37629 148.75 7.2546 149.873 7.2546Z" fill="white"/>
<path d="M157.59 7.2546C158.712 7.2546 159.623 6.37629 159.623 5.29283C159.623 4.20937 158.712 3.33105 157.59 3.33105C156.467 3.33105 155.557 4.20937 155.557 5.29283C155.557 6.37629 156.467 7.2546 157.59 7.2546Z" fill="white"/>
<path d="M165.304 7.2546C166.427 7.2546 167.337 6.37629 167.337 5.29283C167.337 4.20937 166.427 3.33105 165.304 3.33105C164.182 3.33105 163.271 4.20937 163.271 5.29283C163.271 6.37629 164.182 7.2546 165.304 7.2546Z" fill="white"/>
<path d="M380.666 95.6204H259.981C259.881 95.6204 259.785 95.5821 259.714 95.5137C259.643 95.4454 259.604 95.3528 259.604 95.2561V39.4387C259.604 39.3421 259.643 39.2493 259.714 39.181C259.785 39.1126 259.881 39.0742 259.981 39.0742C260.081 39.0742 260.178 39.1126 260.248 39.181C260.319 39.2493 260.359 39.3421 260.359 39.4387V94.8914H380.666C380.766 94.8914 380.862 94.9298 380.933 94.9982C381.004 95.0665 381.043 95.1592 381.043 95.2559C381.043 95.3526 381.004 95.4453 380.933 95.5137C380.862 95.582 380.766 95.6204 380.666 95.6204Z" fill="#2F2F2F"/>
<path d="M285.77 91.6095H274.793C274.496 91.6091 274.211 91.4951 274.001 91.2923C273.79 91.0895 273.672 90.8146 273.672 90.5278V75.9265C273.672 75.6397 273.79 75.3648 274.001 75.162C274.211 74.9592 274.496 74.8451 274.793 74.8447H285.77C286.067 74.8451 286.352 74.9592 286.562 75.162C286.772 75.3648 286.89 75.6397 286.891 75.9265V90.5278C286.89 90.8146 286.772 91.0895 286.562 91.2923C286.352 91.4951 286.067 91.6091 285.77 91.6095Z" fill="#E82E2D"/>
<path d="M305.783 91.6111H294.807C294.509 91.6107 294.224 91.4966 294.014 91.2938C293.804 91.0911 293.686 90.8161 293.686 90.5294V62.0808C293.686 61.794 293.804 61.5191 294.014 61.3163C294.224 61.1135 294.509 60.9994 294.807 60.999H305.783C306.081 60.9994 306.366 61.1135 306.576 61.3163C306.786 61.5191 306.904 61.794 306.904 62.0808V90.5318C306.904 90.8186 306.786 91.0935 306.576 91.2962C306.366 91.499 306.081 91.6131 305.783 91.6135V91.6111Z" fill="#E82E2D"/>
<path d="M325.803 91.6095H314.826C314.529 91.6091 314.244 91.4951 314.034 91.2923C313.824 91.0895 313.705 90.8146 313.705 90.5278V75.9265C313.705 75.6397 313.824 75.3648 314.034 75.162C314.244 74.9592 314.529 74.8451 314.826 74.8447H325.803C326.1 74.8451 326.385 74.9592 326.595 75.162C326.805 75.3648 326.924 75.6397 326.924 75.9265V90.5278C326.924 90.8146 326.805 91.0895 326.595 91.2923C326.385 91.4951 326.1 91.6091 325.803 91.6095Z" fill="#E82E2D"/>
<path d="M345.821 91.6105H334.844C334.553 91.6159 334.273 91.5104 334.063 91.3169C333.853 91.1234 333.73 90.8576 333.723 90.5775V56.5625C333.73 56.2824 333.853 56.0166 334.063 55.8231C334.273 55.6296 334.553 55.524 334.844 55.5295H345.821C346.111 55.524 346.392 55.6296 346.602 55.8231C346.812 56.0166 346.934 56.2824 346.942 56.5625V90.5775C346.934 90.8576 346.812 91.1234 346.602 91.3169C346.392 91.5104 346.111 91.6159 345.821 91.6105Z" fill="#E82E2D"/>
<path d="M365.84 91.6107H354.861C354.564 91.6103 354.279 91.4962 354.069 91.2934C353.859 91.0906 353.741 90.8157 353.74 90.5289V46.7702C353.741 46.4834 353.859 46.2085 354.069 46.0057C354.279 45.803 354.564 45.6889 354.861 45.6885H365.838C366.135 45.6889 366.42 45.803 366.63 46.0057C366.841 46.2085 366.959 46.4834 366.959 46.7702V90.5285C366.959 90.8152 366.841 91.0902 366.63 91.2929C366.42 91.4957 366.135 91.6098 365.838 91.6102L365.84 91.6107Z" fill="#E82E2D"/>
<path d="M280.28 70.4728C281.531 70.4728 282.546 69.4939 282.546 68.2862C282.546 67.0786 281.531 66.0996 280.28 66.0996C279.028 66.0996 278.014 67.0786 278.014 68.2862C278.014 69.4939 279.028 70.4728 280.28 70.4728Z" fill="#2F2F2F"/>
<path d="M300.297 56.259C301.549 56.259 302.563 55.28 302.563 54.0724C302.563 52.8647 301.549 51.8857 300.297 51.8857C299.046 51.8857 298.031 52.8647 298.031 54.0724C298.031 55.28 299.046 56.259 300.297 56.259Z" fill="#2F2F2F"/>
<path d="M320.315 70.4728C321.566 70.4728 322.581 69.4939 322.581 68.2862C322.581 67.0786 321.566 66.0996 320.315 66.0996C319.063 66.0996 318.049 67.0786 318.049 68.2862C318.049 69.4939 319.063 70.4728 320.315 70.4728Z" fill="#2F2F2F"/>
<path d="M340.334 49.3332C341.586 49.3332 342.6 48.3542 342.6 47.1466C342.6 45.9389 341.586 44.96 340.334 44.96C339.083 44.96 338.068 45.9389 338.068 47.1466C338.068 48.3542 339.083 49.3332 340.334 49.3332Z" fill="#2F2F2F"/>
<path d="M360.354 41.3156C361.605 41.3156 362.62 40.3366 362.62 39.129C362.62 37.9214 361.605 36.9424 360.354 36.9424C359.102 36.9424 358.088 37.9214 358.088 39.129C358.088 40.3366 359.102 41.3156 360.354 41.3156Z" fill="#2F2F2F"/>
<path d="M320.362 68.7767L300.297 54.2738L280.506 68.5784L280.053 67.9951L300.297 53.3633L320.266 67.7973L340.111 46.8416L340.191 46.8103L360.208 39.0273L360.491 39.7028L340.553 47.4573L320.362 68.7767Z" fill="#2F2F2F"/>
<path d="M211.007 29.0225H176.727V31.5087H211.007V29.0225Z" fill="#E8E6E6"/>
<path d="M229.662 36.3203H176.727V38.8065H229.662V36.3203Z" fill="#E82E2D"/>
<path d="M220.421 43.2725H177.279V45.7587H220.421V43.2725Z" fill="#E8E6E6"/>
<path d="M201.912 50.8994H176.727V53.3856H201.912V50.8994Z" fill="#E8E6E6"/>
<path d="M214.738 58.3506H176.727V60.8368H214.738V58.3506Z" fill="#E82E2D"/>
<path d="M165.299 28.2402H161.102V32.2907H165.299V28.2402Z" fill="#E8E6E6"/>
<path d="M165.299 35.5381H161.102V39.5885H165.299V35.5381Z" fill="#E82E2D"/>
<path d="M165.299 42.4902H161.102V46.5407H165.299V42.4902Z" fill="#E8E6E6"/>
<path d="M165.299 50.1172H161.102V54.1676H165.299V50.1172Z" fill="#E8E6E6"/>
<path d="M165.299 57.5674H161.102V61.6178H165.299V57.5674Z" fill="#E82E2D"/>
<path d="M211.007 65.8457H176.727V68.3319H211.007V65.8457Z" fill="#E8E6E6"/>
<path d="M229.662 73.1465H176.727V75.6327H229.662V73.1465Z" fill="#E82E2D"/>
<path d="M220.421 80.0957H177.279V82.5819H220.421V80.0957Z" fill="#E8E6E6"/>
<path d="M201.912 87.7227H176.727V90.2089H201.912V87.7227Z" fill="#E8E6E6"/>
<path d="M214.738 95.1748H176.727V97.661H214.738V95.1748Z" fill="#E8E6E6"/>
<path d="M165.299 65.0635H161.102V69.1139H165.299V65.0635Z" fill="#E8E6E6"/>
<path d="M165.299 72.3643H161.102V76.4147H165.299V72.3643Z" fill="#E82E2D"/>
<path d="M165.299 79.3135H161.102V83.3639H165.299V79.3135Z" fill="#E8E6E6"/>
<path d="M165.299 86.9414H161.102V90.9918H165.299V86.9414Z" fill="#E8E6E6"/>
<path d="M165.299 94.3916H161.102V98.442H165.299V94.3916Z" fill="#E8E6E6"/>
<path d="M66.7336 57.9422C66.7336 57.9422 62.2635 68.4906 63.6658 76.6332L51.3769 76.4061L41.5359 69.617L42.6471 62.8468C42.6471 62.8468 49.3499 53.2992 49.9706 41.1718L66.7336 57.9422Z" fill="#FFB9B9"/>
<path d="M13.5939 106.726C13.5939 106.726 7.05448 101.891 7.05448 113.701L6.02148 152.728L17.5519 189.596L24.2638 177.639L21.5099 151.735L13.5939 106.726Z" fill="#E8E6E6"/>
<path d="M79.951 47.9377C85.8303 37.5592 81.8776 24.5465 71.1224 18.8732C60.3671 13.1998 46.8821 17.0141 41.0028 27.3926C35.1235 37.7711 39.0763 50.7837 49.8315 56.4571C60.5868 62.1305 74.0717 58.3162 79.951 47.9377Z" fill="#FFB7B7"/>
<path d="M58.9082 42.2039C61.5687 42.5382 63.5762 39.9111 64.5082 37.4813C65.4402 35.0515 66.1482 32.2266 68.4607 30.9142C71.6226 29.1228 75.6641 31.2776 79.2781 30.686C83.3586 30.0183 86.0125 25.8443 86.222 21.8566C86.4315 17.8689 84.7845 14.0322 83.1721 10.3537L82.6056 14.9243C82.6809 13.3751 82.3431 11.8331 81.6244 10.4458C80.9056 9.05858 79.8301 7.87248 78.5006 7.00098L79.2241 13.7075C79.0693 12.7822 78.7266 11.8956 78.2159 11.0984C77.7051 10.3012 77.0363 9.60914 76.2478 9.06194C75.4592 8.51475 74.5665 8.12318 73.6208 7.90968C72.675 7.69618 71.6949 7.66496 70.7367 7.81782L70.8507 11.8133C66.1367 11.2738 61.3822 10.7315 56.6548 11.1421C51.9273 11.5527 47.1683 12.9977 43.5839 16.0027C38.2239 20.4984 36.2664 27.8978 36.9229 34.7206C37.5794 41.5433 40.5009 47.9526 43.5409 54.1434C44.3059 55.7008 45.3644 57.4585 47.1408 57.6568C48.7323 57.8348 50.1948 56.5471 50.6908 55.0741C51.0727 53.5624 51.0578 51.9826 50.6473 50.4779C50.1973 48.178 49.6348 45.8283 50.0548 43.5234C50.4748 41.2186 52.1943 38.9399 54.6018 38.66C57.0093 38.3802 59.4722 41.0329 58.3153 43.0916L58.9082 42.2039Z" fill="black"/>
<path d="M84.9267 223L10.8418 218.386L16.4178 196.096L84.1277 210.699L84.9267 223Z" fill="black"/>
<path d="M39.2377 66.8656L43.8846 60.6416C43.8846 60.6416 49.0796 62.3448 62.988 69.0257L63.9715 74.8584L88.1153 218.156L44.2296 216.33L32.2797 216.084L28.3673 207.625L23.5448 215.907L11.8749 215.666L0 209.023L11.7029 174.479L15.4894 142.925L9.63942 113.199C9.63942 113.199 2.27448 85.902 30.6328 71.18L39.2377 66.8656Z" fill="#E8E6E6"/>
<path d="M165.198 108.654C164.489 109.478 163.602 110.141 162.599 110.597C161.596 111.053 160.501 111.292 159.392 111.296C158.283 111.299 157.187 111.069 156.18 110.619C155.174 110.17 154.281 109.513 153.566 108.695L128.4 118.027L131.405 104.824L154.844 97.9886C156.348 96.9191 158.205 96.4193 160.066 96.5838C161.926 96.7484 163.658 97.5659 164.935 98.8814C166.212 100.197 166.945 101.919 166.993 103.721C167.042 105.522 166.404 107.279 165.2 108.657L165.198 108.654Z" fill="#FFB7B7"/>
<path d="M153.46 112.18C153.193 112.724 152.81 113.207 152.337 113.599C151.863 113.99 151.31 114.281 150.712 114.453L106.504 126.065C95.8718 129.103 84.4578 128.311 74.3857 123.836L41.2048 109.096C39.3668 108.715 37.6247 107.988 36.0783 106.956C34.5318 105.925 33.2114 104.609 32.1925 103.084C31.1737 101.56 30.4764 99.8562 30.1406 98.0712C29.8047 96.2862 29.837 94.4549 30.2355 92.682C30.634 90.9091 31.3908 89.2294 32.4628 87.7391C33.5348 86.2488 34.9008 84.9771 36.4827 83.9968C38.0646 83.0165 39.8312 82.3468 41.6816 82.0262C43.532 81.7055 45.4297 81.7401 47.2663 82.128L101.088 102.839L145.977 98.5729C146.888 98.5304 147.791 98.7591 148.563 99.2281C149.335 99.6971 149.938 100.384 150.293 101.195L153.549 108.694C153.898 109.498 153.984 110.386 153.796 111.239C153.725 111.566 153.614 111.885 153.465 112.187L153.46 112.18Z" fill="#E8E6E6"/>
</svg>
