<svg width="400" height="294" viewBox="0 0 400 294" fill="none" xmlns="http://www.w3.org/2000/svg">
<g clip-path="url(#clip0_5591_7388)">
<path d="M72.0712 193.716C71.7196 193.716 71.3701 193.666 71.0354 193.568C70.6118 193.445 70.219 193.248 69.8796 192.986C69.5403 192.724 69.2612 192.404 69.0586 192.043L65.7907 186.256C65.3807 185.528 65.3038 184.681 65.5768 183.902C65.8498 183.122 66.4504 182.473 67.247 182.097L120.073 157.231C120.871 156.856 121.798 156.786 122.652 157.035C123.506 157.285 124.217 157.833 124.629 158.56L127.897 164.347C128.307 165.075 128.384 165.922 128.111 166.702C127.838 167.481 127.237 168.13 126.441 168.506L73.6145 193.372C73.1375 193.598 72.6083 193.716 72.0712 193.716Z" fill="#E82E2D"/>
<path d="M91.2322 171.171C91.3737 171.349 91.4941 171.541 91.5913 171.742L97.1734 182.872C97.3533 183.243 97.4514 183.643 97.462 184.048C97.4726 184.454 97.3955 184.857 97.2352 185.236C97.0749 185.614 96.8344 185.96 96.5276 186.253C96.2208 186.547 95.8536 186.782 95.447 186.946L76.6723 192.937C74.7196 193.56 72.5847 193.507 70.6723 192.788C68.7598 192.069 67.2026 190.734 66.296 189.037C65.3469 187.261 65.1815 185.22 65.8337 183.336C66.4859 181.452 67.9061 179.868 69.8006 178.913L87.1124 170.173C87.8204 169.884 88.6158 169.825 89.3657 170.007C90.1156 170.188 90.7745 170.599 91.2322 171.171Z" fill="#2F2E41"/>
<path d="M312.309 142.038H221.868C219.81 142.032 217.823 141.347 216.274 140.109L179.022 110.112C177.743 109.081 176.095 108.512 174.389 108.513H142.24V7.27832C142.243 5.34866 143.083 3.49865 144.578 2.13418C146.072 0.769701 148.099 0.00218091 150.212 0H304.337C306.451 0.00217974 308.477 0.7697 309.972 2.13418C311.466 3.49866 312.307 5.34866 312.309 7.27832L312.309 142.038Z" fill="#E6E6E6"/>
<path d="M179.201 46.9783C188.541 46.9783 196.112 40.0661 196.112 31.5394C196.112 23.0128 188.541 16.1006 179.201 16.1006C169.862 16.1006 162.291 23.0128 162.291 31.5394C162.291 40.0661 169.862 46.9783 179.201 46.9783Z" fill="white"/>
<path d="M244.909 23.2686H213.504C212.928 23.2686 212.375 23.4777 211.967 23.8499C211.559 24.2222 211.33 24.7271 211.33 25.2536C211.33 25.78 211.559 26.2849 211.967 26.6572C212.375 27.0294 212.928 27.2385 213.504 27.2385H244.909C245.486 27.2385 246.039 27.0294 246.446 26.6572C246.854 26.2849 247.083 25.78 247.083 25.2536C247.083 24.7271 246.854 24.2222 246.446 23.8499C246.039 23.4777 245.486 23.2686 244.909 23.2686Z" fill="white"/>
<path d="M290.499 35.8398H213.089C212.118 35.8398 211.33 36.7309 211.33 37.8248C211.33 38.9188 212.118 39.8098 213.089 39.8098H290.499C291.47 39.8098 292.258 38.9188 292.258 37.8248C292.258 36.7309 291.47 35.8398 290.499 35.8398Z" fill="white"/>
<path d="M284.417 62.417H170.133C169.205 62.417 168.451 63.308 168.451 64.402C168.451 65.4959 169.205 66.387 170.133 66.387H284.417C285.344 66.387 286.098 65.4959 286.098 64.402C286.098 63.308 285.344 62.417 284.417 62.417Z" fill="white"/>
<path d="M284.417 74.7686H170.133C169.205 74.7686 168.451 75.6596 168.451 76.7536C168.451 77.8475 169.205 78.7385 170.133 78.7385H284.417C285.344 78.7385 286.098 77.8475 286.098 76.7536C286.098 75.6596 285.344 74.7686 284.417 74.7686Z" fill="white"/>
<path d="M284.417 87.1191H170.133C169.205 87.1191 168.451 88.0102 168.451 89.1041C168.451 90.1981 169.205 91.0891 170.133 91.0891H284.417C285.344 91.0891 286.098 90.1981 286.098 89.1041C286.098 88.0102 285.344 87.1191 284.417 87.1191Z" fill="white"/>
<path d="M284.417 99.4707H170.133C169.205 99.4707 168.451 100.362 168.451 101.456C168.451 102.55 169.205 103.441 170.133 103.441H284.417C285.344 103.441 286.098 102.55 286.098 101.456C286.098 100.362 285.344 99.4707 284.417 99.4707Z" fill="white"/>
<path d="M387.196 142.037H221.867C220.221 142.04 218.61 141.601 217.236 140.775L217.127 140.709V37.7148C217.129 35.7852 217.97 33.9352 219.465 32.5707C220.959 31.2062 222.985 30.4387 225.099 30.4365H379.224C381.337 30.4387 383.364 31.2062 384.858 32.5707C386.353 33.9352 387.193 35.7852 387.196 37.7148L387.196 142.037Z" fill="#E82E2D"/>
<path d="M254.088 77.4148C263.427 77.4148 270.998 70.5026 270.998 61.976C270.998 53.4493 263.427 46.5371 254.088 46.5371C244.749 46.5371 237.178 53.4493 237.178 61.976C237.178 70.5026 244.749 77.4148 254.088 77.4148Z" fill="white"/>
<path d="M319.798 53.7051H288.393C287.816 53.7051 287.263 53.9142 286.856 54.2865C286.448 54.6587 286.219 55.1636 286.219 55.6901C286.219 56.2165 286.448 56.7214 286.856 57.0937C287.263 57.4659 287.816 57.6751 288.393 57.6751H319.798C320.374 57.6751 320.927 57.4659 321.335 57.0937C321.743 56.7214 321.972 56.2165 321.972 55.6901C321.972 55.1636 321.743 54.6587 321.335 54.2865C320.927 53.9142 320.374 53.7051 319.798 53.7051Z" fill="white"/>
<path d="M365.388 66.2764H287.977C287.006 66.2764 286.219 67.1674 286.219 68.2614C286.219 69.3553 287.006 70.2464 287.977 70.2464H365.388C366.359 70.2464 367.146 69.3553 367.146 68.2614C367.146 67.1674 366.359 66.2764 365.388 66.2764Z" fill="white"/>
<path d="M359.304 92.8535H245.019C244.092 92.8535 243.338 93.7446 243.338 94.8385C243.338 95.9325 244.092 96.8235 245.019 96.8235H359.304C360.231 96.8235 360.985 95.9325 360.985 94.8385C360.985 93.7446 360.231 92.8535 359.304 92.8535Z" fill="white"/>
<path d="M359.304 105.205H245.019C244.092 105.205 243.338 106.096 243.338 107.19C243.338 108.284 244.092 109.175 245.019 109.175H359.304C360.231 109.175 360.985 108.284 360.985 107.19C360.985 106.096 360.231 105.205 359.304 105.205Z" fill="white"/>
<path d="M359.304 117.556H245.019C244.092 117.556 243.338 118.447 243.338 119.541C243.338 120.635 244.092 121.526 245.019 121.526H359.304C360.231 121.526 360.985 120.635 360.985 119.541C360.985 118.447 360.231 117.556 359.304 117.556Z" fill="white"/>
<path d="M359.304 129.907H245.019C244.092 129.907 243.338 130.798 243.338 131.892C243.338 132.986 244.092 133.877 245.019 133.877H359.304C360.231 133.877 360.985 132.986 360.985 131.892C360.985 130.798 360.231 129.907 359.304 129.907Z" fill="white"/>
<path d="M391.786 140.935H221.866C220.233 140.936 218.648 140.433 217.368 139.505C217.267 139.435 217.17 139.36 217.074 139.28L202.69 127.701L179.818 109.285C178.319 108.076 176.387 107.41 174.387 107.41H132.817C130.64 107.413 128.552 108.204 127.013 109.61C125.473 111.015 124.607 112.921 124.604 114.909V286.501C124.607 288.489 125.473 290.395 127.013 291.8C128.552 293.206 130.64 293.997 132.817 294H391.786C393.963 293.997 396.05 293.206 397.59 291.8C399.13 290.395 399.996 288.489 399.999 286.501V148.433C399.996 146.445 399.13 144.54 397.59 143.134C396.05 141.728 393.963 140.937 391.786 140.935ZM399.033 286.501C399.03 288.255 398.266 289.937 396.908 291.177C395.549 292.418 393.707 293.115 391.786 293.118H132.817C130.896 293.115 129.054 292.418 127.695 291.177C126.336 289.937 125.572 288.255 125.57 286.501V114.909C125.572 113.155 126.336 111.473 127.695 110.233C129.054 108.992 130.896 108.295 132.817 108.292H174.387C176.153 108.291 177.857 108.879 179.18 109.947L201.231 127.701L216.431 139.942C217.936 141.146 219.866 141.811 221.866 141.817H391.786C393.707 141.819 395.549 142.517 396.908 143.757C398.266 144.997 399.03 146.679 399.033 148.433V286.501Z" fill="#3F3D56"/>
<path d="M49.8871 167.441C64.168 167.441 75.7449 156.872 75.7449 143.833C75.7449 130.795 64.168 120.226 49.8871 120.226C35.6062 120.226 24.0293 130.795 24.0293 143.833C24.0293 156.872 35.6062 167.441 49.8871 167.441Z" fill="#E82E2D"/>
<path d="M49.6771 293.743H42.5461C41.6494 293.742 40.7898 293.416 40.1558 292.837C39.5217 292.259 39.1651 291.474 39.1641 290.655V236.392C39.1651 235.574 39.5217 234.789 40.1558 234.21C40.7898 233.631 41.6494 233.306 42.5461 233.305H49.6771C50.5737 233.306 51.4334 233.631 52.0674 234.21C52.7015 234.789 53.0581 235.574 53.0591 236.392V290.655C53.0581 291.474 52.7015 292.259 52.0674 292.837C51.4334 293.416 50.5737 293.742 49.6771 293.743Z" fill="#E82E2D"/>
<path d="M65.138 293.743H58.0071C57.1104 293.742 56.2507 293.416 55.6167 292.837C54.9827 292.259 54.626 291.474 54.625 290.655V236.392C54.626 235.574 54.9827 234.789 55.6167 234.21C56.2507 233.631 57.1104 233.306 58.0071 233.305H65.138C66.0347 233.306 66.8943 233.631 67.5284 234.21C68.1624 234.789 68.5191 235.574 68.5201 236.392V290.655C68.5191 291.474 68.1624 292.259 67.5284 292.837C66.8943 293.416 66.0347 293.742 65.138 293.743Z" fill="#E82E2D"/>
<path d="M91.0331 224.379C91.0331 243.625 71.2039 249.833 50.1238 249.833C29.0438 249.833 14.6953 243.625 14.6953 224.379C14.6953 205.133 28.8852 172.328 49.9653 172.328C71.0454 172.328 91.0331 205.133 91.0331 224.379Z" fill="#2F2E41"/>
<path d="M49.3433 152.584L49.3164 151.702C51.1141 151.656 52.6989 151.553 53.8898 150.759C54.2274 150.521 54.5049 150.219 54.7035 149.874C54.902 149.53 55.0169 149.15 55.0404 148.761C55.0613 148.524 55.0219 148.285 54.9253 148.063C54.8287 147.842 54.6775 147.644 54.4834 147.484C53.6928 146.875 52.4208 147.072 51.4936 147.46L50.6941 147.795L52.2273 137.565L53.1847 137.685L51.8805 146.387C53.1403 146.049 54.3076 146.194 55.1071 146.811C55.4141 147.055 55.655 147.362 55.8109 147.705C55.9668 148.049 56.0336 148.421 56.0059 148.792C55.9777 149.315 55.8247 149.825 55.5576 150.288C55.2905 150.751 54.9158 151.155 54.4598 151.471C52.9296 152.492 50.9411 152.543 49.3433 152.584Z" fill="#2F2E41"/>
<path d="M63.1242 138.436H57.9199V139.318H63.1242V138.436Z" fill="#2F2E41"/>
<path d="M46.6964 138.436H41.4922V139.318H46.6964V138.436Z" fill="#2F2E41"/>
<path d="M337.19 263.563H195.144C193.222 263.561 191.38 262.864 190.022 261.623C188.663 260.383 187.899 258.701 187.896 256.947V185.487C187.899 183.733 188.663 182.051 190.022 180.81C191.38 179.57 193.222 178.872 195.144 178.87H337.19C339.111 178.872 340.953 179.57 342.312 180.81C343.671 182.051 344.435 183.733 344.437 185.487V256.947C344.435 258.701 343.671 260.383 342.312 261.623C340.953 262.864 339.111 263.561 337.19 263.563ZM195.144 179.752C193.479 179.754 191.882 180.359 190.705 181.434C189.527 182.509 188.865 183.966 188.863 185.487V256.947C188.865 258.467 189.527 259.925 190.705 261C191.882 262.075 193.479 262.679 195.144 262.681H337.19C338.855 262.679 340.452 262.075 341.629 261C342.807 259.925 343.469 258.467 343.471 256.947V185.487C343.469 183.966 342.807 182.509 341.629 181.434C340.452 180.359 338.855 179.754 337.19 179.752H195.144Z" fill="#E6E6E6"/>
<path d="M218.094 220.776C227.433 220.776 235.004 213.864 235.004 205.337C235.004 196.811 227.433 189.898 218.094 189.898C208.755 189.898 201.184 196.811 201.184 205.337C201.184 213.864 208.755 220.776 218.094 220.776Z" fill="#E6E6E6"/>
<path d="M283.802 197.066H252.397C251.82 197.066 251.267 197.276 250.859 197.648C250.452 198.02 250.223 198.525 250.223 199.051C250.223 199.578 250.452 200.083 250.859 200.455C251.267 200.827 251.82 201.036 252.397 201.036H283.802C284.378 201.036 284.931 200.827 285.339 200.455C285.747 200.083 285.976 199.578 285.976 199.051C285.976 198.525 285.747 198.02 285.339 197.648C284.931 197.276 284.378 197.066 283.802 197.066Z" fill="#E6E6E6"/>
<path d="M329.392 209.638H251.981C251.01 209.638 250.223 210.529 250.223 211.623C250.223 212.717 251.01 213.608 251.981 213.608H329.392C330.363 213.608 331.15 212.717 331.15 211.623C331.15 210.529 330.363 209.638 329.392 209.638Z" fill="#E6E6E6"/>
<path d="M323.309 236.215H209.025C208.097 236.215 207.344 237.106 207.344 238.2C207.344 239.294 208.097 240.185 209.025 240.185H323.309C324.237 240.185 324.991 239.294 324.991 238.2C324.991 237.106 324.237 236.215 323.309 236.215Z" fill="#E6E6E6"/>
<path d="M323.309 248.565H209.025C208.097 248.565 207.344 249.456 207.344 250.55C207.344 251.644 208.097 252.535 209.025 252.535H323.309C324.237 252.535 324.991 251.644 324.991 250.55C324.991 249.456 324.237 248.565 323.309 248.565Z" fill="#E6E6E6"/>
<path d="M29.2504 137.347C31.2614 134.583 34.8 133.412 38.2894 133.127C42.217 132.806 46.0121 133.497 49.8468 134.169C54.067 134.908 58.5335 135.6 62.7859 134.665C64.6671 134.268 66.4249 133.486 67.9269 132.378C69.4289 131.271 70.6358 129.866 71.4566 128.27C73.0136 125.157 73.3491 121.65 72.4066 118.337C71.4102 114.815 68.9367 111.715 65.9382 109.374C59.8183 104.595 51.5365 102.447 43.5708 102.65C35.6353 102.837 27.9654 105.299 21.6481 109.687C15.3201 114.234 10.8672 120.605 9.01613 127.76C7.08049 134.857 7.71105 142.334 10.8136 149.077C12.5567 152.768 15.0778 156.097 17.0231 159.696C18.8343 163.046 20.2292 166.942 19.1022 170.68C18.1133 173.959 15.2101 176.873 11.5653 177.763C8.09379 178.611 4.66607 177.221 2.76392 174.483C0.941907 171.86 0.898313 168.424 3.63397 166.306C4.32371 165.763 5.12717 165.354 5.9955 165.104C6.86382 164.853 7.77887 164.767 8.68499 164.849C9.59112 164.932 10.4694 165.182 11.2664 165.584C12.0634 165.986 12.7625 166.532 13.3211 167.189C14.431 168.505 14.9278 170.167 14.7038 171.816C14.569 172.649 15.9654 173.008 16.1014 172.167C16.4279 170.424 16.0659 168.632 15.0799 167.109C14.094 165.587 12.5481 164.434 10.7177 163.855C8.88734 163.277 6.89136 163.31 5.08541 163.949C3.27946 164.589 1.78084 165.793 0.856554 167.347C-0.793186 170.179 0.0969424 173.595 2.19114 176.015C3.27163 177.305 4.73613 178.283 6.40941 178.832C8.0827 179.381 9.8939 179.479 11.6263 179.113C15.4383 178.309 18.5568 175.543 20.0233 172.293C21.6559 168.674 20.9079 164.636 19.3163 161.124C17.5959 157.328 15.041 153.924 13.0206 150.266C11.1912 146.96 10.027 143.381 9.58362 139.7C8.69619 132.307 10.5339 124.855 14.8062 118.523C19.1607 112.29 25.8072 107.678 33.5517 105.516C41.188 103.328 49.6102 103.395 57.0872 106.085C64.4522 108.734 71.564 114.508 71.4786 122.262C71.4421 125.575 70.0952 128.953 67.3161 131.162C63.9949 133.803 59.3704 134.029 55.1954 133.617C50.9938 133.202 46.9138 132.082 42.6941 131.796C39.0239 131.547 35.0643 131.806 31.7872 133.47C30.2611 134.247 28.9618 135.348 27.9988 136.679C27.4812 137.39 28.736 138.054 29.2504 137.347Z" fill="#2F2E41"/>
<path d="M21.8003 247.995C21.6293 247.995 21.4586 247.983 21.2895 247.96L14.2398 246.98C13.3535 246.856 12.5573 246.416 12.0259 245.756C11.4945 245.097 11.2713 244.272 11.4052 243.463L20.3485 189.818C20.4844 189.009 20.9664 188.282 21.6886 187.797C22.4108 187.312 23.3143 187.108 24.2009 187.23L31.2507 188.21C32.137 188.334 32.9332 188.774 33.4647 189.433C33.9961 190.092 34.2193 190.917 34.0853 191.727L25.1419 245.372C25.0192 246.101 24.615 246.766 24.0022 247.247C23.3895 247.728 22.6085 247.994 21.8003 247.995Z" fill="#E82E2D"/>
<path d="M30.2255 211.436C29.9845 211.435 29.7441 211.412 29.5085 211.365L16.3644 208.951C15.9298 208.866 15.5179 208.703 15.1522 208.473C14.7864 208.242 14.474 207.948 14.2328 207.607C13.9916 207.267 13.8264 206.886 13.7465 206.487C13.6666 206.088 13.6737 205.678 13.7673 205.281L19.4876 187.891C20.0832 186.082 21.3847 184.536 23.1455 183.546C24.9063 182.555 27.004 182.189 29.0409 182.516C31.1726 182.858 33.0788 183.935 34.3656 185.524C35.6525 187.113 36.2216 189.093 35.9554 191.054L33.5304 208.978C33.371 209.671 32.9558 210.293 32.3543 210.741C31.7528 211.188 31.0013 211.433 30.2255 211.436Z" fill="#2F2E41"/>
<path d="M92.6952 294H16.8406C16.7124 294 16.5895 293.954 16.4989 293.871C16.4083 293.788 16.3574 293.676 16.3574 293.559C16.3574 293.442 16.4083 293.33 16.4989 293.247C16.5895 293.165 16.7124 293.118 16.8406 293.118H92.6952C92.8233 293.118 92.9462 293.165 93.0368 293.247C93.1274 293.33 93.1783 293.442 93.1783 293.559C93.1783 293.676 93.1274 293.788 93.0368 293.871C92.9462 293.954 92.8233 294 92.6952 294Z" fill="#3F3D56"/>
</g>
<defs>
<clipPath id="clip0_5591_7388">
<rect width="400" height="294" fill="white"/>
</clipPath>
</defs>
</svg>
