<svg width="400" height="265" viewBox="0 0 400 265" fill="none" xmlns="http://www.w3.org/2000/svg">
<g clip-path="url(#clip0_5591_7391)">
<path d="M277.914 26.5778C286.228 26.5778 292.968 20.6281 292.968 13.2889C292.968 5.94963 286.228 0 277.914 0C269.599 0 262.859 5.94963 262.859 13.2889C262.859 20.6281 269.599 26.5778 277.914 26.5778Z" fill="#FF6584"/>
<path d="M318.267 253.736L312.845 253.835L309.822 235.012L317.824 234.865L318.267 253.736Z" fill="#FFB6B6"/>
<path d="M301.157 261.791C301.186 262.972 302.292 263.91 303.631 263.887L314.41 263.689L316.185 260.265L316.99 263.64L321.058 263.568L319.631 251.493L318.214 251.446L312.432 251.244L310.566 251.182L310.647 254.606L302.161 260.012C301.516 260.424 301.14 261.089 301.157 261.791Z" fill="#2F2E41"/>
<path d="M354.755 253.736L349.333 253.835L346.311 235.012L354.312 234.865L354.755 253.736Z" fill="#FFB6B6"/>
<path d="M337.645 261.791C337.674 262.972 338.781 263.91 340.119 263.887L350.898 263.689L352.674 260.265L353.478 263.64L357.546 263.568L356.12 251.493L354.702 251.446L348.92 251.244L347.055 251.182L347.135 254.606L338.649 260.012C338.004 260.424 337.629 261.089 337.645 261.791Z" fill="#2F2E41"/>
<path d="M323.733 109.011L353.586 108.279L351.928 110.475L355.705 113.769C355.705 113.769 369.342 130.24 365.196 145.246C361.049 160.252 363.384 248.967 363.384 248.967L339.074 246.629L341.769 157.141L321.867 190.813L327.654 245.401L306.941 245.348L300.307 186.421L323.733 109.011Z" fill="#2F2E41"/>
<path d="M198.851 38.2124C198.963 38.4567 199.351 38.4567 199.464 38.2123C200.247 36.5072 201.363 34.5976 202.576 33.1383C202.77 32.9046 202.502 32.5924 202.194 32.691L199.593 33.5217V19.3086H198.722V33.5217L196.12 32.6909C195.811 32.5923 195.543 32.9045 195.738 33.1382C196.951 34.5975 198.067 36.5072 198.851 38.2124Z" fill="#3F3D56"/>
<path d="M215.909 52.8468C215.825 53.0999 216.128 53.3128 216.389 53.1831C218.204 52.278 220.422 51.395 222.401 50.9183C222.717 50.842 222.728 50.4505 222.416 50.3582L219.794 49.5808L229.808 38.4507L229.126 37.9727L219.113 49.1028L217.66 47.0238C217.488 46.7771 217.058 46.8746 217.046 47.1642C216.968 48.9732 216.496 51.0811 215.909 52.8468Z" fill="#3F3D56"/>
<path d="M279.506 78.8166L295.585 77.1807L297.925 85.1582L280.856 86.3539C280.493 86.686 280.069 86.9777 279.588 87.2135C276.973 88.4962 273.675 87.6643 272.222 85.3556C270.769 83.0469 271.711 80.1355 274.327 78.8528C275.995 78.0348 277.938 78.08 279.506 78.8166Z" fill="#FFB6B6"/>
<path d="M356.492 60.4159L350.2 51.9863C349.055 52.7881 348.052 53.5943 347.294 54.3074L345.989 55.1004L341.774 58.427L329.841 67.8311L325.872 70.9629L321.441 71.6494L311.661 73.1688L296.849 76.687L285.943 77.3105C285.938 77.5054 285.938 77.7978 285.938 78.161C285.933 80.0524 285.983 83.8796 286.404 85.966C286.55 86.6924 286.741 87.2063 286.992 87.3613C287.072 87.41 295.424 85.1077 295.846 85.1033C299.243 85.0988 304.921 85.9217 316.378 84.6061C323.182 83.8176 329.174 83.1 331.693 82.7944L331.748 82.7855L333.57 82.0059L353.567 73.4567L359.603 70.8743C359.102 67.304 358.063 63.7824 356.492 60.4159Z" fill="#E82E2D"/>
<path d="M11.386 12.377C5.09771 12.377 0 16.8769 0 22.4278V192.663H1.00362V82.2233C1.00362 44.1374 35.9797 13.2629 79.1253 13.2629L278.687 13.1018L278.504 12.377H11.386Z" fill="#3F3D56"/>
<path d="M64.0834 40.6628C66.4271 40.6628 68.3271 38.9483 68.3271 36.8333C68.3271 34.7184 66.4271 33.0039 64.0834 33.0039C61.7398 33.0039 59.8398 34.7184 59.8398 36.8333C59.8398 38.9483 61.7398 40.6628 64.0834 40.6628Z" fill="#3F3D56"/>
<path d="M78.7436 40.6628C81.0873 40.6628 82.9872 38.9483 82.9872 36.8333C82.9872 34.7184 81.0873 33.0039 78.7436 33.0039C76.3999 33.0039 74.5 34.7184 74.5 36.8333C74.5 38.9483 76.3999 40.6628 78.7436 40.6628Z" fill="#3F3D56"/>
<path d="M93.4038 40.6628C95.7474 40.6628 97.6474 38.9483 97.6474 36.8333C97.6474 34.7184 95.7474 33.0039 93.4038 33.0039C91.0601 33.0039 89.1602 34.7184 89.1602 36.8333C89.1602 38.9483 91.0601 40.6628 93.4038 40.6628Z" fill="#3F3D56"/>
<path d="M167.361 81.9482C161.072 81.9482 155.975 86.4481 155.975 91.9991L155.975 164.782H156.978V151.795C156.978 113.709 191.954 82.8342 235.1 82.8342L307.703 82.6731L307.521 81.9483L167.361 81.9482Z" fill="#F2F2F2"/>
<path d="M209.519 127.118C208.966 127.118 208.516 127.515 208.516 128.004V141.736C208.516 142.225 208.966 142.622 209.519 142.622C210.073 142.622 210.523 142.225 210.523 141.736V128.004C210.523 127.515 210.073 127.118 209.519 127.118Z" fill="#3F3D56"/>
<path d="M219.356 140.35C222.81 140.35 225.61 137.93 225.61 134.945C225.61 131.961 222.81 129.541 219.356 129.541C215.902 129.541 213.102 131.961 213.102 134.945C213.102 137.93 215.902 140.35 219.356 140.35Z" fill="#E82E2D"/>
<path d="M269.493 133.096L235.829 133.096C234.674 133.096 233.734 132.267 233.734 131.247C233.734 130.228 234.674 129.398 235.829 129.398L269.493 129.398C270.648 129.398 271.587 130.228 271.587 131.247C271.587 132.267 270.648 133.096 269.493 133.096Z" fill="#F2F2F2"/>
<path d="M295.764 139.354L235.829 139.354C234.674 139.354 233.734 138.525 233.734 137.505C233.734 136.486 234.674 135.656 235.829 135.656L295.764 135.656C296.919 135.656 297.859 136.486 297.859 137.505C297.859 138.525 296.919 139.354 295.764 139.354Z" fill="#F2F2F2"/>
<path d="M212.621 103.563C214.964 103.563 216.864 101.849 216.864 99.7337C216.864 97.6188 214.964 95.9043 212.621 95.9043C210.277 95.9043 208.377 97.6188 208.377 99.7337C208.377 101.849 210.277 103.563 212.621 103.563Z" fill="#F2F2F2"/>
<path d="M227.281 103.563C229.624 103.563 231.524 101.849 231.524 99.7337C231.524 97.6188 229.624 95.9043 227.281 95.9043C224.937 95.9043 223.037 97.6188 223.037 99.7337C223.037 101.849 224.937 103.563 227.281 103.563Z" fill="#F2F2F2"/>
<path d="M241.939 103.563C244.283 103.563 246.183 101.849 246.183 99.7337C246.183 97.6188 244.283 95.9043 241.939 95.9043C239.595 95.9043 237.695 97.6188 237.695 99.7337C237.695 101.849 239.595 103.563 241.939 103.563Z" fill="#F2F2F2"/>
<path d="M45.3415 75.04C44.788 75.04 44.3379 75.4374 44.3379 75.926V89.6578C44.3379 90.1464 44.788 90.5437 45.3415 90.5437C45.895 90.5437 46.3451 90.1464 46.3451 89.6578V75.926C46.3451 75.4374 45.895 75.04 45.3415 75.04Z" fill="#3F3D56"/>
<path d="M55.1761 88.2728C58.6302 88.2728 61.4303 85.8531 61.4303 82.8683C61.4303 79.8835 58.6302 77.4639 55.1761 77.4639C51.722 77.4639 48.9219 79.8835 48.9219 82.8683C48.9219 85.8531 51.722 88.2728 55.1761 88.2728Z" fill="#E82E2D"/>
<path d="M105.313 81.0191H71.6492C70.4943 81.0191 69.5547 80.1896 69.5547 79.1702C69.5547 78.1507 70.4943 77.3213 71.6492 77.3213H105.313C106.468 77.3213 107.408 78.1507 107.408 79.1702C107.408 80.1896 106.468 81.0191 105.313 81.0191Z" fill="#F2F2F2"/>
<path d="M131.584 87.2769H71.6492C70.4943 87.2769 69.5547 86.4474 69.5547 85.428C69.5547 84.4085 70.4943 83.5791 71.6492 83.5791H131.584C132.739 83.5791 133.679 84.4085 133.679 85.428C133.679 86.4474 132.739 87.2769 131.584 87.2769Z" fill="#F2F2F2"/>
<path d="M45.3415 113.135C44.788 113.135 44.3379 113.532 44.3379 114.021V127.753C44.3379 128.241 44.788 128.638 45.3415 128.638C45.895 128.638 46.3451 128.241 46.3451 127.753V114.021C46.3451 113.532 45.895 113.135 45.3415 113.135Z" fill="#3F3D56"/>
<path d="M55.1761 126.367C58.6302 126.367 61.4303 123.948 61.4303 120.963C61.4303 117.978 58.6302 115.559 55.1761 115.559C51.722 115.559 48.9219 117.978 48.9219 120.963C48.9219 123.948 51.722 126.367 55.1761 126.367Z" fill="#E82E2D"/>
<path d="M105.313 119.114H71.6492C70.4943 119.114 69.5547 118.284 69.5547 117.265C69.5547 116.245 70.4943 115.416 71.6492 115.416H105.313C106.468 115.416 107.408 116.245 107.408 117.265C107.408 118.284 106.468 119.114 105.313 119.114Z" fill="#F2F2F2"/>
<path d="M131.584 125.372H71.6492C70.4943 125.372 69.5547 124.542 69.5547 123.523C69.5547 122.503 70.4943 121.674 71.6492 121.674H131.584C132.739 121.674 133.679 122.503 133.679 123.523C133.679 124.542 132.739 125.372 131.584 125.372Z" fill="#F2F2F2"/>
<path d="M45.3415 151.229C44.788 151.229 44.3379 151.627 44.3379 152.115V165.847C44.3379 166.336 44.788 166.733 45.3415 166.733C45.895 166.733 46.3451 166.336 46.3451 165.847V152.115C46.3451 151.627 45.895 151.229 45.3415 151.229Z" fill="#3F3D56"/>
<path d="M55.178 164.461C58.6321 164.461 61.4322 162.042 61.4322 159.057C61.4322 156.072 58.6321 153.652 55.178 153.652C51.7239 153.652 48.9238 156.072 48.9238 159.057C48.9238 162.042 51.7239 164.461 55.178 164.461Z" fill="#E82E2D"/>
<path d="M105.315 157.208H71.6512C70.4963 157.208 69.5566 156.378 69.5566 155.359C69.5566 154.339 70.4963 153.51 71.6512 153.51H105.315C106.47 153.51 107.41 154.339 107.41 155.359C107.41 156.378 106.47 157.208 105.315 157.208Z" fill="#F2F2F2"/>
<path d="M131.586 163.465H71.6512C70.4963 163.465 69.5566 162.636 69.5566 161.616C69.5566 160.597 70.4963 159.768 71.6512 159.768H131.586C132.741 159.768 133.681 160.597 133.681 161.616C133.681 162.636 132.741 163.465 131.586 163.465Z" fill="#F2F2F2"/>
<path d="M361.582 123.197C360.961 127.369 328.789 117.492 324.95 115.667C317.769 112.261 325.282 115.754 325.282 115.754L324.448 94.8479L323.578 82.3907C323.578 82.3907 323.091 79.0818 322.072 74.8604C321.841 73.9124 321.596 72.8139 321.44 71.6489C320.998 68.2868 321.335 64.3798 325.083 62.0144L338.155 44.8098L344.593 44.4775L350.199 51.9858L356.491 60.4153C358.062 63.7819 359.101 67.3034 359.603 70.8737C359.838 72.5436 359.959 74.2269 359.959 75.9146C359.959 78.8869 359.593 81.868 358.85 84.8004L354.911 94.55C354.911 94.55 354.415 96.2 356.145 97.1237C359.656 98.9977 352.549 104.15 356.898 110.532C356.898 110.532 356.491 113.465 358.428 113.721C360.365 113.983 361.843 121.441 361.582 123.197Z" fill="#E82E2D"/>
<path d="M299.08 133.221L308.626 121.684L316.853 125.578L306.269 137.459C306.298 137.92 306.254 138.392 306.124 138.864C305.417 141.43 302.488 143.005 299.58 142.381C296.673 141.757 294.889 139.171 295.596 136.605C296.047 134.968 297.403 133.738 299.08 133.221Z" fill="#FFB6B6"/>
<path d="M339.397 60.4407C337.219 59.0577 334.668 58.0795 331.861 57.6454C328.031 57.0556 325.883 61.9208 325.038 66.6659C324.65 68.8651 324.535 71.0398 324.669 72.6272L324.444 74.0157L324.311 81.2036L324 97.8213L314.412 110.352L310.397 118.769L302.193 128.025C302.354 128.161 302.598 128.359 302.9 128.609C304.473 129.893 307.685 132.455 309.71 133.598C310.413 133.992 310.968 134.216 311.267 134.161C311.361 134.143 317.138 129.231 317.422 128.957C319.338 127.116 319.716 124.645 325.509 117.463C330.786 110.927 335.931 104.427 337.79 102.075L337.824 102.033L346.176 77.716L346.936 75.5117C347.746 69.4751 344.665 63.781 339.397 60.4407Z" fill="#E82E2D"/>
<path d="M334.661 60.8041C334.646 60.7988 334.632 60.7925 334.616 60.7871C334.487 60.7966 334.359 60.8034 334.234 60.8041H334.661Z" fill="#2F2E41"/>
<path d="M338.407 41.7093C346.469 41.7093 353.004 35.9406 353.004 28.8244C353.004 21.7082 346.469 15.9395 338.407 15.9395C330.346 15.9395 323.811 21.7082 323.811 28.8244C323.811 35.9406 330.346 41.7093 338.407 41.7093Z" fill="#FFB6B6"/>
<path d="M318.644 25.243C317.659 18.9967 320.532 17.0857 325.027 16.5196C333.921 12.4396 335.958 13.4652 338.778 13.908L339.814 13.7112C342.994 13.1073 344.147 13.3649 346.976 14.3086C352.941 16.2941 356.859 21.3286 357.293 26.9425C357.591 30.8126 356.217 31.4151 358.759 34.5581C360.884 37.182 359.259 40.8647 355.691 41.5424L352.369 45.9747C351.561 45.0723 350.914 44.1268 350.182 42.9419C349.893 43.9991 349.861 45.2096 350.011 46.4225C346.705 47.8763 343.095 48.4779 339.266 48.4633C338.65 47.7388 338.099 46.932 338.171 46.0231C337.959 46.9338 337.699 47.8412 337.654 48.7695C335.245 47.4004 333.255 47.8026 331.665 49.9069C327.65 46.9696 327.336 40.2394 332.108 38.5535C336.145 37.1272 329.777 27.1426 325.434 26.939C325.406 26.9377 324.25 30.7981 324.209 30.7255C323.596 29.6437 323.876 29.0507 323.143 27.8658C322.903 28.7571 322.838 29.7552 322.917 30.7713C321.882 30.5719 320.835 30.28 319.777 29.891C318.551 28.4207 318.077 26.8804 318.644 25.243Z" fill="#2F2E41"/>
<path d="M372.773 257.322C373.81 257.379 374.383 256.242 373.598 255.58L373.52 255.306C373.53 255.284 373.541 255.262 373.551 255.24C374.6 253.033 378.153 253.048 379.192 255.258C380.115 257.22 381.29 259.185 381.579 261.259C381.708 262.174 381.65 263.107 381.42 264.005C383.582 259.837 384.719 255.285 384.719 250.707C384.719 249.557 384.648 248.407 384.502 247.26C384.382 246.321 384.217 245.389 384.003 244.465C382.846 239.469 380.341 234.711 376.727 230.737C374.99 229.899 373.541 228.589 372.666 227.018C372.351 226.451 372.105 225.842 371.988 225.221C372.186 225.244 372.734 222.586 372.585 222.423C372.86 222.054 373.353 221.871 373.654 221.51C375.151 219.719 377.213 220.032 378.289 222.466C380.588 223.49 380.611 225.189 379.2 226.823C378.302 227.863 378.179 229.27 377.391 230.382C377.472 230.474 377.557 230.563 377.638 230.654C379.123 232.337 380.409 234.145 381.492 236.045C381.186 233.933 381.638 231.39 382.408 229.75C383.286 227.882 384.93 226.309 386.378 224.694C388.117 222.754 391.684 223.601 391.99 226.06C391.993 226.083 391.996 226.107 391.999 226.131C391.784 226.238 391.573 226.352 391.367 226.472C390.193 227.157 390.599 228.764 391.99 228.953L392.022 228.958C391.944 229.641 391.811 230.32 391.616 230.986C393.474 237.328 389.464 239.637 383.737 239.741C383.611 239.798 383.488 239.855 383.361 239.91C383.942 241.352 384.405 242.831 384.749 244.33C385.056 245.655 385.27 246.994 385.39 248.338C385.539 250.035 385.526 251.74 385.364 253.434L385.374 253.374C385.786 251.508 386.933 249.766 388.599 248.559C391.081 246.759 394.587 246.096 397.264 244.65C398.553 243.954 400.205 244.853 399.98 246.172L399.969 246.236C399.57 246.379 399.181 246.544 398.805 246.73C398.59 246.838 398.38 246.951 398.174 247.072C397 247.757 397.405 249.363 398.796 249.553L398.828 249.557C398.851 249.56 398.87 249.563 398.893 249.566C398.209 250.999 397.256 252.33 396.063 253.477C394.902 259.013 389.913 259.538 384.577 257.926H384.574C383.99 260.169 383.138 262.36 382.042 264.449H373C372.967 264.36 372.938 264.269 372.909 264.18C373.745 264.226 374.588 264.183 375.411 264.048C374.74 263.322 374.069 262.589 373.398 261.862C373.382 261.848 373.369 261.834 373.356 261.82C373.016 261.448 372.672 261.079 372.332 260.707L372.332 260.706C372.31 259.564 372.466 258.426 372.773 257.322Z" fill="#F2F2F2"/>
<path d="M271.633 264.472C271.633 264.765 271.899 265 272.23 265H399.333C399.664 265 399.93 264.765 399.93 264.472C399.93 264.18 399.664 263.945 399.333 263.945H272.23C271.899 263.945 271.633 264.18 271.633 264.472Z" fill="#CCCCCC"/>
<path d="M207.762 62.3317H190.84C189.79 62.3317 188.935 61.5772 188.935 60.6498C186.698 54.8772 186.742 49.2209 188.935 43.6741C188.935 42.7467 189.79 41.9922 190.84 41.9922H207.762C208.813 41.9922 209.667 42.7467 209.667 43.6741V60.6498C209.667 61.5772 208.813 62.3317 207.762 62.3317Z" fill="#E6E6E6"/>
<path d="M194.465 42.4932C191.724 42.4932 189.502 44.4547 189.502 46.8744V60.2895C189.502 61.1405 190.284 61.8304 191.248 61.8304H200.605C205.296 61.8304 209.099 58.4736 209.099 54.3328V44.0341C209.099 43.1831 208.317 42.4932 207.353 42.4932H194.465Z" fill="white"/>
<path d="M203.242 47.4266H195.319C195.12 47.4266 194.957 47.2831 194.957 47.1068C194.957 46.9305 195.12 46.7871 195.319 46.7871H203.242C203.442 46.7871 203.604 46.9305 203.604 47.1068C203.604 47.2831 203.442 47.4266 203.242 47.4266Z" fill="#E6E6E6"/>
<path d="M203.242 54.2449H195.319C195.12 54.2449 194.957 54.1015 194.957 53.9252C194.957 53.7489 195.12 53.6055 195.319 53.6055H203.242C203.442 53.6055 203.604 53.7489 203.604 53.9252C203.604 54.1015 203.442 54.2449 203.242 54.2449Z" fill="#E6E6E6"/>
<path d="M207.492 50.8377H191.067C190.868 50.8377 190.705 50.6943 190.705 50.5179C190.705 50.3416 190.868 50.1982 191.067 50.1982H207.492C207.692 50.1982 207.855 50.3416 207.855 50.5179C207.855 50.6943 207.692 50.8377 207.492 50.8377Z" fill="#E6E6E6"/>
<path d="M207.687 57.0174H200.833C200.633 57.0174 200.471 56.8739 200.471 56.6976C200.471 56.5213 200.633 56.3779 200.833 56.3779H207.687C207.886 56.3779 208.049 56.5213 208.049 56.6976C208.049 56.8739 207.886 57.0174 207.687 57.0174Z" fill="#E6E6E6"/>
</g>
<defs>
<clipPath id="clip0_5591_7391">
<rect width="400" height="265" fill="white"/>
</clipPath>
</defs>
</svg>
