<svg width="400" height="265" viewBox="0 0 400 265" fill="none" xmlns="http://www.w3.org/2000/svg">
<g clip-path="url(#clip0_5591_7390)">
<path d="M306.76 262.091C302.225 258.705 299.47 253.358 300.193 248.152C300.915 242.946 305.39 238.16 311.193 237.054C316.996 235.949 323.613 239.009 325.376 244.018C326.346 234.362 327.465 224.301 333.276 216.078C338.539 208.632 347.653 203.304 357.532 202.351C367.41 201.398 377.811 204.998 383.971 211.885C390.132 218.772 391.64 228.785 387.326 236.692C384.147 242.516 378.291 246.85 372.156 250.378C352.329 261.678 328.55 266.274 305.193 263.319" fill="#F2F2F2"/>
<path d="M374.205 205.198C353.261 220.292 336.939 239.787 326.735 261.897C326.282 262.877 328.084 263.304 328.531 262.335C338.651 240.501 354.807 221.256 375.52 206.362C376.452 205.693 375.128 204.535 374.205 205.198Z" fill="white"/>
<path d="M98.603 264.457H67.283C66.2246 264.456 65.21 264.084 64.4616 263.423C63.7132 262.762 63.2922 261.865 63.291 260.931V203.429C63.2922 202.494 63.7132 201.597 64.4616 200.936C65.21 200.275 66.2246 199.903 67.283 199.902H98.6035C99.6619 199.903 100.677 200.275 101.425 200.936C102.173 201.597 102.594 202.494 102.596 203.429V260.931C102.594 261.866 102.173 262.762 101.425 263.423C100.676 264.084 99.6614 264.456 98.603 264.457Z" fill="#E82E2D"/>
<path d="M172.913 265H141.592C140.371 264.998 139.2 264.569 138.337 263.807C137.473 263.044 136.988 262.01 136.986 260.931V149.181C136.988 148.102 137.473 147.068 138.337 146.305C139.2 145.543 140.371 145.113 141.592 145.112H172.913C174.134 145.113 175.305 145.543 176.168 146.305C177.032 147.068 177.518 148.102 177.519 149.181V260.931C177.518 262.01 177.032 263.044 176.168 263.807C175.305 264.569 174.134 264.998 172.913 265ZM141.592 146.197C140.697 146.198 139.838 146.513 139.205 147.072C138.572 147.631 138.216 148.39 138.215 149.18V260.931C138.216 261.722 138.572 262.48 139.205 263.04C139.838 263.599 140.697 263.914 141.592 263.914H172.913C173.808 263.914 174.667 263.599 175.3 263.04C175.933 262.48 176.289 261.722 176.29 260.931V149.181C176.289 148.39 175.933 147.632 175.3 147.072C174.667 146.513 173.808 146.198 172.913 146.197L141.592 146.197Z" fill="#3F3D56"/>
<path d="M247.221 264.999H215.901C214.68 264.998 213.509 264.569 212.645 263.806C211.782 263.044 211.296 262.009 211.295 260.931V78.1165C211.296 77.0378 211.782 76.0036 212.645 75.2408C213.509 74.4781 214.68 74.049 215.901 74.0479H247.221C248.443 74.049 249.613 74.4781 250.477 75.2408C251.34 76.0036 251.826 77.0378 251.827 78.1165V260.931C251.826 262.01 251.34 263.044 250.477 263.807C249.613 264.569 248.443 264.998 247.221 264.999ZM215.901 75.1326C215.005 75.1335 214.147 75.4481 213.514 76.0075C212.881 76.5668 212.524 77.3251 212.523 78.116V260.931C212.525 261.722 212.881 262.48 213.514 263.039C214.147 263.598 215.006 263.912 215.901 263.913H247.221C248.117 263.912 248.975 263.598 249.609 263.038C250.242 262.479 250.598 261.721 250.599 260.93V78.1165C250.598 77.3255 250.242 76.5672 249.609 76.0079C248.975 75.4486 248.117 75.134 247.221 75.133L215.901 75.1326Z" fill="#3F3D56"/>
<path d="M322.225 264.728H290.904C289.846 264.727 288.831 264.355 288.083 263.694C287.334 263.033 286.913 262.137 286.912 261.202V3.52627C286.913 2.59137 287.334 1.69506 288.083 1.03398C288.831 0.372908 289.846 0.00105209 290.904 0H322.225C323.283 0.00105209 324.298 0.372908 325.046 1.03398C325.794 1.69506 326.215 2.59137 326.217 3.52627V261.203C326.215 262.137 325.794 263.033 325.046 263.694C324.297 264.355 323.283 264.727 322.225 264.728Z" fill="#E82E2D"/>
<path d="M399.269 264.769H0.733002C0.538598 264.769 0.352155 264.7 0.214691 264.579C0.077227 264.458 0 264.293 0 264.121C0 263.949 0.077227 263.785 0.214691 263.663C0.352155 263.542 0.538598 263.474 0.733002 263.474H399.269C399.463 263.474 399.65 263.542 399.787 263.663C399.925 263.785 400.002 263.949 400.002 264.121C400.002 264.293 399.925 264.458 399.787 264.579C399.65 264.7 399.463 264.769 399.269 264.769Z" fill="#3F3D56"/>
<path d="M76.1182 19.7598H87.2762V35.3948L74.9727 31.8261L76.1182 19.7598Z" fill="#ED9DA0"/>
<path d="M85.8115 24.5438C92.3936 23.8299 97.0743 18.5378 96.2661 12.7236C95.458 6.90936 89.4669 2.77473 82.8848 3.48863C76.3027 4.20252 71.622 9.4946 72.4301 15.3088C73.2383 21.123 79.2294 25.2577 85.8115 24.5438Z" fill="#ED9DA0"/>
<path d="M125.346 85.068C124.333 84.191 123.091 83.5471 121.729 83.1927L111.758 73.5908L106.5 78.0428L117.187 87.3063C117.641 88.4879 118.421 89.5511 119.456 90.4002C122.014 92.5604 125.406 93.1151 127.029 91.6404C128.652 90.1657 127.909 87.2237 125.356 85.0706H125.346V85.068Z" fill="#ED9DA0"/>
<path d="M121.191 80.7453L115.896 86.6261L88.5249 68.3243L88.5014 68.2823L72.5064 41.9148C71.8464 40.8256 71.4461 39.6285 71.3302 38.3974C71.2142 37.1662 71.3851 35.9272 71.8322 34.7566C72.2793 33.586 72.9932 32.5088 73.9298 31.5914C74.8664 30.6739 76.0059 29.9357 77.278 29.4223C78.5501 28.9089 79.9278 28.6312 81.3261 28.6063C82.7243 28.5814 84.1136 28.8099 85.408 29.2776C86.7025 29.7452 87.8748 30.4422 88.8525 31.3256C89.8302 32.2089 90.5927 33.2599 91.0929 34.4136L101.471 58.4075L121.192 80.7387V80.747L121.191 80.7453Z" fill="#E6E6E6"/>
<path d="M78.4994 23.7902L77.59 25.9091L71.129 17.6839C66.7899 9.4947 77.1225 3.4 77.1225 3.4C80.1983 -0.728864 88.0283 2.86328 88.0283 2.86328C98.1616 -0.312519 94.2095 7.98922 94.2095 7.98922C94.2095 7.98922 90.6668 8.44377 91.0197 10.982C91.3725 13.5201 87.4772 13.7651 87.4772 13.7651L85.0947 18.7826L83.1695 17.167C76.6179 15.5129 78.4986 23.7916 78.4986 23.7916L78.4994 23.7902Z" fill="#090814"/>
<path d="M81.4967 179.983H71.5957V192.392H81.4967V179.983Z" fill="#ED9DA0"/>
<path d="M91.1397 199.902C86.7947 199.902 80.4502 199.501 80.4017 199.497C78.7057 199.629 70.2312 200.219 69.8102 198.507C69.5878 197.356 69.6786 196.176 70.0752 195.062C70.8932 187.907 71.1957 187.824 71.3752 187.778C71.6652 187.703 72.5052 188.057 73.8717 188.834L73.9567 188.884L73.9757 188.973C73.9992 189.081 74.6047 191.708 77.4757 191.307C79.4427 191.031 80.0787 190.647 80.2842 190.459C80.073 190.378 79.8926 190.245 79.7642 190.076C79.6556 189.907 79.5897 189.719 79.571 189.526C79.5522 189.333 79.5811 189.138 79.6557 188.956C80.0552 187.909 80.5645 186.898 81.1772 185.936L81.3052 185.735L92.5552 192.442L99.5052 194.196C99.7632 194.26 100.001 194.375 100.202 194.532C100.403 194.688 100.561 194.883 100.664 195.102C100.808 195.405 100.841 195.739 100.76 196.059C100.678 196.38 100.486 196.67 100.21 196.889C98.9482 197.891 96.4367 199.607 93.8102 199.821C93.1102 199.88 92.1837 199.9 91.1437 199.9L91.1397 199.902Z" fill="#090814"/>
<path d="M41.6777 170.948L49.3105 176.519L58.258 166.953L50.6251 161.382L41.6777 170.948Z" fill="#ED9DA0"/>
<path d="M51.3071 187.72C47.9571 185.272 43.3571 181.392 43.3261 181.363C41.9221 180.516 34.9666 176.196 35.8791 174.639C36.5356 173.625 37.4584 172.766 38.5696 172.133C44.3616 167.075 44.6501 167.186 44.8251 167.251C45.1041 167.355 45.4956 168.098 45.9881 169.468L46.0166 169.552L45.9666 169.631C45.9001 169.731 44.4726 172.099 46.9736 173.403C48.6896 174.296 49.4561 174.359 49.7491 174.33C49.6445 174.147 49.6018 173.942 49.6261 173.738C49.6645 173.547 49.7492 173.366 49.8742 173.206C49.9992 173.047 50.1617 172.913 50.3506 172.815C51.4143 172.234 52.537 171.742 53.7041 171.345L53.9451 171.261L57.7746 182.764L61.8646 188.03C62.016 188.226 62.1159 188.449 62.1569 188.683C62.1978 188.917 62.1787 189.157 62.1011 189.383C61.9924 189.697 61.7763 189.974 61.4826 190.175C61.1888 190.376 60.8318 190.492 60.4606 190.507C58.7681 190.571 55.5951 190.477 53.4156 189.163C52.8386 188.809 52.1116 188.307 51.3066 187.723L51.3071 187.72Z" fill="#090814"/>
<path d="M97.0682 86.626L82.3302 183.459H71.2757L63.9082 86.626H97.0712H97.0682Z" fill="#090814"/>
<path d="M67.6209 139.928L46.0879 164.607L55.3029 171.331L92.2574 140.282L95.5574 88.1777L88.9489 93.3965L67.6209 139.928Z" fill="#090814"/>
<path d="M87.4248 28.8435L97.8713 92.4669H63.9102L61.2767 70.9878C59.6324 57.8321 62.3043 44.5362 68.9743 32.6843L75.5017 26.7734L87.4258 28.844L87.4248 28.8435Z" fill="#E6E6E6"/>
<path d="M94 100.872C93.4899 99.7017 92.6617 98.6605 91.5885 97.8401L87.024 85.4434L80.1445 87.5687L85.5105 99.9106C85.3655 101.153 85.5751 102.408 86.12 103.561C87.4295 106.46 90.2575 108.21 92.4275 107.465C94.5975 106.72 95.2975 103.769 93.988 100.87H93.9975L94 100.872Z" fill="#ED9DA0"/>
<path d="M92.2347 95.3884L84.6557 98.7963L68.3462 72.1117V72.0675L66.1787 42.2162C66.0902 40.9828 66.2888 39.7466 66.7623 38.5837C67.2357 37.4208 67.9739 36.356 68.9314 35.4549C69.8889 34.5539 71.0452 33.8357 72.3291 33.3448C73.613 32.8539 74.9972 32.6006 76.3962 32.6006C77.7952 32.6006 79.1794 32.8539 80.4633 33.3448C81.7472 33.8357 82.9035 34.5539 83.861 35.4549C84.8185 36.356 85.5567 37.4208 86.0301 38.5837C86.5036 39.7466 86.7022 40.9828 86.6137 42.2162L84.7837 67.8483L92.2337 95.3924L92.2347 95.3884Z" fill="#E6E6E6"/>
</g>
<defs>
<clipPath id="clip0_5591_7390">
<rect width="400" height="265" fill="white"/>
</clipPath>
</defs>
</svg>
