<svg width="200" height="200" viewBox="0 0 200 200" fill="none" xmlns="http://www.w3.org/2000/svg">
<path d="M48.0897 29.7693C48.0612 30.2463 47.9123 30.7083 47.657 31.1122C47.4017 31.5162 47.0483 31.8489 46.6297 32.0793C46.9851 32.6817 47.1531 33.3762 47.1121 34.0744C47.0711 34.7726 46.8231 35.4427 46.3997 35.9993C45.9853 36.5422 45.4323 36.9634 44.7988 37.2186C44.1653 37.4738 43.4747 37.5535 42.7997 37.4493C42.6197 37.9393 42.1897 38.7893 41.6997 38.9493C41.6241 38.9888 41.54 39.0094 41.4547 39.0094C41.3694 39.0094 41.2853 38.9888 41.2097 38.9493C41.3284 39.6513 41.6596 40.2999 42.1585 40.8077C42.6574 41.3155 43.3 41.6582 43.9997 41.7893C46.2897 42.1993 48.4297 41.4493 48.4297 39.1193C48.9777 39.2299 49.5433 39.2201 50.0871 39.0906C50.631 38.9611 51.1403 38.715 51.5797 38.3693C51.8927 38.1129 52.1518 37.7971 52.3423 37.4401C52.5328 37.0832 52.6509 36.6921 52.6897 36.2893C52.7897 33.7093 50.9997 31.9993 49.8897 31.9993C50.6997 30.5693 50.1797 29.3293 48.8897 28.3893C48.5609 28.1853 48.193 28.0525 47.8097 27.9993C48.0164 28.5657 48.1115 29.1668 48.0897 29.7693ZM28.0997 30.5093C28.1448 30.5093 28.188 30.4914 28.2199 30.4596C28.2518 30.4277 28.2697 30.3844 28.2697 30.3393C28.2697 30.2943 28.2518 30.251 28.2199 30.2191C28.188 30.1873 28.1448 30.1693 28.0997 30.1693L27.4897 30.0993C27.2997 30.0993 26.9897 30.0993 26.8097 30.0393C26.6933 28.5716 26.6933 27.097 26.8097 25.6293C26.8077 25.5875 26.7912 25.5477 26.763 25.5168C26.7349 25.4858 26.6968 25.4656 26.6554 25.4597C26.6139 25.4538 26.5717 25.4625 26.536 25.4843C26.5003 25.5062 26.4733 25.5398 26.4597 25.5793C26.0249 26.6927 25.8306 27.8855 25.8897 29.0793C25.874 29.4924 25.911 29.9057 25.9997 30.3093C26.2397 30.9393 27.4497 30.6593 28.0997 30.5093ZM23.4597 24.6793C22.9797 24.8093 22.3297 25.2793 22.5697 25.4593C22.9223 25.6212 23.3241 25.6391 23.6897 25.5093C24.0397 25.4193 24.6197 25.0693 24.6097 24.8893C24.5997 24.7093 23.9297 24.5493 23.4597 24.6793ZM29.9397 25.3793C33.4597 26.1093 31.8297 24.7693 30.0997 24.5493C29.6497 24.4893 28.5997 24.5493 28.6197 24.7993C28.6397 25.0493 29.6697 25.3193 29.9397 25.3793ZM30.7297 27.0593C30.7017 27.0099 30.6641 26.9665 30.6192 26.9316C30.5743 26.8967 30.523 26.8711 30.4681 26.8562C30.4132 26.8414 30.3559 26.8375 30.2996 26.8449C30.2432 26.8523 30.1889 26.8708 30.1397 26.8993C29.8897 27.0393 29.8997 27.1893 29.9597 27.9993C29.9677 28.1134 30.0206 28.2196 30.1069 28.2946C30.1931 28.3696 30.3057 28.4073 30.4197 28.3993C30.5337 28.3914 30.64 28.3385 30.715 28.2522C30.79 28.1659 30.8277 28.0534 30.8197 27.9393C30.8347 27.6431 30.8044 27.3464 30.7297 27.0593ZM23.6497 27.6093C23.659 27.4953 23.6226 27.3822 23.5485 27.295C23.4744 27.2078 23.3687 27.1536 23.2547 27.1443C23.1407 27.1351 23.0276 27.1715 22.9404 27.2455C22.8532 27.3196 22.799 27.4253 22.7897 27.5393C22.7707 27.7823 22.7707 28.0264 22.7897 28.2693C22.7977 28.3834 22.8506 28.4896 22.9369 28.5646C23.0231 28.6396 23.1357 28.6773 23.2497 28.6693C23.3637 28.6614 23.47 28.6085 23.545 28.5222C23.62 28.4359 23.6577 28.3234 23.6497 28.2093C23.6697 27.9993 23.6397 27.7293 23.6497 27.6093ZM27.1197 34.1193C27.1197 34.4393 28.3897 34.5193 29.0497 33.8593C29.5397 33.3693 29.5097 32.6193 29.3097 32.5693C29.1097 32.5193 29.2397 32.5693 28.5197 33.1893C28.0697 33.5693 27.0997 33.8693 27.1197 34.1193Z" fill="black"/>
<path d="M194.578 25.8097C194.317 25.7252 194.04 25.6985 193.767 25.7313C193.495 25.7641 193.232 25.8556 192.998 25.9997C193.189 25.5418 193.255 25.0413 193.188 24.5497C193.008 23.7397 191.828 23.3697 190.858 24.5497C190.798 23.9097 190.508 23.4697 189.998 23.3797C188.728 23.1397 188.178 25.5597 187.898 26.8297C187.238 26.3397 186.158 25.5097 185.618 26.1597C185.465 26.3228 185.363 26.5263 185.322 26.746C185.281 26.9658 185.304 27.1926 185.388 27.3997C185.777 28.0792 186.331 28.6501 186.998 29.0597C186.808 29.4997 185.998 30.6597 185.578 31.3397C185.238 31.2397 184.518 31.0497 184.368 31.3397C180.858 36.1197 171.368 47.1997 165.458 46.9697C156.328 46.6197 144.838 42.1997 143.688 42.3597L142.078 38.8297C143.849 37.6169 145.179 35.8625 145.868 33.8297C146.99 30.7269 147.499 27.4362 147.368 24.1397C147.376 23.0711 147.326 22.0029 147.218 20.9397C151.438 20.6597 154.218 15.6897 150.928 11.5797C150.611 11.0869 150.198 10.663 149.713 10.3331C149.229 10.0033 148.683 9.77424 148.108 9.65967C147.431 9.62437 146.752 9.71594 146.108 9.92967C142.108 10.9297 142.048 8.39967 139.308 7.71967C138.056 7.50984 136.77 7.64465 135.588 8.10967C131.588 9.50967 132.368 11.7397 130.518 13.5997C129.518 14.5997 125.248 13.1897 123.518 16.0297C121.678 19.1397 121.848 25.7197 124.518 28.2997C125.111 28.8324 125.766 29.2924 126.468 29.6697C127.116 30.332 127.874 30.8768 128.708 31.2797C129.488 32.8697 130.378 37.4397 130.708 39.1697L130.398 41.7697C128.266 42.1049 126.163 42.6064 124.108 43.2697C120.742 44.3592 117.477 45.7377 114.348 47.3897C108.648 50.3897 109.348 50.3297 109.148 50.0097C108.457 49.2574 107.722 48.5462 106.948 47.8797C101.488 43.2797 95.5682 39.3597 88.5782 38.2097L87.7582 33.5597C89.9582 31.7597 91.1582 28.1297 91.1982 25.5597C92.0182 25.8997 92.6682 25.2997 93.0982 24.5597C93.2182 24.3397 93.9682 24.5597 94.5482 23.2597C94.6485 22.9887 94.6485 22.6907 94.5482 22.4197C94.7488 22.2999 94.9207 22.1376 95.0518 21.9443C95.183 21.7509 95.2702 21.5312 95.3074 21.3006C95.3445 21.0699 95.3308 20.834 95.267 20.6092C95.2032 20.3845 95.091 20.1764 94.9382 19.9997C95.2462 19.8245 95.51 19.5811 95.7094 19.2882C95.9087 18.9952 96.0383 18.6605 96.0882 18.3097C96.3082 16.9997 96.0082 15.8197 94.7482 15.4097C94.7482 15.1197 94.9582 14.6397 94.9582 14.5397C94.9692 14.074 94.8863 13.6109 94.7145 13.178C94.5427 12.745 94.2855 12.3511 93.9582 12.0197C92.5682 10.8297 92.1282 10.9297 91.2582 11.0197C91.2582 10.4197 91.6382 10.0197 91.0082 9.19967C90.525 8.64218 89.8818 8.2471 89.1661 8.06817C88.4503 7.88924 87.6969 7.93516 87.0082 8.19967L86.7582 8.27967C86.6019 7.88669 86.3643 7.53119 86.061 7.23649C85.7577 6.94178 85.3955 6.71454 84.9982 6.56967C83.7482 6.09967 82.8882 6.70967 81.8382 7.25967C80.2682 5.85967 77.2682 6.60967 75.6582 7.57967C74.9282 8.01967 74.8582 8.79967 74.5682 9.15967C73.9468 9.11437 73.3279 9.27613 72.8082 9.61967C72.3482 9.90967 71.9182 10.3297 71.5482 10.6197C71.3044 10.8088 71.1033 11.0474 70.9582 11.3197C70.6486 11.8281 70.47 12.4053 70.4382 12.9997C70.1924 13.0585 69.9589 13.1601 69.7482 13.2997C68.9493 14.0149 68.3877 14.9568 68.1382 15.9997C68.0291 16.5767 68.0846 17.1727 68.2982 17.7197C68.2982 17.7797 68.3982 17.8997 68.4282 17.9597C68.2282 18.2497 67.7082 18.4797 67.6082 19.2597C67.5082 20.0397 67.5382 21.5697 68.2982 22.0297C68.6182 22.2197 69.2982 22.4197 69.5382 22.5697C69.5004 22.9788 69.5004 23.3905 69.5382 23.7997C69.7982 25.4897 71.4682 26.0997 73.1882 25.8497L73.6582 26.0897C73.8409 27.8712 74.3138 29.6108 75.0582 31.2397C75.6133 32.3156 76.4496 33.221 77.4782 33.8597L76.9982 38.1197C74.6114 38.4684 72.2661 39.0581 69.9982 39.8797C63.1282 42.3897 59.1182 45.6497 55.5682 51.3097C50.6782 47.2597 42.3982 41.1897 35.9982 41.2997C36.0393 40.8673 36.0393 40.432 35.9982 39.9997C35.9982 39.7097 35.8382 38.8197 35.5682 38.6897C35.5682 38.1997 35.4882 37.6897 35.4482 37.2197C37.7082 40.5597 42.3182 38.7897 41.8082 36.5097C42.3786 36.5474 42.9496 36.4461 43.4721 36.2145C43.9947 35.9828 44.4532 35.6277 44.8082 35.1797C45.1528 34.6872 45.3377 34.1007 45.3377 33.4997C45.3377 32.8986 45.1528 32.3121 44.8082 31.8197C44.7254 31.6863 44.6244 31.5652 44.5082 31.4597C46.0682 31.0597 46.6082 30.3697 46.8082 29.3797C46.9691 28.6223 46.9102 27.8346 46.6382 27.1097C46.8161 27.0218 46.9838 26.9145 47.1382 26.7897C47.5965 26.3517 47.9075 25.7821 48.0282 25.1597C48.267 22.9927 47.7968 20.8068 46.6882 18.9297C46.3289 18.3037 45.7411 17.8414 45.0482 17.6397C44.9181 17.0443 44.8411 16.4386 44.8182 15.8297C44.6532 14.8841 44.2638 13.992 43.6826 13.2281C43.1014 12.4642 42.3455 11.8509 41.4782 11.4397C40.6379 11.0457 39.7258 10.8279 38.7982 10.7997C38.4085 10.7674 38.0165 10.8185 37.6482 10.9497C37.0107 10.1785 36.1735 9.59736 35.2282 9.26967C33.3936 8.92892 31.4975 9.2402 29.8682 10.1497C29.5382 10.3697 29.2782 10.7997 28.9882 11.0097C28.2762 10.7039 27.5043 10.5631 26.7303 10.5977C25.9562 10.6324 25.2 10.8416 24.5182 11.2097C23.7944 11.5268 23.1422 11.9871 22.6009 12.5628C22.0595 13.1385 21.6402 13.8177 21.3682 14.5597C20.9482 15.5597 20.5682 17.1997 21.2082 18.0597C21.245 18.1073 21.2784 18.1574 21.3082 18.2097C20.9282 18.8797 20.0582 19.2097 19.7682 21.0697C19.6501 22.0027 19.6872 22.9488 19.8782 23.8697C19.9314 24.0965 20.0585 24.2992 20.2396 24.4458C20.4206 24.5925 20.6453 24.6747 20.8782 24.6797C20.5682 27.6797 20.6182 31.6797 22.2582 34.2697C22.6665 34.8755 23.1429 35.4325 23.6782 35.9297C24.2373 36.4775 24.925 36.8764 25.6782 37.0897V38.8697C25.1782 39.1497 25.5282 40.7397 25.3182 41.6997C21.2582 41.4197 15.5782 42.3597 12.4282 44.9597C7.56819 48.9997 5.58819 54.6997 5.06819 60.9997C4.35819 69.6897 9.06819 75.0697 16.3782 75.9997C16.8374 77.521 17.3782 79.0165 17.9982 80.4797C14.9094 86.2714 12.6506 92.4688 11.2882 98.8897C10.2882 104.33 9.81819 112.95 9.72819 121.22C9.72819 125.16 9.72819 139.94 11.0482 143.62C11.2582 144.2 12.1582 144.51 12.7482 144.68C14.3889 145.109 16.0606 145.41 17.7482 145.58C18.1682 154.36 19.4182 187.79 19.4182 187.84C17.7 188.759 16.1181 189.914 14.7182 191.27C14.4958 191.468 14.3289 191.721 14.2342 192.003C14.1395 192.285 14.1202 192.588 14.1782 192.88C14.2812 193.139 14.4745 193.353 14.7225 193.482C14.9705 193.61 15.2566 193.645 15.5282 193.58C17.1882 193.43 21.6582 192.09 23.6782 191.72C23.7282 192.15 23.7982 192.57 24.2182 192.72C24.9382 192.97 26.3582 193.1 26.8782 192.45C27.3982 191.8 27.0882 190.1 27.1582 189.37C27.2182 188.83 31.7782 157.37 33.3382 146.58H34.5882C36.5082 156.97 41.7582 186.68 41.7682 186.73C40.7286 187.52 39.7431 188.378 38.8182 189.3C38.0482 190.08 36.7582 191.48 37.2682 192.44C37.7782 193.4 38.9782 192.91 39.9882 192.54C41.9882 191.84 44.9882 190.49 46.5182 189.99C46.6282 190.4 46.7582 190.81 47.1882 190.9C47.7849 190.99 48.3935 190.959 48.9782 190.81C49.8282 190.56 49.9782 190.03 49.9782 189.15C49.6082 184.72 49.5982 198.69 49.8982 146.38C51.007 146.335 52.1057 146.15 53.1682 145.83C55.9982 144.44 55.7382 103.83 52.0582 91.0497C51.8082 90.1697 50.2282 85.5797 49.1082 82.7297C49.1433 82.6328 49.1433 82.5266 49.1082 82.4297C48.7794 81.6015 48.4089 80.7904 47.9982 79.9997C48.2982 76.3197 48.6182 69.2197 48.9182 67.0697L51.4082 68.7797C51.6123 69.5844 51.9006 70.3653 52.2682 71.1097C52.6779 72.1845 53.3357 73.1474 54.1882 73.9197C55.2653 74.912 56.5473 75.6557 57.9435 76.0981C59.3398 76.5404 60.8161 76.6707 62.2682 76.4797H63.9482C65.8882 87.9997 65.3282 86.7897 65.6182 87.0797C58.2482 112.48 55.8682 160.66 56.8682 185.08C56.8681 185.196 56.9069 185.308 56.9782 185.4C57.4882 186.05 60.6682 186.4 61.7182 186.58C59.7459 187.631 57.8688 188.853 56.1082 190.23C55.2182 191.1 56.3882 192.73 57.4782 193.01C58.0782 193.17 66.2382 192.01 66.8582 191.92C66.9382 192.3 67.1182 192.67 67.4982 192.74C68.5678 192.924 69.6532 193.001 70.7382 192.97C71.1782 192.97 71.7382 192.87 71.8382 192.45C72.1723 190.785 72.3663 189.096 72.4182 187.4C73.1282 187.4 73.8382 187.4 74.0682 187.2C76.0682 185.2 84.9982 134.31 85.7282 130.2C85.9763 128.821 86.0402 127.415 85.9182 126.02C84.4682 108.87 85.0082 115.93 84.7782 109.32C84.7876 109.28 84.8101 109.245 84.8418 109.22C84.8735 109.195 84.9128 109.182 84.9532 109.182C84.9936 109.182 85.0328 109.195 85.0646 109.22C85.0963 109.245 85.1187 109.28 85.1282 109.32C85.7982 117.18 86.1982 117.45 86.7382 127.81C86.7382 128.52 94.8882 184.28 96.3582 185.74C97.141 186.064 97.981 186.227 98.8282 186.22C98.7326 188.373 98.9039 190.529 99.3382 192.64C99.366 192.719 99.4095 192.792 99.4662 192.854C99.523 192.915 99.5917 192.965 99.6682 193C100.398 193.36 103.128 193 103.668 192.93C103.84 192.865 103.99 192.754 104.103 192.609C104.216 192.465 104.287 192.292 104.308 192.11C105.158 192.23 113.098 193.35 113.678 193.2C114.768 192.92 115.948 191.29 115.048 190.41C112.965 188.817 110.751 187.406 108.428 186.19C109.628 186.1 112.148 185.88 113.188 185.27C114.758 184.34 113.258 114.58 100.658 85.9697C100.888 85.5997 101.768 75.3297 101.808 74.8697C104.969 74.7628 108.032 73.7454 110.628 71.9397L114.628 70.4997C112.192 79.7806 110.365 89.2107 109.158 98.7297C108.928 100.61 107.768 109.95 109.018 111.35C109.147 111.495 109.325 111.587 109.518 111.61C110.088 111.66 112.368 111.86 114.798 112.01C114.798 140.7 117.618 156.1 122.168 186.31C122.182 186.403 122.229 186.489 122.301 186.551C122.372 186.613 122.463 186.648 122.558 186.65H122.818C123.007 188.043 123.311 189.417 123.728 190.76C124.358 192.03 134.128 192 135.508 191.56C135.749 191.436 135.94 191.234 136.049 190.986C136.158 190.738 136.179 190.461 136.108 190.2C135.708 188.42 132.108 188.03 130.408 186.75H130.998C131.09 186.752 131.181 186.722 131.253 186.666C131.326 186.609 131.377 186.53 131.398 186.44L139.048 148.15C139.138 148.71 144.518 187.15 144.518 187.15C144.535 187.25 144.588 187.341 144.667 187.406C144.746 187.47 144.846 187.504 144.948 187.5H145.738C145.879 188.909 146.106 190.308 146.418 191.69C146.434 191.753 146.463 191.812 146.505 191.862C146.546 191.913 146.599 191.953 146.658 191.98C147.658 192.45 156.448 192.98 157.898 192.19C158.162 192.047 158.362 191.811 158.46 191.528C158.558 191.244 158.547 190.935 158.428 190.66C158.177 189.963 157.729 189.355 157.138 188.91C155.928 188.24 153.818 188.09 152.688 187.5H153.248C153.344 187.494 153.435 187.458 153.509 187.397C153.583 187.336 153.635 187.253 153.658 187.16C153.658 187.16 156.568 176.47 158.278 151.88C159.278 137.54 159.558 122.88 159.448 108.7C160.728 108.8 162.908 108.9 163.988 108.85C164.288 108.85 164.578 108.85 164.708 108.56C165.868 106.25 164.988 83.2897 164.338 77.4997C164.278 76.9397 162.848 67.4297 162.658 66.1897C165.988 66.0597 170.798 65.3497 173.528 63.3997C187.528 53.3997 190.198 36.3197 191.338 34.0297C191.448 33.7897 191.178 33.6697 190.508 33.3397C190.893 32.1981 191.35 31.0825 191.878 29.9997C193.268 29.2297 194.878 28.3497 194.988 26.7597C195.041 26.5784 195.029 26.3842 194.955 26.2107C194.88 26.0372 194.747 25.8953 194.578 25.8097ZM94.8482 15.5997C94.7682 15.5997 94.7482 15.5397 94.7482 15.4397C94.7482 15.3397 94.9382 15.5997 94.8482 15.5997ZM131.658 53.5997C136.598 53.9097 139.538 53.9497 144.558 53.9197C144.878 55.8597 145.238 57.9797 145.628 60.2297C142.938 60.2297 133.818 60.3297 131.448 60.2897C131.558 58.0897 131.638 55.8397 131.658 53.6197V53.5997ZM130.348 74.5297C136.168 74.8697 140.488 74.9597 148.218 74.7997C148.738 77.6497 149.278 80.5297 149.758 83.0597C145.078 83.1997 134.278 83.3897 129.418 83.2497C129.608 81.6597 129.998 77.7997 130.348 74.5497V74.5297ZM128.998 86.4697C136.618 86.9097 142.718 86.9297 150.468 86.6997C150.848 88.6197 151.218 90.4797 151.578 92.2297C142.738 92.5697 134.088 92.5897 127.938 92.4697C128.345 90.4897 128.698 88.4897 128.998 86.4697ZM147.568 71.1997C144.568 71.2597 133.568 71.3797 130.648 71.3397C130.908 68.4797 131.108 65.8897 131.258 63.5397C136.058 63.8397 139.318 63.9497 146.258 63.8697C146.498 65.1897 147.378 70.0997 147.568 71.1997ZM143.268 44.4997C143.388 46.1397 143.748 48.6797 143.998 50.3097C141.448 50.3097 133.648 50.3997 131.648 50.3697C131.628 48.3169 131.491 46.2669 131.238 44.2297C133.938 47.8597 141.228 47.3597 143.268 44.4997ZM127.268 95.6597C135.622 96.1638 143.997 96.2272 152.358 95.8497C152.738 97.6097 153.088 99.2097 153.418 100.61C151.838 100.52 133.158 99.6097 126.358 99.2797C126.638 98.1397 126.938 96.9297 127.238 95.6597H127.268ZM129.458 30.9097C129.108 30.2097 126.888 29.9097 126.678 28.1397C126.438 26.0697 128.848 25.9997 129.678 26.9297C129.748 26.9997 130.238 27.6597 130.298 27.7397C130.818 28.4397 131.298 28.4597 131.458 27.4597C131.688 25.5997 131.118 21.8797 133.288 22.2697C134.839 22.756 136.433 23.0909 138.048 23.2697C141.118 23.5497 143.558 23.2697 145.538 21.0697C145.758 21.0197 146.488 20.9897 146.748 20.9697C146.839 22.0271 146.866 23.089 146.828 24.1497C146.896 27.3597 146.339 30.5524 145.188 33.5497C143.598 37.3597 141.398 38.2797 141.398 38.2797C141.347 38.2992 141.3 38.3287 141.261 38.3664C141.221 38.4042 141.19 38.4495 141.168 38.4997C141.078 38.7297 141.048 38.4997 142.928 42.7097C143.328 46.3397 132.578 47.8197 131.188 42.1197L131.528 39.2097C131.568 38.9997 130.378 32.7797 129.428 30.9097H129.458ZM107.458 48.9097C110.62 52.0491 112.799 56.0418 113.728 60.3997C114.318 63.3997 114.068 65.9197 113.088 67.6497C112.446 68.7609 111.644 69.7718 110.708 70.6497C109.727 71.6527 108.53 72.4187 107.208 72.8897C104.432 73.908 101.453 74.2507 98.5182 73.8897C94.6148 73.3963 90.7607 72.5699 86.9982 71.4197C86.9982 71.1197 86.9382 70.7997 86.9082 70.4197L90.3582 69.1597C91.0189 68.9758 91.6589 68.7245 92.2682 68.4097C92.6182 68.2297 92.6482 67.6997 92.6882 67.2497C92.8582 65.6097 92.5182 65.8297 93.0182 65.4297C94.1382 64.5497 97.2182 63.6897 98.5582 63.3097C99.0082 63.1897 99.6582 63.0897 99.4582 62.6597C99.3948 62.0454 99.1433 61.4657 98.7382 60.9997C96.6282 52.0597 96.9882 52.0897 96.6482 52.1497C96.6251 52.1518 96.6027 52.159 96.5826 52.1706C96.5625 52.1823 96.5452 52.1982 96.5319 52.2172C96.5185 52.2363 96.5095 52.258 96.5054 52.2808C96.5013 52.3037 96.5023 52.3272 96.5082 52.3497C96.9582 55.0097 97.6282 58.4497 98.1082 60.7697L96.8682 60.5897C96.6582 60.5897 96.4482 60.5897 96.3982 60.4897C95.9982 59.6597 96.1682 58.6797 95.2082 58.1997C95.1082 58.1323 94.9952 58.0868 94.8765 58.0659C94.7579 58.0451 94.6361 58.0494 94.5192 58.0786C94.4023 58.1079 94.2928 58.1613 94.1979 58.2356C94.103 58.3099 94.0247 58.4032 93.9682 58.5097C93.4482 59.5097 94.0782 61.7497 93.9682 61.7197C93.4357 61.9379 92.878 62.0891 92.3082 62.1697C92.2852 62.0781 92.2442 61.992 92.1875 61.9164C92.1309 61.8409 92.0597 61.7774 91.9782 61.7297C89.9494 60.7381 87.8381 59.925 85.6682 59.2997C85.1982 55.3597 84.5782 50.3997 84.3582 48.7397C84.4349 48.704 84.5057 48.6568 84.5682 48.5997C84.9211 47.9036 85.18 47.1638 85.3382 46.3997C85.5082 46.5897 85.6482 46.7697 85.9582 46.6497C88.6711 44.6781 91.2348 42.5089 93.6282 40.1597C98.701 42.2535 103.378 45.1993 107.458 48.8697V48.9097ZM94.7982 58.9997C95.5182 59.4097 95.1282 60.6297 95.9382 61.2397C96.7498 61.4776 97.5925 61.5922 98.4382 61.5797C98.6365 61.9094 98.7626 62.2775 98.8082 62.6597C98.0282 62.8997 94.2382 63.7397 92.6582 64.8297C92.6259 64.0749 92.5424 63.3231 92.4082 62.5797C93.2282 62.5097 94.2582 62.5797 94.5582 62.0497C94.8582 61.5197 94.3482 58.7297 94.7982 58.9997ZM92.8682 39.9997C91.0782 41.5497 87.0682 44.8697 85.8682 45.7497C85.2682 45.0797 83.6982 43.2197 83.2582 42.5397C84.2582 41.6797 87.9582 39.1797 88.4982 38.8797C89.992 39.0571 91.4591 39.413 92.8682 39.9397V39.9997ZM77.1182 38.8097L81.9982 42.5697C81.2582 43.3597 79.4482 44.9297 78.6382 45.7497C77.4982 44.9297 74.3882 41.6397 72.6382 39.8197C74.1076 39.3844 75.6042 39.047 77.1182 38.8097ZM74.3982 25.5697C74.2582 25.3697 74.2382 25.4297 73.2182 24.8897C72.5482 24.3397 71.7382 23.8897 71.4382 23.0697C71.4382 22.3897 71.6482 21.5497 72.3582 21.5897C72.895 21.7134 73.3931 21.9675 73.8082 22.3297C74.2621 22.4785 74.75 22.4886 75.2096 22.3586C75.6693 22.2285 76.0796 21.9643 76.3882 21.5997C76.7347 20.9756 76.838 20.2454 76.6782 19.5497C77.3362 19.4908 77.9456 19.1789 78.3782 18.6797C78.5916 18.2481 78.7206 17.7797 78.7582 17.2997C79.6934 17.5654 80.6926 17.491 81.5782 17.0897C82.1835 16.8289 82.7359 16.4594 83.2082 15.9997C83.3128 16.2628 83.4506 16.5114 83.6182 16.7397C83.7737 16.9775 83.9905 17.1689 84.2457 17.2939C84.5008 17.4188 84.785 17.4726 85.0682 17.4497C85.4212 17.3937 85.7605 17.2715 86.0682 17.0897V17.4897C86.0629 17.7964 86.1249 18.1005 86.2498 18.3807C86.3747 18.6609 86.5594 18.9103 86.791 19.1115C87.0227 19.3126 87.2955 19.4605 87.5905 19.5449C87.8854 19.6292 88.1952 19.6479 88.4982 19.5997C88.4921 19.6662 88.4921 19.7331 88.4982 19.7997C88.5982 20.3397 88.3882 21.9697 89.1382 22.1597C89.8882 22.3497 89.4782 20.4797 90.9182 20.2497C91.1769 20.1865 91.4496 20.216 91.6889 20.3329C91.9282 20.4498 92.119 20.6468 92.2282 20.8897C92.5082 21.7897 92.2282 22.1897 91.7582 23.0797L91.4482 23.4297C90.9682 23.9497 90.4482 24.4997 90.4482 24.9997C90.4781 26.5293 90.1886 28.0483 89.5982 29.4597C89.09 30.8903 88.1973 32.1532 87.0182 33.1097C86.9595 33.1548 86.9138 33.2147 86.8857 33.2831C86.8576 33.3516 86.8481 33.4263 86.8582 33.4997L87.6782 38.3097L82.4982 41.8297C81.5882 41.1297 82.7982 42.1697 77.8182 38.3197L78.3582 33.6697C78.3674 33.5843 78.3516 33.4982 78.3125 33.4218C78.2734 33.3454 78.2128 33.2821 78.1382 33.2397C74.5482 31.2297 74.8282 26.2597 74.3982 25.5697ZM62.7982 44.4697C65.5341 42.5104 68.5751 41.0169 71.7982 40.0497C73.6289 42.1561 75.5752 44.1592 77.6282 46.0497C78.0682 46.4297 78.6282 46.8997 79.0182 46.4997C79.1582 46.3397 79.3682 46.1297 79.6082 45.8897C79.8577 46.7574 80.1514 47.6119 80.4882 48.4497C80.528 48.5238 80.5821 48.5893 80.6473 48.6425C80.7125 48.6957 80.7876 48.7355 80.8682 48.7597C80.7582 50.0497 80.4882 53.7597 80.1782 57.8697C77.0055 57.1887 73.7612 56.8999 70.5182 57.0097C70.5182 56.7497 70.8382 53.6697 70.8482 53.5697C70.8482 53.0297 70.8482 52.3197 70.9082 52.0397C70.9201 51.9959 70.9142 51.9492 70.8917 51.9098C70.8692 51.8704 70.8319 51.8416 70.7882 51.8297C70.7444 51.8177 70.6977 51.8237 70.6583 51.8462C70.619 51.8687 70.5901 51.9059 70.5782 51.9497C69.6882 53.7597 69.8482 55.0397 69.9682 57.0397C67.7314 57.1503 65.5389 57.7043 63.5182 58.6697C63.4771 58.6909 63.4461 58.7276 63.432 58.7716C63.4179 58.8157 63.422 58.8636 63.4432 58.9047C63.4644 58.9458 63.5011 58.9768 63.5452 58.9908C63.5892 59.0049 63.6371 59.0009 63.6782 58.9797C70.6782 55.5597 83.3782 58.7997 90.1282 61.7097C90.5991 61.9026 91.0568 62.1264 91.4982 62.3797C91.8062 63.9565 91.9004 65.5677 91.7782 67.1697C91.7782 67.6197 91.7782 67.7297 90.9782 68.0397C90.4082 68.2697 89.7282 68.4297 89.3082 68.5897C87.9382 69.0997 86.6182 69.5897 85.3082 70.0897C77.9133 72.4631 70.3571 74.3012 62.6982 75.5897C60.2082 75.5897 56.9282 75.1297 55.0982 73.4097C47.1782 65.9997 55.4582 49.5097 62.7982 44.4697ZM25.3182 35.9997C24.3888 35.4637 23.595 34.7212 22.9982 33.8297C21.4382 31.4097 21.4182 27.4497 21.6782 24.5897C23.0753 24.1549 24.3453 23.386 25.3782 22.3497C26.4962 21.2072 27.4731 19.9348 28.2882 18.5597L28.8482 17.4797C29.862 20.0728 31.597 22.3214 33.8482 23.9597C34.6309 24.318 35.4777 24.5152 36.3382 24.5397C36.3186 25.324 36.4026 26.1074 36.5882 26.8697C36.6082 26.9101 36.6362 26.9459 36.6705 26.9751C36.7049 27.0042 36.7448 27.026 36.7879 27.0391C36.831 27.0522 36.8763 27.0564 36.9211 27.0513C36.9659 27.0463 37.0091 27.0321 37.0482 27.0097C37.4882 26.7697 37.6582 25.4797 38.3382 24.5897C38.5182 24.3397 38.7282 24.1497 38.9882 24.2097C39.2624 24.2517 39.5228 24.3579 39.7482 24.5197C40.7482 25.2597 39.9482 28.2197 38.0782 29.1397C37.5182 29.4197 34.5982 32.8197 34.4082 33.8897C34.2831 34.4774 34.3141 35.0877 34.4982 35.6597C34.5582 36.5297 34.6582 37.6597 34.7282 38.6597C32.8782 38.6597 28.3682 38.6597 26.5182 38.7497C26.6082 36.2797 26.6582 36.5397 25.3182 35.9997ZM43.9982 145.79H36.4482C37.5982 131.55 38.9982 96.6297 38.6982 84.2597C40.0315 84.1997 41.2315 84.1197 42.2982 84.0197C44.5782 95.8097 45.8482 134.26 43.9982 145.79ZM18.9982 144.88C17.9182 132.95 18.9982 94.2297 21.8582 83.8797C22.3582 83.9497 25.9382 84.2697 25.9382 84.2697C24.4182 96.4897 22.8582 131.56 23.3982 145.27C21.7782 145.15 20.2982 145 18.9382 144.88H18.9982ZM30.0582 83.5397L26.2982 83.3897C26.2895 82.3119 26.3664 81.2352 26.5282 80.1697L27.8782 80.0697L30.7982 79.9997C30.6544 81.1989 30.4068 82.3833 30.0582 83.5397ZM18.4782 80.2497L25.7182 80.1097C25.5154 81.2111 25.4217 82.3298 25.4382 83.4497C22.7214 83.4277 20.0128 83.1498 17.3482 82.6197C18.0882 80.9997 18.3982 80.4497 18.4782 80.2497ZM26.6282 145.45C26.2982 132.97 28.3282 94.7897 29.6282 84.3197C30.9982 84.3197 32.0182 84.3897 34.8582 84.3197C34.8582 89.0597 33.4382 139.82 33.1082 145.67C31.3982 145.67 27.0682 145.48 26.6282 145.45ZM30.8282 83.5497C31.0736 82.3824 31.1942 81.1924 31.1882 79.9997C37.7582 79.8797 44.1882 79.7197 47.0882 80.1097C47.4833 80.8064 47.8178 81.5357 48.0882 82.2897C42.4382 83.4997 36.0982 83.5497 30.8282 83.5497ZM11.9982 143.5C10.2682 142.4 9.70819 111.36 11.8282 98.9797C12.9064 93.4385 14.698 88.0605 17.1582 82.9797L18.2082 83.1997C15.4082 93.3097 14.2882 130.05 15.6782 144.41C14.4154 144.278 13.177 143.971 11.9982 143.5ZM26.4682 188.5C23.6882 188.88 22.1882 189.1 21.0982 189.34C20.4727 189.398 19.8472 189.228 19.3382 188.86C20.1582 188.37 20.3382 188.44 20.3382 187.97C20.4282 186.03 18.4482 149.47 18.2082 145.6C22.7682 146.12 28.4682 146.4 33.0282 146.53C31.4782 156.07 27.1782 183.61 26.4382 188.53L26.4682 188.5ZM48.8482 186.44C46.3082 187.15 44.7182 187.61 43.6482 188.01C43.0359 188.155 42.3915 188.069 41.8382 187.77C42.5582 187.2 42.7082 187.24 42.6682 186.77C42.4882 184.77 35.4382 148.6 35.0382 146.59C40.6982 146.71 46.0382 146.65 49.5082 146.41C49.2782 157.64 48.8782 181.86 48.8182 186.47L48.8482 186.44ZM51.3882 91.2297C54.7282 103.06 55.0682 139.23 52.8182 145.04C51.9782 145.46 48.2082 145.62 47.2882 145.66C49.2882 133.21 48.2882 95.6597 45.9982 83.5297C46.9382 83.3797 47.7782 83.2197 48.5582 83.0497C49.6682 86.0797 51.1282 90.4397 51.3582 91.2597L51.3882 91.2297ZM44.3282 61.9997C43.8982 61.6097 43.4782 61.2597 43.1182 60.8797C43.0903 60.8439 43.0494 60.8206 43.0044 60.815C42.9594 60.8093 42.914 60.8218 42.8782 60.8497C42.8424 60.8775 42.8191 60.9184 42.8135 60.9635C42.8079 61.0085 42.8203 61.0539 42.8482 61.0897C44.5582 63.8897 46.9282 65.2397 48.1982 66.3897C47.8782 67.6097 47.5482 74.9197 47.1982 79.2497C44.5582 78.6397 30.7682 79.3597 26.1382 79.3597C26.0327 79.3612 25.932 79.4043 25.8582 79.4797C22.2182 79.6497 19.3482 79.8197 18.5482 79.8697C18.0682 78.7497 17.4682 76.9397 17.0982 75.7897C18.7198 76.0809 20.3815 76.0673 21.9982 75.7497C22.026 76.3576 22.1579 76.9563 22.3882 77.5197C22.8882 77.9597 39.5282 76.7697 40.0582 76.6597C40.4182 76.5797 40.4282 76.0797 40.4582 75.6597C40.5482 74.6597 40.6082 72.4597 40.6482 69.8797C40.803 69.8179 40.9425 69.7233 41.057 69.6024C41.1716 69.4814 41.2586 69.337 41.3118 69.1791C41.3651 69.0212 41.3834 68.8536 41.3655 68.688C41.3476 68.5223 41.2939 68.3625 41.2082 68.2197C41.3252 68.0707 41.4105 67.8995 41.4589 67.7164C41.5072 67.5333 41.5177 67.3422 41.4896 67.1549C41.4615 66.9677 41.3955 66.7881 41.2955 66.6273C41.1955 66.4664 41.0637 66.3277 40.9082 66.2197C41.0375 66.0936 41.1358 65.9394 41.1956 65.769C41.2553 65.5986 41.2748 65.4167 41.2525 65.2376C41.2302 65.0584 41.1668 64.8868 41.0672 64.7362C40.9675 64.5857 40.8344 64.4602 40.6782 64.3697C40.6782 60.7597 40.6782 57.2397 40.5482 55.2697C40.4882 53.6497 40.4382 53.4697 40.1882 53.2697C39.6982 52.9697 37.5882 53.0897 36.6382 53.1297C36.6513 52.7056 36.5363 52.2874 36.3082 51.9297C35.8482 51.4797 33.8182 51.9297 32.6382 51.9297C32.3782 51.0997 32.2482 50.4797 31.3282 50.0497C30.8753 49.8897 30.3792 49.9034 29.9359 50.0881C29.4925 50.2729 29.1335 50.6155 28.9282 51.0497C28.9282 51.1497 28.6382 51.9697 28.5782 52.2397C27.5051 52.3209 26.437 52.4577 25.3782 52.6497C24.9982 52.7697 24.9682 53.5697 24.9582 54.1297C21.1482 54.5297 20.8982 54.5297 20.8282 54.9197C20.7582 55.3097 21.0382 61.6697 21.0582 62.1997C20.1232 62.3183 19.1976 62.5021 18.2882 62.7497C18.4774 61.5077 18.5909 60.2554 18.6282 58.9997C18.6282 58.4497 18.6782 56.0997 18.3482 56.0897C18.0182 56.0797 17.8182 58.3897 17.7882 58.8497C17.7282 59.5497 17.6382 62.1597 17.6882 62.9397C17.2682 63.0697 16.8682 63.2097 16.4582 63.3697C16.4158 63.3856 16.3814 63.4177 16.3626 63.459C16.3439 63.5002 16.3423 63.5472 16.3582 63.5897C16.3741 63.6321 16.4062 63.6665 16.4475 63.6852C16.4887 63.704 16.5358 63.7056 16.5782 63.6897C22.2282 61.7397 29.8782 62.8297 34.0682 64.9297L34.2582 69.1397C30.6382 71.6697 24.8782 74.7997 20.4782 75.3597C19.1806 75.5097 17.8686 75.4827 16.5782 75.2797C8.99819 74.2997 5.08819 68.8697 5.63819 61.0697C6.06819 54.9997 7.99819 49.1297 12.6582 45.2397C15.6582 42.7497 21.3882 41.8997 25.2882 42.2397C26.2882 42.3197 25.7482 40.1597 26.0082 39.3797C26.3882 39.3197 27.5982 39.2997 28.0082 39.2897C27.9586 39.9788 27.9586 40.6706 28.0082 41.3597C28.0082 41.6497 28.2182 42.7397 28.4782 42.6597C28.7382 42.5797 28.8382 41.7297 28.8482 41.4897C28.8582 41.2497 28.8482 41.2197 28.7582 39.2897H32.0882C32.0479 39.9557 32.0479 40.6236 32.0882 41.2897C32.0882 41.5797 32.2982 42.6697 32.5582 42.5897C32.8182 42.5097 32.9182 41.6597 32.9282 41.4197C32.9382 41.1797 32.9282 40.6797 32.8382 39.3097H35.2782C35.3782 39.6338 35.4321 39.9705 35.4382 40.3097C35.4382 41.4697 35.2382 41.6397 35.4382 41.8697C35.9782 42.4797 40.8782 40.0597 55.2082 51.9897C52.5382 56.4897 50.4282 62.3797 51.2082 67.5697C48.8782 65.9997 49.3282 66.4897 44.3282 61.9997ZM21.7782 62.0897C21.6782 58.7397 21.5982 55.6797 21.5982 55.3097C22.3882 55.1897 24.1782 55.0097 24.9682 54.9297C24.9682 56.3997 25.0282 56.4997 25.9682 56.5997C27.7582 56.8097 35.6482 56.5997 36.4782 55.8897C36.5535 55.8287 36.612 55.7495 36.6482 55.6597C36.7116 55.1087 36.725 54.5531 36.6882 53.9997C37.6641 53.9446 38.6423 53.9446 39.6182 53.9997C39.8082 55.7797 39.8282 62.3497 39.8282 64.1397C39.4527 64.143 39.0793 64.1968 38.7182 64.2997C38.8582 63.4797 39.0682 62.1497 38.2382 61.9697C38.016 61.9061 37.7801 61.9092 37.5596 61.9785C37.3392 62.0479 37.144 62.1804 36.9982 62.3597C36.5651 63.0276 36.3103 63.7953 36.2582 64.5897C35.8003 64.5912 35.3428 64.5645 34.8882 64.5097C34.8727 64.4556 34.846 64.4053 34.8099 64.3623C34.7737 64.3192 34.7288 64.2842 34.6782 64.2597C30.6507 62.3932 26.1926 61.6536 21.7782 62.1197V62.0897ZM40.5782 67.6197C40.1882 67.8497 39.9382 67.6897 39.2382 67.7797C39.1294 67.7797 39.0252 67.8229 38.9483 67.8998C38.8714 67.9766 38.8282 68.0809 38.8282 68.1897C38.8282 68.2984 38.8714 68.4027 38.9483 68.4796C39.0252 68.5565 39.1294 68.5997 39.2382 68.5997C39.5707 68.6337 39.9057 68.6337 40.2382 68.5997C40.3182 68.5997 40.6082 68.6597 40.6082 68.7397C40.6082 69.6497 38.8182 69.2997 38.0282 68.8397C37.0495 68.7797 36.0675 68.8742 35.1182 69.1197L34.9182 64.9997C35.4623 65.1454 36.0297 65.1827 36.5882 65.1097C36.6656 65.0664 36.723 64.9946 36.7482 64.9097C36.9782 64.0697 37.1682 62.5197 38.0482 62.7397C38.0999 63.3694 38.0355 64.0032 37.8582 64.6097C37.7582 65.2297 37.9982 65.3697 38.4682 65.3297C38.8882 65.141 39.3387 65.0293 39.7982 64.9997C40.0582 64.9997 40.3182 64.9997 40.3982 65.2997C40.4782 65.5997 40.2182 65.7097 39.9682 65.7997C39.7182 65.8897 38.7382 66.0297 38.6382 66.0497C38.5393 66.0808 38.455 66.1466 38.4008 66.235C38.3466 66.3233 38.3262 66.4283 38.3432 66.5305C38.3603 66.6327 38.4137 66.7254 38.4936 66.7914C38.5735 66.8574 38.6746 66.8923 38.7782 66.8897C39.9882 66.7597 39.7782 66.6997 40.1382 66.7797C40.295 66.8164 40.4343 66.9061 40.5327 67.0336C40.631 67.1611 40.6824 67.3187 40.6782 67.4797C40.6799 67.5147 40.6713 67.5494 40.6535 67.5796C40.6358 67.6098 40.6096 67.6341 40.5782 67.6497V67.6197ZM35.0682 69.5297C35.9501 69.413 36.8386 69.3528 37.7282 69.3497C38.3524 69.7438 39.0703 69.9647 39.8082 69.9897C39.8082 71.7797 39.8082 74.9897 39.6882 75.9297C37.5082 76.1597 24.7982 77.3997 22.6182 77.1997C22.5028 76.6861 22.4259 76.1647 22.3882 75.6397C27.9082 74.4997 34.7882 70.0897 35.0682 69.5597V69.5297ZM71.0682 192.04C69.9284 192.114 68.7838 192.053 67.6582 191.86V191.36C67.6466 191.24 67.5893 191.129 67.4982 191.05C67.2282 190.84 67.4382 190.99 60.4382 191.88L58.1482 192.14C57.9282 192.14 57.6782 192.25 57.6782 192.14C57.1382 192 56.3482 191.05 56.6782 190.7C58.5469 189.2 60.5184 187.834 62.5782 186.61C65.6882 186.98 69.4082 187.24 71.7082 187.31C71.6064 188.909 71.3959 190.499 71.0782 192.07L71.0682 192.04ZM104.858 186.28C105.788 186.28 106.718 186.23 107.608 186.18C108.958 187.01 113.418 189.76 114.518 190.89C114.698 191.08 114.518 191.45 114.358 191.66C113.718 192.54 113.228 192.32 113.048 192.3C111.348 192.16 105.718 191.37 104.048 191.13C103.99 191.121 103.931 191.125 103.874 191.14C103.818 191.156 103.765 191.182 103.719 191.219C103.673 191.255 103.635 191.301 103.607 191.353C103.58 191.404 103.563 191.461 103.558 191.52V192.02C102.437 192.223 101.295 192.286 100.158 192.21C99.7538 190.262 99.5461 188.279 99.5382 186.29C99.5182 186 99.2182 186.41 104.868 186.31L104.858 186.28ZM99.9982 85.3997C94.8682 85.3997 70.4682 86.0097 66.3082 86.4797C66.2082 84.7797 65.0482 77.7897 64.7682 76.1097C69.5945 75.2791 74.3744 74.1976 79.0882 72.8697C78.9707 73.5497 78.9404 74.242 78.9982 74.9297C80.2035 76.3851 81.5427 77.7243 82.9982 78.9297C83.0734 78.9891 83.1634 79.027 83.2585 79.0393C83.3536 79.0517 83.4503 79.0379 83.5382 78.9997C84.9681 77.806 86.1942 76.3874 87.1682 74.7997C87.2098 73.9725 87.1527 73.1433 86.9982 72.3297C89.7782 73.3297 97.3182 74.9097 101.098 74.8497C100.918 76.9197 100.158 84.3397 99.9982 85.3997ZM110.598 94.6297C113.158 76.9997 115.548 71.1597 115.598 69.8597C117.183 69.1706 118.658 68.2543 119.978 67.1397C120.497 66.6792 120.985 66.1848 121.438 65.6597C121.608 65.4997 121.378 65.2497 121.218 65.3997C121.058 65.5497 120.668 65.7597 120.388 65.9397C116.988 68.2197 116.208 69.0497 112.218 70.4697C113.09 69.6089 113.75 68.5582 114.148 67.3997C115.898 61.4897 113.488 55.3997 109.658 50.6097C114.225 47.7885 119.083 45.4684 124.148 43.6897C126.146 43.0201 128.192 42.5052 130.268 42.1497C130.343 42.5873 130.481 43.0117 130.678 43.4097C132.278 53.2397 129.118 81.8497 127.238 91.3497C126.148 96.8697 124.068 104.92 121.678 110.07C121.519 110.451 121.328 110.819 121.108 111.17C119.848 111.59 111.008 110.85 109.638 110.72C108.618 108.87 110.308 96.7697 110.618 94.6297H110.598ZM152.898 186.63H145.308C145.308 186.33 139.668 146.44 139.508 145.89C140.148 141.78 144.508 119.73 144.358 114.22C144.358 114.175 144.34 114.131 144.308 114.099C144.277 114.068 144.233 114.05 144.188 114.05C144.143 114.05 144.1 114.068 144.068 114.099C144.036 114.131 144.018 114.175 144.018 114.22C144.018 114.8 143.838 115.92 143.598 117.41C139.888 140.57 137.038 153.91 130.658 185.95L122.938 185.87C117.878 153.87 115.398 138.35 115.268 112.05C116.328 112.11 120.728 112.39 121.578 111.96C121.878 111.81 122.188 111.14 122.378 110.75C123.88 107.323 125.117 103.786 126.078 100.17C132.928 100.55 150.528 101.37 153.558 101.53C154.848 107.61 154.938 107.96 155.298 108.09C156.442 108.381 157.61 108.566 158.788 108.64C158.868 128.91 157.808 166.9 152.918 186.58L152.898 186.63ZM190.898 33.9897C189.518 37.2197 186.578 53.3797 173.118 62.8197C170.488 64.6597 165.698 65.3197 162.498 65.4097C162.353 63.8369 162.052 62.2825 161.598 60.7697C161.398 60.1497 161.098 59.4197 160.918 58.9797C160.899 58.9431 160.869 58.9141 160.831 58.8974C160.794 58.8807 160.752 58.8773 160.712 58.8878C160.672 58.8983 160.637 58.9221 160.613 58.9551C160.589 58.9882 160.576 59.0286 160.578 59.0697C161.128 63.4497 161.218 61.8997 161.818 65.8597C161.818 65.8597 163.468 77.0297 163.528 77.5797C164.298 84.5797 164.788 105.12 164.008 107.97C161.247 108.034 158.486 107.82 155.768 107.33C154.698 103.76 144.228 51.8997 143.998 43.1397C146.648 43.6197 156.868 47.2997 165.428 47.5697C173.068 47.7997 184.558 31.5697 184.658 31.5697C185.448 31.4297 189.808 33.2797 190.908 33.9397L190.898 33.9897ZM194.248 26.6997C194.168 27.9897 192.668 28.8597 191.558 29.5397C191.168 29.7897 190.288 32.7597 190.178 33.1797C188.796 32.534 187.377 31.9697 185.928 31.4897C186.928 29.9697 187.798 29.1697 187.418 28.8097C186.728 28.1797 185.418 27.3297 186.098 26.6197C186.182 26.6379 186.263 26.6682 186.338 26.7097C187.288 27.1597 188.048 28.3797 188.458 27.6297C188.641 26.7484 188.892 25.8825 189.208 25.0397C189.738 23.8097 190.068 24.0397 189.938 25.2397C189.825 26.0599 189.62 26.8649 189.328 27.6397C189.294 27.7484 189.304 27.8664 189.356 27.9677C189.409 28.0689 189.499 28.1452 189.608 28.1797C189.717 28.2141 189.835 28.204 189.936 28.1515C190.037 28.099 190.114 28.0084 190.148 27.8997C190.398 27.0148 190.772 26.1698 191.258 25.3897C191.748 24.6697 192.338 24.4897 192.318 24.9797C192.163 25.8581 191.822 26.6933 191.318 27.4297C191.189 27.6093 191.11 27.8197 191.088 28.0397C191.072 28.1331 191.089 28.2292 191.135 28.3117C191.182 28.3942 191.256 28.458 191.344 28.4922C191.433 28.5264 191.53 28.5289 191.62 28.4992C191.71 28.4696 191.787 28.4097 191.838 28.3297C192.139 27.9098 192.473 27.5151 192.838 27.1497C193.428 26.5697 194.288 26.1697 194.258 26.6497L194.248 26.6997Z" fill="black"/>
<path d="M81.6285 27.48C82.0385 28.41 84.2785 27.83 83.8385 27.36C83.8067 27.3283 83.7635 27.3105 83.7186 27.3105C83.6736 27.3105 83.6304 27.3283 83.5985 27.36C83.4652 27.4029 83.3219 27.4029 83.1886 27.36C82.9157 27.3209 82.6498 27.2435 82.3986 27.13V23.37C82.3891 23.3308 82.3667 23.2958 82.3349 23.2708C82.3032 23.2458 82.264 23.2322 82.2235 23.2322C82.1831 23.2322 82.1439 23.2458 82.1122 23.2708C82.0804 23.2958 82.058 23.3308 82.0486 23.37C81.6896 24.4624 81.537 25.6119 81.5985 26.76C81.5734 27.0002 81.5835 27.2428 81.6285 27.48ZM78.7286 25C78.7286 24.73 78.7285 24.44 78.6685 24.19C78.6489 24.0785 78.587 23.9788 78.4957 23.9118C78.4045 23.8447 78.2909 23.8155 78.1786 23.83C78.1218 23.8385 78.0672 23.8583 78.0182 23.8882C77.9692 23.9181 77.9266 23.9575 77.8931 24.0041C77.8595 24.0507 77.8356 24.1035 77.8228 24.1595C77.81 24.2155 77.8086 24.2735 77.8186 24.33C77.8186 24.51 77.8186 24.72 77.8686 25.06C77.8725 25.1165 77.8875 25.1717 77.9128 25.2223C77.938 25.273 77.973 25.3182 78.0157 25.3553C78.0584 25.3925 78.108 25.4208 78.1617 25.4388C78.2154 25.4568 78.2721 25.464 78.3286 25.46C78.385 25.4561 78.4402 25.4411 78.4908 25.4158C78.5415 25.3906 78.5867 25.3556 78.6238 25.3129C78.661 25.2702 78.6893 25.2206 78.7073 25.1669C78.7253 25.1132 78.7325 25.0565 78.7286 25ZM85.4786 24.93C85.4786 25.0441 85.5239 25.1535 85.6045 25.2341C85.6851 25.3147 85.7945 25.36 85.9086 25.36C86.0226 25.36 86.132 25.3147 86.2126 25.2341C86.2933 25.1535 86.3385 25.0441 86.3385 24.93V24.48C86.3958 24.3989 86.4239 24.3007 86.4183 24.2015C86.4126 24.1024 86.3736 24.008 86.3075 23.9338C86.2415 23.8597 86.1523 23.81 86.0544 23.793C85.9565 23.776 85.8558 23.7925 85.7685 23.84C85.3785 24.09 85.4786 24.59 85.4786 24.93ZM83.4586 31.11C83.099 31.3102 82.7205 31.4744 82.3286 31.6C82.1086 31.6 82.0586 31.91 82.3286 31.94C82.5825 32.0677 82.8645 32.1295 83.1486 32.12C83.4387 32.0857 83.7172 31.986 83.9632 31.8284C84.2092 31.6707 84.4162 31.4593 84.5686 31.21C84.6922 30.9448 84.7439 30.6516 84.7186 30.36C84.7278 30.315 84.7188 30.268 84.6935 30.2296C84.6682 30.1911 84.6286 30.1643 84.5836 30.155C84.5385 30.1458 84.4915 30.1548 84.4531 30.1801C84.4147 30.2054 84.3878 30.245 84.3785 30.29C84.1055 30.599 83.7967 30.8742 83.4586 31.11ZM139.279 31.79C140.039 32.03 141.279 32.19 141.809 31.59C142.339 30.99 142.049 29.43 141.989 28.77C141.864 27.474 141.582 26.198 141.149 24.97C141.139 24.925 141.112 24.8854 141.074 24.8601C141.036 24.8348 140.989 24.8258 140.944 24.835C140.898 24.8443 140.859 24.8711 140.834 24.9096C140.808 24.948 140.799 24.995 140.809 25.04C140.809 25.35 140.949 26.88 140.979 27.27C141.17 28.5439 141.237 29.8333 141.179 31.12C140.954 31.2718 140.697 31.3678 140.429 31.4C139.429 31.57 139.199 31.33 139.149 31.59C139.143 31.6118 139.141 31.6345 139.145 31.6567C139.148 31.679 139.157 31.7002 139.169 31.7191C139.181 31.738 139.197 31.7541 139.216 31.7663C139.235 31.7785 139.256 31.7866 139.279 31.79ZM137.589 25.2C137.589 24.88 136.669 24.72 136.069 24.85C135.469 24.98 134.649 25.61 134.879 25.85C135.109 26.09 137.549 25.49 137.589 25.2ZM136.929 27.59V28.45C136.929 28.5641 136.974 28.6735 137.054 28.7541C137.135 28.8347 137.245 28.88 137.359 28.88C137.473 28.88 137.582 28.8347 137.663 28.7541C137.743 28.6735 137.789 28.5641 137.789 28.45V27.62C137.791 27.505 137.749 27.3935 137.67 27.3094C137.592 27.2253 137.483 27.1752 137.369 27.17C137.255 27.1699 137.146 27.2135 137.064 27.2918C136.982 27.37 136.934 27.4769 136.929 27.59ZM145.459 25.61C145.539 25.49 145.219 24.85 144.459 24.61C143.699 24.37 143.119 24.75 143.119 24.93C143.119 25.11 145.309 25.83 145.459 25.61ZM136.499 33.93C136.269 34 136.269 35.44 137.639 35.85C138.339 36.05 139.289 35.94 139.309 35.69C139.329 35.44 137.949 35.1401 137.499 34.8301C137.049 34.5201 136.689 33.87 136.499 33.93ZM144.089 27C144.032 26.9987 143.976 27.0085 143.923 27.0289C143.871 27.0493 143.822 27.0799 143.782 27.1189C143.741 27.1579 143.708 27.2046 143.685 27.2562C143.662 27.3079 143.65 27.3636 143.649 27.42V28.27C143.664 28.3741 143.717 28.469 143.797 28.5376C143.877 28.6062 143.978 28.6439 144.084 28.6439C144.189 28.6439 144.291 28.6062 144.37 28.5376C144.45 28.469 144.503 28.3741 144.519 28.27V27.44C144.52 27.3827 144.51 27.3258 144.489 27.2724C144.468 27.2191 144.436 27.1705 144.396 27.1295C144.356 27.0885 144.308 27.0559 144.255 27.0337C144.203 27.0115 144.146 27 144.089 27Z" fill="black"/>
</svg>
