<svg width="24" height="24" viewBox="0 0 24 24" fill="none" xmlns="http://www.w3.org/2000/svg">
<path d="M10 22C9.45 22 8.97933 21.8043 8.588 21.413C8.19667 21.0217 8.00067 20.5507 8 20V19C8 18.7167 8.096 18.4793 8.288 18.288C8.48 18.0967 8.71733 18.0007 9 18C9.28267 17.9993 9.52033 18.0953 9.713 18.288C9.90567 18.4807 10.0013 18.718 10 19V20H20V10H19C18.7167 10 18.4793 9.904 18.288 9.712C18.0967 9.52 18.0007 9.28267 18 9C17.9993 8.71734 18.0953 8.48 18.288 8.288C18.4807 8.096 18.718 8 19 8H20C20.55 8 21.021 8.196 21.413 8.588C21.805 8.98 22.0007 9.45067 22 10V20C22 20.55 21.8043 21.021 21.413 21.413C21.0217 21.805 20.5507 22.0007 20 22H10ZM9 16C7.05 16 5.396 15.321 4.038 13.963C2.68 12.605 2.00067 10.9507 2 9C1.99933 7.04934 2.67867 5.39534 4.038 4.038C5.39733 2.68067 7.05133 2.00134 9 2C10.9487 1.99867 12.603 2.678 13.963 4.038C15.323 5.398 16.002 7.052 16 9C15.998 10.948 15.319 12.6023 13.963 13.963C12.607 15.3237 10.9527 16.0027 9 16ZM9 14C10.3833 14 11.5627 13.5123 12.538 12.537C13.5133 11.5617 14.0007 10.3827 14 9C13.9993 7.61734 13.5117 6.43833 12.537 5.463C11.5623 4.48767 10.3833 4 9 4C7.61667 4 6.43767 4.48767 5.463 5.463C4.48833 6.43833 4.00067 7.61734 4 9C3.99933 10.3827 4.487 11.562 5.463 12.538C6.439 13.514 7.618 14.0013 9 14Z" fill="black"/>
</svg>
