<svg width="24" height="24" viewBox="0 0 24 24" fill="none" xmlns="http://www.w3.org/2000/svg">
<path d="M7 23C6.45 23 5.97933 22.8043 5.588 22.413C5.19667 22.0217 5.00067 21.5507 5 21V3C5 2.45 5.196 1.97933 5.588 1.588C5.98 1.19667 6.45067 1.00067 7 1H17C17.55 1 18.021 1.196 18.413 1.588C18.805 1.98 19.0007 2.45067 19 3V6.1C19.3 6.21667 19.5417 6.4 19.725 6.65C19.9083 6.9 20 7.18333 20 7.5V9.5C20 9.81667 19.9083 10.1 19.725 10.35C19.5417 10.6 19.3 10.7833 19 10.9V21C19 21.55 18.8043 22.021 18.413 22.413C18.0217 22.805 17.5507 23.0007 17 23H7ZM7 21H17V3H7V21ZM12 6C12.2833 6 12.521 5.904 12.713 5.712C12.905 5.52 13.0007 5.28267 13 5C12.9993 4.71733 12.9033 4.48 12.712 4.288C12.5207 4.096 12.2833 4 12 4C11.7167 4 11.4793 4.096 11.288 4.288C11.0967 4.48 11.0007 4.71733 11 5C10.9993 5.28267 11.0953 5.52033 11.288 5.713C11.4807 5.90567 11.718 6.00133 12 6Z" fill="black"/>
</svg>
