<svg width="24" height="24" viewBox="0 0 24 24" fill="none" xmlns="http://www.w3.org/2000/svg">
<path d="M12 20C10.8933 20 9.85333 19.7899 8.88 19.3696C7.90667 18.9493 7.06 18.3795 6.34 17.66C5.62 16.9405 5.05013 16.0939 4.6304 15.12C4.21067 14.1461 4.00053 13.1061 4 12C3.99947 10.8939 4.2096 9.85387 4.6304 8.88C5.0512 7.90613 5.62107 7.05947 6.34 6.34C7.05893 5.62053 7.9056 5.05067 8.88 4.6304C9.8544 4.21013 10.8944 4 12 4C13.1056 4 14.1456 4.21013 15.12 4.6304C16.0944 5.05067 16.9411 5.62053 17.66 6.34C18.3789 7.05947 18.9491 7.90613 19.3704 8.88C19.7917 9.85387 20.0016 10.8939 20 12C19.9984 13.1061 19.7883 14.1461 19.3696 15.12C18.9509 16.0939 18.3811 16.9405 17.66 17.66C16.9389 18.3795 16.0923 18.9496 15.12 19.3704C14.1477 19.7912 13.1077 20.0011 12 20Z" fill="black"/>
</svg>
