<svg width="24" height="24" viewBox="0 0 24 24" fill="none" xmlns="http://www.w3.org/2000/svg">
<path d="M11 10H9C8.71667 10 8.47933 9.904 8.288 9.712C8.09667 9.52 8.00067 9.28267 8 9C7.99933 8.71733 8.09533 8.48 8.288 8.288C8.48067 8.096 8.718 8 9 8H15C15.2833 8 15.521 8.096 15.713 8.288C15.905 8.48 16.0007 8.71733 16 9C15.9993 9.28267 15.9033 9.52033 15.712 9.713C15.5207 9.90567 15.2833 10.0013 15 10H13V15C13 15.2833 12.904 15.521 12.712 15.713C12.52 15.905 12.2827 16.0007 12 16C11.7173 15.9993 11.48 15.9033 11.288 15.712C11.096 15.5207 11 15.2833 11 15V10ZM1 22V18C1 17.7167 1.096 17.4793 1.288 17.288C1.48 17.0967 1.71733 17.0007 2 17H3V7H2C1.71667 7 1.47933 6.904 1.288 6.712C1.09667 6.52 1.00067 6.28267 1 6V2C1 1.71667 1.096 1.47933 1.288 1.288C1.48 1.09667 1.71733 1.00067 2 1H6C6.28333 1 6.521 1.096 6.713 1.288C6.905 1.48 7.00067 1.71733 7 2V3H17V2C17 1.71667 17.096 1.47933 17.288 1.288C17.48 1.09667 17.7173 1.00067 18 1H22C22.2833 1 22.521 1.096 22.713 1.288C22.905 1.48 23.0007 1.71733 23 2V6C23 6.28333 22.904 6.521 22.712 6.713C22.52 6.905 22.2827 7.00067 22 7H21V17H22C22.2833 17 22.521 17.096 22.713 17.288C22.905 17.48 23.0007 17.7173 23 18V22C23 22.2833 22.904 22.521 22.712 22.713C22.52 22.905 22.2827 23.0007 22 23H18C17.7167 23 17.4793 22.904 17.288 22.712C17.0967 22.52 17.0007 22.2827 17 22V21H7V22C7 22.2833 6.904 22.521 6.712 22.713C6.52 22.905 6.28267 23.0007 6 23H2C1.71667 23 1.47933 22.904 1.288 22.712C1.09667 22.52 1.00067 22.2827 1 22ZM7 19H17V18C17 17.7167 17.096 17.4793 17.288 17.288C17.48 17.0967 17.7173 17.0007 18 17H19V7H18C17.7167 7 17.4793 6.904 17.288 6.712C17.0967 6.52 17.0007 6.28267 17 6V5H7V6C7 6.28333 6.904 6.521 6.712 6.713C6.52 6.905 6.28267 7.00067 6 7H5V17H6C6.28333 17 6.521 17.096 6.713 17.288C6.905 17.48 7.00067 17.7173 7 18V19ZM3 5H5V3H3V5ZM19 5H21V3H19V5ZM19 21H21V19H19V21ZM3 21H5V19H3V21Z" fill="black"/>
</svg>
