<svg width="24" height="24" viewBox="0 0 24 24" fill="none" xmlns="http://www.w3.org/2000/svg">
<path d="M17.95 17.35L20.775 14.525C20.9583 14.3417 21.1877 14.25 21.463 14.25C21.7383 14.25 21.9757 14.3417 22.175 14.525C22.375 14.725 22.475 14.9627 22.475 15.238C22.475 15.5133 22.375 15.7507 22.175 15.95L18.65 19.475C18.45 19.675 18.2167 19.775 17.95 19.775C17.6833 19.775 17.45 19.675 17.25 19.475L15.825 18.05C15.625 17.85 15.525 17.6167 15.525 17.35C15.525 17.0833 15.625 16.85 15.825 16.65C16.025 16.4667 16.2583 16.375 16.525 16.375C16.7917 16.375 17.025 16.4667 17.225 16.65L17.95 17.35ZM2 11C2 10.15 2.29167 9.43767 2.875 8.863C3.45833 8.28833 4.16667 8.00067 5 8H19C19.85 8 20.5627 8.28767 21.138 8.863C21.7133 9.43833 22.0007 10.1507 22 11C22 11.2833 21.904 11.521 21.712 11.713C21.52 11.905 21.2827 12.0007 21 12C20.7333 12 20.5 11.904 20.3 11.712C20.1 11.52 20 11.2827 20 11C20 10.7173 19.904 10.48 19.712 10.288C19.52 10.096 19.2827 10 19 10H5C4.71667 10 4.47933 10.096 4.288 10.288C4.09667 10.48 4.00067 10.7173 4 11V15H6C6 14.45 6.196 13.9793 6.588 13.588C6.98 13.1967 7.45067 13.0007 8 13H13C13.2833 13 13.521 13.096 13.713 13.288C13.905 13.48 14.0007 13.7173 14 14C13.9993 14.2827 13.9033 14.5203 13.712 14.713C13.5207 14.9057 13.2833 15.0013 13 15H8V19H13C13.2833 19 13.521 19.096 13.713 19.288C13.905 19.48 14.0007 19.7173 14 20C13.9993 20.2827 13.9033 20.5203 13.712 20.713C13.5207 20.9057 13.2833 21.0013 13 21H8C7.45 21 6.97933 20.8043 6.588 20.413C6.19667 20.0217 6.00067 19.5507 6 19V17H4C3.45 17 2.97933 16.8043 2.588 16.413C2.19667 16.0217 2.00067 15.5507 2 15V11ZM6 8V5C6 4.45 6.196 3.97933 6.588 3.588C6.98 3.19667 7.45067 3.00067 8 3H16C16.55 3 17.021 3.196 17.413 3.588C17.805 3.98 18.0007 4.45067 18 5V8H16V5H8V8H6Z" fill="black"/>
</svg>
