<svg width="24" height="24" viewBox="0 0 24 24" fill="none" xmlns="http://www.w3.org/2000/svg">
<path d="M4.5 11C4.06667 11 3.70834 10.8583 3.425 10.575C3.14167 10.2917 3 9.93333 3 9.5C3 9.06667 3.14167 8.70833 3.425 8.425C3.70834 8.14167 4.06667 8 4.5 8C4.93334 8 5.29167 8.14167 5.575 8.425C5.85834 8.70833 6 9.06667 6 9.5C6 9.93333 5.85834 10.2917 5.575 10.575C5.29167 10.8583 4.93334 11 4.5 11ZM6 20H14V15H12.25C11.0667 15 10.0627 14.5877 9.238 13.763C8.41334 12.9383 8.00067 11.934 8 10.75C8 9.86667 8.23767 9.079 8.713 8.387C9.18834 7.695 9.80067 7.18267 10.55 6.85C10.7333 5.76667 11.2377 4.85433 12.063 4.113C12.8883 3.37167 13.8673 3.00067 15 3C16.1327 2.99933 17.112 3.37033 17.938 4.113C18.764 4.85567 19.268 5.768 19.45 6.85C20.2 7.18333 20.8127 7.696 21.288 8.388C21.7633 9.08 22.0007 9.86733 22 10.75C22 11.9333 21.5877 12.9377 20.763 13.763C19.9383 14.5883 18.934 15.0007 17.75 15H16V20H20C20.2833 20 20.521 20.096 20.713 20.288C20.905 20.48 21.0007 20.7173 21 21C20.9993 21.2827 20.9033 21.5203 20.712 21.713C20.5207 21.9057 20.2833 22.0013 20 22H4C3.71667 22 3.47934 21.904 3.288 21.712C3.09667 21.52 3.00067 21.2827 3 21V17C2.81667 16.8167 2.604 16.671 2.362 16.563C2.12 16.455 1.99934 16.2673 2 16V13C2 12.7167 2.096 12.4793 2.288 12.288C2.48 12.0967 2.71734 12.0007 3 12H6C6.28334 12 6.521 12.096 6.713 12.288C6.905 12.48 7.00067 12.7173 7 13V16C7 16.2667 6.879 16.4543 6.637 16.563C6.395 16.6717 6.18267 16.8173 6 17V20Z" fill="black"/>
</svg>
