<svg width="24" height="24" viewBox="0 0 24 24" fill="none" xmlns="http://www.w3.org/2000/svg">
<path d="M9 18C8.45 18 7.97934 17.8043 7.588 17.413C7.19667 17.0217 7.00067 16.5507 7 16V4C7 3.45 7.196 2.97933 7.588 2.588C7.98 2.19667 8.45067 2.00067 9 2H18C18.55 2 19.021 2.196 19.413 2.588C19.805 2.98 20.0007 3.45067 20 4V16C20 16.55 19.8043 17.021 19.413 17.413C19.0217 17.805 18.5507 18.0007 18 18H9ZM9 16H18V4H9V16ZM4 8C3.71667 8 3.47934 7.904 3.288 7.712C3.09667 7.52 3.00067 7.28267 3 7C2.99934 6.71733 3.09534 6.48 3.288 6.288C3.48067 6.096 3.718 6 4 6C4.282 6 4.51967 6.096 4.713 6.288C4.90634 6.48 5.002 6.71733 5 7C4.998 7.28267 4.902 7.52033 4.712 7.713C4.522 7.90567 4.28467 8.00133 4 8ZM4 11.5C3.71667 11.5 3.47934 11.404 3.288 11.212C3.09667 11.02 3.00067 10.7827 3 10.5C2.99934 10.2173 3.09534 9.98 3.288 9.788C3.48067 9.596 3.718 9.5 4 9.5C4.282 9.5 4.51967 9.596 4.713 9.788C4.90634 9.98 5.002 10.2173 5 10.5C4.998 10.7827 4.902 11.0203 4.712 11.213C4.522 11.4057 4.28467 11.5013 4 11.5ZM4 15C3.71667 15 3.47934 14.904 3.288 14.712C3.09667 14.52 3.00067 14.2827 3 14C2.99934 13.7173 3.09534 13.48 3.288 13.288C3.48067 13.096 3.718 13 4 13C4.282 13 4.51967 13.096 4.713 13.288C4.90634 13.48 5.002 13.7173 5 14C4.998 14.2827 4.902 14.5203 4.712 14.713C4.522 14.9057 4.28467 15.0013 4 15ZM4 18.5C3.71667 18.5 3.47934 18.404 3.288 18.212C3.09667 18.02 3.00067 17.7827 3 17.5C2.99934 17.2173 3.09534 16.98 3.288 16.788C3.48067 16.596 3.718 16.5 4 16.5C4.282 16.5 4.51967 16.596 4.713 16.788C4.90634 16.98 5.002 17.2173 5 17.5C4.998 17.7827 4.902 18.0203 4.712 18.213C4.522 18.4057 4.28467 18.5013 4 18.5ZM4 22C3.71667 22 3.47934 21.904 3.288 21.712C3.09667 21.52 3.00067 21.2827 3 21C2.99934 20.7173 3.09534 20.48 3.288 20.288C3.48067 20.096 3.718 20 4 20C4.282 20 4.51967 20.096 4.713 20.288C4.90634 20.48 5.002 20.7173 5 21C4.998 21.2827 4.902 21.5203 4.712 21.713C4.522 21.9057 4.28467 22.0013 4 22ZM7.5 22C7.21667 22 6.97934 21.904 6.788 21.712C6.59667 21.52 6.50067 21.2827 6.5 21C6.49934 20.7173 6.59534 20.48 6.788 20.288C6.98067 20.096 7.218 20 7.5 20C7.782 20 8.01967 20.096 8.213 20.288C8.40634 20.48 8.502 20.7173 8.5 21C8.498 21.2827 8.402 21.5203 8.212 21.713C8.022 21.9057 7.78467 22.0013 7.5 22ZM11 22C10.7167 22 10.4793 21.904 10.288 21.712C10.0967 21.52 10.0007 21.2827 10 21C9.99934 20.7173 10.0953 20.48 10.288 20.288C10.4807 20.096 10.718 20 11 20C11.282 20 11.5197 20.096 11.713 20.288C11.9063 20.48 12.002 20.7173 12 21C11.998 21.2827 11.902 21.5203 11.712 21.713C11.522 21.9057 11.2847 22.0013 11 22ZM14.5 22C14.2167 22 13.9793 21.904 13.788 21.712C13.5967 21.52 13.5007 21.2827 13.5 21C13.4993 20.7173 13.5953 20.48 13.788 20.288C13.9807 20.096 14.218 20 14.5 20C14.782 20 15.0197 20.096 15.213 20.288C15.4063 20.48 15.502 20.7173 15.5 21C15.498 21.2827 15.402 21.5203 15.212 21.713C15.022 21.9057 14.7847 22.0013 14.5 22Z" fill="black"/>
</svg>
