<svg width="24" height="24" viewBox="0 0 24 24" fill="none" xmlns="http://www.w3.org/2000/svg">
<path d="M2.19995 16.06L3.87995 12L2.19995 7.93995L6.25995 6.25995L7.93995 2.19995L12 3.87995L16.06 2.19995L17.74 6.25995L21.7999 7.93995L20.12 12L21.7999 16.06L17.74 17.74L16.06 21.7999L12 20.12L7.93995 21.7999L6.25995 17.74L2.19995 16.06ZM4.80995 8.99995L6.04995 12L4.80995 15L7.78995 16.21L8.99995 19.19L12 17.95L15 19.19L16.21 16.21L19.19 15L17.95 12L19.19 8.99995L16.21 7.78995L15 4.80995L12 6.04995L8.99995 4.80995L7.78995 7.78995L4.80995 8.99995ZM11 15H13V17H11V15ZM11 6.99995H13V13H11V6.99995Z" fill="black"/>
</svg>
