<svg width="24" height="24" viewBox="0 0 24 24" fill="none" xmlns="http://www.w3.org/2000/svg">
<path d="M4.93001 4.93005C4.00002 5.85744 3.26244 6.95943 2.75962 8.17272C2.2568 9.38601 1.99865 10.6867 2.00001 12.0001C2.00001 14.7601 3.12001 17.2601 4.93001 19.0701L6.34001 17.6601C5.59466 16.9185 5.004 16.0364 4.6023 15.0648C4.20061 14.0931 3.99588 13.0514 4.00001 12.0001C4.00001 9.79005 4.89001 7.78005 6.34001 6.34005L4.93001 4.93005ZM19.07 4.93005L17.66 6.34005C18.4045 7.08224 18.9945 7.96453 19.3962 8.93599C19.7978 9.90745 20.003 10.9488 20 12.0001C20 14.2201 19.11 16.2201 17.66 17.6601L19.07 19.0701C20 18.1427 20.7376 17.0407 21.2404 15.8274C21.7432 14.6141 22.0014 13.3134 22 12.0001C22 9.24005 20.88 6.74005 19.07 4.93005ZM7.76001 7.76005C7.20181 8.31602 6.75896 8.9768 6.45693 9.70444C6.15489 10.4321 5.99961 11.2122 6.00001 12.0001C6.00001 13.6501 6.67001 15.1501 7.76001 16.2401L9.17001 14.8301C8.79867 14.4583 8.50421 14.017 8.30346 13.5315C8.10271 13.0459 7.99959 12.5255 8.00001 12.0001C8.00001 10.8901 8.45001 9.89005 9.17001 9.17005L7.76001 7.76005ZM16.24 7.76005L14.83 9.17005C15.2013 9.5418 15.4958 9.98307 15.6966 10.4687C15.8973 10.9542 16.0004 11.4746 16 12.0001C16 13.1101 15.55 14.1101 14.83 14.8301L16.24 16.2401C16.7982 15.6841 17.241 15.0233 17.5431 14.2957C17.8451 13.568 18.0004 12.7879 18 12.0001C18 10.3501 17.33 8.85005 16.24 7.76005ZM12 10.0001C11.4696 10.0001 10.9609 10.2108 10.5858 10.5858C10.2107 10.9609 10 11.4696 10 12.0001C10 12.5305 10.2107 13.0392 10.5858 13.4143C10.9609 13.7893 11.4696 14.0001 12 14.0001C12.5304 14.0001 13.0391 13.7893 13.4142 13.4143C13.7893 13.0392 14 12.5305 14 12.0001C14 11.4696 13.7893 10.9609 13.4142 10.5858C13.0391 10.2108 12.5304 10.0001 12 10.0001Z" fill="black"/>
</svg>
